M48
;DRILL file {kicad (2015-02-03 BZR 5404)-product} date Sat 07 Feb 2015 10:18:39 AM CST
;FORMAT={-:-/ absolute / inch / decimal}
FMAT,2
INCH,TZ
T1C0.013
T2C0.020
T3C0.040
%
G90
G05
M72
T1
X2.4841Y-4.5759
X2.5287Y-4.6205
X2.5732Y-4.4869
X2.5732Y-4.665
X2.6177Y-4.5314
X2.6623Y-4.5759
T2
X2.0981Y-4.2101
X2.1059Y-4.4182
X2.1242Y-4.1556
X2.1606Y-4.4504
X2.1617Y-4.1576
X2.1949Y-4.4663
X2.1962Y-4.1585
X2.2341Y-4.1588
X2.2714Y-4.1603
X2.2744Y-4.6719
X2.2943Y-4.4055
X2.3378Y-4.2724
X2.3492Y-4.5087
X2.3699Y-4.5404
X2.3722Y-4.6082
X2.3727Y-4.5734
X2.3774Y-4.1654
X2.3822Y-4.7494
X2.4203Y-4.6778
X2.4758Y-4.7191
X2.4861Y-4.2591
X2.5046Y-4.2913
X2.5283Y-4.4037
X2.5308Y-4.3707
X2.5562Y-4.3441
X2.5823Y-4.3928
X2.6292Y-4.4107
X2.6377Y-4.1638
X2.6521Y-4.4376
X2.6524Y-4.7217
X2.6867Y-4.4439
X2.697Y-4.3518
X2.6998Y-4.7047
X2.72Y-4.6476
X2.7687Y-4.6102
X2.7708Y-4.2873
X2.8024Y-4.5413
X2.8026Y-4.6826
X2.8462Y-4.5397
X2.8553Y-4.3421
X2.8792Y-4.5503
X2.882Y-4.5848
X2.909Y-4.2919
X3.0488Y-4.1601
X3.0955Y-4.3256
X3.1805Y-4.4667
X3.1807Y-4.538
X3.2152Y-4.7262
X3.2237Y-4.1797
X3.2319Y-4.2397
X3.2615Y-4.3651
X3.263Y-4.5303
X3.2672Y-4.6253
X3.2674Y-4.6583
X3.2692Y-4.5922
X3.2872Y-4.4969
X3.3148Y-4.2869
X3.3199Y-4.3244
X3.3237Y-4.4852
X3.3674Y-4.5363
X3.3708Y-4.7423
X3.3835Y-4.432
X3.3861Y-4.472
T3
X2.7545Y-4.7185
X2.8545Y-4.7185
X2.9545Y-4.7185
X3.0545Y-4.7185
X3.1545Y-4.7185
X3.4512Y-4.1899
X3.4512Y-4.2899
X3.4512Y-4.3899
X3.4512Y-4.4899
X3.4512Y-4.5899
X3.4512Y-4.6899
T0
M30
