G04 #@! TF.FileFunction,Copper,L1,Top,Signal*
%FSLAX46Y46*%
G04 Gerber Fmt 4.6, Leading zero omitted, Abs format (unit mm)*
G04 Created by KiCad (PCBNEW (2015-02-03 BZR 5404)-product) date Sat 07 Feb 2015 10:18:25 AM CST*
%MOMM*%
G01*
G04 APERTURE LIST*
%ADD10C,0.100000*%
%ADD11R,1.800000X1.000000*%
%ADD12R,2.032000X2.032000*%
%ADD13O,2.032000X2.032000*%
%ADD14R,0.600000X0.500000*%
%ADD15R,0.350000X0.300000*%
%ADD16R,0.300000X0.350000*%
%ADD17R,0.500000X0.600000*%
%ADD18R,0.800000X0.750000*%
%ADD19R,0.750000X0.800000*%
%ADD20R,0.400000X0.800000*%
%ADD21R,0.630000X0.830000*%
%ADD22R,0.800100X0.800100*%
%ADD23R,0.350000X1.000000*%
%ADD24R,1.524000X1.524000*%
%ADD25C,1.524000*%
%ADD26R,0.325000X0.300000*%
%ADD27R,0.950000X0.613000*%
%ADD28R,0.600000X0.400000*%
%ADD29R,0.400000X0.600000*%
%ADD30R,1.400000X1.050000*%
%ADD31O,1.000760X0.248920*%
%ADD32O,0.248920X1.000760*%
%ADD33R,2.999740X2.999740*%
%ADD34R,1.000760X0.701040*%
%ADD35R,0.500000X0.280000*%
%ADD36R,0.900000X1.600000*%
%ADD37R,0.950000X0.850000*%
%ADD38R,2.235200X2.235200*%
%ADD39C,0.280000*%
%ADD40C,0.685800*%
%ADD41C,0.762000*%
%ADD42C,0.254000*%
%ADD43C,0.457200*%
%ADD44C,0.279800*%
%ADD45C,0.152400*%
G04 APERTURE END LIST*
D10*
D11*
X52383600Y-119648000D03*
X52383600Y-114748000D03*
D12*
X87660500Y-108963000D03*
D13*
X87660500Y-106423000D03*
D14*
X66854600Y-120720000D03*
X67954600Y-120720000D03*
D10*
G36*
X71132718Y-116058264D02*
X70779164Y-116411818D01*
X70354900Y-115987554D01*
X70708454Y-115634000D01*
X71132718Y-116058264D01*
X71132718Y-116058264D01*
G37*
G36*
X70354900Y-115280446D02*
X70001346Y-115634000D01*
X69577082Y-115209736D01*
X69930636Y-114856182D01*
X70354900Y-115280446D01*
X70354900Y-115280446D01*
G37*
D15*
X55508300Y-115121000D03*
X55508300Y-114571000D03*
D16*
X57570600Y-113653000D03*
X57020600Y-113653000D03*
D17*
X55685500Y-118956000D03*
X55685500Y-117856000D03*
X54605500Y-118956000D03*
X54605500Y-117856000D03*
D18*
X77367700Y-106575000D03*
X75867700Y-106575000D03*
D14*
X75877700Y-105625000D03*
X74777700Y-105625000D03*
D17*
X81398600Y-108258000D03*
X81398600Y-109358000D03*
X80770100Y-118004000D03*
X80770100Y-116904000D03*
D19*
X74797700Y-108215000D03*
X74797700Y-106715000D03*
D14*
X77534500Y-114779000D03*
X76434500Y-114779000D03*
X71207700Y-105265000D03*
X70107700Y-105265000D03*
D17*
X75340100Y-117764000D03*
X75340100Y-116664000D03*
X69257700Y-107945000D03*
X69257700Y-106845000D03*
D19*
X74230200Y-117404000D03*
X74230200Y-115904000D03*
X68177700Y-107535000D03*
X68177700Y-106035000D03*
D14*
X83500500Y-119473000D03*
X82400500Y-119473000D03*
X85640500Y-119463000D03*
X84540500Y-119463000D03*
D20*
X62183000Y-110240000D03*
X62183000Y-108590000D03*
X61323000Y-110240000D03*
X61323000Y-108590000D03*
D21*
X80778600Y-111408000D03*
X79178600Y-111408000D03*
D22*
X77317840Y-108276960D03*
X77317840Y-109679040D03*
X79316820Y-108978000D03*
X84429460Y-110863760D03*
X85831540Y-110863760D03*
X85130500Y-108864780D03*
D23*
X57013900Y-120078000D03*
X57763900Y-120078000D03*
X58513900Y-120078000D03*
X58513900Y-117278000D03*
X57763900Y-117278000D03*
X57013900Y-117278000D03*
D24*
X80124300Y-119850000D03*
D25*
X77584300Y-119850000D03*
X75044300Y-119850000D03*
X72504300Y-119850000D03*
X69964300Y-119850000D03*
D12*
X87660500Y-119123000D03*
D13*
X87660500Y-116583000D03*
D26*
X85223000Y-113263000D03*
X85223000Y-112613000D03*
X85223000Y-111963000D03*
X83398000Y-111963000D03*
X83398000Y-112613000D03*
X83398000Y-113263000D03*
D27*
X84310500Y-113079500D03*
X84310500Y-112146500D03*
D28*
X62965400Y-110040000D03*
X62965400Y-110940000D03*
X60474600Y-109610000D03*
X60474600Y-110510000D03*
D29*
X66948500Y-109174000D03*
X66048500Y-109174000D03*
X66931900Y-110238000D03*
X66031900Y-110238000D03*
X62098400Y-120736000D03*
X62998400Y-120736000D03*
X54735500Y-119916000D03*
X55635500Y-119916000D03*
D28*
X77968600Y-110478000D03*
X77968600Y-111378000D03*
D29*
X79438600Y-110188000D03*
X80338600Y-110188000D03*
D28*
X80288600Y-108258000D03*
X80288600Y-109158000D03*
X75907700Y-108425000D03*
X75907700Y-107525000D03*
D29*
X79659500Y-113723000D03*
X78759500Y-113723000D03*
X78754800Y-112685000D03*
X79654800Y-112685000D03*
X78380100Y-114884000D03*
X79280100Y-114884000D03*
X71986000Y-109067000D03*
X72886000Y-109067000D03*
D28*
X76340100Y-117744000D03*
X76340100Y-116844000D03*
D29*
X76260800Y-115706000D03*
X75360800Y-115706000D03*
D28*
X70237700Y-107875000D03*
X70237700Y-106975000D03*
D29*
X70217700Y-106065000D03*
X69317700Y-106065000D03*
X83348700Y-108803000D03*
X82448700Y-108803000D03*
X83331100Y-109611000D03*
X82431100Y-109611000D03*
X82400500Y-113413000D03*
X81500500Y-113413000D03*
D28*
X82270500Y-112483000D03*
X82270500Y-111583000D03*
D30*
X83737900Y-106651000D03*
X80137900Y-106651000D03*
X83737900Y-105201000D03*
X80137900Y-105201000D03*
D31*
X58150460Y-110882140D03*
X58150460Y-110381760D03*
X58150460Y-109881380D03*
X58150460Y-109381000D03*
X58150460Y-108880620D03*
X58150460Y-108380240D03*
X58150460Y-107879860D03*
D32*
X57152240Y-106881640D03*
X56651860Y-106881640D03*
X56151480Y-106881640D03*
X55651100Y-106881640D03*
X55150720Y-106881640D03*
X54650340Y-106881640D03*
X54149960Y-106881640D03*
D31*
X53151740Y-107879860D03*
X53151740Y-108380240D03*
X53151740Y-108880620D03*
X53151740Y-109381000D03*
X53151740Y-109881380D03*
X53151740Y-110381760D03*
X53151740Y-110882140D03*
D32*
X54149960Y-111880360D03*
X54650340Y-111880360D03*
X55150720Y-111880360D03*
X55651100Y-111880360D03*
X56151480Y-111880360D03*
X56651860Y-111880360D03*
X57152240Y-111880360D03*
D33*
X55651100Y-109381000D03*
D34*
X77320100Y-117916500D03*
X77320100Y-116964000D03*
X77320100Y-116011500D03*
X79860100Y-116011500D03*
X79860100Y-116964000D03*
X79860100Y-117916500D03*
X71207700Y-107997500D03*
X71207700Y-107045000D03*
X71207700Y-106092500D03*
X73747700Y-106092500D03*
X73747700Y-107045000D03*
X73747700Y-107997500D03*
D35*
X83740500Y-117243000D03*
X83740500Y-117743000D03*
X83740500Y-118243000D03*
X83740500Y-118743000D03*
D36*
X84690500Y-117993000D03*
D35*
X85640500Y-118743000D03*
X85640500Y-118243000D03*
X85640500Y-117743000D03*
X85640500Y-117243000D03*
D37*
X56354900Y-115560000D03*
X57804900Y-115560000D03*
X57804900Y-114410000D03*
X56354900Y-114410000D03*
D38*
X87660500Y-114043000D03*
X87660500Y-111503000D03*
D39*
X61462942Y-115514823D02*
X61865992Y-115917873D01*
X61816495Y-115161269D02*
X62219545Y-115564319D01*
X62170049Y-114807716D02*
X62573099Y-115210766D01*
X62523602Y-114454162D02*
X62926652Y-114857212D01*
X62877156Y-114100609D02*
X63280206Y-114503659D01*
X63230709Y-113747056D02*
X63633759Y-114150106D01*
X63584262Y-113393502D02*
X63987312Y-113796552D01*
X63937816Y-113039949D02*
X64340866Y-113442999D01*
X64291369Y-112686395D02*
X64694419Y-113089445D01*
X64644923Y-112332842D02*
X65047973Y-112735892D01*
X69255258Y-115514823D02*
X68852208Y-115917873D01*
X68901705Y-115161269D02*
X68498655Y-115564319D01*
X68548151Y-114807716D02*
X68145101Y-115210766D01*
X68194598Y-114454162D02*
X67791548Y-114857212D01*
X67841044Y-114100609D02*
X67437994Y-114503659D01*
X67487491Y-113747056D02*
X67084441Y-114150106D01*
X67133938Y-113393502D02*
X66730888Y-113796552D01*
X66780384Y-113039949D02*
X66377334Y-113442999D01*
X66426831Y-112686395D02*
X66023781Y-113089445D01*
X66073277Y-112332842D02*
X65670227Y-112735892D01*
D10*
G36*
X65359100Y-113471284D02*
X68116816Y-116229000D01*
X65359100Y-118986716D01*
X62601384Y-116229000D01*
X65359100Y-113471284D01*
X65359100Y-113471284D01*
G37*
D39*
X66073277Y-120125158D02*
X65670227Y-119722108D01*
X66426831Y-119771605D02*
X66023781Y-119368555D01*
X66780384Y-119418051D02*
X66377334Y-119015001D01*
X67133938Y-119064498D02*
X66730888Y-118661448D01*
X67487491Y-118710944D02*
X67084441Y-118307894D01*
X67841044Y-118357391D02*
X67437994Y-117954341D01*
X68194598Y-118003838D02*
X67791548Y-117600788D01*
X68548151Y-117650284D02*
X68145101Y-117247234D01*
X68901705Y-117296731D02*
X68498655Y-116893681D01*
X69255258Y-116943177D02*
X68852208Y-116540127D01*
X61865992Y-116540127D02*
X61462942Y-116943177D01*
X62219545Y-116893681D02*
X61816495Y-117296731D01*
X62573099Y-117247234D02*
X62170049Y-117650284D01*
X62926652Y-117600788D02*
X62523602Y-118003838D01*
X63280206Y-117954341D02*
X62877156Y-118357391D01*
X63633759Y-118307894D02*
X63230709Y-118710944D01*
X63987312Y-118661448D02*
X63584262Y-119064498D01*
X64340866Y-119015001D02*
X63937816Y-119418051D01*
X64694419Y-119368555D02*
X64291369Y-119771605D01*
X65047973Y-119722108D02*
X64644923Y-120125158D01*
D40*
X63096358Y-116229000D03*
X64227729Y-117360371D03*
X65359100Y-118491742D03*
X67621842Y-116229000D03*
X66490471Y-115097629D03*
X65359100Y-113966258D03*
D41*
X83493900Y-114221000D03*
X85618200Y-120454000D03*
X81881800Y-106164000D03*
X77440700Y-105666000D03*
X86007500Y-113590000D03*
X85530700Y-115221000D03*
X82880800Y-115070200D03*
X82841500Y-110874000D03*
X73887600Y-109014000D03*
X81666800Y-120045100D03*
X71182000Y-115349000D03*
X60509100Y-120634000D03*
X55751100Y-113445000D03*
X73201800Y-116454000D03*
X57770100Y-118665000D03*
X67370600Y-119931000D03*
X60386500Y-105802000D03*
X55783200Y-105626000D03*
X53293000Y-106937000D03*
X66997700Y-105760000D03*
X70378900Y-108898000D03*
D40*
X68574000Y-119498200D03*
X71186000Y-118937900D03*
X60265500Y-116164000D03*
D41*
X56744900Y-105633000D03*
X59381300Y-108519500D03*
X53488700Y-112221600D03*
X53955400Y-105551000D03*
X57693100Y-105672000D03*
X65589900Y-111576000D03*
X62886300Y-119866000D03*
X61476200Y-118816000D03*
X60252700Y-117048000D03*
X70324700Y-117099000D03*
D40*
X59670600Y-114521000D03*
X72294300Y-115308000D03*
X68504200Y-110535000D03*
X64281600Y-111015000D03*
D41*
X84326600Y-109841000D03*
X84422400Y-113923000D03*
X85941300Y-112574000D03*
X84196300Y-108886000D03*
D40*
X54878200Y-113041000D03*
X63146500Y-108182000D03*
X58276200Y-111900000D03*
X63616600Y-109000000D03*
X60195900Y-115325000D03*
X73132900Y-115578000D03*
X82090000Y-107689000D03*
X64927900Y-110339000D03*
X80784900Y-113455000D03*
X66782900Y-112033000D03*
X69087800Y-118049400D03*
X54906500Y-105602000D03*
X83037300Y-116643000D03*
X68241800Y-112875000D03*
X82986200Y-117482000D03*
X67362100Y-112716000D03*
X64218600Y-111854000D03*
X82993100Y-118321000D03*
X72525300Y-110289500D03*
X78626000Y-109870000D03*
X80789200Y-115264000D03*
D42*
X54735500Y-119916000D02*
X52383600Y-119648000D01*
X54605500Y-118956000D02*
X54735500Y-119916000D01*
X80770100Y-118004000D02*
X81250600Y-117389200D01*
X81250600Y-117389200D02*
X81310600Y-117270800D01*
X81310600Y-117270800D02*
X82267700Y-114707400D01*
X82267700Y-114707400D02*
X82645100Y-114372800D01*
X82645100Y-114372800D02*
X83493900Y-114221000D01*
D43*
X85130500Y-108865000D02*
X87660500Y-108963000D01*
X87660500Y-108963000D02*
X83737900Y-106651000D01*
D44*
X85640500Y-118743000D02*
X85589500Y-118842000D01*
D42*
X80770100Y-118004000D02*
X79860100Y-117916000D01*
X75907700Y-107525000D02*
X77367700Y-106575000D01*
D45*
X79659500Y-113723000D02*
X78845800Y-114477000D01*
X78845800Y-114477000D02*
X78809000Y-115279000D01*
X78809000Y-115279000D02*
X78755900Y-115368000D01*
X78755900Y-115368000D02*
X78714900Y-115532000D01*
X78714900Y-115532000D02*
X78713100Y-116636000D01*
X78713100Y-116636000D02*
X78749700Y-116714000D01*
X78749700Y-116714000D02*
X79192800Y-117495000D01*
X79192800Y-117495000D02*
X79860100Y-117916000D01*
D42*
X83737900Y-106651000D02*
X81881800Y-106164000D01*
D43*
X85589500Y-118842000D02*
X85640500Y-119463000D01*
X85640500Y-119463000D02*
X85618200Y-120454000D01*
D42*
X75877700Y-105625000D02*
X76383600Y-105920000D01*
X76383600Y-105920000D02*
X77367700Y-106575000D01*
X77367700Y-106575000D02*
X77440700Y-105666000D01*
D43*
X85530700Y-115221000D02*
X82880200Y-115069000D01*
D42*
X81398600Y-109358000D02*
X82431100Y-109611000D01*
X82270500Y-111583000D02*
X82841500Y-110874000D01*
X82431100Y-109611000D02*
X82841500Y-110874000D01*
X79280100Y-114884000D02*
X80139200Y-114159000D01*
X80139200Y-114159000D02*
X80161300Y-113148000D01*
X80161300Y-113148000D02*
X80548800Y-112793000D01*
X80548800Y-112793000D02*
X82270500Y-111583000D01*
X79654800Y-112685000D02*
X80778600Y-111408000D01*
X80288600Y-109158000D02*
X80338600Y-110188000D01*
X79860100Y-116964000D02*
X79305500Y-116703000D01*
X79305500Y-116703000D02*
X79080000Y-116478000D01*
X79080000Y-116478000D02*
X79080000Y-115570000D01*
X79080000Y-115570000D02*
X79164900Y-115426000D01*
X79164900Y-115426000D02*
X79280100Y-114884000D01*
X81398600Y-109358000D02*
X80288600Y-109158000D01*
X72886000Y-109067000D02*
X73887600Y-109014000D01*
X73747700Y-107045000D02*
X73131400Y-107367000D01*
X73131400Y-107367000D02*
X72979200Y-107520000D01*
X72979200Y-107520000D02*
X72906500Y-107995000D01*
X72906500Y-107995000D02*
X72886000Y-109067000D01*
D43*
X84690500Y-117993000D02*
X84990600Y-117049000D01*
X84990600Y-117049000D02*
X85530700Y-115221000D01*
D42*
X80778600Y-111408000D02*
X82270500Y-111583000D01*
X74797700Y-106715000D02*
X75867700Y-106575000D01*
X80770100Y-116904000D02*
X79860100Y-116964000D01*
D43*
X85103900Y-117244000D02*
X84690500Y-117993000D01*
X84540500Y-119463000D02*
X84690500Y-117993000D01*
D44*
X85640500Y-117243000D02*
X85227600Y-117272000D01*
X85227600Y-117272000D02*
X85166000Y-117272000D01*
D43*
X85166000Y-117272000D02*
X85104500Y-117272000D01*
X85104500Y-117272000D02*
X84690500Y-117993000D01*
X85223000Y-113263000D02*
X86007500Y-113590000D01*
X83398000Y-111963000D02*
X82841500Y-110874000D01*
D42*
X74777700Y-105625000D02*
X74797700Y-106715000D01*
X74797700Y-106715000D02*
X73747700Y-107045000D01*
X82400500Y-119473000D02*
X81666800Y-120045100D01*
X65359100Y-113966300D02*
X65359100Y-116229000D01*
X65359100Y-113966000D02*
X65359100Y-113966300D01*
X65359100Y-118491700D02*
X65359100Y-116229000D01*
X65359100Y-118492000D02*
X65359100Y-118491700D01*
X73201800Y-116454000D02*
X72462900Y-116160000D01*
X72462900Y-116160000D02*
X71874300Y-115825000D01*
X71874300Y-115825000D02*
X71182000Y-115349000D01*
X74230200Y-115904000D02*
X74226700Y-115906000D01*
X74226700Y-115906000D02*
X73212900Y-116474000D01*
X73212900Y-116474000D02*
X73201800Y-116454000D01*
X69053700Y-115716000D02*
X69054200Y-115716000D01*
X69054200Y-115716000D02*
X69966000Y-115245000D01*
X69966000Y-115245000D02*
X71182000Y-115349000D01*
X61323000Y-108590000D02*
X60058700Y-109130000D01*
X60058700Y-109130000D02*
X59913000Y-109276000D01*
X59913000Y-109276000D02*
X58907700Y-112131000D01*
X58907700Y-112131000D02*
X58831600Y-112237000D01*
X58831600Y-112237000D02*
X58587100Y-112473000D01*
X58587100Y-112473000D02*
X58238000Y-112725000D01*
X58238000Y-112725000D02*
X57304500Y-113198000D01*
X57304500Y-113198000D02*
X57140900Y-113362000D01*
X57140900Y-113362000D02*
X57020600Y-113653000D01*
X63096400Y-116229000D02*
X63156000Y-116225000D01*
X63156000Y-116225000D02*
X65359100Y-116229000D01*
X60509100Y-120634000D02*
X58499700Y-120898000D01*
X58499700Y-120898000D02*
X58293300Y-120880000D01*
X58293300Y-120880000D02*
X58121400Y-120789000D01*
X58121400Y-120789000D02*
X57763900Y-120078000D01*
X62098400Y-120736000D02*
X60509100Y-120634000D01*
X64227700Y-117360000D02*
X65359100Y-116229000D01*
X66490500Y-115098000D02*
X65359100Y-116229000D01*
X67621800Y-116229000D02*
X65359100Y-116229000D01*
X67954600Y-120720000D02*
X67370600Y-119931000D01*
X55508300Y-114571000D02*
X55619800Y-113738000D01*
X55619800Y-113738000D02*
X55751100Y-113445000D01*
X57763900Y-117278000D02*
X57013900Y-117278000D01*
X55508300Y-114571000D02*
X56354900Y-114410000D01*
X56354900Y-114410000D02*
X56945800Y-114855000D01*
X56945800Y-114855000D02*
X57159500Y-115069000D01*
X57159500Y-115069000D02*
X57804900Y-115560000D01*
X57013900Y-117278000D02*
X55685500Y-117856000D01*
X57763900Y-117278000D02*
X57763900Y-118058000D01*
X57763900Y-118058000D02*
X57770000Y-118684000D01*
X57770000Y-118684000D02*
X57770100Y-118684000D01*
X57770100Y-118684000D02*
X57770100Y-118665000D01*
X57770000Y-118684000D02*
X57763900Y-119298000D01*
X57763900Y-119298000D02*
X57763900Y-120078000D01*
X62183000Y-108590000D02*
X61323000Y-108590000D01*
X76434500Y-114779000D02*
X77109800Y-114256000D01*
X77109800Y-114256000D02*
X77173900Y-114249000D01*
X77173900Y-114249000D02*
X77950400Y-114249000D01*
X77950400Y-114249000D02*
X78114200Y-114413000D01*
X78114200Y-114413000D02*
X78380100Y-114884000D01*
X75360800Y-115706000D02*
X75633100Y-115367000D01*
X75633100Y-115367000D02*
X76434500Y-114779000D01*
X74230200Y-115904000D02*
X75360800Y-115706000D01*
X56354900Y-114410000D02*
X57020600Y-113653000D01*
X55685500Y-117856000D02*
X54605500Y-117856000D01*
X52620700Y-109325000D02*
X52372800Y-109120000D01*
X52372800Y-109120000D02*
X52335700Y-108283000D01*
X52335700Y-108283000D02*
X52371400Y-107760000D01*
X52371400Y-107760000D02*
X52430800Y-107603000D01*
X52430800Y-107603000D02*
X53293000Y-106937000D01*
X53151700Y-110382000D02*
X52627800Y-110290000D01*
X52627800Y-110290000D02*
X52431600Y-110143000D01*
X52431600Y-110143000D02*
X52320900Y-109906000D01*
X52320900Y-109906000D02*
X52382300Y-109703000D01*
X52382300Y-109703000D02*
X52608100Y-109446000D01*
X52608100Y-109446000D02*
X52620700Y-109325000D01*
X55651100Y-106882000D02*
X55783200Y-105626000D01*
X53151700Y-109381000D02*
X52620700Y-109325000D01*
X70378900Y-108898000D02*
X71986000Y-109067000D01*
X66986400Y-105824000D02*
X60386500Y-105802000D01*
X68177700Y-106035000D02*
X66986400Y-105824000D01*
X66986400Y-105824000D02*
X66997700Y-105760000D01*
X68177700Y-106035000D02*
X69181200Y-106060000D01*
X69181200Y-106060000D02*
X69317700Y-106065000D01*
X69317700Y-106065000D02*
X70107700Y-105265000D01*
X70743800Y-116023000D02*
X69053700Y-116742000D01*
D45*
X68574000Y-119498200D02*
X69241000Y-119052500D01*
X69241000Y-119052500D02*
X69607500Y-118838900D01*
X69607500Y-118838900D02*
X70504500Y-118863300D01*
X70504500Y-118863300D02*
X71186000Y-118937900D01*
X60265500Y-116164000D02*
X61664500Y-115716000D01*
D42*
X56354900Y-115560000D02*
X57190700Y-116246000D01*
X57190700Y-116246000D02*
X57622300Y-116353000D01*
X57622300Y-116353000D02*
X58804800Y-116498000D01*
X58804800Y-116498000D02*
X58937200Y-116628000D01*
X58937200Y-116628000D02*
X58969400Y-116702000D01*
X58969400Y-116702000D02*
X59067400Y-117393000D01*
X59067400Y-117393000D02*
X59642900Y-118076000D01*
X59642900Y-118076000D02*
X59936000Y-118155000D01*
X59936000Y-118155000D02*
X60704900Y-118155000D01*
X60704900Y-118155000D02*
X61852100Y-117802000D01*
X61852100Y-117802000D02*
X62371600Y-117449000D01*
X56354900Y-115560000D02*
X55508300Y-115121000D01*
X62018000Y-117095000D02*
X61772700Y-117288000D01*
X61772700Y-117288000D02*
X61441500Y-117432000D01*
X61441500Y-117432000D02*
X60348100Y-117748000D01*
X60348100Y-117748000D02*
X60179300Y-117748000D01*
X60179300Y-117748000D02*
X59897900Y-117673000D01*
X59897900Y-117673000D02*
X59563700Y-117320000D01*
X59563700Y-117320000D02*
X59361200Y-116577000D01*
X59361200Y-116577000D02*
X58780900Y-115290000D01*
X58780900Y-115290000D02*
X58454300Y-114887000D01*
X58454300Y-114887000D02*
X57804900Y-114410000D01*
X57570600Y-113653000D02*
X57804900Y-114410000D01*
X57013900Y-120078000D02*
X55635500Y-119916000D01*
X55635500Y-119916000D02*
X55685500Y-118956000D01*
X56151500Y-106882000D02*
X56237100Y-106392000D01*
X56237100Y-106392000D02*
X56392700Y-106095000D01*
X56392700Y-106095000D02*
X56744900Y-105633000D01*
X59810300Y-106402600D02*
X60596600Y-106535000D01*
X60596600Y-106535000D02*
X68177700Y-107535000D01*
X59372500Y-108504400D02*
X59806800Y-106402000D01*
X59806800Y-106402000D02*
X59810300Y-106402600D01*
X57693100Y-105672000D02*
X59814200Y-106379600D01*
X59814200Y-106379600D02*
X59810300Y-106402600D01*
X58150500Y-110882000D02*
X58658900Y-110799000D01*
X58658900Y-110799000D02*
X58857700Y-110662000D01*
X58857700Y-110662000D02*
X58959200Y-110505000D01*
X58959200Y-110505000D02*
X59372500Y-108504400D01*
X59381300Y-108519500D02*
X59381300Y-108506200D01*
X59381300Y-108506200D02*
X59372500Y-108504400D01*
X54150000Y-111880400D02*
X53488700Y-112221600D01*
X66948500Y-109174000D02*
X66931900Y-110238000D01*
X68177700Y-107535000D02*
X66948500Y-109174000D01*
X56651900Y-106882000D02*
X57152200Y-106882000D01*
X57152200Y-106882000D02*
X57679100Y-105790000D01*
X57679100Y-105790000D02*
X57693100Y-105672000D01*
X53955400Y-105551000D02*
X53964800Y-105563000D01*
X53964800Y-105563000D02*
X54554200Y-106338000D01*
X54554200Y-106338000D02*
X54650300Y-106882000D01*
X68177700Y-107535000D02*
X69257700Y-107945000D01*
X69257700Y-107945000D02*
X70237700Y-107875000D01*
X70237700Y-107875000D02*
X71207700Y-107998000D01*
X73747700Y-107998000D02*
X74443200Y-108142000D01*
X74443200Y-108142000D02*
X74797700Y-108215000D01*
X74797700Y-108215000D02*
X75907700Y-108425000D01*
X77320100Y-116012000D02*
X77534500Y-114787000D01*
X77534500Y-114787000D02*
X77534500Y-114779000D01*
X71207700Y-105265000D02*
X71207700Y-106092000D01*
X70324700Y-117099000D02*
X72721600Y-117296000D01*
X72721600Y-117296000D02*
X74230200Y-117404000D01*
X65871800Y-112534000D02*
X65589900Y-111576000D01*
X65495300Y-119251000D02*
X65369100Y-119316000D01*
X65369100Y-119316000D02*
X65094700Y-119254000D01*
X65094700Y-119254000D02*
X64853500Y-119319000D01*
X64853500Y-119319000D02*
X64492900Y-119570000D01*
X64492900Y-119570000D02*
X64139300Y-119216000D01*
X64139300Y-119216000D02*
X63740600Y-119506000D01*
X63740600Y-119506000D02*
X62886300Y-119866000D01*
X62124100Y-116298000D02*
X61754900Y-116669000D01*
X61754900Y-116669000D02*
X61664500Y-116742000D01*
X61664500Y-116742000D02*
X60252700Y-117048000D01*
X65377700Y-113047000D02*
X64687600Y-113725000D01*
X64687600Y-113725000D02*
X62124100Y-116298000D01*
X61476200Y-118816000D02*
X62725100Y-117802000D01*
X62725100Y-117802000D02*
X62987300Y-117446000D01*
X62987300Y-117446000D02*
X63000300Y-117199000D01*
X63000300Y-117199000D02*
X62994700Y-117034000D01*
X62994700Y-117034000D02*
X62459300Y-116531000D01*
X62459300Y-116531000D02*
X62263300Y-116409000D01*
X62263300Y-116409000D02*
X62210400Y-116384000D01*
X62210400Y-116384000D02*
X62124100Y-116298000D01*
X68256300Y-116795000D02*
X68256000Y-116796000D01*
X68256000Y-116796000D02*
X68005900Y-116822000D01*
X68005900Y-116822000D02*
X67928700Y-116870000D01*
X67928700Y-116870000D02*
X67858400Y-116938000D01*
X67858400Y-116938000D02*
X65605100Y-119194000D01*
X65605100Y-119194000D02*
X65495300Y-119251000D01*
X66854600Y-120720000D02*
X65871800Y-119924000D01*
X65871800Y-119924000D02*
X65638500Y-119588000D01*
X65638500Y-119588000D02*
X65533100Y-119324000D01*
X65533100Y-119324000D02*
X65495300Y-119251000D01*
X70324700Y-117099000D02*
X69587300Y-117363000D01*
X69587300Y-117363000D02*
X68998500Y-117379000D01*
X68998500Y-117379000D02*
X68700200Y-117095000D01*
X68700200Y-117095000D02*
X68360700Y-116826000D01*
X68360700Y-116826000D02*
X68256300Y-116795000D01*
X65377700Y-113047000D02*
X68351400Y-116040000D01*
X68351400Y-116040000D02*
X68438000Y-116179000D01*
X68438000Y-116179000D02*
X68256300Y-116795000D01*
X65377700Y-113047000D02*
X65871800Y-112535000D01*
X80124300Y-119850000D02*
X77890700Y-118306000D01*
X77890700Y-118306000D02*
X77800300Y-118243000D01*
X77800300Y-118243000D02*
X77320100Y-117916000D01*
X77320100Y-117916000D02*
X76340100Y-117744000D01*
X64139300Y-119217000D02*
X63785800Y-118863000D01*
X80124300Y-119850000D02*
X81951000Y-118974000D01*
X81951000Y-118974000D02*
X82025700Y-118943000D01*
X82025700Y-118943000D02*
X82816400Y-118943000D01*
X82816400Y-118943000D02*
X83500500Y-119473000D01*
X74230200Y-117404000D02*
X75340100Y-117764000D01*
X76340100Y-117744000D02*
X75340100Y-117764000D01*
X83740500Y-118743000D02*
X83500500Y-119473000D01*
X76340100Y-116844000D02*
X75340100Y-116664000D01*
X76260800Y-115706000D02*
X76340100Y-116844000D01*
X76340100Y-116844000D02*
X77320100Y-116964000D01*
X70237700Y-106975000D02*
X71207700Y-107045000D01*
X70217700Y-106065000D02*
X70237700Y-106975000D01*
X69257700Y-106845000D02*
X70237700Y-106975000D01*
X62183000Y-110240000D02*
X62965400Y-110040000D01*
X61323000Y-110240000D02*
X60474600Y-109610000D01*
D45*
X77968600Y-111378000D02*
X74658200Y-111904000D01*
X74658200Y-111904000D02*
X74014200Y-112614000D01*
X74014200Y-112614000D02*
X72294300Y-115308000D01*
X59670600Y-114521000D02*
X60305200Y-114753000D01*
X60305200Y-114753000D02*
X60385000Y-114753000D01*
X60385000Y-114753000D02*
X61969300Y-114793000D01*
X61969300Y-114793000D02*
X62371600Y-115009000D01*
X79178600Y-111408000D02*
X77968600Y-111378000D01*
X79438600Y-110188000D02*
X79352500Y-110576000D01*
X79352500Y-110576000D02*
X79178600Y-111408000D01*
X68504200Y-110535000D02*
X71493100Y-110861300D01*
X71493100Y-110861300D02*
X72777400Y-110861300D01*
X72777400Y-110861300D02*
X76082500Y-108984500D01*
X76082500Y-108984500D02*
X76084500Y-108983500D01*
X76084500Y-108983500D02*
X77317800Y-108277000D01*
X64139300Y-113242000D02*
X63706200Y-112415000D01*
X63706200Y-112415000D02*
X63613300Y-111848000D01*
X63613300Y-111848000D02*
X63666400Y-111504000D01*
X63666400Y-111504000D02*
X64281600Y-111015000D01*
D42*
X80137900Y-105201000D02*
X79198000Y-105936800D01*
X79198000Y-105936800D02*
X77997700Y-108792800D01*
X77997700Y-108792800D02*
X77317800Y-109679000D01*
D45*
X77317800Y-109679000D02*
X77820900Y-110293000D01*
X77820900Y-110293000D02*
X77968600Y-110478000D01*
D43*
X84429500Y-110864000D02*
X84310400Y-112146000D01*
X84310400Y-112146000D02*
X84310500Y-112146000D01*
X84310500Y-112146000D02*
X85223000Y-111963000D01*
X87660500Y-111503000D02*
X85625500Y-111812000D01*
X85625500Y-111812000D02*
X85223000Y-111963000D01*
X84413400Y-113952000D02*
X85691700Y-114353000D01*
X85691700Y-114353000D02*
X86262000Y-114353000D01*
X86262000Y-114353000D02*
X87660500Y-114043000D01*
X83398000Y-113263000D02*
X84158500Y-113110000D01*
X84158500Y-113110000D02*
X84310500Y-113080000D01*
X84310500Y-113080000D02*
X84413300Y-113952000D01*
X84413300Y-113952000D02*
X84413400Y-113952000D01*
X84413400Y-113952000D02*
X84422400Y-113923000D01*
D42*
X85831500Y-110864000D02*
X84938100Y-110154000D01*
X84938100Y-110154000D02*
X84326600Y-109841000D01*
X63432200Y-118509000D02*
X62612600Y-119205000D01*
X62612600Y-119205000D02*
X61903900Y-119914000D01*
X61903900Y-119914000D02*
X61859200Y-119925000D01*
X61859200Y-119925000D02*
X60235400Y-119973000D01*
X60235400Y-119973000D02*
X58513900Y-120078000D01*
X63078700Y-118156000D02*
X61719800Y-119515000D01*
X61719800Y-119515000D02*
X61060400Y-119487000D01*
X61060400Y-119487000D02*
X59389100Y-118430000D01*
X59389100Y-118430000D02*
X58902100Y-117930000D01*
X58902100Y-117930000D02*
X58513900Y-117278000D01*
D45*
X72504300Y-119850000D02*
X71739800Y-118682900D01*
X71739800Y-118682900D02*
X71423000Y-118366100D01*
X71423000Y-118366100D02*
X70949100Y-118366100D01*
X70949100Y-118366100D02*
X69589700Y-118505000D01*
X69589700Y-118505000D02*
X69325400Y-118620900D01*
X69325400Y-118620900D02*
X67807400Y-118749200D01*
X67807400Y-118749200D02*
X67691800Y-118716600D01*
X67691800Y-118716600D02*
X67286000Y-118509400D01*
X66932400Y-118863000D02*
X67827700Y-119458900D01*
X67827700Y-119458900D02*
X67933100Y-119608400D01*
X67933100Y-119608400D02*
X68056300Y-119839800D01*
X68056300Y-119839800D02*
X68333000Y-120078900D01*
X68333000Y-120078900D02*
X68544700Y-120134600D01*
X68544700Y-120134600D02*
X69964300Y-119850000D01*
D43*
X87660500Y-119123000D02*
X86163800Y-118268000D01*
X86163800Y-118268000D02*
X86085100Y-118258000D01*
D44*
X86085100Y-118258000D02*
X85640500Y-118243000D01*
D43*
X87660500Y-116583000D02*
X86177900Y-117652000D01*
D44*
X85640500Y-117743000D02*
X86177900Y-117652000D01*
D42*
X83348700Y-108803000D02*
X84196300Y-108886000D01*
X83348700Y-108803000D02*
X83348700Y-108808000D01*
X83348700Y-108808000D02*
X83331100Y-109611000D01*
X85223000Y-112613000D02*
X85941300Y-112574000D01*
X82400500Y-113413000D02*
X82270500Y-112483000D01*
X82270500Y-112483000D02*
X83398000Y-112613000D01*
D45*
X63785800Y-113595000D02*
X63571300Y-113206000D01*
X63571300Y-113206000D02*
X62965400Y-110940000D01*
X63432200Y-113949000D02*
X63200900Y-113496000D01*
X63200900Y-113496000D02*
X62939000Y-112180000D01*
X62939000Y-112180000D02*
X62929600Y-112144000D01*
X62929600Y-112144000D02*
X62910400Y-112103000D01*
X62910400Y-112103000D02*
X62890000Y-112080000D01*
X62890000Y-112080000D02*
X61845100Y-111035000D01*
X61845100Y-111035000D02*
X61028200Y-110869000D01*
X61028200Y-110869000D02*
X60474600Y-110510000D01*
X68700200Y-115363000D02*
X68980300Y-114817000D01*
X68980300Y-114817000D02*
X69127400Y-113195000D01*
X69127400Y-113195000D02*
X69127400Y-112468000D01*
X69127400Y-112468000D02*
X68614000Y-111954000D01*
X68614000Y-111954000D02*
X67901400Y-111472000D01*
X67901400Y-111472000D02*
X66637200Y-110767000D01*
X66637200Y-110767000D02*
X66637100Y-110767000D01*
X66637100Y-110767000D02*
X66503000Y-110633000D01*
X66503000Y-110633000D02*
X66488100Y-109962000D01*
X66488100Y-109962000D02*
X66375100Y-109626000D01*
X66375100Y-109626000D02*
X66048500Y-109174000D01*
X66048500Y-109174000D02*
X63146500Y-108182000D01*
X54650300Y-111881000D02*
X54878200Y-113041000D01*
X66031900Y-110238000D02*
X65149800Y-109767000D01*
X65149800Y-109767000D02*
X63616600Y-109000000D01*
X68346600Y-115009000D02*
X68545200Y-114750000D01*
X68545200Y-114750000D02*
X68822300Y-113068000D01*
X68822300Y-113068000D02*
X68822300Y-112594000D01*
X68822300Y-112594000D02*
X68052000Y-111949000D01*
X68052000Y-111949000D02*
X66510500Y-111072000D01*
X66510500Y-111072000D02*
X66197900Y-110759000D01*
X66197900Y-110759000D02*
X66031900Y-110238000D01*
X58276200Y-111900000D02*
X57311600Y-112610000D01*
X57311600Y-112610000D02*
X55542900Y-112610000D01*
X55542900Y-112610000D02*
X55483000Y-112592000D01*
X55483000Y-112592000D02*
X55334800Y-112444000D01*
X55334800Y-112444000D02*
X55277200Y-112364000D01*
X55277200Y-112364000D02*
X55150700Y-111880000D01*
D42*
X62998400Y-120736000D02*
X64273700Y-120314000D01*
X64273700Y-120314000D02*
X64846400Y-119924000D01*
D45*
X78759500Y-113723000D02*
X76971100Y-113893000D01*
X76971100Y-113893000D02*
X73712400Y-115275000D01*
X73712400Y-115275000D02*
X73132900Y-115578000D01*
X60195900Y-115325000D02*
X61310300Y-115146000D01*
X61310300Y-115146000D02*
X61615700Y-115146000D01*
X61615700Y-115146000D02*
X62018000Y-115363000D01*
X78754800Y-112685000D02*
X78759500Y-112812000D01*
X78759500Y-112812000D02*
X78759500Y-113723000D01*
X82448700Y-108803000D02*
X82090000Y-107689000D01*
X64846400Y-112534000D02*
X64897500Y-110983000D01*
X64897500Y-110983000D02*
X64912800Y-110339000D01*
X64912800Y-110339000D02*
X64927900Y-110339000D01*
X66225300Y-112888000D02*
X66782900Y-112033000D01*
X81500500Y-113413000D02*
X80784900Y-113455000D01*
X67639500Y-118156000D02*
X68041700Y-118373000D01*
X68041700Y-118373000D02*
X68346700Y-118373000D01*
X68346700Y-118373000D02*
X69087800Y-118049400D01*
X55150700Y-106882000D02*
X54906500Y-105602000D01*
X66932400Y-113595000D02*
X67491300Y-113288000D01*
X67491300Y-113288000D02*
X67599100Y-113288000D01*
X67599100Y-113288000D02*
X68241800Y-112875000D01*
X83740500Y-117243000D02*
X83037300Y-116643000D01*
X66578900Y-113242000D02*
X67362100Y-112716000D01*
X83740500Y-117743000D02*
X82986200Y-117482000D01*
X64492900Y-112888000D02*
X64221500Y-112395000D01*
X64221500Y-112395000D02*
X64218600Y-111854000D01*
X83740500Y-118243000D02*
X82993100Y-118321000D01*
X73747700Y-106092500D02*
X73140500Y-106463300D01*
X73140500Y-106463300D02*
X72972800Y-106623500D01*
X72972800Y-106623500D02*
X72670300Y-107259200D01*
X72670300Y-107259200D02*
X72513600Y-107865800D01*
X72513600Y-107865800D02*
X72458700Y-108649900D01*
X72458700Y-108649900D02*
X72432600Y-109725900D01*
X72432600Y-109725900D02*
X72525300Y-110289500D01*
X79860100Y-116012000D02*
X80789200Y-115264000D01*
X79316800Y-108978000D02*
X78626000Y-109870000D01*
X81398600Y-108258000D02*
X80288600Y-108258000D01*
X80288600Y-108258000D02*
X79316800Y-108978000D01*
D42*
G36*
X73894700Y-107172000D02*
X73874700Y-107172000D01*
X73874700Y-107192000D01*
X73620700Y-107192000D01*
X73620700Y-107172000D01*
X73600700Y-107172000D01*
X73600700Y-106918000D01*
X73620700Y-106918000D01*
X73620700Y-106898000D01*
X73874700Y-106898000D01*
X73874700Y-106918000D01*
X73894700Y-106918000D01*
X73894700Y-107172000D01*
X73894700Y-107172000D01*
G37*
X73894700Y-107172000D02*
X73874700Y-107172000D01*
X73874700Y-107192000D01*
X73620700Y-107192000D01*
X73620700Y-107172000D01*
X73600700Y-107172000D01*
X73600700Y-106918000D01*
X73620700Y-106918000D01*
X73620700Y-106898000D01*
X73874700Y-106898000D01*
X73874700Y-106918000D01*
X73894700Y-106918000D01*
X73894700Y-107172000D01*
G36*
X75523508Y-108892990D02*
X73147641Y-110242125D01*
X73147708Y-110166260D01*
X73126600Y-110115174D01*
X73126600Y-109646400D01*
X73141576Y-109646400D01*
X73244267Y-109603864D01*
X73322864Y-109525267D01*
X73365400Y-109422576D01*
X73365400Y-109311424D01*
X73365400Y-109263850D01*
X73295550Y-109194000D01*
X73126600Y-109194000D01*
X73126600Y-108940000D01*
X73295550Y-108940000D01*
X73365400Y-108870150D01*
X73365400Y-108822576D01*
X73365400Y-108711424D01*
X73332871Y-108632894D01*
X74141297Y-108632894D01*
X74158496Y-108721534D01*
X74220004Y-108815168D01*
X74312858Y-108877846D01*
X74422700Y-108899874D01*
X75172700Y-108899874D01*
X75279234Y-108879204D01*
X75372868Y-108817696D01*
X75386667Y-108797253D01*
X75405004Y-108825168D01*
X75497858Y-108887846D01*
X75523508Y-108892990D01*
X75523508Y-108892990D01*
G37*
X75523508Y-108892990D02*
X73147641Y-110242125D01*
X73147708Y-110166260D01*
X73126600Y-110115174D01*
X73126600Y-109646400D01*
X73141576Y-109646400D01*
X73244267Y-109603864D01*
X73322864Y-109525267D01*
X73365400Y-109422576D01*
X73365400Y-109311424D01*
X73365400Y-109263850D01*
X73295550Y-109194000D01*
X73126600Y-109194000D01*
X73126600Y-108940000D01*
X73295550Y-108940000D01*
X73365400Y-108870150D01*
X73365400Y-108822576D01*
X73365400Y-108711424D01*
X73332871Y-108632894D01*
X74141297Y-108632894D01*
X74158496Y-108721534D01*
X74220004Y-108815168D01*
X74312858Y-108877846D01*
X74422700Y-108899874D01*
X75172700Y-108899874D01*
X75279234Y-108879204D01*
X75372868Y-108817696D01*
X75386667Y-108797253D01*
X75405004Y-108825168D01*
X75497858Y-108887846D01*
X75523508Y-108892990D01*
G36*
X76628452Y-106571157D02*
X76427368Y-106702000D01*
X75994700Y-106702000D01*
X75994700Y-106722000D01*
X75740700Y-106722000D01*
X75740700Y-106702000D01*
X75720700Y-106702000D01*
X75720700Y-106448000D01*
X75740700Y-106448000D01*
X75740700Y-106428000D01*
X75994700Y-106428000D01*
X75994700Y-106448000D01*
X76443415Y-106448000D01*
X76628452Y-106571157D01*
X76628452Y-106571157D01*
G37*
X76628452Y-106571157D02*
X76427368Y-106702000D01*
X75994700Y-106702000D01*
X75994700Y-106722000D01*
X75740700Y-106722000D01*
X75740700Y-106702000D01*
X75720700Y-106702000D01*
X75720700Y-106448000D01*
X75740700Y-106448000D01*
X75740700Y-106428000D01*
X75994700Y-106428000D01*
X75994700Y-106448000D01*
X76443415Y-106448000D01*
X76628452Y-106571157D01*
G36*
X79153026Y-105455887D02*
X78947485Y-105616795D01*
X78931971Y-105634835D01*
X78912119Y-105647952D01*
X78880694Y-105694460D01*
X78844093Y-105737022D01*
X78836663Y-105759627D01*
X78823343Y-105779342D01*
X77983506Y-107777654D01*
X77982094Y-107770376D01*
X77920586Y-107676742D01*
X77827732Y-107614064D01*
X77717890Y-107592036D01*
X76917790Y-107592036D01*
X76811256Y-107612706D01*
X76717622Y-107674214D01*
X76654944Y-107767068D01*
X76632916Y-107876910D01*
X76632916Y-108259523D01*
X76492574Y-108339918D01*
X76492574Y-108225000D01*
X76471904Y-108118466D01*
X76410396Y-108024832D01*
X76336219Y-107974761D01*
X76407868Y-107927696D01*
X76470546Y-107834842D01*
X76492574Y-107725000D01*
X76492574Y-107629290D01*
X77098730Y-107234874D01*
X77767700Y-107234874D01*
X77874234Y-107214204D01*
X77967868Y-107152696D01*
X78030546Y-107059842D01*
X78052574Y-106950000D01*
X78052574Y-106200000D01*
X78031904Y-106093466D01*
X77998377Y-106042427D01*
X78000233Y-106040575D01*
X78100985Y-105797938D01*
X78101214Y-105535215D01*
X78000886Y-105292402D01*
X77815275Y-105106467D01*
X77572638Y-105005715D01*
X77309915Y-105005486D01*
X77067102Y-105105814D01*
X76881167Y-105291425D01*
X76780415Y-105534062D01*
X76780273Y-105695831D01*
X76608776Y-105581686D01*
X76597473Y-105577027D01*
X76588317Y-105568928D01*
X76462574Y-105495604D01*
X76462574Y-105375000D01*
X76441904Y-105268466D01*
X76380396Y-105174832D01*
X76287542Y-105112154D01*
X76177700Y-105090126D01*
X75577700Y-105090126D01*
X75471166Y-105110796D01*
X75377532Y-105172304D01*
X75327104Y-105247009D01*
X75314564Y-105216733D01*
X75235967Y-105138136D01*
X75133276Y-105095600D01*
X74974550Y-105095600D01*
X74904700Y-105165450D01*
X74904700Y-105500000D01*
X74924700Y-105500000D01*
X74924700Y-105750000D01*
X74904700Y-105750000D01*
X74904700Y-106084550D01*
X74925150Y-106105000D01*
X74924700Y-106105450D01*
X74924700Y-106588000D01*
X74944700Y-106588000D01*
X74944700Y-106842000D01*
X74924700Y-106842000D01*
X74924700Y-107324550D01*
X74994550Y-107394400D01*
X75117124Y-107394400D01*
X75228276Y-107394400D01*
X75322826Y-107355236D01*
X75322826Y-107579346D01*
X75282542Y-107552154D01*
X75172700Y-107530126D01*
X74505504Y-107530126D01*
X74498905Y-107520080D01*
X74527480Y-107451096D01*
X74527480Y-107394400D01*
X74600850Y-107394400D01*
X74670700Y-107324550D01*
X74670700Y-106842000D01*
X74650700Y-106842000D01*
X74650700Y-106588000D01*
X74670700Y-106588000D01*
X74670700Y-106105450D01*
X74650250Y-106085000D01*
X74650700Y-106084550D01*
X74650700Y-105750000D01*
X74630700Y-105750000D01*
X74630700Y-105500000D01*
X74650700Y-105500000D01*
X74650700Y-105165450D01*
X74580850Y-105095600D01*
X74422124Y-105095600D01*
X74319433Y-105138136D01*
X74240836Y-105216733D01*
X74198300Y-105319424D01*
X74198300Y-105430150D01*
X74225256Y-105457106D01*
X73247320Y-105457106D01*
X73140786Y-105477776D01*
X73126600Y-105487094D01*
X73126600Y-104843070D01*
X79153026Y-104843070D01*
X79153026Y-105455887D01*
X79153026Y-105455887D01*
G37*
X79153026Y-105455887D02*
X78947485Y-105616795D01*
X78931971Y-105634835D01*
X78912119Y-105647952D01*
X78880694Y-105694460D01*
X78844093Y-105737022D01*
X78836663Y-105759627D01*
X78823343Y-105779342D01*
X77983506Y-107777654D01*
X77982094Y-107770376D01*
X77920586Y-107676742D01*
X77827732Y-107614064D01*
X77717890Y-107592036D01*
X76917790Y-107592036D01*
X76811256Y-107612706D01*
X76717622Y-107674214D01*
X76654944Y-107767068D01*
X76632916Y-107876910D01*
X76632916Y-108259523D01*
X76492574Y-108339918D01*
X76492574Y-108225000D01*
X76471904Y-108118466D01*
X76410396Y-108024832D01*
X76336219Y-107974761D01*
X76407868Y-107927696D01*
X76470546Y-107834842D01*
X76492574Y-107725000D01*
X76492574Y-107629290D01*
X77098730Y-107234874D01*
X77767700Y-107234874D01*
X77874234Y-107214204D01*
X77967868Y-107152696D01*
X78030546Y-107059842D01*
X78052574Y-106950000D01*
X78052574Y-106200000D01*
X78031904Y-106093466D01*
X77998377Y-106042427D01*
X78000233Y-106040575D01*
X78100985Y-105797938D01*
X78101214Y-105535215D01*
X78000886Y-105292402D01*
X77815275Y-105106467D01*
X77572638Y-105005715D01*
X77309915Y-105005486D01*
X77067102Y-105105814D01*
X76881167Y-105291425D01*
X76780415Y-105534062D01*
X76780273Y-105695831D01*
X76608776Y-105581686D01*
X76597473Y-105577027D01*
X76588317Y-105568928D01*
X76462574Y-105495604D01*
X76462574Y-105375000D01*
X76441904Y-105268466D01*
X76380396Y-105174832D01*
X76287542Y-105112154D01*
X76177700Y-105090126D01*
X75577700Y-105090126D01*
X75471166Y-105110796D01*
X75377532Y-105172304D01*
X75327104Y-105247009D01*
X75314564Y-105216733D01*
X75235967Y-105138136D01*
X75133276Y-105095600D01*
X74974550Y-105095600D01*
X74904700Y-105165450D01*
X74904700Y-105500000D01*
X74924700Y-105500000D01*
X74924700Y-105750000D01*
X74904700Y-105750000D01*
X74904700Y-106084550D01*
X74925150Y-106105000D01*
X74924700Y-106105450D01*
X74924700Y-106588000D01*
X74944700Y-106588000D01*
X74944700Y-106842000D01*
X74924700Y-106842000D01*
X74924700Y-107324550D01*
X74994550Y-107394400D01*
X75117124Y-107394400D01*
X75228276Y-107394400D01*
X75322826Y-107355236D01*
X75322826Y-107579346D01*
X75282542Y-107552154D01*
X75172700Y-107530126D01*
X74505504Y-107530126D01*
X74498905Y-107520080D01*
X74527480Y-107451096D01*
X74527480Y-107394400D01*
X74600850Y-107394400D01*
X74670700Y-107324550D01*
X74670700Y-106842000D01*
X74650700Y-106842000D01*
X74650700Y-106588000D01*
X74670700Y-106588000D01*
X74670700Y-106105450D01*
X74650250Y-106085000D01*
X74650700Y-106084550D01*
X74650700Y-105750000D01*
X74630700Y-105750000D01*
X74630700Y-105500000D01*
X74650700Y-105500000D01*
X74650700Y-105165450D01*
X74580850Y-105095600D01*
X74422124Y-105095600D01*
X74319433Y-105138136D01*
X74240836Y-105216733D01*
X74198300Y-105319424D01*
X74198300Y-105430150D01*
X74225256Y-105457106D01*
X73247320Y-105457106D01*
X73140786Y-105477776D01*
X73126600Y-105487094D01*
X73126600Y-104843070D01*
X79153026Y-104843070D01*
X79153026Y-105455887D01*
G36*
X83861398Y-111487390D02*
X83855105Y-111555126D01*
X83835500Y-111555126D01*
X83728966Y-111575796D01*
X83722605Y-111579974D01*
X83718767Y-111576136D01*
X83616076Y-111533600D01*
X83549100Y-111533600D01*
X83479250Y-111603450D01*
X83479250Y-111888000D01*
X83545000Y-111888000D01*
X83545000Y-112038000D01*
X83479250Y-112038000D01*
X83479250Y-112110000D01*
X83316750Y-112110000D01*
X83316750Y-112038000D01*
X83316750Y-111888000D01*
X83316750Y-111603450D01*
X83246900Y-111533600D01*
X83179924Y-111533600D01*
X83077233Y-111576136D01*
X82998636Y-111654733D01*
X82956100Y-111757424D01*
X82956100Y-111818150D01*
X83025950Y-111888000D01*
X83316750Y-111888000D01*
X83316750Y-112038000D01*
X83025950Y-112038000D01*
X82956100Y-112107850D01*
X82956100Y-112152957D01*
X82808047Y-112135886D01*
X82773196Y-112082832D01*
X82698490Y-112032404D01*
X82728767Y-112019864D01*
X82807364Y-111941267D01*
X82849900Y-111838576D01*
X82849900Y-111752850D01*
X82849900Y-111413150D01*
X82849900Y-111327424D01*
X82807364Y-111224733D01*
X82728767Y-111146136D01*
X82626076Y-111103600D01*
X82514924Y-111103600D01*
X82467350Y-111103600D01*
X82397500Y-111173450D01*
X82397500Y-111483000D01*
X82780050Y-111483000D01*
X82849900Y-111413150D01*
X82849900Y-111752850D01*
X82780050Y-111683000D01*
X82397500Y-111683000D01*
X82397500Y-111730000D01*
X82331100Y-111730000D01*
X82331100Y-110120550D01*
X82331100Y-109738000D01*
X82021550Y-109738000D01*
X81951700Y-109807850D01*
X81951700Y-109855424D01*
X81951700Y-109966576D01*
X81994236Y-110069267D01*
X82072833Y-110147864D01*
X82175524Y-110190400D01*
X82261250Y-110190400D01*
X82331100Y-110120550D01*
X82331100Y-111730000D01*
X82143500Y-111730000D01*
X82143500Y-111683000D01*
X82143500Y-111483000D01*
X82143500Y-111173450D01*
X82073650Y-111103600D01*
X82026076Y-111103600D01*
X81928000Y-111103600D01*
X81928000Y-109713576D01*
X81928000Y-109554850D01*
X81858150Y-109485000D01*
X81523600Y-109485000D01*
X81523600Y-109867550D01*
X81593450Y-109937400D01*
X81704176Y-109937400D01*
X81806867Y-109894864D01*
X81885464Y-109816267D01*
X81928000Y-109713576D01*
X81928000Y-111103600D01*
X81914924Y-111103600D01*
X81812233Y-111146136D01*
X81733636Y-111224733D01*
X81691100Y-111327424D01*
X81691100Y-111413150D01*
X81760950Y-111483000D01*
X82143500Y-111483000D01*
X82143500Y-111683000D01*
X81760950Y-111683000D01*
X81691100Y-111752850D01*
X81691100Y-111838576D01*
X81733636Y-111941267D01*
X81812233Y-112019864D01*
X81842963Y-112032592D01*
X81770332Y-112080304D01*
X81707654Y-112173158D01*
X81685626Y-112283000D01*
X81685626Y-112683000D01*
X81706296Y-112789534D01*
X81736372Y-112835320D01*
X81700500Y-112828126D01*
X81373000Y-112828126D01*
X81373000Y-111878576D01*
X81373000Y-111767424D01*
X81373000Y-111604850D01*
X81373000Y-111211150D01*
X81373000Y-111048576D01*
X81373000Y-110937424D01*
X81330464Y-110834733D01*
X81273600Y-110777869D01*
X81273600Y-109867550D01*
X81273600Y-109485000D01*
X80939050Y-109485000D01*
X80869200Y-109554850D01*
X80869200Y-109713576D01*
X80911736Y-109816267D01*
X80990333Y-109894864D01*
X81093024Y-109937400D01*
X81203750Y-109937400D01*
X81273600Y-109867550D01*
X81273600Y-110777869D01*
X81251867Y-110756136D01*
X81149176Y-110713600D01*
X80975450Y-110713600D01*
X80905600Y-110783450D01*
X80905600Y-111281000D01*
X81303150Y-111281000D01*
X81373000Y-111211150D01*
X81373000Y-111604850D01*
X81303150Y-111535000D01*
X80905600Y-111535000D01*
X80905600Y-112032550D01*
X80975450Y-112102400D01*
X81149176Y-112102400D01*
X81251867Y-112059864D01*
X81330464Y-111981267D01*
X81373000Y-111878576D01*
X81373000Y-112828126D01*
X81300500Y-112828126D01*
X81193966Y-112848796D01*
X81100332Y-112910304D01*
X81099352Y-112911755D01*
X80909226Y-112832808D01*
X80868000Y-112832772D01*
X80868000Y-109413576D01*
X80868000Y-109327850D01*
X80798150Y-109258000D01*
X80415600Y-109258000D01*
X80415600Y-109567550D01*
X80482550Y-109634500D01*
X80438600Y-109678450D01*
X80438600Y-110061000D01*
X80748150Y-110061000D01*
X80818000Y-109991150D01*
X80818000Y-109943576D01*
X80818000Y-109832424D01*
X80775464Y-109729733D01*
X80696867Y-109651136D01*
X80653940Y-109633355D01*
X80746867Y-109594864D01*
X80825464Y-109516267D01*
X80868000Y-109413576D01*
X80868000Y-112832772D01*
X80818000Y-112832728D01*
X80661660Y-112832592D01*
X80651600Y-112836748D01*
X80651600Y-112032550D01*
X80651600Y-111535000D01*
X80254050Y-111535000D01*
X80184200Y-111604850D01*
X80184200Y-111767424D01*
X80184200Y-111878576D01*
X80226736Y-111981267D01*
X80305333Y-112059864D01*
X80408024Y-112102400D01*
X80581750Y-112102400D01*
X80651600Y-112032550D01*
X80651600Y-112836748D01*
X80432856Y-112927132D01*
X80257647Y-113102035D01*
X80162708Y-113330674D01*
X80162492Y-113578240D01*
X80257032Y-113807044D01*
X80431935Y-113982253D01*
X80660574Y-114077192D01*
X80908140Y-114077408D01*
X81136944Y-113982868D01*
X81162809Y-113957047D01*
X81190658Y-113975846D01*
X81300500Y-113997874D01*
X81700500Y-113997874D01*
X81807034Y-113977204D01*
X81900668Y-113915696D01*
X81950738Y-113841519D01*
X81997804Y-113913168D01*
X82090658Y-113975846D01*
X82200500Y-113997874D01*
X82496658Y-113997874D01*
X82470778Y-114013002D01*
X82425906Y-114030579D01*
X82402969Y-114052643D01*
X82375493Y-114068706D01*
X81998093Y-114403306D01*
X81986249Y-114418914D01*
X81970353Y-114430369D01*
X81938667Y-114481623D01*
X81902243Y-114529628D01*
X81897274Y-114548582D01*
X81886972Y-114565247D01*
X81204457Y-116393226D01*
X81178367Y-116367136D01*
X81075676Y-116324600D01*
X80964950Y-116324600D01*
X80895100Y-116394450D01*
X80895100Y-116777000D01*
X80917100Y-116777000D01*
X80917100Y-117031000D01*
X80895100Y-117031000D01*
X80895100Y-117051000D01*
X80645100Y-117051000D01*
X80645100Y-117031000D01*
X80310550Y-117031000D01*
X80250550Y-117091000D01*
X79987100Y-117091000D01*
X79987100Y-117111000D01*
X79733100Y-117111000D01*
X79733100Y-117091000D01*
X79713100Y-117091000D01*
X79713100Y-116837000D01*
X79733100Y-116837000D01*
X79733100Y-116817000D01*
X79987100Y-116817000D01*
X79987100Y-116837000D01*
X80570030Y-116837000D01*
X80630030Y-116777000D01*
X80645100Y-116777000D01*
X80645100Y-116394450D01*
X80639894Y-116389244D01*
X80645354Y-116362020D01*
X80645354Y-115878086D01*
X80664874Y-115886192D01*
X80912440Y-115886408D01*
X81141244Y-115791868D01*
X81316453Y-115616965D01*
X81411392Y-115388326D01*
X81411608Y-115140760D01*
X81317068Y-114911956D01*
X81142165Y-114736747D01*
X80913526Y-114641808D01*
X80665960Y-114641592D01*
X80437156Y-114736132D01*
X80261947Y-114911035D01*
X80167008Y-115139674D01*
X80166860Y-115308512D01*
X80082901Y-115376106D01*
X79683125Y-115376106D01*
X79716964Y-115342267D01*
X79759500Y-115239576D01*
X79759500Y-115128424D01*
X79759500Y-115080850D01*
X79689650Y-115011000D01*
X79380100Y-115011000D01*
X79380100Y-115031000D01*
X79222600Y-115031000D01*
X79222600Y-114737000D01*
X79380100Y-114737000D01*
X79380100Y-114757000D01*
X79689650Y-114757000D01*
X79759500Y-114687150D01*
X79759500Y-114639576D01*
X79759500Y-114528424D01*
X79716964Y-114425733D01*
X79638367Y-114347136D01*
X79549053Y-114310140D01*
X79551499Y-114307874D01*
X79859500Y-114307874D01*
X79966034Y-114287204D01*
X80059668Y-114225696D01*
X80122346Y-114132842D01*
X80144374Y-114023000D01*
X80144374Y-113423000D01*
X80123704Y-113316466D01*
X80062196Y-113222832D01*
X80032287Y-113202643D01*
X80091664Y-113143267D01*
X80134200Y-113040576D01*
X80134200Y-112929424D01*
X80134200Y-112881850D01*
X80134200Y-112488150D01*
X80134200Y-112440576D01*
X80134200Y-112329424D01*
X80091664Y-112226733D01*
X80013067Y-112148136D01*
X79910376Y-112105600D01*
X79824650Y-112105600D01*
X79754800Y-112175450D01*
X79754800Y-112558000D01*
X80064350Y-112558000D01*
X80134200Y-112488150D01*
X80134200Y-112881850D01*
X80064350Y-112812000D01*
X79754800Y-112812000D01*
X79754800Y-112832000D01*
X79554800Y-112832000D01*
X79554800Y-112812000D01*
X79507800Y-112812000D01*
X79507800Y-112558000D01*
X79554800Y-112558000D01*
X79554800Y-112175450D01*
X79487224Y-112107874D01*
X79493600Y-112107874D01*
X79600134Y-112087204D01*
X79693768Y-112025696D01*
X79756446Y-111932842D01*
X79778474Y-111823000D01*
X79778474Y-110993000D01*
X79757804Y-110886466D01*
X79696296Y-110792832D01*
X79673657Y-110777550D01*
X79676158Y-110765586D01*
X79745134Y-110752204D01*
X79838768Y-110690696D01*
X79889195Y-110615990D01*
X79901736Y-110646267D01*
X79980333Y-110724864D01*
X80083024Y-110767400D01*
X80168750Y-110767400D01*
X80211598Y-110724552D01*
X80211598Y-110767400D01*
X80294069Y-110767400D01*
X80226736Y-110834733D01*
X80184200Y-110937424D01*
X80184200Y-111048576D01*
X80184200Y-111211150D01*
X80254050Y-111281000D01*
X80651600Y-111281000D01*
X80651600Y-110783450D01*
X80623431Y-110755281D01*
X80696867Y-110724864D01*
X80775464Y-110646267D01*
X80818000Y-110543576D01*
X80818000Y-110432424D01*
X80818000Y-110384850D01*
X80748150Y-110315000D01*
X80438600Y-110315000D01*
X80438600Y-110335000D01*
X80238600Y-110335000D01*
X80238600Y-110315000D01*
X80191600Y-110315000D01*
X80191600Y-110061000D01*
X80238600Y-110061000D01*
X80238600Y-109678450D01*
X80168750Y-109608600D01*
X80120550Y-109608600D01*
X80161600Y-109567550D01*
X80161600Y-109258000D01*
X80141600Y-109258000D01*
X80141600Y-109058000D01*
X80161600Y-109058000D01*
X80161600Y-109011000D01*
X80415600Y-109011000D01*
X80415600Y-109058000D01*
X80798150Y-109058000D01*
X80868000Y-108988150D01*
X80868000Y-108902424D01*
X80825464Y-108799733D01*
X80746867Y-108721136D01*
X80716136Y-108708407D01*
X80788768Y-108660696D01*
X80820558Y-108613600D01*
X80874513Y-108613600D01*
X80884396Y-108664534D01*
X80945904Y-108758168D01*
X81020609Y-108808595D01*
X80990333Y-108821136D01*
X80911736Y-108899733D01*
X80869200Y-109002424D01*
X80869200Y-109161150D01*
X80939050Y-109231000D01*
X81273600Y-109231000D01*
X81273600Y-109211000D01*
X81523600Y-109211000D01*
X81523600Y-109231000D01*
X81858150Y-109231000D01*
X81928000Y-109161150D01*
X81928000Y-109002424D01*
X81885464Y-108899733D01*
X81806867Y-108821136D01*
X81776136Y-108808407D01*
X81848768Y-108760696D01*
X81911446Y-108667842D01*
X81933474Y-108558000D01*
X81933474Y-108363095D01*
X81969466Y-108474875D01*
X81963826Y-108503000D01*
X81963826Y-109103000D01*
X81980097Y-109186865D01*
X81951700Y-109255424D01*
X81951700Y-109366576D01*
X81951700Y-109414150D01*
X82021550Y-109484000D01*
X82331100Y-109484000D01*
X82331100Y-109464000D01*
X82531100Y-109464000D01*
X82531100Y-109484000D01*
X82578100Y-109484000D01*
X82578100Y-109738000D01*
X82531100Y-109738000D01*
X82531100Y-110120550D01*
X82600950Y-110190400D01*
X82686676Y-110190400D01*
X82789367Y-110147864D01*
X82867964Y-110069267D01*
X82880692Y-110038536D01*
X82928404Y-110111168D01*
X83021258Y-110173846D01*
X83131100Y-110195874D01*
X83531100Y-110195874D01*
X83637634Y-110175204D01*
X83726119Y-110117077D01*
X83766414Y-110214598D01*
X83822588Y-110270870D01*
X83766564Y-110353868D01*
X83744536Y-110463710D01*
X83744536Y-111263810D01*
X83765206Y-111370344D01*
X83826714Y-111463978D01*
X83861398Y-111487390D01*
X83861398Y-111487390D01*
G37*
X83861398Y-111487390D02*
X83855105Y-111555126D01*
X83835500Y-111555126D01*
X83728966Y-111575796D01*
X83722605Y-111579974D01*
X83718767Y-111576136D01*
X83616076Y-111533600D01*
X83549100Y-111533600D01*
X83479250Y-111603450D01*
X83479250Y-111888000D01*
X83545000Y-111888000D01*
X83545000Y-112038000D01*
X83479250Y-112038000D01*
X83479250Y-112110000D01*
X83316750Y-112110000D01*
X83316750Y-112038000D01*
X83316750Y-111888000D01*
X83316750Y-111603450D01*
X83246900Y-111533600D01*
X83179924Y-111533600D01*
X83077233Y-111576136D01*
X82998636Y-111654733D01*
X82956100Y-111757424D01*
X82956100Y-111818150D01*
X83025950Y-111888000D01*
X83316750Y-111888000D01*
X83316750Y-112038000D01*
X83025950Y-112038000D01*
X82956100Y-112107850D01*
X82956100Y-112152957D01*
X82808047Y-112135886D01*
X82773196Y-112082832D01*
X82698490Y-112032404D01*
X82728767Y-112019864D01*
X82807364Y-111941267D01*
X82849900Y-111838576D01*
X82849900Y-111752850D01*
X82849900Y-111413150D01*
X82849900Y-111327424D01*
X82807364Y-111224733D01*
X82728767Y-111146136D01*
X82626076Y-111103600D01*
X82514924Y-111103600D01*
X82467350Y-111103600D01*
X82397500Y-111173450D01*
X82397500Y-111483000D01*
X82780050Y-111483000D01*
X82849900Y-111413150D01*
X82849900Y-111752850D01*
X82780050Y-111683000D01*
X82397500Y-111683000D01*
X82397500Y-111730000D01*
X82331100Y-111730000D01*
X82331100Y-110120550D01*
X82331100Y-109738000D01*
X82021550Y-109738000D01*
X81951700Y-109807850D01*
X81951700Y-109855424D01*
X81951700Y-109966576D01*
X81994236Y-110069267D01*
X82072833Y-110147864D01*
X82175524Y-110190400D01*
X82261250Y-110190400D01*
X82331100Y-110120550D01*
X82331100Y-111730000D01*
X82143500Y-111730000D01*
X82143500Y-111683000D01*
X82143500Y-111483000D01*
X82143500Y-111173450D01*
X82073650Y-111103600D01*
X82026076Y-111103600D01*
X81928000Y-111103600D01*
X81928000Y-109713576D01*
X81928000Y-109554850D01*
X81858150Y-109485000D01*
X81523600Y-109485000D01*
X81523600Y-109867550D01*
X81593450Y-109937400D01*
X81704176Y-109937400D01*
X81806867Y-109894864D01*
X81885464Y-109816267D01*
X81928000Y-109713576D01*
X81928000Y-111103600D01*
X81914924Y-111103600D01*
X81812233Y-111146136D01*
X81733636Y-111224733D01*
X81691100Y-111327424D01*
X81691100Y-111413150D01*
X81760950Y-111483000D01*
X82143500Y-111483000D01*
X82143500Y-111683000D01*
X81760950Y-111683000D01*
X81691100Y-111752850D01*
X81691100Y-111838576D01*
X81733636Y-111941267D01*
X81812233Y-112019864D01*
X81842963Y-112032592D01*
X81770332Y-112080304D01*
X81707654Y-112173158D01*
X81685626Y-112283000D01*
X81685626Y-112683000D01*
X81706296Y-112789534D01*
X81736372Y-112835320D01*
X81700500Y-112828126D01*
X81373000Y-112828126D01*
X81373000Y-111878576D01*
X81373000Y-111767424D01*
X81373000Y-111604850D01*
X81373000Y-111211150D01*
X81373000Y-111048576D01*
X81373000Y-110937424D01*
X81330464Y-110834733D01*
X81273600Y-110777869D01*
X81273600Y-109867550D01*
X81273600Y-109485000D01*
X80939050Y-109485000D01*
X80869200Y-109554850D01*
X80869200Y-109713576D01*
X80911736Y-109816267D01*
X80990333Y-109894864D01*
X81093024Y-109937400D01*
X81203750Y-109937400D01*
X81273600Y-109867550D01*
X81273600Y-110777869D01*
X81251867Y-110756136D01*
X81149176Y-110713600D01*
X80975450Y-110713600D01*
X80905600Y-110783450D01*
X80905600Y-111281000D01*
X81303150Y-111281000D01*
X81373000Y-111211150D01*
X81373000Y-111604850D01*
X81303150Y-111535000D01*
X80905600Y-111535000D01*
X80905600Y-112032550D01*
X80975450Y-112102400D01*
X81149176Y-112102400D01*
X81251867Y-112059864D01*
X81330464Y-111981267D01*
X81373000Y-111878576D01*
X81373000Y-112828126D01*
X81300500Y-112828126D01*
X81193966Y-112848796D01*
X81100332Y-112910304D01*
X81099352Y-112911755D01*
X80909226Y-112832808D01*
X80868000Y-112832772D01*
X80868000Y-109413576D01*
X80868000Y-109327850D01*
X80798150Y-109258000D01*
X80415600Y-109258000D01*
X80415600Y-109567550D01*
X80482550Y-109634500D01*
X80438600Y-109678450D01*
X80438600Y-110061000D01*
X80748150Y-110061000D01*
X80818000Y-109991150D01*
X80818000Y-109943576D01*
X80818000Y-109832424D01*
X80775464Y-109729733D01*
X80696867Y-109651136D01*
X80653940Y-109633355D01*
X80746867Y-109594864D01*
X80825464Y-109516267D01*
X80868000Y-109413576D01*
X80868000Y-112832772D01*
X80818000Y-112832728D01*
X80661660Y-112832592D01*
X80651600Y-112836748D01*
X80651600Y-112032550D01*
X80651600Y-111535000D01*
X80254050Y-111535000D01*
X80184200Y-111604850D01*
X80184200Y-111767424D01*
X80184200Y-111878576D01*
X80226736Y-111981267D01*
X80305333Y-112059864D01*
X80408024Y-112102400D01*
X80581750Y-112102400D01*
X80651600Y-112032550D01*
X80651600Y-112836748D01*
X80432856Y-112927132D01*
X80257647Y-113102035D01*
X80162708Y-113330674D01*
X80162492Y-113578240D01*
X80257032Y-113807044D01*
X80431935Y-113982253D01*
X80660574Y-114077192D01*
X80908140Y-114077408D01*
X81136944Y-113982868D01*
X81162809Y-113957047D01*
X81190658Y-113975846D01*
X81300500Y-113997874D01*
X81700500Y-113997874D01*
X81807034Y-113977204D01*
X81900668Y-113915696D01*
X81950738Y-113841519D01*
X81997804Y-113913168D01*
X82090658Y-113975846D01*
X82200500Y-113997874D01*
X82496658Y-113997874D01*
X82470778Y-114013002D01*
X82425906Y-114030579D01*
X82402969Y-114052643D01*
X82375493Y-114068706D01*
X81998093Y-114403306D01*
X81986249Y-114418914D01*
X81970353Y-114430369D01*
X81938667Y-114481623D01*
X81902243Y-114529628D01*
X81897274Y-114548582D01*
X81886972Y-114565247D01*
X81204457Y-116393226D01*
X81178367Y-116367136D01*
X81075676Y-116324600D01*
X80964950Y-116324600D01*
X80895100Y-116394450D01*
X80895100Y-116777000D01*
X80917100Y-116777000D01*
X80917100Y-117031000D01*
X80895100Y-117031000D01*
X80895100Y-117051000D01*
X80645100Y-117051000D01*
X80645100Y-117031000D01*
X80310550Y-117031000D01*
X80250550Y-117091000D01*
X79987100Y-117091000D01*
X79987100Y-117111000D01*
X79733100Y-117111000D01*
X79733100Y-117091000D01*
X79713100Y-117091000D01*
X79713100Y-116837000D01*
X79733100Y-116837000D01*
X79733100Y-116817000D01*
X79987100Y-116817000D01*
X79987100Y-116837000D01*
X80570030Y-116837000D01*
X80630030Y-116777000D01*
X80645100Y-116777000D01*
X80645100Y-116394450D01*
X80639894Y-116389244D01*
X80645354Y-116362020D01*
X80645354Y-115878086D01*
X80664874Y-115886192D01*
X80912440Y-115886408D01*
X81141244Y-115791868D01*
X81316453Y-115616965D01*
X81411392Y-115388326D01*
X81411608Y-115140760D01*
X81317068Y-114911956D01*
X81142165Y-114736747D01*
X80913526Y-114641808D01*
X80665960Y-114641592D01*
X80437156Y-114736132D01*
X80261947Y-114911035D01*
X80167008Y-115139674D01*
X80166860Y-115308512D01*
X80082901Y-115376106D01*
X79683125Y-115376106D01*
X79716964Y-115342267D01*
X79759500Y-115239576D01*
X79759500Y-115128424D01*
X79759500Y-115080850D01*
X79689650Y-115011000D01*
X79380100Y-115011000D01*
X79380100Y-115031000D01*
X79222600Y-115031000D01*
X79222600Y-114737000D01*
X79380100Y-114737000D01*
X79380100Y-114757000D01*
X79689650Y-114757000D01*
X79759500Y-114687150D01*
X79759500Y-114639576D01*
X79759500Y-114528424D01*
X79716964Y-114425733D01*
X79638367Y-114347136D01*
X79549053Y-114310140D01*
X79551499Y-114307874D01*
X79859500Y-114307874D01*
X79966034Y-114287204D01*
X80059668Y-114225696D01*
X80122346Y-114132842D01*
X80144374Y-114023000D01*
X80144374Y-113423000D01*
X80123704Y-113316466D01*
X80062196Y-113222832D01*
X80032287Y-113202643D01*
X80091664Y-113143267D01*
X80134200Y-113040576D01*
X80134200Y-112929424D01*
X80134200Y-112881850D01*
X80134200Y-112488150D01*
X80134200Y-112440576D01*
X80134200Y-112329424D01*
X80091664Y-112226733D01*
X80013067Y-112148136D01*
X79910376Y-112105600D01*
X79824650Y-112105600D01*
X79754800Y-112175450D01*
X79754800Y-112558000D01*
X80064350Y-112558000D01*
X80134200Y-112488150D01*
X80134200Y-112881850D01*
X80064350Y-112812000D01*
X79754800Y-112812000D01*
X79754800Y-112832000D01*
X79554800Y-112832000D01*
X79554800Y-112812000D01*
X79507800Y-112812000D01*
X79507800Y-112558000D01*
X79554800Y-112558000D01*
X79554800Y-112175450D01*
X79487224Y-112107874D01*
X79493600Y-112107874D01*
X79600134Y-112087204D01*
X79693768Y-112025696D01*
X79756446Y-111932842D01*
X79778474Y-111823000D01*
X79778474Y-110993000D01*
X79757804Y-110886466D01*
X79696296Y-110792832D01*
X79673657Y-110777550D01*
X79676158Y-110765586D01*
X79745134Y-110752204D01*
X79838768Y-110690696D01*
X79889195Y-110615990D01*
X79901736Y-110646267D01*
X79980333Y-110724864D01*
X80083024Y-110767400D01*
X80168750Y-110767400D01*
X80211598Y-110724552D01*
X80211598Y-110767400D01*
X80294069Y-110767400D01*
X80226736Y-110834733D01*
X80184200Y-110937424D01*
X80184200Y-111048576D01*
X80184200Y-111211150D01*
X80254050Y-111281000D01*
X80651600Y-111281000D01*
X80651600Y-110783450D01*
X80623431Y-110755281D01*
X80696867Y-110724864D01*
X80775464Y-110646267D01*
X80818000Y-110543576D01*
X80818000Y-110432424D01*
X80818000Y-110384850D01*
X80748150Y-110315000D01*
X80438600Y-110315000D01*
X80438600Y-110335000D01*
X80238600Y-110335000D01*
X80238600Y-110315000D01*
X80191600Y-110315000D01*
X80191600Y-110061000D01*
X80238600Y-110061000D01*
X80238600Y-109678450D01*
X80168750Y-109608600D01*
X80120550Y-109608600D01*
X80161600Y-109567550D01*
X80161600Y-109258000D01*
X80141600Y-109258000D01*
X80141600Y-109058000D01*
X80161600Y-109058000D01*
X80161600Y-109011000D01*
X80415600Y-109011000D01*
X80415600Y-109058000D01*
X80798150Y-109058000D01*
X80868000Y-108988150D01*
X80868000Y-108902424D01*
X80825464Y-108799733D01*
X80746867Y-108721136D01*
X80716136Y-108708407D01*
X80788768Y-108660696D01*
X80820558Y-108613600D01*
X80874513Y-108613600D01*
X80884396Y-108664534D01*
X80945904Y-108758168D01*
X81020609Y-108808595D01*
X80990333Y-108821136D01*
X80911736Y-108899733D01*
X80869200Y-109002424D01*
X80869200Y-109161150D01*
X80939050Y-109231000D01*
X81273600Y-109231000D01*
X81273600Y-109211000D01*
X81523600Y-109211000D01*
X81523600Y-109231000D01*
X81858150Y-109231000D01*
X81928000Y-109161150D01*
X81928000Y-109002424D01*
X81885464Y-108899733D01*
X81806867Y-108821136D01*
X81776136Y-108808407D01*
X81848768Y-108760696D01*
X81911446Y-108667842D01*
X81933474Y-108558000D01*
X81933474Y-108363095D01*
X81969466Y-108474875D01*
X81963826Y-108503000D01*
X81963826Y-109103000D01*
X81980097Y-109186865D01*
X81951700Y-109255424D01*
X81951700Y-109366576D01*
X81951700Y-109414150D01*
X82021550Y-109484000D01*
X82331100Y-109484000D01*
X82331100Y-109464000D01*
X82531100Y-109464000D01*
X82531100Y-109484000D01*
X82578100Y-109484000D01*
X82578100Y-109738000D01*
X82531100Y-109738000D01*
X82531100Y-110120550D01*
X82600950Y-110190400D01*
X82686676Y-110190400D01*
X82789367Y-110147864D01*
X82867964Y-110069267D01*
X82880692Y-110038536D01*
X82928404Y-110111168D01*
X83021258Y-110173846D01*
X83131100Y-110195874D01*
X83531100Y-110195874D01*
X83637634Y-110175204D01*
X83726119Y-110117077D01*
X83766414Y-110214598D01*
X83822588Y-110270870D01*
X83766564Y-110353868D01*
X83744536Y-110463710D01*
X83744536Y-111263810D01*
X83765206Y-111370344D01*
X83826714Y-111463978D01*
X83861398Y-111487390D01*
G36*
X85174482Y-120944270D02*
X84302600Y-120944270D01*
X84302600Y-119992400D01*
X84343650Y-119992400D01*
X84413500Y-119922550D01*
X84413500Y-119588000D01*
X84393500Y-119588000D01*
X84393500Y-119338000D01*
X84413500Y-119338000D01*
X84413500Y-119316000D01*
X84667500Y-119316000D01*
X84667500Y-119338000D01*
X84687500Y-119338000D01*
X84687500Y-119588000D01*
X84667500Y-119588000D01*
X84667500Y-119922550D01*
X84737350Y-119992400D01*
X84896076Y-119992400D01*
X84998767Y-119949864D01*
X85077364Y-119871267D01*
X85090092Y-119840536D01*
X85122757Y-119890262D01*
X85119875Y-120018322D01*
X85058667Y-120079425D01*
X84957915Y-120322062D01*
X84957686Y-120584785D01*
X85058014Y-120827598D01*
X85174482Y-120944270D01*
X85174482Y-120944270D01*
G37*
X85174482Y-120944270D02*
X84302600Y-120944270D01*
X84302600Y-119992400D01*
X84343650Y-119992400D01*
X84413500Y-119922550D01*
X84413500Y-119588000D01*
X84393500Y-119588000D01*
X84393500Y-119338000D01*
X84413500Y-119338000D01*
X84413500Y-119316000D01*
X84667500Y-119316000D01*
X84667500Y-119338000D01*
X84687500Y-119338000D01*
X84687500Y-119588000D01*
X84667500Y-119588000D01*
X84667500Y-119922550D01*
X84737350Y-119992400D01*
X84896076Y-119992400D01*
X84998767Y-119949864D01*
X85077364Y-119871267D01*
X85090092Y-119840536D01*
X85122757Y-119890262D01*
X85119875Y-120018322D01*
X85058667Y-120079425D01*
X84957915Y-120322062D01*
X84957686Y-120584785D01*
X85058014Y-120827598D01*
X85174482Y-120944270D01*
G36*
X86258026Y-113833550D02*
X86206373Y-113845000D01*
X85769509Y-113845000D01*
X85664900Y-113812184D01*
X85283055Y-113692400D01*
X85350002Y-113692400D01*
X85350002Y-113668302D01*
X85374100Y-113692400D01*
X85441076Y-113692400D01*
X85543767Y-113649864D01*
X85622364Y-113571267D01*
X85664900Y-113468576D01*
X85664900Y-113407850D01*
X85595050Y-113338000D01*
X85304250Y-113338000D01*
X85304250Y-113410000D01*
X85141750Y-113410000D01*
X85141750Y-113338000D01*
X85076000Y-113338000D01*
X85076000Y-113188000D01*
X85141750Y-113188000D01*
X85141750Y-113116000D01*
X85304250Y-113116000D01*
X85304250Y-113188000D01*
X85595050Y-113188000D01*
X85625225Y-113157824D01*
X85809362Y-113234285D01*
X86072085Y-113234514D01*
X86258026Y-113157684D01*
X86258026Y-113833550D01*
X86258026Y-113833550D01*
G37*
X86258026Y-113833550D02*
X86206373Y-113845000D01*
X85769509Y-113845000D01*
X85664900Y-113812184D01*
X85283055Y-113692400D01*
X85350002Y-113692400D01*
X85350002Y-113668302D01*
X85374100Y-113692400D01*
X85441076Y-113692400D01*
X85543767Y-113649864D01*
X85622364Y-113571267D01*
X85664900Y-113468576D01*
X85664900Y-113407850D01*
X85595050Y-113338000D01*
X85304250Y-113338000D01*
X85304250Y-113410000D01*
X85141750Y-113410000D01*
X85141750Y-113338000D01*
X85076000Y-113338000D01*
X85076000Y-113188000D01*
X85141750Y-113188000D01*
X85141750Y-113116000D01*
X85304250Y-113116000D01*
X85304250Y-113188000D01*
X85595050Y-113188000D01*
X85625225Y-113157824D01*
X85809362Y-113234285D01*
X86072085Y-113234514D01*
X86258026Y-113157684D01*
X86258026Y-113833550D01*
G36*
X87038090Y-115445474D02*
X86744514Y-115641636D01*
X86463706Y-116061894D01*
X86365100Y-116557622D01*
X86365100Y-116608378D01*
X86414220Y-116855325D01*
X86164817Y-117035152D01*
X86127364Y-116944733D01*
X86048767Y-116866136D01*
X85946076Y-116823600D01*
X85835350Y-116823600D01*
X85765500Y-116893450D01*
X85765500Y-117173000D01*
X85787500Y-117173000D01*
X85787500Y-117292838D01*
X85638166Y-117318126D01*
X85515500Y-117318126D01*
X85515500Y-117313000D01*
X85493500Y-117313000D01*
X85493500Y-117173000D01*
X85515500Y-117173000D01*
X85515500Y-116893450D01*
X85445650Y-116823600D01*
X85334924Y-116823600D01*
X85232233Y-116866136D01*
X85184769Y-116913600D01*
X84887350Y-116913600D01*
X84817500Y-116983450D01*
X84817500Y-117866000D01*
X84837500Y-117866000D01*
X84837500Y-118120000D01*
X84817500Y-118120000D01*
X84817500Y-118140000D01*
X84563500Y-118140000D01*
X84563500Y-118120000D01*
X84543500Y-118120000D01*
X84543500Y-117866000D01*
X84563500Y-117866000D01*
X84563500Y-116983450D01*
X84493650Y-116913600D01*
X84200269Y-116913600D01*
X84193196Y-116902832D01*
X84100342Y-116840154D01*
X83990500Y-116818126D01*
X83790400Y-116818126D01*
X83659545Y-116706474D01*
X83659708Y-116519760D01*
X83565168Y-116290956D01*
X83390265Y-116115747D01*
X83161626Y-116020808D01*
X82914060Y-116020592D01*
X82685256Y-116115132D01*
X82510047Y-116290035D01*
X82415108Y-116518674D01*
X82414892Y-116766240D01*
X82509432Y-116995044D01*
X82551229Y-117036914D01*
X82458947Y-117129035D01*
X82364008Y-117357674D01*
X82363792Y-117605240D01*
X82458332Y-117834044D01*
X82529078Y-117904914D01*
X82465847Y-117968035D01*
X82370908Y-118196674D01*
X82370692Y-118444240D01*
X82408854Y-118536600D01*
X82025700Y-118536600D01*
X82025565Y-118536626D01*
X82025430Y-118536600D01*
X81999378Y-118541800D01*
X81166828Y-118541800D01*
X81220268Y-118506696D01*
X81282946Y-118413842D01*
X81304974Y-118304000D01*
X81304974Y-117979590D01*
X81570806Y-117639459D01*
X81588649Y-117604073D01*
X81613110Y-117572904D01*
X81673110Y-117454504D01*
X81679279Y-117432442D01*
X81691328Y-117412953D01*
X82613030Y-114944358D01*
X82829171Y-114752728D01*
X83051820Y-114712910D01*
X83119325Y-114780533D01*
X83361962Y-114881285D01*
X83624685Y-114881514D01*
X83867498Y-114781186D01*
X84053433Y-114595575D01*
X84092644Y-114501143D01*
X84290462Y-114583285D01*
X84553185Y-114583514D01*
X84629200Y-114552104D01*
X85539648Y-114837710D01*
X85616188Y-114845979D01*
X85691700Y-114861000D01*
X86258026Y-114861000D01*
X86258026Y-115160600D01*
X86278696Y-115267134D01*
X86340204Y-115360768D01*
X86433058Y-115423446D01*
X86542900Y-115445474D01*
X87038090Y-115445474D01*
X87038090Y-115445474D01*
G37*
X87038090Y-115445474D02*
X86744514Y-115641636D01*
X86463706Y-116061894D01*
X86365100Y-116557622D01*
X86365100Y-116608378D01*
X86414220Y-116855325D01*
X86164817Y-117035152D01*
X86127364Y-116944733D01*
X86048767Y-116866136D01*
X85946076Y-116823600D01*
X85835350Y-116823600D01*
X85765500Y-116893450D01*
X85765500Y-117173000D01*
X85787500Y-117173000D01*
X85787500Y-117292838D01*
X85638166Y-117318126D01*
X85515500Y-117318126D01*
X85515500Y-117313000D01*
X85493500Y-117313000D01*
X85493500Y-117173000D01*
X85515500Y-117173000D01*
X85515500Y-116893450D01*
X85445650Y-116823600D01*
X85334924Y-116823600D01*
X85232233Y-116866136D01*
X85184769Y-116913600D01*
X84887350Y-116913600D01*
X84817500Y-116983450D01*
X84817500Y-117866000D01*
X84837500Y-117866000D01*
X84837500Y-118120000D01*
X84817500Y-118120000D01*
X84817500Y-118140000D01*
X84563500Y-118140000D01*
X84563500Y-118120000D01*
X84543500Y-118120000D01*
X84543500Y-117866000D01*
X84563500Y-117866000D01*
X84563500Y-116983450D01*
X84493650Y-116913600D01*
X84200269Y-116913600D01*
X84193196Y-116902832D01*
X84100342Y-116840154D01*
X83990500Y-116818126D01*
X83790400Y-116818126D01*
X83659545Y-116706474D01*
X83659708Y-116519760D01*
X83565168Y-116290956D01*
X83390265Y-116115747D01*
X83161626Y-116020808D01*
X82914060Y-116020592D01*
X82685256Y-116115132D01*
X82510047Y-116290035D01*
X82415108Y-116518674D01*
X82414892Y-116766240D01*
X82509432Y-116995044D01*
X82551229Y-117036914D01*
X82458947Y-117129035D01*
X82364008Y-117357674D01*
X82363792Y-117605240D01*
X82458332Y-117834044D01*
X82529078Y-117904914D01*
X82465847Y-117968035D01*
X82370908Y-118196674D01*
X82370692Y-118444240D01*
X82408854Y-118536600D01*
X82025700Y-118536600D01*
X82025565Y-118536626D01*
X82025430Y-118536600D01*
X81999378Y-118541800D01*
X81166828Y-118541800D01*
X81220268Y-118506696D01*
X81282946Y-118413842D01*
X81304974Y-118304000D01*
X81304974Y-117979590D01*
X81570806Y-117639459D01*
X81588649Y-117604073D01*
X81613110Y-117572904D01*
X81673110Y-117454504D01*
X81679279Y-117432442D01*
X81691328Y-117412953D01*
X82613030Y-114944358D01*
X82829171Y-114752728D01*
X83051820Y-114712910D01*
X83119325Y-114780533D01*
X83361962Y-114881285D01*
X83624685Y-114881514D01*
X83867498Y-114781186D01*
X84053433Y-114595575D01*
X84092644Y-114501143D01*
X84290462Y-114583285D01*
X84553185Y-114583514D01*
X84629200Y-114552104D01*
X85539648Y-114837710D01*
X85616188Y-114845979D01*
X85691700Y-114861000D01*
X86258026Y-114861000D01*
X86258026Y-115160600D01*
X86278696Y-115267134D01*
X86340204Y-115360768D01*
X86433058Y-115423446D01*
X86542900Y-115445474D01*
X87038090Y-115445474D01*
G36*
X88685656Y-105634295D02*
X88315511Y-105305390D01*
X87987605Y-105169580D01*
X87787500Y-105204048D01*
X87787500Y-106296000D01*
X87807500Y-106296000D01*
X87807500Y-106550000D01*
X87787500Y-106550000D01*
X87787500Y-106570000D01*
X87533500Y-106570000D01*
X87533500Y-106550000D01*
X87533500Y-106296000D01*
X87533500Y-105204048D01*
X87333395Y-105169580D01*
X87005489Y-105305390D01*
X86627658Y-105641125D01*
X86407068Y-106095893D01*
X86441179Y-106296000D01*
X87533500Y-106296000D01*
X87533500Y-106550000D01*
X86441179Y-106550000D01*
X86407068Y-106750107D01*
X86627658Y-107204875D01*
X87005489Y-107540610D01*
X87298882Y-107662126D01*
X86644500Y-107662126D01*
X86537966Y-107682796D01*
X86514774Y-107698030D01*
X84722774Y-106641815D01*
X84722774Y-106126000D01*
X84702104Y-106019466D01*
X84640596Y-105925832D01*
X84640187Y-105925556D01*
X84700746Y-105835842D01*
X84722774Y-105726000D01*
X84722774Y-104843070D01*
X88685656Y-104843070D01*
X88685656Y-105634295D01*
X88685656Y-105634295D01*
G37*
X88685656Y-105634295D02*
X88315511Y-105305390D01*
X87987605Y-105169580D01*
X87787500Y-105204048D01*
X87787500Y-106296000D01*
X87807500Y-106296000D01*
X87807500Y-106550000D01*
X87787500Y-106550000D01*
X87787500Y-106570000D01*
X87533500Y-106570000D01*
X87533500Y-106550000D01*
X87533500Y-106296000D01*
X87533500Y-105204048D01*
X87333395Y-105169580D01*
X87005489Y-105305390D01*
X86627658Y-105641125D01*
X86407068Y-106095893D01*
X86441179Y-106296000D01*
X87533500Y-106296000D01*
X87533500Y-106550000D01*
X86441179Y-106550000D01*
X86407068Y-106750107D01*
X86627658Y-107204875D01*
X87005489Y-107540610D01*
X87298882Y-107662126D01*
X86644500Y-107662126D01*
X86537966Y-107682796D01*
X86514774Y-107698030D01*
X84722774Y-106641815D01*
X84722774Y-106126000D01*
X84702104Y-106019466D01*
X84640596Y-105925832D01*
X84640187Y-105925556D01*
X84700746Y-105835842D01*
X84722774Y-105726000D01*
X84722774Y-104843070D01*
X88685656Y-104843070D01*
X88685656Y-105634295D01*
G36*
X70254700Y-105390000D02*
X70234700Y-105390000D01*
X70234700Y-105412000D01*
X69980700Y-105412000D01*
X69980700Y-105390000D01*
X69598150Y-105390000D01*
X69528300Y-105459850D01*
X69528300Y-105485600D01*
X69487550Y-105485600D01*
X69417700Y-105555450D01*
X69417700Y-105938000D01*
X69464700Y-105938000D01*
X69464700Y-106192000D01*
X69417700Y-106192000D01*
X69417700Y-106212000D01*
X69217700Y-106212000D01*
X69217700Y-106192000D01*
X69217700Y-105938000D01*
X69217700Y-105555450D01*
X69147850Y-105485600D01*
X69062124Y-105485600D01*
X68959433Y-105528136D01*
X68880836Y-105606733D01*
X68838300Y-105709424D01*
X68838300Y-105820576D01*
X68838300Y-105868150D01*
X68908150Y-105938000D01*
X69217700Y-105938000D01*
X69217700Y-106192000D01*
X68908150Y-106192000D01*
X68838300Y-106261850D01*
X68838300Y-106309424D01*
X68838300Y-106322092D01*
X68832100Y-106326165D01*
X68832100Y-106231850D01*
X68832100Y-105838150D01*
X68832100Y-105579424D01*
X68789564Y-105476733D01*
X68710967Y-105398136D01*
X68608276Y-105355600D01*
X68497124Y-105355600D01*
X68374550Y-105355600D01*
X68304700Y-105425450D01*
X68304700Y-105908000D01*
X68762250Y-105908000D01*
X68832100Y-105838150D01*
X68832100Y-106231850D01*
X68762250Y-106162000D01*
X68304700Y-106162000D01*
X68304700Y-106644550D01*
X68374550Y-106714400D01*
X68497124Y-106714400D01*
X68608276Y-106714400D01*
X68710967Y-106671864D01*
X68722826Y-106660005D01*
X68722826Y-106912846D01*
X68662542Y-106872154D01*
X68552700Y-106850126D01*
X68050700Y-106850126D01*
X68050700Y-106644550D01*
X68050700Y-106162000D01*
X68050700Y-105908000D01*
X68050700Y-105425450D01*
X67980850Y-105355600D01*
X67858276Y-105355600D01*
X67747124Y-105355600D01*
X67644433Y-105398136D01*
X67565836Y-105476733D01*
X67523300Y-105579424D01*
X67523300Y-105838150D01*
X67593150Y-105908000D01*
X68050700Y-105908000D01*
X68050700Y-106162000D01*
X67593150Y-106162000D01*
X67523300Y-106231850D01*
X67523300Y-106490576D01*
X67565836Y-106593267D01*
X67644433Y-106671864D01*
X67747124Y-106714400D01*
X67858276Y-106714400D01*
X67980850Y-106714400D01*
X68050700Y-106644550D01*
X68050700Y-106850126D01*
X67802700Y-106850126D01*
X67696166Y-106870796D01*
X67602532Y-106932304D01*
X67539854Y-107025158D01*
X67536769Y-107040536D01*
X60656918Y-106133036D01*
X59993227Y-106021281D01*
X59984965Y-106018130D01*
X59942808Y-105994086D01*
X58316575Y-105451573D01*
X58253286Y-105298402D01*
X58067675Y-105112467D01*
X57825038Y-105011715D01*
X57562315Y-105011486D01*
X57319502Y-105111814D01*
X57238487Y-105192687D01*
X57119475Y-105073467D01*
X56876838Y-104972715D01*
X56614115Y-104972486D01*
X56371302Y-105072814D01*
X56185367Y-105258425D01*
X56084615Y-105501062D01*
X56084386Y-105763785D01*
X56101886Y-105806138D01*
X56069504Y-105848616D01*
X56054356Y-105879576D01*
X56032712Y-105906401D01*
X55895081Y-106169100D01*
X55846869Y-106130346D01*
X55774987Y-106121331D01*
X55713330Y-106177558D01*
X55713330Y-106754640D01*
X55747620Y-106754640D01*
X55747620Y-107008640D01*
X55713330Y-107008640D01*
X55713330Y-107028640D01*
X55588870Y-107028640D01*
X55588870Y-107008640D01*
X55554580Y-107008640D01*
X55554580Y-106754640D01*
X55588870Y-106754640D01*
X55588870Y-106177558D01*
X55527213Y-106121331D01*
X55455331Y-106130346D01*
X55396060Y-106177989D01*
X55375821Y-106164465D01*
X55351514Y-106037059D01*
X55433753Y-105954965D01*
X55528692Y-105726326D01*
X55528908Y-105478760D01*
X55434368Y-105249956D01*
X55259465Y-105074747D01*
X55030826Y-104979808D01*
X54783260Y-104979592D01*
X54554456Y-105074132D01*
X54483352Y-105145111D01*
X54329975Y-104991467D01*
X54087338Y-104890715D01*
X53824615Y-104890486D01*
X53581802Y-104990814D01*
X53395867Y-105176425D01*
X53295115Y-105419062D01*
X53294886Y-105681785D01*
X53395214Y-105924598D01*
X53580825Y-106110533D01*
X53823462Y-106211285D01*
X53860080Y-106211316D01*
X53776842Y-106335892D01*
X53746100Y-106490443D01*
X53746100Y-107272837D01*
X53776842Y-107427388D01*
X53864388Y-107558409D01*
X53995409Y-107645955D01*
X53999320Y-107646733D01*
X53951062Y-107678434D01*
X53916821Y-107729160D01*
X53916055Y-107725309D01*
X53828509Y-107594288D01*
X53697488Y-107506742D01*
X53542937Y-107476000D01*
X52760543Y-107476000D01*
X52605992Y-107506742D01*
X52474971Y-107594288D01*
X52387425Y-107725309D01*
X52356683Y-107879860D01*
X52387425Y-108034411D01*
X52451329Y-108130050D01*
X52387425Y-108225689D01*
X52356683Y-108380240D01*
X52387425Y-108534791D01*
X52451329Y-108630430D01*
X52387425Y-108726069D01*
X52356683Y-108880620D01*
X52387425Y-109035171D01*
X52448089Y-109125960D01*
X52400446Y-109185231D01*
X52391431Y-109257113D01*
X52447658Y-109318770D01*
X53024740Y-109318770D01*
X53024740Y-109284480D01*
X53278740Y-109284480D01*
X53278740Y-109318770D01*
X53298740Y-109318770D01*
X53298740Y-109443230D01*
X53278740Y-109443230D01*
X53278740Y-109477520D01*
X53024740Y-109477520D01*
X53024740Y-109443230D01*
X52447658Y-109443230D01*
X52391431Y-109504887D01*
X52400446Y-109576769D01*
X52448089Y-109636039D01*
X52387425Y-109726829D01*
X52356683Y-109881380D01*
X52387425Y-110035931D01*
X52448089Y-110126720D01*
X52400446Y-110185991D01*
X52391431Y-110257873D01*
X52447658Y-110319530D01*
X53024740Y-110319530D01*
X53024740Y-110285240D01*
X53278740Y-110285240D01*
X53278740Y-110319530D01*
X53298740Y-110319530D01*
X53298740Y-110443990D01*
X53278740Y-110443990D01*
X53278740Y-110478280D01*
X53024740Y-110478280D01*
X53024740Y-110443990D01*
X52447658Y-110443990D01*
X52391431Y-110505647D01*
X52400446Y-110577529D01*
X52448089Y-110636799D01*
X52387425Y-110727589D01*
X52356683Y-110882140D01*
X52387425Y-111036691D01*
X52474971Y-111167712D01*
X52605992Y-111255258D01*
X52760543Y-111286000D01*
X53542937Y-111286000D01*
X53697488Y-111255258D01*
X53828509Y-111167712D01*
X53916055Y-111036691D01*
X53916833Y-111032779D01*
X53948534Y-111081038D01*
X53999260Y-111115278D01*
X53995409Y-111116045D01*
X53864388Y-111203591D01*
X53776842Y-111334612D01*
X53746100Y-111489163D01*
X53746100Y-111613411D01*
X53620638Y-111561315D01*
X53357915Y-111561086D01*
X53115102Y-111661414D01*
X52929167Y-111847025D01*
X52828415Y-112089662D01*
X52828186Y-112352385D01*
X52919259Y-112572800D01*
X51644456Y-112572800D01*
X51644456Y-104843070D01*
X69584499Y-104843070D01*
X69570836Y-104856733D01*
X69528300Y-104959424D01*
X69528300Y-105070150D01*
X69598150Y-105140000D01*
X69980700Y-105140000D01*
X69980700Y-105118000D01*
X70234700Y-105118000D01*
X70234700Y-105140000D01*
X70254700Y-105140000D01*
X70254700Y-105390000D01*
X70254700Y-105390000D01*
G37*
X70254700Y-105390000D02*
X70234700Y-105390000D01*
X70234700Y-105412000D01*
X69980700Y-105412000D01*
X69980700Y-105390000D01*
X69598150Y-105390000D01*
X69528300Y-105459850D01*
X69528300Y-105485600D01*
X69487550Y-105485600D01*
X69417700Y-105555450D01*
X69417700Y-105938000D01*
X69464700Y-105938000D01*
X69464700Y-106192000D01*
X69417700Y-106192000D01*
X69417700Y-106212000D01*
X69217700Y-106212000D01*
X69217700Y-106192000D01*
X69217700Y-105938000D01*
X69217700Y-105555450D01*
X69147850Y-105485600D01*
X69062124Y-105485600D01*
X68959433Y-105528136D01*
X68880836Y-105606733D01*
X68838300Y-105709424D01*
X68838300Y-105820576D01*
X68838300Y-105868150D01*
X68908150Y-105938000D01*
X69217700Y-105938000D01*
X69217700Y-106192000D01*
X68908150Y-106192000D01*
X68838300Y-106261850D01*
X68838300Y-106309424D01*
X68838300Y-106322092D01*
X68832100Y-106326165D01*
X68832100Y-106231850D01*
X68832100Y-105838150D01*
X68832100Y-105579424D01*
X68789564Y-105476733D01*
X68710967Y-105398136D01*
X68608276Y-105355600D01*
X68497124Y-105355600D01*
X68374550Y-105355600D01*
X68304700Y-105425450D01*
X68304700Y-105908000D01*
X68762250Y-105908000D01*
X68832100Y-105838150D01*
X68832100Y-106231850D01*
X68762250Y-106162000D01*
X68304700Y-106162000D01*
X68304700Y-106644550D01*
X68374550Y-106714400D01*
X68497124Y-106714400D01*
X68608276Y-106714400D01*
X68710967Y-106671864D01*
X68722826Y-106660005D01*
X68722826Y-106912846D01*
X68662542Y-106872154D01*
X68552700Y-106850126D01*
X68050700Y-106850126D01*
X68050700Y-106644550D01*
X68050700Y-106162000D01*
X68050700Y-105908000D01*
X68050700Y-105425450D01*
X67980850Y-105355600D01*
X67858276Y-105355600D01*
X67747124Y-105355600D01*
X67644433Y-105398136D01*
X67565836Y-105476733D01*
X67523300Y-105579424D01*
X67523300Y-105838150D01*
X67593150Y-105908000D01*
X68050700Y-105908000D01*
X68050700Y-106162000D01*
X67593150Y-106162000D01*
X67523300Y-106231850D01*
X67523300Y-106490576D01*
X67565836Y-106593267D01*
X67644433Y-106671864D01*
X67747124Y-106714400D01*
X67858276Y-106714400D01*
X67980850Y-106714400D01*
X68050700Y-106644550D01*
X68050700Y-106850126D01*
X67802700Y-106850126D01*
X67696166Y-106870796D01*
X67602532Y-106932304D01*
X67539854Y-107025158D01*
X67536769Y-107040536D01*
X60656918Y-106133036D01*
X59993227Y-106021281D01*
X59984965Y-106018130D01*
X59942808Y-105994086D01*
X58316575Y-105451573D01*
X58253286Y-105298402D01*
X58067675Y-105112467D01*
X57825038Y-105011715D01*
X57562315Y-105011486D01*
X57319502Y-105111814D01*
X57238487Y-105192687D01*
X57119475Y-105073467D01*
X56876838Y-104972715D01*
X56614115Y-104972486D01*
X56371302Y-105072814D01*
X56185367Y-105258425D01*
X56084615Y-105501062D01*
X56084386Y-105763785D01*
X56101886Y-105806138D01*
X56069504Y-105848616D01*
X56054356Y-105879576D01*
X56032712Y-105906401D01*
X55895081Y-106169100D01*
X55846869Y-106130346D01*
X55774987Y-106121331D01*
X55713330Y-106177558D01*
X55713330Y-106754640D01*
X55747620Y-106754640D01*
X55747620Y-107008640D01*
X55713330Y-107008640D01*
X55713330Y-107028640D01*
X55588870Y-107028640D01*
X55588870Y-107008640D01*
X55554580Y-107008640D01*
X55554580Y-106754640D01*
X55588870Y-106754640D01*
X55588870Y-106177558D01*
X55527213Y-106121331D01*
X55455331Y-106130346D01*
X55396060Y-106177989D01*
X55375821Y-106164465D01*
X55351514Y-106037059D01*
X55433753Y-105954965D01*
X55528692Y-105726326D01*
X55528908Y-105478760D01*
X55434368Y-105249956D01*
X55259465Y-105074747D01*
X55030826Y-104979808D01*
X54783260Y-104979592D01*
X54554456Y-105074132D01*
X54483352Y-105145111D01*
X54329975Y-104991467D01*
X54087338Y-104890715D01*
X53824615Y-104890486D01*
X53581802Y-104990814D01*
X53395867Y-105176425D01*
X53295115Y-105419062D01*
X53294886Y-105681785D01*
X53395214Y-105924598D01*
X53580825Y-106110533D01*
X53823462Y-106211285D01*
X53860080Y-106211316D01*
X53776842Y-106335892D01*
X53746100Y-106490443D01*
X53746100Y-107272837D01*
X53776842Y-107427388D01*
X53864388Y-107558409D01*
X53995409Y-107645955D01*
X53999320Y-107646733D01*
X53951062Y-107678434D01*
X53916821Y-107729160D01*
X53916055Y-107725309D01*
X53828509Y-107594288D01*
X53697488Y-107506742D01*
X53542937Y-107476000D01*
X52760543Y-107476000D01*
X52605992Y-107506742D01*
X52474971Y-107594288D01*
X52387425Y-107725309D01*
X52356683Y-107879860D01*
X52387425Y-108034411D01*
X52451329Y-108130050D01*
X52387425Y-108225689D01*
X52356683Y-108380240D01*
X52387425Y-108534791D01*
X52451329Y-108630430D01*
X52387425Y-108726069D01*
X52356683Y-108880620D01*
X52387425Y-109035171D01*
X52448089Y-109125960D01*
X52400446Y-109185231D01*
X52391431Y-109257113D01*
X52447658Y-109318770D01*
X53024740Y-109318770D01*
X53024740Y-109284480D01*
X53278740Y-109284480D01*
X53278740Y-109318770D01*
X53298740Y-109318770D01*
X53298740Y-109443230D01*
X53278740Y-109443230D01*
X53278740Y-109477520D01*
X53024740Y-109477520D01*
X53024740Y-109443230D01*
X52447658Y-109443230D01*
X52391431Y-109504887D01*
X52400446Y-109576769D01*
X52448089Y-109636039D01*
X52387425Y-109726829D01*
X52356683Y-109881380D01*
X52387425Y-110035931D01*
X52448089Y-110126720D01*
X52400446Y-110185991D01*
X52391431Y-110257873D01*
X52447658Y-110319530D01*
X53024740Y-110319530D01*
X53024740Y-110285240D01*
X53278740Y-110285240D01*
X53278740Y-110319530D01*
X53298740Y-110319530D01*
X53298740Y-110443990D01*
X53278740Y-110443990D01*
X53278740Y-110478280D01*
X53024740Y-110478280D01*
X53024740Y-110443990D01*
X52447658Y-110443990D01*
X52391431Y-110505647D01*
X52400446Y-110577529D01*
X52448089Y-110636799D01*
X52387425Y-110727589D01*
X52356683Y-110882140D01*
X52387425Y-111036691D01*
X52474971Y-111167712D01*
X52605992Y-111255258D01*
X52760543Y-111286000D01*
X53542937Y-111286000D01*
X53697488Y-111255258D01*
X53828509Y-111167712D01*
X53916055Y-111036691D01*
X53916833Y-111032779D01*
X53948534Y-111081038D01*
X53999260Y-111115278D01*
X53995409Y-111116045D01*
X53864388Y-111203591D01*
X53776842Y-111334612D01*
X53746100Y-111489163D01*
X53746100Y-111613411D01*
X53620638Y-111561315D01*
X53357915Y-111561086D01*
X53115102Y-111661414D01*
X52929167Y-111847025D01*
X52828415Y-112089662D01*
X52828186Y-112352385D01*
X52919259Y-112572800D01*
X51644456Y-112572800D01*
X51644456Y-104843070D01*
X69584499Y-104843070D01*
X69570836Y-104856733D01*
X69528300Y-104959424D01*
X69528300Y-105070150D01*
X69598150Y-105140000D01*
X69980700Y-105140000D01*
X69980700Y-105118000D01*
X70234700Y-105118000D01*
X70234700Y-105140000D01*
X70254700Y-105140000D01*
X70254700Y-105390000D01*
G36*
X71983600Y-109214000D02*
X71886000Y-109214000D01*
X71886000Y-109194000D01*
X71576450Y-109194000D01*
X71506600Y-109263850D01*
X71506600Y-109268392D01*
X67945664Y-108521745D01*
X68172058Y-108219874D01*
X68552700Y-108219874D01*
X68659234Y-108199204D01*
X68704287Y-108169608D01*
X68722826Y-108176645D01*
X68722826Y-108245000D01*
X68743496Y-108351534D01*
X68805004Y-108445168D01*
X68897858Y-108507846D01*
X69007700Y-108529874D01*
X69507700Y-108529874D01*
X69614234Y-108509204D01*
X69707868Y-108447696D01*
X69770546Y-108354842D01*
X69778488Y-108315236D01*
X69792843Y-108314210D01*
X69827858Y-108337846D01*
X69937700Y-108359874D01*
X70424745Y-108359874D01*
X70443116Y-108454554D01*
X70504624Y-108548188D01*
X70597478Y-108610866D01*
X70707320Y-108632894D01*
X71539128Y-108632894D01*
X71506600Y-108711424D01*
X71506600Y-108822576D01*
X71506600Y-108870150D01*
X71576450Y-108940000D01*
X71886000Y-108940000D01*
X71886000Y-108920000D01*
X71983600Y-108920000D01*
X71983600Y-109214000D01*
X71983600Y-109214000D01*
G37*
X71983600Y-109214000D02*
X71886000Y-109214000D01*
X71886000Y-109194000D01*
X71576450Y-109194000D01*
X71506600Y-109263850D01*
X71506600Y-109268392D01*
X67945664Y-108521745D01*
X68172058Y-108219874D01*
X68552700Y-108219874D01*
X68659234Y-108199204D01*
X68704287Y-108169608D01*
X68722826Y-108176645D01*
X68722826Y-108245000D01*
X68743496Y-108351534D01*
X68805004Y-108445168D01*
X68897858Y-108507846D01*
X69007700Y-108529874D01*
X69507700Y-108529874D01*
X69614234Y-108509204D01*
X69707868Y-108447696D01*
X69770546Y-108354842D01*
X69778488Y-108315236D01*
X69792843Y-108314210D01*
X69827858Y-108337846D01*
X69937700Y-108359874D01*
X70424745Y-108359874D01*
X70443116Y-108454554D01*
X70504624Y-108548188D01*
X70597478Y-108610866D01*
X70707320Y-108632894D01*
X71539128Y-108632894D01*
X71506600Y-108711424D01*
X71506600Y-108822576D01*
X71506600Y-108870150D01*
X71576450Y-108940000D01*
X71886000Y-108940000D01*
X71886000Y-108920000D01*
X71983600Y-108920000D01*
X71983600Y-109214000D01*
G36*
X56501900Y-114537000D02*
X56481900Y-114537000D01*
X56481900Y-114557000D01*
X56227900Y-114557000D01*
X56227900Y-114537000D01*
X56207900Y-114537000D01*
X56207900Y-114283000D01*
X56227900Y-114283000D01*
X56227900Y-114263000D01*
X56481900Y-114263000D01*
X56481900Y-114283000D01*
X56501900Y-114283000D01*
X56501900Y-114537000D01*
X56501900Y-114537000D01*
G37*
X56501900Y-114537000D02*
X56481900Y-114537000D01*
X56481900Y-114557000D01*
X56227900Y-114557000D01*
X56227900Y-114537000D01*
X56207900Y-114537000D01*
X56207900Y-114283000D01*
X56227900Y-114283000D01*
X56227900Y-114263000D01*
X56481900Y-114263000D01*
X56481900Y-114283000D01*
X56501900Y-114283000D01*
X56501900Y-114537000D01*
G36*
X57951900Y-115687000D02*
X57931900Y-115687000D01*
X57931900Y-115707000D01*
X57677900Y-115707000D01*
X57677900Y-115687000D01*
X57657900Y-115687000D01*
X57657900Y-115433000D01*
X57677900Y-115433000D01*
X57677900Y-115413000D01*
X57931900Y-115413000D01*
X57931900Y-115433000D01*
X57951900Y-115433000D01*
X57951900Y-115687000D01*
X57951900Y-115687000D01*
G37*
X57951900Y-115687000D02*
X57931900Y-115687000D01*
X57931900Y-115707000D01*
X57677900Y-115707000D01*
X57677900Y-115687000D01*
X57657900Y-115687000D01*
X57657900Y-115433000D01*
X57677900Y-115433000D01*
X57677900Y-115413000D01*
X57931900Y-115413000D01*
X57931900Y-115433000D01*
X57951900Y-115433000D01*
X57951900Y-115687000D01*
G36*
X62245400Y-120863000D02*
X62198400Y-120863000D01*
X62198400Y-120883000D01*
X61998400Y-120883000D01*
X61998400Y-120863000D01*
X61688850Y-120863000D01*
X61619000Y-120932850D01*
X61619000Y-120944270D01*
X54991000Y-120944270D01*
X54991000Y-120490105D01*
X55042034Y-120480204D01*
X55135668Y-120418696D01*
X55185738Y-120344519D01*
X55232804Y-120416168D01*
X55325658Y-120478846D01*
X55435500Y-120500874D01*
X55835500Y-120500874D01*
X55942034Y-120480204D01*
X56035668Y-120418696D01*
X56064729Y-120375643D01*
X56554026Y-120433149D01*
X56554026Y-120578000D01*
X56574696Y-120684534D01*
X56636204Y-120778168D01*
X56729058Y-120840846D01*
X56838900Y-120862874D01*
X57188900Y-120862874D01*
X57295434Y-120842204D01*
X57389068Y-120780696D01*
X57392048Y-120776279D01*
X57430633Y-120814864D01*
X57533324Y-120857400D01*
X57606550Y-120857400D01*
X57676400Y-120787550D01*
X57676400Y-120205000D01*
X57616900Y-120205000D01*
X57616900Y-119951000D01*
X57676400Y-119951000D01*
X57676400Y-119368450D01*
X57676400Y-117987550D01*
X57676400Y-117405000D01*
X57398450Y-117405000D01*
X57379350Y-117405000D01*
X57101400Y-117405000D01*
X57101400Y-117987550D01*
X57171250Y-118057400D01*
X57244476Y-118057400D01*
X57347167Y-118014864D01*
X57388900Y-117973131D01*
X57430633Y-118014864D01*
X57533324Y-118057400D01*
X57606550Y-118057400D01*
X57676400Y-117987550D01*
X57676400Y-119368450D01*
X57606550Y-119298600D01*
X57533324Y-119298600D01*
X57430633Y-119341136D01*
X57392524Y-119379244D01*
X57391596Y-119377832D01*
X57298742Y-119315154D01*
X57188900Y-119293126D01*
X56926400Y-119293126D01*
X56926400Y-117987550D01*
X56926400Y-117405000D01*
X56629350Y-117405000D01*
X56559500Y-117474850D01*
X56559500Y-117722424D01*
X56559500Y-117833576D01*
X56602036Y-117936267D01*
X56680633Y-118014864D01*
X56783324Y-118057400D01*
X56856550Y-118057400D01*
X56926400Y-117987550D01*
X56926400Y-119293126D01*
X56838900Y-119293126D01*
X56732366Y-119313796D01*
X56638732Y-119375304D01*
X56576054Y-119468158D01*
X56554026Y-119578000D01*
X56554026Y-119614754D01*
X56110007Y-119562570D01*
X56099704Y-119509466D01*
X56087247Y-119490503D01*
X56135668Y-119458696D01*
X56198346Y-119365842D01*
X56220374Y-119256000D01*
X56220374Y-118656000D01*
X56199704Y-118549466D01*
X56138196Y-118455832D01*
X56063490Y-118405404D01*
X56093767Y-118392864D01*
X56172364Y-118314267D01*
X56214900Y-118211576D01*
X56214900Y-118052850D01*
X56214900Y-117659150D01*
X56214900Y-117500424D01*
X56172364Y-117397733D01*
X56093767Y-117319136D01*
X55991076Y-117276600D01*
X55880350Y-117276600D01*
X55810500Y-117346450D01*
X55810500Y-117729000D01*
X56145050Y-117729000D01*
X56214900Y-117659150D01*
X56214900Y-118052850D01*
X56145050Y-117983000D01*
X55810500Y-117983000D01*
X55810500Y-118003000D01*
X55560500Y-118003000D01*
X55560500Y-117983000D01*
X55560500Y-117729000D01*
X55560500Y-117346450D01*
X55490650Y-117276600D01*
X55379924Y-117276600D01*
X55277233Y-117319136D01*
X55198636Y-117397733D01*
X55156100Y-117500424D01*
X55156100Y-117659150D01*
X55225950Y-117729000D01*
X55560500Y-117729000D01*
X55560500Y-117983000D01*
X55225950Y-117983000D01*
X55156100Y-118052850D01*
X55156100Y-118211576D01*
X55198636Y-118314267D01*
X55277233Y-118392864D01*
X55307963Y-118405592D01*
X55235332Y-118453304D01*
X55172654Y-118546158D01*
X55150626Y-118656000D01*
X55150626Y-119256000D01*
X55171296Y-119362534D01*
X55219780Y-119436342D01*
X55185261Y-119487480D01*
X55138196Y-119415832D01*
X55101377Y-119390979D01*
X55118346Y-119365842D01*
X55140374Y-119256000D01*
X55140374Y-118656000D01*
X55119704Y-118549466D01*
X55058196Y-118455832D01*
X54991000Y-118410473D01*
X54991000Y-118402294D01*
X55013767Y-118392864D01*
X55092364Y-118314267D01*
X55134900Y-118211576D01*
X55134900Y-118052850D01*
X55065050Y-117983000D01*
X54991000Y-117983000D01*
X54991000Y-117729000D01*
X55065050Y-117729000D01*
X55134900Y-117659150D01*
X55134900Y-117500424D01*
X55092364Y-117397733D01*
X55013767Y-117319136D01*
X54991000Y-117309705D01*
X54991000Y-113969800D01*
X55600500Y-113969800D01*
X55600500Y-114040576D01*
X55600500Y-114206750D01*
X55595800Y-114211450D01*
X55595800Y-114496000D01*
X55600500Y-114496000D01*
X55600500Y-114537002D01*
X55655300Y-114537002D01*
X55655300Y-114552050D01*
X55600500Y-114606850D01*
X55600500Y-114646000D01*
X55595800Y-114646000D01*
X55595800Y-114686126D01*
X55420800Y-114686126D01*
X55420800Y-114646000D01*
X55420800Y-114496000D01*
X55420800Y-114211450D01*
X55350950Y-114141600D01*
X55277724Y-114141600D01*
X55175033Y-114184136D01*
X55096436Y-114262733D01*
X55053900Y-114365424D01*
X55053900Y-114426150D01*
X55123750Y-114496000D01*
X55420800Y-114496000D01*
X55420800Y-114646000D01*
X55123750Y-114646000D01*
X55053900Y-114715850D01*
X55053900Y-114776576D01*
X55081907Y-114844190D01*
X55070454Y-114861158D01*
X55048426Y-114971000D01*
X55048426Y-115271000D01*
X55069096Y-115377534D01*
X55130604Y-115471168D01*
X55223458Y-115533846D01*
X55333300Y-115555874D01*
X55464108Y-115555874D01*
X55595026Y-115623760D01*
X55595026Y-115985000D01*
X55615696Y-116091534D01*
X55677204Y-116185168D01*
X55770058Y-116247846D01*
X55879900Y-116269874D01*
X56579218Y-116269874D01*
X56886898Y-116522408D01*
X56886898Y-116528948D01*
X56856550Y-116498600D01*
X56783324Y-116498600D01*
X56680633Y-116541136D01*
X56602036Y-116619733D01*
X56559500Y-116722424D01*
X56559500Y-116833576D01*
X56559500Y-117081150D01*
X56629350Y-117151000D01*
X56926400Y-117151000D01*
X56926400Y-117131000D01*
X57101400Y-117131000D01*
X57101400Y-117151000D01*
X57379350Y-117151000D01*
X57398450Y-117151000D01*
X57676400Y-117151000D01*
X57676400Y-117131000D01*
X57851400Y-117131000D01*
X57851400Y-117151000D01*
X57910900Y-117151000D01*
X57910900Y-117405000D01*
X57851400Y-117405000D01*
X57851400Y-117987550D01*
X57921250Y-118057400D01*
X57994476Y-118057400D01*
X58097167Y-118014864D01*
X58135275Y-117976755D01*
X58136204Y-117978168D01*
X58229058Y-118040846D01*
X58338900Y-118062874D01*
X58508232Y-118062874D01*
X58552908Y-118137908D01*
X58584923Y-118173440D01*
X58610972Y-118213559D01*
X59097972Y-118713559D01*
X59137293Y-118740588D01*
X59171873Y-118773473D01*
X60417167Y-119561048D01*
X60223392Y-119566777D01*
X60217076Y-119568228D01*
X60210658Y-119567354D01*
X58973774Y-119642795D01*
X58973774Y-119578000D01*
X58953104Y-119471466D01*
X58891596Y-119377832D01*
X58798742Y-119315154D01*
X58688900Y-119293126D01*
X58338900Y-119293126D01*
X58232366Y-119313796D01*
X58138732Y-119375304D01*
X58135751Y-119379720D01*
X58097167Y-119341136D01*
X57994476Y-119298600D01*
X57921250Y-119298600D01*
X57851400Y-119368450D01*
X57851400Y-119951000D01*
X57910900Y-119951000D01*
X57910900Y-120205000D01*
X57851400Y-120205000D01*
X57851400Y-120787550D01*
X57921250Y-120857400D01*
X57994476Y-120857400D01*
X58097167Y-120814864D01*
X58135275Y-120776755D01*
X58136204Y-120778168D01*
X58229058Y-120840846D01*
X58338900Y-120862874D01*
X58688900Y-120862874D01*
X58795434Y-120842204D01*
X58889068Y-120780696D01*
X58951746Y-120687842D01*
X58973774Y-120578000D01*
X58973774Y-120457105D01*
X60253760Y-120379035D01*
X61636505Y-120338160D01*
X61619000Y-120380424D01*
X61619000Y-120491576D01*
X61619000Y-120539150D01*
X61688850Y-120609000D01*
X61998400Y-120609000D01*
X61998400Y-120589000D01*
X62198400Y-120589000D01*
X62198400Y-120609000D01*
X62245400Y-120609000D01*
X62245400Y-120863000D01*
X62245400Y-120863000D01*
G37*
X62245400Y-120863000D02*
X62198400Y-120863000D01*
X62198400Y-120883000D01*
X61998400Y-120883000D01*
X61998400Y-120863000D01*
X61688850Y-120863000D01*
X61619000Y-120932850D01*
X61619000Y-120944270D01*
X54991000Y-120944270D01*
X54991000Y-120490105D01*
X55042034Y-120480204D01*
X55135668Y-120418696D01*
X55185738Y-120344519D01*
X55232804Y-120416168D01*
X55325658Y-120478846D01*
X55435500Y-120500874D01*
X55835500Y-120500874D01*
X55942034Y-120480204D01*
X56035668Y-120418696D01*
X56064729Y-120375643D01*
X56554026Y-120433149D01*
X56554026Y-120578000D01*
X56574696Y-120684534D01*
X56636204Y-120778168D01*
X56729058Y-120840846D01*
X56838900Y-120862874D01*
X57188900Y-120862874D01*
X57295434Y-120842204D01*
X57389068Y-120780696D01*
X57392048Y-120776279D01*
X57430633Y-120814864D01*
X57533324Y-120857400D01*
X57606550Y-120857400D01*
X57676400Y-120787550D01*
X57676400Y-120205000D01*
X57616900Y-120205000D01*
X57616900Y-119951000D01*
X57676400Y-119951000D01*
X57676400Y-119368450D01*
X57676400Y-117987550D01*
X57676400Y-117405000D01*
X57398450Y-117405000D01*
X57379350Y-117405000D01*
X57101400Y-117405000D01*
X57101400Y-117987550D01*
X57171250Y-118057400D01*
X57244476Y-118057400D01*
X57347167Y-118014864D01*
X57388900Y-117973131D01*
X57430633Y-118014864D01*
X57533324Y-118057400D01*
X57606550Y-118057400D01*
X57676400Y-117987550D01*
X57676400Y-119368450D01*
X57606550Y-119298600D01*
X57533324Y-119298600D01*
X57430633Y-119341136D01*
X57392524Y-119379244D01*
X57391596Y-119377832D01*
X57298742Y-119315154D01*
X57188900Y-119293126D01*
X56926400Y-119293126D01*
X56926400Y-117987550D01*
X56926400Y-117405000D01*
X56629350Y-117405000D01*
X56559500Y-117474850D01*
X56559500Y-117722424D01*
X56559500Y-117833576D01*
X56602036Y-117936267D01*
X56680633Y-118014864D01*
X56783324Y-118057400D01*
X56856550Y-118057400D01*
X56926400Y-117987550D01*
X56926400Y-119293126D01*
X56838900Y-119293126D01*
X56732366Y-119313796D01*
X56638732Y-119375304D01*
X56576054Y-119468158D01*
X56554026Y-119578000D01*
X56554026Y-119614754D01*
X56110007Y-119562570D01*
X56099704Y-119509466D01*
X56087247Y-119490503D01*
X56135668Y-119458696D01*
X56198346Y-119365842D01*
X56220374Y-119256000D01*
X56220374Y-118656000D01*
X56199704Y-118549466D01*
X56138196Y-118455832D01*
X56063490Y-118405404D01*
X56093767Y-118392864D01*
X56172364Y-118314267D01*
X56214900Y-118211576D01*
X56214900Y-118052850D01*
X56214900Y-117659150D01*
X56214900Y-117500424D01*
X56172364Y-117397733D01*
X56093767Y-117319136D01*
X55991076Y-117276600D01*
X55880350Y-117276600D01*
X55810500Y-117346450D01*
X55810500Y-117729000D01*
X56145050Y-117729000D01*
X56214900Y-117659150D01*
X56214900Y-118052850D01*
X56145050Y-117983000D01*
X55810500Y-117983000D01*
X55810500Y-118003000D01*
X55560500Y-118003000D01*
X55560500Y-117983000D01*
X55560500Y-117729000D01*
X55560500Y-117346450D01*
X55490650Y-117276600D01*
X55379924Y-117276600D01*
X55277233Y-117319136D01*
X55198636Y-117397733D01*
X55156100Y-117500424D01*
X55156100Y-117659150D01*
X55225950Y-117729000D01*
X55560500Y-117729000D01*
X55560500Y-117983000D01*
X55225950Y-117983000D01*
X55156100Y-118052850D01*
X55156100Y-118211576D01*
X55198636Y-118314267D01*
X55277233Y-118392864D01*
X55307963Y-118405592D01*
X55235332Y-118453304D01*
X55172654Y-118546158D01*
X55150626Y-118656000D01*
X55150626Y-119256000D01*
X55171296Y-119362534D01*
X55219780Y-119436342D01*
X55185261Y-119487480D01*
X55138196Y-119415832D01*
X55101377Y-119390979D01*
X55118346Y-119365842D01*
X55140374Y-119256000D01*
X55140374Y-118656000D01*
X55119704Y-118549466D01*
X55058196Y-118455832D01*
X54991000Y-118410473D01*
X54991000Y-118402294D01*
X55013767Y-118392864D01*
X55092364Y-118314267D01*
X55134900Y-118211576D01*
X55134900Y-118052850D01*
X55065050Y-117983000D01*
X54991000Y-117983000D01*
X54991000Y-117729000D01*
X55065050Y-117729000D01*
X55134900Y-117659150D01*
X55134900Y-117500424D01*
X55092364Y-117397733D01*
X55013767Y-117319136D01*
X54991000Y-117309705D01*
X54991000Y-113969800D01*
X55600500Y-113969800D01*
X55600500Y-114040576D01*
X55600500Y-114206750D01*
X55595800Y-114211450D01*
X55595800Y-114496000D01*
X55600500Y-114496000D01*
X55600500Y-114537002D01*
X55655300Y-114537002D01*
X55655300Y-114552050D01*
X55600500Y-114606850D01*
X55600500Y-114646000D01*
X55595800Y-114646000D01*
X55595800Y-114686126D01*
X55420800Y-114686126D01*
X55420800Y-114646000D01*
X55420800Y-114496000D01*
X55420800Y-114211450D01*
X55350950Y-114141600D01*
X55277724Y-114141600D01*
X55175033Y-114184136D01*
X55096436Y-114262733D01*
X55053900Y-114365424D01*
X55053900Y-114426150D01*
X55123750Y-114496000D01*
X55420800Y-114496000D01*
X55420800Y-114646000D01*
X55123750Y-114646000D01*
X55053900Y-114715850D01*
X55053900Y-114776576D01*
X55081907Y-114844190D01*
X55070454Y-114861158D01*
X55048426Y-114971000D01*
X55048426Y-115271000D01*
X55069096Y-115377534D01*
X55130604Y-115471168D01*
X55223458Y-115533846D01*
X55333300Y-115555874D01*
X55464108Y-115555874D01*
X55595026Y-115623760D01*
X55595026Y-115985000D01*
X55615696Y-116091534D01*
X55677204Y-116185168D01*
X55770058Y-116247846D01*
X55879900Y-116269874D01*
X56579218Y-116269874D01*
X56886898Y-116522408D01*
X56886898Y-116528948D01*
X56856550Y-116498600D01*
X56783324Y-116498600D01*
X56680633Y-116541136D01*
X56602036Y-116619733D01*
X56559500Y-116722424D01*
X56559500Y-116833576D01*
X56559500Y-117081150D01*
X56629350Y-117151000D01*
X56926400Y-117151000D01*
X56926400Y-117131000D01*
X57101400Y-117131000D01*
X57101400Y-117151000D01*
X57379350Y-117151000D01*
X57398450Y-117151000D01*
X57676400Y-117151000D01*
X57676400Y-117131000D01*
X57851400Y-117131000D01*
X57851400Y-117151000D01*
X57910900Y-117151000D01*
X57910900Y-117405000D01*
X57851400Y-117405000D01*
X57851400Y-117987550D01*
X57921250Y-118057400D01*
X57994476Y-118057400D01*
X58097167Y-118014864D01*
X58135275Y-117976755D01*
X58136204Y-117978168D01*
X58229058Y-118040846D01*
X58338900Y-118062874D01*
X58508232Y-118062874D01*
X58552908Y-118137908D01*
X58584923Y-118173440D01*
X58610972Y-118213559D01*
X59097972Y-118713559D01*
X59137293Y-118740588D01*
X59171873Y-118773473D01*
X60417167Y-119561048D01*
X60223392Y-119566777D01*
X60217076Y-119568228D01*
X60210658Y-119567354D01*
X58973774Y-119642795D01*
X58973774Y-119578000D01*
X58953104Y-119471466D01*
X58891596Y-119377832D01*
X58798742Y-119315154D01*
X58688900Y-119293126D01*
X58338900Y-119293126D01*
X58232366Y-119313796D01*
X58138732Y-119375304D01*
X58135751Y-119379720D01*
X58097167Y-119341136D01*
X57994476Y-119298600D01*
X57921250Y-119298600D01*
X57851400Y-119368450D01*
X57851400Y-119951000D01*
X57910900Y-119951000D01*
X57910900Y-120205000D01*
X57851400Y-120205000D01*
X57851400Y-120787550D01*
X57921250Y-120857400D01*
X57994476Y-120857400D01*
X58097167Y-120814864D01*
X58135275Y-120776755D01*
X58136204Y-120778168D01*
X58229058Y-120840846D01*
X58338900Y-120862874D01*
X58688900Y-120862874D01*
X58795434Y-120842204D01*
X58889068Y-120780696D01*
X58951746Y-120687842D01*
X58973774Y-120578000D01*
X58973774Y-120457105D01*
X60253760Y-120379035D01*
X61636505Y-120338160D01*
X61619000Y-120380424D01*
X61619000Y-120491576D01*
X61619000Y-120539150D01*
X61688850Y-120609000D01*
X61998400Y-120609000D01*
X61998400Y-120589000D01*
X62198400Y-120589000D01*
X62198400Y-120609000D01*
X62245400Y-120609000D01*
X62245400Y-120863000D01*
G36*
X65552847Y-116243142D02*
X65373242Y-116422747D01*
X65359100Y-116408605D01*
X65344957Y-116422747D01*
X65165352Y-116243142D01*
X65179495Y-116229000D01*
X65165352Y-116214857D01*
X65344957Y-116035252D01*
X65359100Y-116049395D01*
X65373242Y-116035252D01*
X65552847Y-116214857D01*
X65538705Y-116229000D01*
X65552847Y-116243142D01*
X65552847Y-116243142D01*
G37*
X65552847Y-116243142D02*
X65373242Y-116422747D01*
X65359100Y-116408605D01*
X65344957Y-116422747D01*
X65165352Y-116243142D01*
X65179495Y-116229000D01*
X65165352Y-116214857D01*
X65344957Y-116035252D01*
X65359100Y-116049395D01*
X65373242Y-116035252D01*
X65552847Y-116214857D01*
X65538705Y-116229000D01*
X65552847Y-116243142D01*
G36*
X67918389Y-120190600D02*
X67827598Y-120190600D01*
X67827598Y-120260448D01*
X67757750Y-120190600D01*
X67599024Y-120190600D01*
X67496333Y-120233136D01*
X67417736Y-120311733D01*
X67405007Y-120342463D01*
X67357296Y-120269832D01*
X67264442Y-120207154D01*
X67154600Y-120185126D01*
X66839911Y-120185126D01*
X66719123Y-120087296D01*
X66733150Y-120077924D01*
X66824064Y-119941861D01*
X66845065Y-119836284D01*
X66950640Y-119815284D01*
X67086703Y-119724370D01*
X67177617Y-119588307D01*
X67198617Y-119482732D01*
X67216403Y-119479194D01*
X67575356Y-119718108D01*
X67629657Y-119795129D01*
X67742415Y-120006916D01*
X67783706Y-120057397D01*
X67823799Y-120108863D01*
X67918389Y-120190600D01*
X67918389Y-120190600D01*
G37*
X67918389Y-120190600D02*
X67827598Y-120190600D01*
X67827598Y-120260448D01*
X67757750Y-120190600D01*
X67599024Y-120190600D01*
X67496333Y-120233136D01*
X67417736Y-120311733D01*
X67405007Y-120342463D01*
X67357296Y-120269832D01*
X67264442Y-120207154D01*
X67154600Y-120185126D01*
X66839911Y-120185126D01*
X66719123Y-120087296D01*
X66733150Y-120077924D01*
X66824064Y-119941861D01*
X66845065Y-119836284D01*
X66950640Y-119815284D01*
X67086703Y-119724370D01*
X67177617Y-119588307D01*
X67198617Y-119482732D01*
X67216403Y-119479194D01*
X67575356Y-119718108D01*
X67629657Y-119795129D01*
X67742415Y-120006916D01*
X67783706Y-120057397D01*
X67823799Y-120108863D01*
X67918389Y-120190600D01*
G36*
X69963282Y-115913400D02*
X69160234Y-116255031D01*
X69139010Y-116233807D01*
X69133246Y-116229956D01*
X69260491Y-116102711D01*
X69013428Y-115855648D01*
X68999285Y-115869790D01*
X68900290Y-115770795D01*
X68914433Y-115756653D01*
X68906937Y-115749157D01*
X69086542Y-115569552D01*
X69094038Y-115577048D01*
X69108180Y-115562905D01*
X69207175Y-115661900D01*
X69193033Y-115676043D01*
X69440096Y-115923106D01*
X69641622Y-115721581D01*
X69653781Y-115681565D01*
X69681453Y-115709237D01*
X69730843Y-115659847D01*
X69730843Y-115758627D01*
X69843079Y-115870864D01*
X69945770Y-115913400D01*
X69963282Y-115913400D01*
X69963282Y-115913400D01*
G37*
X69963282Y-115913400D02*
X69160234Y-116255031D01*
X69139010Y-116233807D01*
X69133246Y-116229956D01*
X69260491Y-116102711D01*
X69013428Y-115855648D01*
X68999285Y-115869790D01*
X68900290Y-115770795D01*
X68914433Y-115756653D01*
X68906937Y-115749157D01*
X69086542Y-115569552D01*
X69094038Y-115577048D01*
X69108180Y-115562905D01*
X69207175Y-115661900D01*
X69193033Y-115676043D01*
X69440096Y-115923106D01*
X69641622Y-115721581D01*
X69653781Y-115681565D01*
X69681453Y-115709237D01*
X69730843Y-115659847D01*
X69730843Y-115758627D01*
X69843079Y-115870864D01*
X69945770Y-115913400D01*
X69963282Y-115913400D01*
G36*
X74805226Y-116802029D02*
X74715042Y-116741154D01*
X74605200Y-116719126D01*
X74103200Y-116719126D01*
X73855200Y-116719126D01*
X73748666Y-116739796D01*
X73655032Y-116801304D01*
X73592354Y-116894158D01*
X73581136Y-116950093D01*
X72752690Y-116890785D01*
X70889962Y-116737688D01*
X70884886Y-116725402D01*
X70843427Y-116683870D01*
X70887354Y-116675348D01*
X70980600Y-116613254D01*
X71334154Y-116259700D01*
X71394869Y-116169753D01*
X71417586Y-116060052D01*
X71396248Y-115950074D01*
X71334154Y-115856828D01*
X70909890Y-115432564D01*
X70819943Y-115371849D01*
X70710242Y-115349132D01*
X70621759Y-115366299D01*
X70634300Y-115336023D01*
X70634300Y-115224870D01*
X70591764Y-115122179D01*
X70479527Y-115009943D01*
X70380744Y-115009943D01*
X70201139Y-115189548D01*
X70201139Y-114830338D01*
X70201139Y-114731555D01*
X70088903Y-114619318D01*
X69986212Y-114576782D01*
X69875059Y-114576782D01*
X69772368Y-114619318D01*
X69693772Y-114697915D01*
X69694073Y-114697614D01*
X69694073Y-114796396D01*
X69964577Y-115066900D01*
X70201139Y-114830338D01*
X70201139Y-115189548D01*
X70144182Y-115246505D01*
X70158324Y-115260647D01*
X69981547Y-115437424D01*
X69967405Y-115423282D01*
X69951848Y-115438838D01*
X69772243Y-115259233D01*
X69787800Y-115243677D01*
X69517296Y-114973173D01*
X69418514Y-114973173D01*
X69418815Y-114972872D01*
X69340218Y-115051468D01*
X69324361Y-115089749D01*
X69318463Y-115089171D01*
X69298938Y-114991013D01*
X69294274Y-114984032D01*
X69296696Y-114979312D01*
X69315279Y-114914108D01*
X69334447Y-114849118D01*
X69414192Y-113969800D01*
X72726742Y-113969800D01*
X72269712Y-114685678D01*
X72171060Y-114685592D01*
X71942256Y-114780132D01*
X71767047Y-114955035D01*
X71672108Y-115183674D01*
X71671892Y-115431240D01*
X71766432Y-115660044D01*
X71941335Y-115835253D01*
X72169974Y-115930192D01*
X72417540Y-115930408D01*
X72577818Y-115864182D01*
X72605032Y-115930044D01*
X72779935Y-116105253D01*
X73008574Y-116200192D01*
X73256140Y-116200408D01*
X73484944Y-116105868D01*
X73575800Y-116015170D01*
X73575800Y-116031002D01*
X73645648Y-116031002D01*
X73575800Y-116100850D01*
X73575800Y-116359576D01*
X73618336Y-116462267D01*
X73696933Y-116540864D01*
X73799624Y-116583400D01*
X73910776Y-116583400D01*
X74033350Y-116583400D01*
X74103200Y-116513550D01*
X74103200Y-116031000D01*
X74083200Y-116031000D01*
X74083200Y-115777000D01*
X74103200Y-115777000D01*
X74103200Y-115757000D01*
X74357200Y-115757000D01*
X74357200Y-115777000D01*
X74377200Y-115777000D01*
X74377200Y-116031000D01*
X74357200Y-116031000D01*
X74357200Y-116513550D01*
X74427050Y-116583400D01*
X74549624Y-116583400D01*
X74660776Y-116583400D01*
X74763467Y-116540864D01*
X74805226Y-116499105D01*
X74805226Y-116802029D01*
X74805226Y-116802029D01*
G37*
X74805226Y-116802029D02*
X74715042Y-116741154D01*
X74605200Y-116719126D01*
X74103200Y-116719126D01*
X73855200Y-116719126D01*
X73748666Y-116739796D01*
X73655032Y-116801304D01*
X73592354Y-116894158D01*
X73581136Y-116950093D01*
X72752690Y-116890785D01*
X70889962Y-116737688D01*
X70884886Y-116725402D01*
X70843427Y-116683870D01*
X70887354Y-116675348D01*
X70980600Y-116613254D01*
X71334154Y-116259700D01*
X71394869Y-116169753D01*
X71417586Y-116060052D01*
X71396248Y-115950074D01*
X71334154Y-115856828D01*
X70909890Y-115432564D01*
X70819943Y-115371849D01*
X70710242Y-115349132D01*
X70621759Y-115366299D01*
X70634300Y-115336023D01*
X70634300Y-115224870D01*
X70591764Y-115122179D01*
X70479527Y-115009943D01*
X70380744Y-115009943D01*
X70201139Y-115189548D01*
X70201139Y-114830338D01*
X70201139Y-114731555D01*
X70088903Y-114619318D01*
X69986212Y-114576782D01*
X69875059Y-114576782D01*
X69772368Y-114619318D01*
X69693772Y-114697915D01*
X69694073Y-114697614D01*
X69694073Y-114796396D01*
X69964577Y-115066900D01*
X70201139Y-114830338D01*
X70201139Y-115189548D01*
X70144182Y-115246505D01*
X70158324Y-115260647D01*
X69981547Y-115437424D01*
X69967405Y-115423282D01*
X69951848Y-115438838D01*
X69772243Y-115259233D01*
X69787800Y-115243677D01*
X69517296Y-114973173D01*
X69418514Y-114973173D01*
X69418815Y-114972872D01*
X69340218Y-115051468D01*
X69324361Y-115089749D01*
X69318463Y-115089171D01*
X69298938Y-114991013D01*
X69294274Y-114984032D01*
X69296696Y-114979312D01*
X69315279Y-114914108D01*
X69334447Y-114849118D01*
X69414192Y-113969800D01*
X72726742Y-113969800D01*
X72269712Y-114685678D01*
X72171060Y-114685592D01*
X71942256Y-114780132D01*
X71767047Y-114955035D01*
X71672108Y-115183674D01*
X71671892Y-115431240D01*
X71766432Y-115660044D01*
X71941335Y-115835253D01*
X72169974Y-115930192D01*
X72417540Y-115930408D01*
X72577818Y-115864182D01*
X72605032Y-115930044D01*
X72779935Y-116105253D01*
X73008574Y-116200192D01*
X73256140Y-116200408D01*
X73484944Y-116105868D01*
X73575800Y-116015170D01*
X73575800Y-116031002D01*
X73645648Y-116031002D01*
X73575800Y-116100850D01*
X73575800Y-116359576D01*
X73618336Y-116462267D01*
X73696933Y-116540864D01*
X73799624Y-116583400D01*
X73910776Y-116583400D01*
X74033350Y-116583400D01*
X74103200Y-116513550D01*
X74103200Y-116031000D01*
X74083200Y-116031000D01*
X74083200Y-115777000D01*
X74103200Y-115777000D01*
X74103200Y-115757000D01*
X74357200Y-115757000D01*
X74357200Y-115777000D01*
X74377200Y-115777000D01*
X74377200Y-116031000D01*
X74357200Y-116031000D01*
X74357200Y-116513550D01*
X74427050Y-116583400D01*
X74549624Y-116583400D01*
X74660776Y-116583400D01*
X74763467Y-116540864D01*
X74805226Y-116499105D01*
X74805226Y-116802029D01*
G36*
X76581500Y-114904000D02*
X76561500Y-114904000D01*
X76561500Y-114926000D01*
X76307500Y-114926000D01*
X76307500Y-114904000D01*
X75924950Y-114904000D01*
X75855100Y-114973850D01*
X75855100Y-115084576D01*
X75894942Y-115180765D01*
X75860632Y-115203304D01*
X75810204Y-115278009D01*
X75797664Y-115247733D01*
X75719067Y-115169136D01*
X75616376Y-115126600D01*
X75530650Y-115126600D01*
X75460800Y-115196450D01*
X75460800Y-115579000D01*
X75507800Y-115579000D01*
X75507800Y-115833000D01*
X75460800Y-115833000D01*
X75460800Y-115853000D01*
X75260800Y-115853000D01*
X75260800Y-115833000D01*
X75213800Y-115833000D01*
X75213800Y-115579000D01*
X75260800Y-115579000D01*
X75260800Y-115196450D01*
X75190950Y-115126600D01*
X75105224Y-115126600D01*
X75002533Y-115169136D01*
X74923936Y-115247733D01*
X74881400Y-115350424D01*
X74881400Y-115440698D01*
X74842064Y-115345733D01*
X74763467Y-115267136D01*
X74701876Y-115241624D01*
X76087471Y-114654000D01*
X76307500Y-114654000D01*
X76307500Y-114632000D01*
X76561500Y-114632000D01*
X76561500Y-114654000D01*
X76581500Y-114654000D01*
X76581500Y-114904000D01*
X76581500Y-114904000D01*
G37*
X76581500Y-114904000D02*
X76561500Y-114904000D01*
X76561500Y-114926000D01*
X76307500Y-114926000D01*
X76307500Y-114904000D01*
X75924950Y-114904000D01*
X75855100Y-114973850D01*
X75855100Y-115084576D01*
X75894942Y-115180765D01*
X75860632Y-115203304D01*
X75810204Y-115278009D01*
X75797664Y-115247733D01*
X75719067Y-115169136D01*
X75616376Y-115126600D01*
X75530650Y-115126600D01*
X75460800Y-115196450D01*
X75460800Y-115579000D01*
X75507800Y-115579000D01*
X75507800Y-115833000D01*
X75460800Y-115833000D01*
X75460800Y-115853000D01*
X75260800Y-115853000D01*
X75260800Y-115833000D01*
X75213800Y-115833000D01*
X75213800Y-115579000D01*
X75260800Y-115579000D01*
X75260800Y-115196450D01*
X75190950Y-115126600D01*
X75105224Y-115126600D01*
X75002533Y-115169136D01*
X74923936Y-115247733D01*
X74881400Y-115350424D01*
X74881400Y-115440698D01*
X74842064Y-115345733D01*
X74763467Y-115267136D01*
X74701876Y-115241624D01*
X76087471Y-114654000D01*
X76307500Y-114654000D01*
X76307500Y-114632000D01*
X76561500Y-114632000D01*
X76561500Y-114654000D01*
X76581500Y-114654000D01*
X76581500Y-114904000D01*
G36*
X77952600Y-114271728D02*
X77944342Y-114266154D01*
X77834500Y-114244126D01*
X77234500Y-114244126D01*
X77127966Y-114264796D01*
X77034332Y-114326304D01*
X76983904Y-114401009D01*
X76971364Y-114370733D01*
X76907050Y-114306419D01*
X77059400Y-114241809D01*
X77952600Y-114156904D01*
X77952600Y-114271728D01*
X77952600Y-114271728D01*
G37*
X77952600Y-114271728D02*
X77944342Y-114266154D01*
X77834500Y-114244126D01*
X77234500Y-114244126D01*
X77127966Y-114264796D01*
X77034332Y-114326304D01*
X76983904Y-114401009D01*
X76971364Y-114370733D01*
X76907050Y-114306419D01*
X77059400Y-114241809D01*
X77952600Y-114156904D01*
X77952600Y-114271728D01*
G36*
X77952600Y-120944270D02*
X76085880Y-120944270D01*
X76085880Y-119643762D01*
X75927671Y-119260865D01*
X75634976Y-118967659D01*
X75252356Y-118808781D01*
X74838062Y-118808420D01*
X74455165Y-118966629D01*
X74161959Y-119259324D01*
X74003081Y-119641944D01*
X74002720Y-120056238D01*
X74160929Y-120439135D01*
X74453624Y-120732341D01*
X74836244Y-120891219D01*
X75250538Y-120891580D01*
X75633435Y-120733371D01*
X75926641Y-120440676D01*
X76085519Y-120058056D01*
X76085880Y-119643762D01*
X76085880Y-120944270D01*
X68534000Y-120944270D01*
X68534000Y-120914850D01*
X68464150Y-120845000D01*
X68081600Y-120845000D01*
X68081600Y-120867000D01*
X67827600Y-120867000D01*
X67827600Y-120845000D01*
X67807600Y-120845000D01*
X67807600Y-120595000D01*
X67827600Y-120595000D01*
X67827600Y-120573000D01*
X68081600Y-120573000D01*
X68081600Y-120595000D01*
X68464150Y-120595000D01*
X68534000Y-120525150D01*
X68534000Y-120483383D01*
X68534330Y-120483383D01*
X68592709Y-120486945D01*
X68603350Y-120483279D01*
X68614599Y-120483262D01*
X69062093Y-120393548D01*
X69080929Y-120439135D01*
X69373624Y-120732341D01*
X69756244Y-120891219D01*
X70170538Y-120891580D01*
X70553435Y-120733371D01*
X70846641Y-120440676D01*
X71005519Y-120058056D01*
X71005880Y-119643762D01*
X70952593Y-119514797D01*
X71061674Y-119560092D01*
X71309240Y-119560308D01*
X71535861Y-119466669D01*
X71463081Y-119641944D01*
X71462720Y-120056238D01*
X71620929Y-120439135D01*
X71913624Y-120732341D01*
X72296244Y-120891219D01*
X72710538Y-120891580D01*
X73093435Y-120733371D01*
X73386641Y-120440676D01*
X73545519Y-120058056D01*
X73545880Y-119643762D01*
X73387671Y-119260865D01*
X73094976Y-118967659D01*
X72712356Y-118808781D01*
X72298062Y-118808420D01*
X72257970Y-118824985D01*
X72037263Y-118488049D01*
X72011599Y-118461912D01*
X71991247Y-118431453D01*
X71674447Y-118114653D01*
X71559083Y-118037568D01*
X71423000Y-118010500D01*
X70949100Y-118010500D01*
X70931161Y-118014068D01*
X70912954Y-118012342D01*
X69710025Y-118135254D01*
X69710208Y-117926160D01*
X69641335Y-117759476D01*
X69660859Y-117755038D01*
X69724283Y-117745618D01*
X69958182Y-117661878D01*
X70192762Y-117759285D01*
X70455485Y-117759514D01*
X70698298Y-117659186D01*
X70810945Y-117546734D01*
X72688310Y-117701034D01*
X72690475Y-117700785D01*
X72692580Y-117701363D01*
X73570326Y-117764200D01*
X73570326Y-117804000D01*
X73590996Y-117910534D01*
X73652504Y-118004168D01*
X73745358Y-118066846D01*
X73855200Y-118088874D01*
X74605200Y-118088874D01*
X74711734Y-118068204D01*
X74794050Y-118014130D01*
X74805226Y-118017755D01*
X74805226Y-118064000D01*
X74825896Y-118170534D01*
X74887404Y-118264168D01*
X74980258Y-118326846D01*
X75090100Y-118348874D01*
X75590100Y-118348874D01*
X75696634Y-118328204D01*
X75790268Y-118266696D01*
X75852946Y-118173842D01*
X75855687Y-118160169D01*
X75860953Y-118160064D01*
X75930258Y-118206846D01*
X76040100Y-118228874D01*
X76534846Y-118228874D01*
X76534846Y-118267020D01*
X76555516Y-118373554D01*
X76617024Y-118467188D01*
X76709878Y-118529866D01*
X76819720Y-118551894D01*
X77531879Y-118551894D01*
X77569755Y-118577685D01*
X77658339Y-118639420D01*
X77659059Y-118639735D01*
X77659610Y-118640303D01*
X77952600Y-118842835D01*
X77952600Y-118874564D01*
X77706902Y-118795299D01*
X77293953Y-118828666D01*
X77067414Y-118922501D01*
X76978459Y-119064554D01*
X77584300Y-119670395D01*
X77598442Y-119656252D01*
X77778047Y-119835857D01*
X77763905Y-119850000D01*
X77778047Y-119864142D01*
X77598442Y-120043747D01*
X77584300Y-120029605D01*
X77404695Y-120209210D01*
X77404695Y-119850000D01*
X76798854Y-119244159D01*
X76656801Y-119333114D01*
X76529599Y-119727398D01*
X76562966Y-120140347D01*
X76656801Y-120366886D01*
X76798854Y-120455841D01*
X77404695Y-119850000D01*
X77404695Y-120209210D01*
X76978459Y-120635446D01*
X77067414Y-120777499D01*
X77461698Y-120904701D01*
X77874647Y-120871334D01*
X77952600Y-120839044D01*
X77952600Y-120944270D01*
X77952600Y-120944270D01*
G37*
X77952600Y-120944270D02*
X76085880Y-120944270D01*
X76085880Y-119643762D01*
X75927671Y-119260865D01*
X75634976Y-118967659D01*
X75252356Y-118808781D01*
X74838062Y-118808420D01*
X74455165Y-118966629D01*
X74161959Y-119259324D01*
X74003081Y-119641944D01*
X74002720Y-120056238D01*
X74160929Y-120439135D01*
X74453624Y-120732341D01*
X74836244Y-120891219D01*
X75250538Y-120891580D01*
X75633435Y-120733371D01*
X75926641Y-120440676D01*
X76085519Y-120058056D01*
X76085880Y-119643762D01*
X76085880Y-120944270D01*
X68534000Y-120944270D01*
X68534000Y-120914850D01*
X68464150Y-120845000D01*
X68081600Y-120845000D01*
X68081600Y-120867000D01*
X67827600Y-120867000D01*
X67827600Y-120845000D01*
X67807600Y-120845000D01*
X67807600Y-120595000D01*
X67827600Y-120595000D01*
X67827600Y-120573000D01*
X68081600Y-120573000D01*
X68081600Y-120595000D01*
X68464150Y-120595000D01*
X68534000Y-120525150D01*
X68534000Y-120483383D01*
X68534330Y-120483383D01*
X68592709Y-120486945D01*
X68603350Y-120483279D01*
X68614599Y-120483262D01*
X69062093Y-120393548D01*
X69080929Y-120439135D01*
X69373624Y-120732341D01*
X69756244Y-120891219D01*
X70170538Y-120891580D01*
X70553435Y-120733371D01*
X70846641Y-120440676D01*
X71005519Y-120058056D01*
X71005880Y-119643762D01*
X70952593Y-119514797D01*
X71061674Y-119560092D01*
X71309240Y-119560308D01*
X71535861Y-119466669D01*
X71463081Y-119641944D01*
X71462720Y-120056238D01*
X71620929Y-120439135D01*
X71913624Y-120732341D01*
X72296244Y-120891219D01*
X72710538Y-120891580D01*
X73093435Y-120733371D01*
X73386641Y-120440676D01*
X73545519Y-120058056D01*
X73545880Y-119643762D01*
X73387671Y-119260865D01*
X73094976Y-118967659D01*
X72712356Y-118808781D01*
X72298062Y-118808420D01*
X72257970Y-118824985D01*
X72037263Y-118488049D01*
X72011599Y-118461912D01*
X71991247Y-118431453D01*
X71674447Y-118114653D01*
X71559083Y-118037568D01*
X71423000Y-118010500D01*
X70949100Y-118010500D01*
X70931161Y-118014068D01*
X70912954Y-118012342D01*
X69710025Y-118135254D01*
X69710208Y-117926160D01*
X69641335Y-117759476D01*
X69660859Y-117755038D01*
X69724283Y-117745618D01*
X69958182Y-117661878D01*
X70192762Y-117759285D01*
X70455485Y-117759514D01*
X70698298Y-117659186D01*
X70810945Y-117546734D01*
X72688310Y-117701034D01*
X72690475Y-117700785D01*
X72692580Y-117701363D01*
X73570326Y-117764200D01*
X73570326Y-117804000D01*
X73590996Y-117910534D01*
X73652504Y-118004168D01*
X73745358Y-118066846D01*
X73855200Y-118088874D01*
X74605200Y-118088874D01*
X74711734Y-118068204D01*
X74794050Y-118014130D01*
X74805226Y-118017755D01*
X74805226Y-118064000D01*
X74825896Y-118170534D01*
X74887404Y-118264168D01*
X74980258Y-118326846D01*
X75090100Y-118348874D01*
X75590100Y-118348874D01*
X75696634Y-118328204D01*
X75790268Y-118266696D01*
X75852946Y-118173842D01*
X75855687Y-118160169D01*
X75860953Y-118160064D01*
X75930258Y-118206846D01*
X76040100Y-118228874D01*
X76534846Y-118228874D01*
X76534846Y-118267020D01*
X76555516Y-118373554D01*
X76617024Y-118467188D01*
X76709878Y-118529866D01*
X76819720Y-118551894D01*
X77531879Y-118551894D01*
X77569755Y-118577685D01*
X77658339Y-118639420D01*
X77659059Y-118639735D01*
X77659610Y-118640303D01*
X77952600Y-118842835D01*
X77952600Y-118874564D01*
X77706902Y-118795299D01*
X77293953Y-118828666D01*
X77067414Y-118922501D01*
X76978459Y-119064554D01*
X77584300Y-119670395D01*
X77598442Y-119656252D01*
X77778047Y-119835857D01*
X77763905Y-119850000D01*
X77778047Y-119864142D01*
X77598442Y-120043747D01*
X77584300Y-120029605D01*
X77404695Y-120209210D01*
X77404695Y-119850000D01*
X76798854Y-119244159D01*
X76656801Y-119333114D01*
X76529599Y-119727398D01*
X76562966Y-120140347D01*
X76656801Y-120366886D01*
X76798854Y-120455841D01*
X77404695Y-119850000D01*
X77404695Y-120209210D01*
X76978459Y-120635446D01*
X77067414Y-120777499D01*
X77461698Y-120904701D01*
X77874647Y-120871334D01*
X77952600Y-120839044D01*
X77952600Y-120944270D01*
M02*
