G04 #@! TF.FileFunction,Legend,Top*
%FSLAX46Y46*%
G04 Gerber Fmt 4.6, Leading zero omitted, Abs format (unit mm)*
G04 Created by KiCad (PCBNEW (2015-02-03 BZR 5404)-product) date Sat 07 Feb 2015 10:18:26 AM CST*
%MOMM*%
G01*
G04 APERTURE LIST*
%ADD10C,0.100000*%
%ADD11C,0.300000*%
%ADD12C,0.150000*%
%ADD13C,0.304800*%
%ADD14C,0.076200*%
G04 APERTURE END LIST*
D10*
D11*
X85806743Y-105524372D02*
X85806743Y-106667229D01*
X86398028Y-108133343D02*
X85255171Y-108133343D01*
X85826600Y-108704771D02*
X85826600Y-107561914D01*
D12*
X86390500Y-107693000D02*
X88930500Y-107693000D01*
X86390500Y-110233000D02*
X88930500Y-110233000D01*
X88930500Y-110233000D02*
X88930500Y-107693000D01*
X88930500Y-107693000D02*
X88930500Y-105153000D01*
X88930500Y-105153000D02*
X86390500Y-105153000D01*
X86390500Y-105153000D02*
X86390500Y-110233000D01*
X67654600Y-120245000D02*
X67154600Y-120245000D01*
X67154600Y-121195000D02*
X67654600Y-121195000D01*
X69842248Y-115793099D02*
X70195801Y-116146652D01*
X70867552Y-115474901D02*
X70513999Y-115121348D01*
X55908300Y-114721000D02*
X55908300Y-114971000D01*
X55108300Y-114971000D02*
X55108300Y-114721000D01*
X57170600Y-113253000D02*
X57420600Y-113253000D01*
X57420600Y-114053000D02*
X57170600Y-114053000D01*
X55210500Y-118156000D02*
X55210500Y-118656000D01*
X56160500Y-118656000D02*
X56160500Y-118156000D01*
X54130500Y-118156000D02*
X54130500Y-118656000D01*
X55080500Y-118656000D02*
X55080500Y-118156000D01*
X76967700Y-107175000D02*
X76267700Y-107175000D01*
X76267700Y-105975000D02*
X76967700Y-105975000D01*
X75077700Y-106100000D02*
X75577700Y-106100000D01*
X75577700Y-105150000D02*
X75077700Y-105150000D01*
X81873600Y-109058000D02*
X81873600Y-108558000D01*
X80923600Y-108558000D02*
X80923600Y-109058000D01*
X80295100Y-117204000D02*
X80295100Y-117704000D01*
X81245100Y-117704000D02*
X81245100Y-117204000D01*
X74197700Y-107815000D02*
X74197700Y-107115000D01*
X75397700Y-107115000D02*
X75397700Y-107815000D01*
X76734500Y-115254000D02*
X77234500Y-115254000D01*
X77234500Y-114304000D02*
X76734500Y-114304000D01*
X70407700Y-105740000D02*
X70907700Y-105740000D01*
X70907700Y-104790000D02*
X70407700Y-104790000D01*
X74865100Y-116964000D02*
X74865100Y-117464000D01*
X75815100Y-117464000D02*
X75815100Y-116964000D01*
X68782700Y-107145000D02*
X68782700Y-107645000D01*
X69732700Y-107645000D02*
X69732700Y-107145000D01*
X73630200Y-117004000D02*
X73630200Y-116304000D01*
X74830200Y-116304000D02*
X74830200Y-117004000D01*
X67577700Y-107135000D02*
X67577700Y-106435000D01*
X68777700Y-106435000D02*
X68777700Y-107135000D01*
X82700500Y-119948000D02*
X83200500Y-119948000D01*
X83200500Y-118998000D02*
X82700500Y-118998000D01*
X84840500Y-119938000D02*
X85340500Y-119938000D01*
X85340500Y-118988000D02*
X84840500Y-118988000D01*
X60737000Y-110812000D02*
X60737000Y-108907000D01*
X62769000Y-108907000D02*
X62769000Y-110812000D01*
X78778600Y-110708000D02*
X80378600Y-110708000D01*
X80378600Y-112108000D02*
X78778600Y-112108000D01*
X78968840Y-109877160D02*
X78968840Y-109828900D01*
X78267800Y-107878180D02*
X78968840Y-107878180D01*
X78968840Y-107878180D02*
X78968840Y-108127100D01*
X78968840Y-109877160D02*
X78968840Y-110077820D01*
X78968840Y-110077820D02*
X78267800Y-110077820D01*
X86029660Y-109212760D02*
X85981400Y-109212760D01*
X84030680Y-109913800D02*
X84030680Y-109212760D01*
X84030680Y-109212760D02*
X84279600Y-109212760D01*
X86029660Y-109212760D02*
X86230320Y-109212760D01*
X86230320Y-109212760D02*
X86230320Y-109913800D01*
X58906900Y-120964000D02*
X58779900Y-120964000D01*
X58779900Y-116392000D02*
X59160900Y-116392000D01*
X59160900Y-116392000D02*
X59160900Y-120964000D01*
X59160900Y-120964000D02*
X58906900Y-120964000D01*
X56620900Y-116392000D02*
X56366900Y-116392000D01*
X56366900Y-116392000D02*
X56366900Y-120710000D01*
X56366900Y-120710000D02*
X56620900Y-120964000D01*
D13*
X81394300Y-121120000D02*
X81394300Y-118580000D01*
X68694300Y-118580000D02*
X68694300Y-121120000D01*
X81394300Y-121120000D02*
X68694300Y-121120000D01*
X68694300Y-118580000D02*
X81394300Y-118580000D01*
D12*
X86390500Y-117853000D02*
X88930500Y-117853000D01*
X86390500Y-120393000D02*
X88930500Y-120393000D01*
X88930500Y-120393000D02*
X88930500Y-117853000D01*
X88930500Y-117853000D02*
X88930500Y-115313000D01*
X88930500Y-115313000D02*
X86390500Y-115313000D01*
X86390500Y-115313000D02*
X86390500Y-120393000D01*
X85310500Y-113863000D02*
X85435500Y-113863000D01*
X85435500Y-113863000D02*
X85810500Y-113488000D01*
X85810500Y-113488000D02*
X85810500Y-113363000D01*
X85810500Y-111738000D02*
X85810500Y-111863000D01*
X85810500Y-111738000D02*
X85810500Y-111363000D01*
X85810500Y-111363000D02*
X85310500Y-111363000D01*
X82810500Y-111738000D02*
X82810500Y-111488000D01*
X82810500Y-111488000D02*
X82810500Y-111363000D01*
X82810500Y-111363000D02*
X83185500Y-111363000D01*
X82810500Y-113488000D02*
X82810500Y-113863000D01*
X82810500Y-113863000D02*
X83185500Y-113863000D01*
X63490400Y-110740000D02*
X63490400Y-110240000D01*
X62440400Y-110240000D02*
X62440400Y-110740000D01*
X60999600Y-110310000D02*
X60999600Y-109810000D01*
X59949600Y-109810000D02*
X59949600Y-110310000D01*
X66248500Y-109699000D02*
X66748500Y-109699000D01*
X66748500Y-108649000D02*
X66248500Y-108649000D01*
X66231900Y-110763000D02*
X66731900Y-110763000D01*
X66731900Y-109713000D02*
X66231900Y-109713000D01*
X62798400Y-120211000D02*
X62298400Y-120211000D01*
X62298400Y-121261000D02*
X62798400Y-121261000D01*
X55435500Y-119391000D02*
X54935500Y-119391000D01*
X54935500Y-120441000D02*
X55435500Y-120441000D01*
X78493600Y-111178000D02*
X78493600Y-110678000D01*
X77443600Y-110678000D02*
X77443600Y-111178000D01*
X80138600Y-109663000D02*
X79638600Y-109663000D01*
X79638600Y-110713000D02*
X80138600Y-110713000D01*
X80813600Y-108958000D02*
X80813600Y-108458000D01*
X79763600Y-108458000D02*
X79763600Y-108958000D01*
X75382700Y-107725000D02*
X75382700Y-108225000D01*
X76432700Y-108225000D02*
X76432700Y-107725000D01*
X78959500Y-114248000D02*
X79459500Y-114248000D01*
X79459500Y-113198000D02*
X78959500Y-113198000D01*
X79454800Y-112160000D02*
X78954800Y-112160000D01*
X78954800Y-113210000D02*
X79454800Y-113210000D01*
X79080100Y-114359000D02*
X78580100Y-114359000D01*
X78580100Y-115409000D02*
X79080100Y-115409000D01*
X72686000Y-108542000D02*
X72186000Y-108542000D01*
X72186000Y-109592000D02*
X72686000Y-109592000D01*
X75815100Y-117044000D02*
X75815100Y-117544000D01*
X76865100Y-117544000D02*
X76865100Y-117044000D01*
X75560800Y-116231000D02*
X76060800Y-116231000D01*
X76060800Y-115181000D02*
X75560800Y-115181000D01*
X69712700Y-107175000D02*
X69712700Y-107675000D01*
X70762700Y-107675000D02*
X70762700Y-107175000D01*
X69517700Y-106590000D02*
X70017700Y-106590000D01*
X70017700Y-105540000D02*
X69517700Y-105540000D01*
X82648700Y-109328000D02*
X83148700Y-109328000D01*
X83148700Y-108278000D02*
X82648700Y-108278000D01*
X82631100Y-110136000D02*
X83131100Y-110136000D01*
X83131100Y-109086000D02*
X82631100Y-109086000D01*
X81700500Y-113938000D02*
X82200500Y-113938000D01*
X82200500Y-112888000D02*
X81700500Y-112888000D01*
X81745500Y-111783000D02*
X81745500Y-112283000D01*
X82795500Y-112283000D02*
X82795500Y-111783000D01*
X84414400Y-107577000D02*
X84350900Y-107577000D01*
X84477900Y-107577000D02*
X84414400Y-107577000D01*
X79524900Y-107577000D02*
X79016900Y-107577000D01*
X79016900Y-107577000D02*
X79016900Y-107132500D01*
X84858900Y-107513500D02*
X84858900Y-107577000D01*
X84858900Y-107577000D02*
X84477900Y-107577000D01*
X84858900Y-107132500D02*
X84858900Y-107513500D01*
X58851500Y-106180600D02*
X52450700Y-106180600D01*
X52450700Y-106180600D02*
X52450700Y-112581400D01*
X52450700Y-112581400D02*
X57850740Y-112581400D01*
X57850740Y-112581400D02*
X58851500Y-111580640D01*
X58851500Y-111580640D02*
X58851500Y-106180600D01*
X57650080Y-111880360D02*
X58150460Y-111880360D01*
X58150460Y-111880360D02*
X58150460Y-111379980D01*
X53151740Y-111379980D02*
X53151740Y-111880360D01*
X53151740Y-111880360D02*
X53652120Y-111880360D01*
X53652120Y-106881640D02*
X53151740Y-106881640D01*
X53151740Y-106881640D02*
X53151740Y-107382020D01*
X58150460Y-107382020D02*
X58150460Y-106881640D01*
X58150460Y-106881640D02*
X57650080Y-106881640D01*
X79352100Y-117472000D02*
X78844100Y-118234000D01*
X79352100Y-115694000D02*
X79352100Y-118297500D01*
X79352100Y-118297500D02*
X77828100Y-118297500D01*
X77828100Y-118297500D02*
X77828100Y-115694000D01*
X77828100Y-115694000D02*
X79352100Y-115694000D01*
X73239700Y-107553000D02*
X72731700Y-108315000D01*
X73239700Y-105775000D02*
X73239700Y-108378500D01*
X73239700Y-108378500D02*
X71715700Y-108378500D01*
X71715700Y-108378500D02*
X71715700Y-105775000D01*
X71715700Y-105775000D02*
X73239700Y-105775000D01*
X85490500Y-118493000D02*
G75*
G03X85490500Y-118493000I-100000J0D01*
G01*
X85690500Y-118993000D02*
X83690500Y-118993000D01*
X83690500Y-118993000D02*
X83690500Y-116993000D01*
X83690500Y-116993000D02*
X85690500Y-116993000D01*
X85690500Y-116993000D02*
X85690500Y-118993000D01*
X88930500Y-115313000D02*
X88930500Y-112773000D01*
X88930500Y-112773000D02*
X86390500Y-112773000D01*
X86390500Y-112773000D02*
X86390500Y-115313000D01*
X86390500Y-115313000D02*
X88930500Y-115313000D01*
X88930500Y-112773000D02*
X88930500Y-110233000D01*
X88930500Y-110233000D02*
X86390500Y-110233000D01*
X86390500Y-110233000D02*
X86390500Y-112773000D01*
X86390500Y-112773000D02*
X88930500Y-112773000D01*
X69834063Y-116246678D02*
G75*
G03X69834063Y-116246678I-250000J0D01*
G01*
D14*
X52222400Y-113196914D02*
X52222400Y-113051771D01*
X52309486Y-113225942D02*
X52004686Y-113124342D01*
X52309486Y-113022742D01*
X52309486Y-112761485D02*
X52309486Y-112935657D01*
X52309486Y-112848571D02*
X52004686Y-112848571D01*
X52048229Y-112877600D01*
X52077257Y-112906628D01*
X52091771Y-112935657D01*
X86058829Y-107478286D02*
X86073343Y-107434743D01*
X86087857Y-107420228D01*
X86116886Y-107405714D01*
X86160429Y-107405714D01*
X86189457Y-107420228D01*
X86203971Y-107434743D01*
X86218486Y-107463771D01*
X86218486Y-107579886D01*
X85913686Y-107579886D01*
X85913686Y-107478286D01*
X85928200Y-107449257D01*
X85942714Y-107434743D01*
X85971743Y-107420228D01*
X86000771Y-107420228D01*
X86029800Y-107434743D01*
X86044314Y-107449257D01*
X86058829Y-107478286D01*
X86058829Y-107579886D01*
X85913686Y-107318628D02*
X85913686Y-107144457D01*
X86218486Y-107231543D02*
X85913686Y-107231543D01*
X86218486Y-106883199D02*
X86218486Y-107057371D01*
X86218486Y-106970285D02*
X85913686Y-106970285D01*
X85957229Y-106999314D01*
X85986257Y-107028342D01*
X86000771Y-107057371D01*
X67386200Y-120047657D02*
X67371686Y-120062171D01*
X67328143Y-120076686D01*
X67299114Y-120076686D01*
X67255571Y-120062171D01*
X67226543Y-120033143D01*
X67212028Y-120004114D01*
X67197514Y-119946057D01*
X67197514Y-119902514D01*
X67212028Y-119844457D01*
X67226543Y-119815429D01*
X67255571Y-119786400D01*
X67299114Y-119771886D01*
X67328143Y-119771886D01*
X67371686Y-119786400D01*
X67386200Y-119800914D01*
X67487800Y-119771886D02*
X67676486Y-119771886D01*
X67574886Y-119888000D01*
X67618428Y-119888000D01*
X67647457Y-119902514D01*
X67661971Y-119917029D01*
X67676486Y-119946057D01*
X67676486Y-120018629D01*
X67661971Y-120047657D01*
X67647457Y-120062171D01*
X67618428Y-120076686D01*
X67531343Y-120076686D01*
X67502314Y-120062171D01*
X67487800Y-120047657D01*
X70600705Y-114848852D02*
X70580180Y-114848852D01*
X70539126Y-114828327D01*
X70518600Y-114807800D01*
X70498074Y-114766747D01*
X70498074Y-114725695D01*
X70508337Y-114694905D01*
X70539126Y-114643589D01*
X70569916Y-114612800D01*
X70621231Y-114582010D01*
X70652021Y-114571748D01*
X70693073Y-114571747D01*
X70734126Y-114592274D01*
X70754652Y-114612800D01*
X70775179Y-114653853D01*
X70775179Y-114674379D01*
X70826495Y-114869378D02*
X70816232Y-114838590D01*
X70816231Y-114818063D01*
X70826495Y-114787273D01*
X70836757Y-114777010D01*
X70867547Y-114766747D01*
X70888074Y-114766748D01*
X70918862Y-114777010D01*
X70959915Y-114818063D01*
X70970179Y-114848852D01*
X70970179Y-114869378D01*
X70959916Y-114900169D01*
X70949653Y-114910432D01*
X70918862Y-114920695D01*
X70898337Y-114920695D01*
X70867547Y-114910431D01*
X70826495Y-114869378D01*
X70795705Y-114859116D01*
X70775178Y-114859115D01*
X70744390Y-114869378D01*
X70703336Y-114910432D01*
X70693073Y-114941220D01*
X70693074Y-114961747D01*
X70703336Y-114992537D01*
X70744389Y-115033589D01*
X70775179Y-115043852D01*
X70795705Y-115043852D01*
X70826495Y-115033590D01*
X70867548Y-114992537D01*
X70877810Y-114961747D01*
X70877810Y-114941221D01*
X70867547Y-114910431D01*
X54998257Y-114241943D02*
X55012771Y-114256457D01*
X55027286Y-114300000D01*
X55027286Y-114329029D01*
X55012771Y-114372572D01*
X54983743Y-114401600D01*
X54954714Y-114416115D01*
X54896657Y-114430629D01*
X54853114Y-114430629D01*
X54795057Y-114416115D01*
X54766029Y-114401600D01*
X54737000Y-114372572D01*
X54722486Y-114329029D01*
X54722486Y-114300000D01*
X54737000Y-114256457D01*
X54751514Y-114241943D01*
X55027286Y-113951657D02*
X55027286Y-114125829D01*
X55027286Y-114038743D02*
X54722486Y-114038743D01*
X54766029Y-114067772D01*
X54795057Y-114096800D01*
X54809571Y-114125829D01*
X54722486Y-113762971D02*
X54722486Y-113733943D01*
X54737000Y-113704914D01*
X54751514Y-113690400D01*
X54780543Y-113675886D01*
X54838600Y-113661371D01*
X54911171Y-113661371D01*
X54969229Y-113675886D01*
X54998257Y-113690400D01*
X55012771Y-113704914D01*
X55027286Y-113733943D01*
X55027286Y-113762971D01*
X55012771Y-113792000D01*
X54998257Y-113806514D01*
X54969229Y-113821029D01*
X54911171Y-113835543D01*
X54838600Y-113835543D01*
X54780543Y-113821029D01*
X54751514Y-113806514D01*
X54737000Y-113792000D01*
X54722486Y-113762971D01*
X58173257Y-113215057D02*
X58158743Y-113229571D01*
X58115200Y-113244086D01*
X58086171Y-113244086D01*
X58042628Y-113229571D01*
X58013600Y-113200543D01*
X57999085Y-113171514D01*
X57984571Y-113113457D01*
X57984571Y-113069914D01*
X57999085Y-113011857D01*
X58013600Y-112982829D01*
X58042628Y-112953800D01*
X58086171Y-112939286D01*
X58115200Y-112939286D01*
X58158743Y-112953800D01*
X58173257Y-112968314D01*
X58463543Y-113244086D02*
X58289371Y-113244086D01*
X58376457Y-113244086D02*
X58376457Y-112939286D01*
X58347428Y-112982829D01*
X58318400Y-113011857D01*
X58289371Y-113026371D01*
X58753829Y-113244086D02*
X58579657Y-113244086D01*
X58666743Y-113244086D02*
X58666743Y-112939286D01*
X58637714Y-112982829D01*
X58608686Y-113011857D01*
X58579657Y-113026371D01*
X55785657Y-117086743D02*
X55800171Y-117101257D01*
X55814686Y-117144800D01*
X55814686Y-117173829D01*
X55800171Y-117217372D01*
X55771143Y-117246400D01*
X55742114Y-117260915D01*
X55684057Y-117275429D01*
X55640514Y-117275429D01*
X55582457Y-117260915D01*
X55553429Y-117246400D01*
X55524400Y-117217372D01*
X55509886Y-117173829D01*
X55509886Y-117144800D01*
X55524400Y-117101257D01*
X55538914Y-117086743D01*
X55814686Y-116796457D02*
X55814686Y-116970629D01*
X55814686Y-116883543D02*
X55509886Y-116883543D01*
X55553429Y-116912572D01*
X55582457Y-116941600D01*
X55596971Y-116970629D01*
X55538914Y-116680343D02*
X55524400Y-116665829D01*
X55509886Y-116636800D01*
X55509886Y-116564229D01*
X55524400Y-116535200D01*
X55538914Y-116520686D01*
X55567943Y-116506171D01*
X55596971Y-116506171D01*
X55640514Y-116520686D01*
X55814686Y-116694857D01*
X55814686Y-116506171D01*
X54795057Y-117086743D02*
X54809571Y-117101257D01*
X54824086Y-117144800D01*
X54824086Y-117173829D01*
X54809571Y-117217372D01*
X54780543Y-117246400D01*
X54751514Y-117260915D01*
X54693457Y-117275429D01*
X54649914Y-117275429D01*
X54591857Y-117260915D01*
X54562829Y-117246400D01*
X54533800Y-117217372D01*
X54519286Y-117173829D01*
X54519286Y-117144800D01*
X54533800Y-117101257D01*
X54548314Y-117086743D01*
X54824086Y-116796457D02*
X54824086Y-116970629D01*
X54824086Y-116883543D02*
X54519286Y-116883543D01*
X54562829Y-116912572D01*
X54591857Y-116941600D01*
X54606371Y-116970629D01*
X54519286Y-116694857D02*
X54519286Y-116506171D01*
X54635400Y-116607771D01*
X54635400Y-116564229D01*
X54649914Y-116535200D01*
X54664429Y-116520686D01*
X54693457Y-116506171D01*
X54766029Y-116506171D01*
X54795057Y-116520686D01*
X54809571Y-116535200D01*
X54824086Y-116564229D01*
X54824086Y-116651314D01*
X54809571Y-116680343D01*
X54795057Y-116694857D01*
X76740657Y-105823657D02*
X76726143Y-105838171D01*
X76682600Y-105852686D01*
X76653571Y-105852686D01*
X76610028Y-105838171D01*
X76581000Y-105809143D01*
X76566485Y-105780114D01*
X76551971Y-105722057D01*
X76551971Y-105678514D01*
X76566485Y-105620457D01*
X76581000Y-105591429D01*
X76610028Y-105562400D01*
X76653571Y-105547886D01*
X76682600Y-105547886D01*
X76726143Y-105562400D01*
X76740657Y-105576914D01*
X77030943Y-105852686D02*
X76856771Y-105852686D01*
X76943857Y-105852686D02*
X76943857Y-105547886D01*
X76914828Y-105591429D01*
X76885800Y-105620457D01*
X76856771Y-105634971D01*
X77132543Y-105547886D02*
X77335743Y-105547886D01*
X77205114Y-105852686D01*
X74276857Y-105087057D02*
X74262343Y-105101571D01*
X74218800Y-105116086D01*
X74189771Y-105116086D01*
X74146228Y-105101571D01*
X74117200Y-105072543D01*
X74102685Y-105043514D01*
X74088171Y-104985457D01*
X74088171Y-104941914D01*
X74102685Y-104883857D01*
X74117200Y-104854829D01*
X74146228Y-104825800D01*
X74189771Y-104811286D01*
X74218800Y-104811286D01*
X74262343Y-104825800D01*
X74276857Y-104840314D01*
X74567143Y-105116086D02*
X74392971Y-105116086D01*
X74480057Y-105116086D02*
X74480057Y-104811286D01*
X74451028Y-104854829D01*
X74422000Y-104883857D01*
X74392971Y-104898371D01*
X74741314Y-104941914D02*
X74712286Y-104927400D01*
X74697771Y-104912886D01*
X74683257Y-104883857D01*
X74683257Y-104869343D01*
X74697771Y-104840314D01*
X74712286Y-104825800D01*
X74741314Y-104811286D01*
X74799371Y-104811286D01*
X74828400Y-104825800D01*
X74842914Y-104840314D01*
X74857429Y-104869343D01*
X74857429Y-104883857D01*
X74842914Y-104912886D01*
X74828400Y-104927400D01*
X74799371Y-104941914D01*
X74741314Y-104941914D01*
X74712286Y-104956429D01*
X74697771Y-104970943D01*
X74683257Y-104999971D01*
X74683257Y-105058029D01*
X74697771Y-105087057D01*
X74712286Y-105101571D01*
X74741314Y-105116086D01*
X74799371Y-105116086D01*
X74828400Y-105101571D01*
X74842914Y-105087057D01*
X74857429Y-105058029D01*
X74857429Y-104999971D01*
X74842914Y-104970943D01*
X74828400Y-104956429D01*
X74799371Y-104941914D01*
X81211057Y-107703257D02*
X81196543Y-107717771D01*
X81153000Y-107732286D01*
X81123971Y-107732286D01*
X81080428Y-107717771D01*
X81051400Y-107688743D01*
X81036885Y-107659714D01*
X81022371Y-107601657D01*
X81022371Y-107558114D01*
X81036885Y-107500057D01*
X81051400Y-107471029D01*
X81080428Y-107442000D01*
X81123971Y-107427486D01*
X81153000Y-107427486D01*
X81196543Y-107442000D01*
X81211057Y-107456514D01*
X81501343Y-107732286D02*
X81327171Y-107732286D01*
X81414257Y-107732286D02*
X81414257Y-107427486D01*
X81385228Y-107471029D01*
X81356200Y-107500057D01*
X81327171Y-107514571D01*
X81646486Y-107732286D02*
X81704543Y-107732286D01*
X81733571Y-107717771D01*
X81748086Y-107703257D01*
X81777114Y-107659714D01*
X81791629Y-107601657D01*
X81791629Y-107485543D01*
X81777114Y-107456514D01*
X81762600Y-107442000D01*
X81733571Y-107427486D01*
X81675514Y-107427486D01*
X81646486Y-107442000D01*
X81631971Y-107456514D01*
X81617457Y-107485543D01*
X81617457Y-107558114D01*
X81631971Y-107587143D01*
X81646486Y-107601657D01*
X81675514Y-107616171D01*
X81733571Y-107616171D01*
X81762600Y-107601657D01*
X81777114Y-107587143D01*
X81791629Y-107558114D01*
X81744457Y-117594743D02*
X81758971Y-117609257D01*
X81773486Y-117652800D01*
X81773486Y-117681829D01*
X81758971Y-117725372D01*
X81729943Y-117754400D01*
X81700914Y-117768915D01*
X81642857Y-117783429D01*
X81599314Y-117783429D01*
X81541257Y-117768915D01*
X81512229Y-117754400D01*
X81483200Y-117725372D01*
X81468686Y-117681829D01*
X81468686Y-117652800D01*
X81483200Y-117609257D01*
X81497714Y-117594743D01*
X81497714Y-117478629D02*
X81483200Y-117464115D01*
X81468686Y-117435086D01*
X81468686Y-117362515D01*
X81483200Y-117333486D01*
X81497714Y-117318972D01*
X81526743Y-117304457D01*
X81555771Y-117304457D01*
X81599314Y-117318972D01*
X81773486Y-117493143D01*
X81773486Y-117304457D01*
X81468686Y-117115771D02*
X81468686Y-117086743D01*
X81483200Y-117057714D01*
X81497714Y-117043200D01*
X81526743Y-117028686D01*
X81584800Y-117014171D01*
X81657371Y-117014171D01*
X81715429Y-117028686D01*
X81744457Y-117043200D01*
X81758971Y-117057714D01*
X81773486Y-117086743D01*
X81773486Y-117115771D01*
X81758971Y-117144800D01*
X81744457Y-117159314D01*
X81715429Y-117173829D01*
X81657371Y-117188343D01*
X81584800Y-117188343D01*
X81526743Y-117173829D01*
X81497714Y-117159314D01*
X81483200Y-117144800D01*
X81468686Y-117115771D01*
X74886457Y-109415943D02*
X74900971Y-109430457D01*
X74915486Y-109474000D01*
X74915486Y-109503029D01*
X74900971Y-109546572D01*
X74871943Y-109575600D01*
X74842914Y-109590115D01*
X74784857Y-109604629D01*
X74741314Y-109604629D01*
X74683257Y-109590115D01*
X74654229Y-109575600D01*
X74625200Y-109546572D01*
X74610686Y-109503029D01*
X74610686Y-109474000D01*
X74625200Y-109430457D01*
X74639714Y-109415943D01*
X74639714Y-109299829D02*
X74625200Y-109285315D01*
X74610686Y-109256286D01*
X74610686Y-109183715D01*
X74625200Y-109154686D01*
X74639714Y-109140172D01*
X74668743Y-109125657D01*
X74697771Y-109125657D01*
X74741314Y-109140172D01*
X74915486Y-109314343D01*
X74915486Y-109125657D01*
X74915486Y-108835371D02*
X74915486Y-109009543D01*
X74915486Y-108922457D02*
X74610686Y-108922457D01*
X74654229Y-108951486D01*
X74683257Y-108980514D01*
X74697771Y-109009543D01*
X76613657Y-114078657D02*
X76599143Y-114093171D01*
X76555600Y-114107686D01*
X76526571Y-114107686D01*
X76483028Y-114093171D01*
X76454000Y-114064143D01*
X76439485Y-114035114D01*
X76424971Y-113977057D01*
X76424971Y-113933514D01*
X76439485Y-113875457D01*
X76454000Y-113846429D01*
X76483028Y-113817400D01*
X76526571Y-113802886D01*
X76555600Y-113802886D01*
X76599143Y-113817400D01*
X76613657Y-113831914D01*
X76729771Y-113831914D02*
X76744285Y-113817400D01*
X76773314Y-113802886D01*
X76845885Y-113802886D01*
X76874914Y-113817400D01*
X76889428Y-113831914D01*
X76903943Y-113860943D01*
X76903943Y-113889971D01*
X76889428Y-113933514D01*
X76715257Y-114107686D01*
X76903943Y-114107686D01*
X77020057Y-113831914D02*
X77034571Y-113817400D01*
X77063600Y-113802886D01*
X77136171Y-113802886D01*
X77165200Y-113817400D01*
X77179714Y-113831914D01*
X77194229Y-113860943D01*
X77194229Y-113889971D01*
X77179714Y-113933514D01*
X77005543Y-114107686D01*
X77194229Y-114107686D01*
X71914657Y-104934657D02*
X71900143Y-104949171D01*
X71856600Y-104963686D01*
X71827571Y-104963686D01*
X71784028Y-104949171D01*
X71755000Y-104920143D01*
X71740485Y-104891114D01*
X71725971Y-104833057D01*
X71725971Y-104789514D01*
X71740485Y-104731457D01*
X71755000Y-104702429D01*
X71784028Y-104673400D01*
X71827571Y-104658886D01*
X71856600Y-104658886D01*
X71900143Y-104673400D01*
X71914657Y-104687914D01*
X72030771Y-104687914D02*
X72045285Y-104673400D01*
X72074314Y-104658886D01*
X72146885Y-104658886D01*
X72175914Y-104673400D01*
X72190428Y-104687914D01*
X72204943Y-104716943D01*
X72204943Y-104745971D01*
X72190428Y-104789514D01*
X72016257Y-104963686D01*
X72204943Y-104963686D01*
X72306543Y-104658886D02*
X72495229Y-104658886D01*
X72393629Y-104775000D01*
X72437171Y-104775000D01*
X72466200Y-104789514D01*
X72480714Y-104804029D01*
X72495229Y-104833057D01*
X72495229Y-104905629D01*
X72480714Y-104934657D01*
X72466200Y-104949171D01*
X72437171Y-104963686D01*
X72350086Y-104963686D01*
X72321057Y-104949171D01*
X72306543Y-104934657D01*
X74302257Y-118345857D02*
X74287743Y-118360371D01*
X74244200Y-118374886D01*
X74215171Y-118374886D01*
X74171628Y-118360371D01*
X74142600Y-118331343D01*
X74128085Y-118302314D01*
X74113571Y-118244257D01*
X74113571Y-118200714D01*
X74128085Y-118142657D01*
X74142600Y-118113629D01*
X74171628Y-118084600D01*
X74215171Y-118070086D01*
X74244200Y-118070086D01*
X74287743Y-118084600D01*
X74302257Y-118099114D01*
X74418371Y-118099114D02*
X74432885Y-118084600D01*
X74461914Y-118070086D01*
X74534485Y-118070086D01*
X74563514Y-118084600D01*
X74578028Y-118099114D01*
X74592543Y-118128143D01*
X74592543Y-118157171D01*
X74578028Y-118200714D01*
X74403857Y-118374886D01*
X74592543Y-118374886D01*
X74853800Y-118171686D02*
X74853800Y-118374886D01*
X74781229Y-118055571D02*
X74708657Y-118273286D01*
X74897343Y-118273286D01*
X69425457Y-109111143D02*
X69439971Y-109125657D01*
X69454486Y-109169200D01*
X69454486Y-109198229D01*
X69439971Y-109241772D01*
X69410943Y-109270800D01*
X69381914Y-109285315D01*
X69323857Y-109299829D01*
X69280314Y-109299829D01*
X69222257Y-109285315D01*
X69193229Y-109270800D01*
X69164200Y-109241772D01*
X69149686Y-109198229D01*
X69149686Y-109169200D01*
X69164200Y-109125657D01*
X69178714Y-109111143D01*
X69178714Y-108995029D02*
X69164200Y-108980515D01*
X69149686Y-108951486D01*
X69149686Y-108878915D01*
X69164200Y-108849886D01*
X69178714Y-108835372D01*
X69207743Y-108820857D01*
X69236771Y-108820857D01*
X69280314Y-108835372D01*
X69454486Y-109009543D01*
X69454486Y-108820857D01*
X69149686Y-108545086D02*
X69149686Y-108690229D01*
X69294829Y-108704743D01*
X69280314Y-108690229D01*
X69265800Y-108661200D01*
X69265800Y-108588629D01*
X69280314Y-108559600D01*
X69294829Y-108545086D01*
X69323857Y-108530571D01*
X69396429Y-108530571D01*
X69425457Y-108545086D01*
X69439971Y-108559600D01*
X69454486Y-108588629D01*
X69454486Y-108661200D01*
X69439971Y-108690229D01*
X69425457Y-108704743D01*
X73311657Y-117696343D02*
X73326171Y-117710857D01*
X73340686Y-117754400D01*
X73340686Y-117783429D01*
X73326171Y-117826972D01*
X73297143Y-117856000D01*
X73268114Y-117870515D01*
X73210057Y-117885029D01*
X73166514Y-117885029D01*
X73108457Y-117870515D01*
X73079429Y-117856000D01*
X73050400Y-117826972D01*
X73035886Y-117783429D01*
X73035886Y-117754400D01*
X73050400Y-117710857D01*
X73064914Y-117696343D01*
X73064914Y-117580229D02*
X73050400Y-117565715D01*
X73035886Y-117536686D01*
X73035886Y-117464115D01*
X73050400Y-117435086D01*
X73064914Y-117420572D01*
X73093943Y-117406057D01*
X73122971Y-117406057D01*
X73166514Y-117420572D01*
X73340686Y-117594743D01*
X73340686Y-117406057D01*
X73035886Y-117144800D02*
X73035886Y-117202857D01*
X73050400Y-117231886D01*
X73064914Y-117246400D01*
X73108457Y-117275429D01*
X73166514Y-117289943D01*
X73282629Y-117289943D01*
X73311657Y-117275429D01*
X73326171Y-117260914D01*
X73340686Y-117231886D01*
X73340686Y-117173829D01*
X73326171Y-117144800D01*
X73311657Y-117130286D01*
X73282629Y-117115771D01*
X73210057Y-117115771D01*
X73181029Y-117130286D01*
X73166514Y-117144800D01*
X73152000Y-117173829D01*
X73152000Y-117231886D01*
X73166514Y-117260914D01*
X73181029Y-117275429D01*
X73210057Y-117289943D01*
X67266457Y-107053743D02*
X67280971Y-107068257D01*
X67295486Y-107111800D01*
X67295486Y-107140829D01*
X67280971Y-107184372D01*
X67251943Y-107213400D01*
X67222914Y-107227915D01*
X67164857Y-107242429D01*
X67121314Y-107242429D01*
X67063257Y-107227915D01*
X67034229Y-107213400D01*
X67005200Y-107184372D01*
X66990686Y-107140829D01*
X66990686Y-107111800D01*
X67005200Y-107068257D01*
X67019714Y-107053743D01*
X67019714Y-106937629D02*
X67005200Y-106923115D01*
X66990686Y-106894086D01*
X66990686Y-106821515D01*
X67005200Y-106792486D01*
X67019714Y-106777972D01*
X67048743Y-106763457D01*
X67077771Y-106763457D01*
X67121314Y-106777972D01*
X67295486Y-106952143D01*
X67295486Y-106763457D01*
X66990686Y-106661857D02*
X66990686Y-106458657D01*
X67295486Y-106589286D01*
X82709657Y-120428657D02*
X82695143Y-120443171D01*
X82651600Y-120457686D01*
X82622571Y-120457686D01*
X82579028Y-120443171D01*
X82550000Y-120414143D01*
X82535485Y-120385114D01*
X82520971Y-120327057D01*
X82520971Y-120283514D01*
X82535485Y-120225457D01*
X82550000Y-120196429D01*
X82579028Y-120167400D01*
X82622571Y-120152886D01*
X82651600Y-120152886D01*
X82695143Y-120167400D01*
X82709657Y-120181914D01*
X82825771Y-120181914D02*
X82840285Y-120167400D01*
X82869314Y-120152886D01*
X82941885Y-120152886D01*
X82970914Y-120167400D01*
X82985428Y-120181914D01*
X82999943Y-120210943D01*
X82999943Y-120239971D01*
X82985428Y-120283514D01*
X82811257Y-120457686D01*
X82999943Y-120457686D01*
X83174114Y-120283514D02*
X83145086Y-120269000D01*
X83130571Y-120254486D01*
X83116057Y-120225457D01*
X83116057Y-120210943D01*
X83130571Y-120181914D01*
X83145086Y-120167400D01*
X83174114Y-120152886D01*
X83232171Y-120152886D01*
X83261200Y-120167400D01*
X83275714Y-120181914D01*
X83290229Y-120210943D01*
X83290229Y-120225457D01*
X83275714Y-120254486D01*
X83261200Y-120269000D01*
X83232171Y-120283514D01*
X83174114Y-120283514D01*
X83145086Y-120298029D01*
X83130571Y-120312543D01*
X83116057Y-120341571D01*
X83116057Y-120399629D01*
X83130571Y-120428657D01*
X83145086Y-120443171D01*
X83174114Y-120457686D01*
X83232171Y-120457686D01*
X83261200Y-120443171D01*
X83275714Y-120428657D01*
X83290229Y-120399629D01*
X83290229Y-120341571D01*
X83275714Y-120312543D01*
X83261200Y-120298029D01*
X83232171Y-120283514D01*
X84868657Y-120428657D02*
X84854143Y-120443171D01*
X84810600Y-120457686D01*
X84781571Y-120457686D01*
X84738028Y-120443171D01*
X84709000Y-120414143D01*
X84694485Y-120385114D01*
X84679971Y-120327057D01*
X84679971Y-120283514D01*
X84694485Y-120225457D01*
X84709000Y-120196429D01*
X84738028Y-120167400D01*
X84781571Y-120152886D01*
X84810600Y-120152886D01*
X84854143Y-120167400D01*
X84868657Y-120181914D01*
X84984771Y-120181914D02*
X84999285Y-120167400D01*
X85028314Y-120152886D01*
X85100885Y-120152886D01*
X85129914Y-120167400D01*
X85144428Y-120181914D01*
X85158943Y-120210943D01*
X85158943Y-120239971D01*
X85144428Y-120283514D01*
X84970257Y-120457686D01*
X85158943Y-120457686D01*
X85304086Y-120457686D02*
X85362143Y-120457686D01*
X85391171Y-120443171D01*
X85405686Y-120428657D01*
X85434714Y-120385114D01*
X85449229Y-120327057D01*
X85449229Y-120210943D01*
X85434714Y-120181914D01*
X85420200Y-120167400D01*
X85391171Y-120152886D01*
X85333114Y-120152886D01*
X85304086Y-120167400D01*
X85289571Y-120181914D01*
X85275057Y-120210943D01*
X85275057Y-120283514D01*
X85289571Y-120312543D01*
X85304086Y-120327057D01*
X85333114Y-120341571D01*
X85391171Y-120341571D01*
X85420200Y-120327057D01*
X85434714Y-120312543D01*
X85449229Y-120283514D01*
X61497028Y-107935486D02*
X61497028Y-107630686D01*
X61569600Y-107630686D01*
X61613143Y-107645200D01*
X61642171Y-107674229D01*
X61656686Y-107703257D01*
X61671200Y-107761314D01*
X61671200Y-107804857D01*
X61656686Y-107862914D01*
X61642171Y-107891943D01*
X61613143Y-107920971D01*
X61569600Y-107935486D01*
X61497028Y-107935486D01*
X61961486Y-107935486D02*
X61787314Y-107935486D01*
X61874400Y-107935486D02*
X61874400Y-107630686D01*
X61845371Y-107674229D01*
X61816343Y-107703257D01*
X61787314Y-107717771D01*
X81359828Y-110983486D02*
X81359828Y-110678686D01*
X81432400Y-110678686D01*
X81475943Y-110693200D01*
X81504971Y-110722229D01*
X81519486Y-110751257D01*
X81534000Y-110809314D01*
X81534000Y-110852857D01*
X81519486Y-110910914D01*
X81504971Y-110939943D01*
X81475943Y-110968971D01*
X81432400Y-110983486D01*
X81359828Y-110983486D01*
X81650114Y-110707714D02*
X81664628Y-110693200D01*
X81693657Y-110678686D01*
X81766228Y-110678686D01*
X81795257Y-110693200D01*
X81809771Y-110707714D01*
X81824286Y-110736743D01*
X81824286Y-110765771D01*
X81809771Y-110809314D01*
X81635600Y-110983486D01*
X81824286Y-110983486D01*
X76642686Y-110130772D02*
X76337886Y-110130772D01*
X76337886Y-110058200D01*
X76352400Y-110014657D01*
X76381429Y-109985629D01*
X76410457Y-109971114D01*
X76468514Y-109956600D01*
X76512057Y-109956600D01*
X76570114Y-109971114D01*
X76599143Y-109985629D01*
X76628171Y-110014657D01*
X76642686Y-110058200D01*
X76642686Y-110130772D01*
X76337886Y-109855000D02*
X76337886Y-109666314D01*
X76454000Y-109767914D01*
X76454000Y-109724372D01*
X76468514Y-109695343D01*
X76483029Y-109680829D01*
X76512057Y-109666314D01*
X76584629Y-109666314D01*
X76613657Y-109680829D01*
X76628171Y-109695343D01*
X76642686Y-109724372D01*
X76642686Y-109811457D01*
X76628171Y-109840486D01*
X76613657Y-109855000D01*
X83976028Y-108900686D02*
X83976028Y-108595886D01*
X84048600Y-108595886D01*
X84092143Y-108610400D01*
X84121171Y-108639429D01*
X84135686Y-108668457D01*
X84150200Y-108726514D01*
X84150200Y-108770057D01*
X84135686Y-108828114D01*
X84121171Y-108857143D01*
X84092143Y-108886171D01*
X84048600Y-108900686D01*
X83976028Y-108900686D01*
X84425971Y-108595886D02*
X84280828Y-108595886D01*
X84266314Y-108741029D01*
X84280828Y-108726514D01*
X84309857Y-108712000D01*
X84382428Y-108712000D01*
X84411457Y-108726514D01*
X84425971Y-108741029D01*
X84440486Y-108770057D01*
X84440486Y-108842629D01*
X84425971Y-108871657D01*
X84411457Y-108886171D01*
X84382428Y-108900686D01*
X84309857Y-108900686D01*
X84280828Y-108886171D01*
X84266314Y-108871657D01*
X59515829Y-117776172D02*
X59515829Y-117877772D01*
X59675486Y-117877772D02*
X59370686Y-117877772D01*
X59370686Y-117732629D01*
X59675486Y-117471372D02*
X59675486Y-117616515D01*
X59370686Y-117616515D01*
X59675486Y-117210114D02*
X59675486Y-117384286D01*
X59675486Y-117297200D02*
X59370686Y-117297200D01*
X59414229Y-117326229D01*
X59443257Y-117355257D01*
X59457771Y-117384286D01*
X71631628Y-118298686D02*
X71631628Y-117993886D01*
X71747743Y-117993886D01*
X71776771Y-118008400D01*
X71791286Y-118022914D01*
X71805800Y-118051943D01*
X71805800Y-118095486D01*
X71791286Y-118124514D01*
X71776771Y-118139029D01*
X71747743Y-118153543D01*
X71631628Y-118153543D01*
X72096086Y-118298686D02*
X71921914Y-118298686D01*
X72009000Y-118298686D02*
X72009000Y-117993886D01*
X71979971Y-118037429D01*
X71950943Y-118066457D01*
X71921914Y-118080971D01*
X86218486Y-116582372D02*
X85913686Y-116582372D01*
X85913686Y-116466257D01*
X85928200Y-116437229D01*
X85942714Y-116422714D01*
X85971743Y-116408200D01*
X86015286Y-116408200D01*
X86044314Y-116422714D01*
X86058829Y-116437229D01*
X86073343Y-116466257D01*
X86073343Y-116582372D01*
X86015286Y-116146943D02*
X86218486Y-116146943D01*
X85899171Y-116219514D02*
X86116886Y-116292086D01*
X86116886Y-116103400D01*
X85111771Y-114339914D02*
X85082743Y-114325400D01*
X85053714Y-114296371D01*
X85010171Y-114252829D01*
X84981143Y-114238314D01*
X84952114Y-114238314D01*
X84966629Y-114310886D02*
X84937600Y-114296371D01*
X84908571Y-114267343D01*
X84894057Y-114209286D01*
X84894057Y-114107686D01*
X84908571Y-114049629D01*
X84937600Y-114020600D01*
X84966629Y-114006086D01*
X85024686Y-114006086D01*
X85053714Y-114020600D01*
X85082743Y-114049629D01*
X85097257Y-114107686D01*
X85097257Y-114209286D01*
X85082743Y-114267343D01*
X85053714Y-114296371D01*
X85024686Y-114310886D01*
X84966629Y-114310886D01*
X85387543Y-114310886D02*
X85213371Y-114310886D01*
X85300457Y-114310886D02*
X85300457Y-114006086D01*
X85271428Y-114049629D01*
X85242400Y-114078657D01*
X85213371Y-114093171D01*
X63968086Y-110515400D02*
X63822943Y-110617000D01*
X63968086Y-110689572D02*
X63663286Y-110689572D01*
X63663286Y-110573457D01*
X63677800Y-110544429D01*
X63692314Y-110529914D01*
X63721343Y-110515400D01*
X63764886Y-110515400D01*
X63793914Y-110529914D01*
X63808429Y-110544429D01*
X63822943Y-110573457D01*
X63822943Y-110689572D01*
X63968086Y-110225114D02*
X63968086Y-110399286D01*
X63968086Y-110312200D02*
X63663286Y-110312200D01*
X63706829Y-110341229D01*
X63735857Y-110370257D01*
X63750371Y-110399286D01*
X59827886Y-110617300D02*
X59682743Y-110718900D01*
X59827886Y-110791472D02*
X59523086Y-110791472D01*
X59523086Y-110675357D01*
X59537600Y-110646329D01*
X59552114Y-110631814D01*
X59581143Y-110617300D01*
X59624686Y-110617300D01*
X59653714Y-110631814D01*
X59668229Y-110646329D01*
X59682743Y-110675357D01*
X59682743Y-110791472D01*
X59552114Y-110501186D02*
X59537600Y-110486672D01*
X59523086Y-110457643D01*
X59523086Y-110385072D01*
X59537600Y-110356043D01*
X59552114Y-110341529D01*
X59581143Y-110327014D01*
X59610171Y-110327014D01*
X59653714Y-110341529D01*
X59827886Y-110515700D01*
X59827886Y-110327014D01*
X66446400Y-108443486D02*
X66344800Y-108298343D01*
X66272228Y-108443486D02*
X66272228Y-108138686D01*
X66388343Y-108138686D01*
X66417371Y-108153200D01*
X66431886Y-108167714D01*
X66446400Y-108196743D01*
X66446400Y-108240286D01*
X66431886Y-108269314D01*
X66417371Y-108283829D01*
X66388343Y-108298343D01*
X66272228Y-108298343D01*
X66707657Y-108240286D02*
X66707657Y-108443486D01*
X66635086Y-108124171D02*
X66562514Y-108341886D01*
X66751200Y-108341886D01*
X66446400Y-111186686D02*
X66344800Y-111041543D01*
X66272228Y-111186686D02*
X66272228Y-110881886D01*
X66388343Y-110881886D01*
X66417371Y-110896400D01*
X66431886Y-110910914D01*
X66446400Y-110939943D01*
X66446400Y-110983486D01*
X66431886Y-111012514D01*
X66417371Y-111027029D01*
X66388343Y-111041543D01*
X66272228Y-111041543D01*
X66722171Y-110881886D02*
X66577028Y-110881886D01*
X66562514Y-111027029D01*
X66577028Y-111012514D01*
X66606057Y-110998000D01*
X66678628Y-110998000D01*
X66707657Y-111012514D01*
X66722171Y-111027029D01*
X66736686Y-111056057D01*
X66736686Y-111128629D01*
X66722171Y-111157657D01*
X66707657Y-111172171D01*
X66678628Y-111186686D01*
X66606057Y-111186686D01*
X66577028Y-111172171D01*
X66562514Y-111157657D01*
X62509400Y-120025886D02*
X62407800Y-119880743D01*
X62335228Y-120025886D02*
X62335228Y-119721086D01*
X62451343Y-119721086D01*
X62480371Y-119735600D01*
X62494886Y-119750114D01*
X62509400Y-119779143D01*
X62509400Y-119822686D01*
X62494886Y-119851714D01*
X62480371Y-119866229D01*
X62451343Y-119880743D01*
X62335228Y-119880743D01*
X62770657Y-119721086D02*
X62712600Y-119721086D01*
X62683571Y-119735600D01*
X62669057Y-119750114D01*
X62640028Y-119793657D01*
X62625514Y-119851714D01*
X62625514Y-119967829D01*
X62640028Y-119996857D01*
X62654543Y-120011371D01*
X62683571Y-120025886D01*
X62741628Y-120025886D01*
X62770657Y-120011371D01*
X62785171Y-119996857D01*
X62799686Y-119967829D01*
X62799686Y-119895257D01*
X62785171Y-119866229D01*
X62770657Y-119851714D01*
X62741628Y-119837200D01*
X62683571Y-119837200D01*
X62654543Y-119851714D01*
X62640028Y-119866229D01*
X62625514Y-119895257D01*
X55143400Y-120965686D02*
X55041800Y-120820543D01*
X54969228Y-120965686D02*
X54969228Y-120660886D01*
X55085343Y-120660886D01*
X55114371Y-120675400D01*
X55128886Y-120689914D01*
X55143400Y-120718943D01*
X55143400Y-120762486D01*
X55128886Y-120791514D01*
X55114371Y-120806029D01*
X55085343Y-120820543D01*
X54969228Y-120820543D01*
X55245000Y-120660886D02*
X55448200Y-120660886D01*
X55317571Y-120965686D01*
X77226886Y-110972600D02*
X77081743Y-111074200D01*
X77226886Y-111146772D02*
X76922086Y-111146772D01*
X76922086Y-111030657D01*
X76936600Y-111001629D01*
X76951114Y-110987114D01*
X76980143Y-110972600D01*
X77023686Y-110972600D01*
X77052714Y-110987114D01*
X77067229Y-111001629D01*
X77081743Y-111030657D01*
X77081743Y-111146772D01*
X77052714Y-110798429D02*
X77038200Y-110827457D01*
X77023686Y-110841972D01*
X76994657Y-110856486D01*
X76980143Y-110856486D01*
X76951114Y-110841972D01*
X76936600Y-110827457D01*
X76922086Y-110798429D01*
X76922086Y-110740372D01*
X76936600Y-110711343D01*
X76951114Y-110696829D01*
X76980143Y-110682314D01*
X76994657Y-110682314D01*
X77023686Y-110696829D01*
X77038200Y-110711343D01*
X77052714Y-110740372D01*
X77052714Y-110798429D01*
X77067229Y-110827457D01*
X77081743Y-110841972D01*
X77110771Y-110856486D01*
X77168829Y-110856486D01*
X77197857Y-110841972D01*
X77212371Y-110827457D01*
X77226886Y-110798429D01*
X77226886Y-110740372D01*
X77212371Y-110711343D01*
X77197857Y-110696829D01*
X77168829Y-110682314D01*
X77110771Y-110682314D01*
X77081743Y-110696829D01*
X77067229Y-110711343D01*
X77052714Y-110740372D01*
X81026000Y-110297686D02*
X80924400Y-110152543D01*
X80851828Y-110297686D02*
X80851828Y-109992886D01*
X80967943Y-109992886D01*
X80996971Y-110007400D01*
X81011486Y-110021914D01*
X81026000Y-110050943D01*
X81026000Y-110094486D01*
X81011486Y-110123514D01*
X80996971Y-110138029D01*
X80967943Y-110152543D01*
X80851828Y-110152543D01*
X81171143Y-110297686D02*
X81229200Y-110297686D01*
X81258228Y-110283171D01*
X81272743Y-110268657D01*
X81301771Y-110225114D01*
X81316286Y-110167057D01*
X81316286Y-110050943D01*
X81301771Y-110021914D01*
X81287257Y-110007400D01*
X81258228Y-109992886D01*
X81200171Y-109992886D01*
X81171143Y-110007400D01*
X81156628Y-110021914D01*
X81142114Y-110050943D01*
X81142114Y-110123514D01*
X81156628Y-110152543D01*
X81171143Y-110167057D01*
X81200171Y-110181571D01*
X81258228Y-110181571D01*
X81287257Y-110167057D01*
X81301771Y-110152543D01*
X81316286Y-110123514D01*
X79716086Y-108196743D02*
X79570943Y-108298343D01*
X79716086Y-108370915D02*
X79411286Y-108370915D01*
X79411286Y-108254800D01*
X79425800Y-108225772D01*
X79440314Y-108211257D01*
X79469343Y-108196743D01*
X79512886Y-108196743D01*
X79541914Y-108211257D01*
X79556429Y-108225772D01*
X79570943Y-108254800D01*
X79570943Y-108370915D01*
X79716086Y-107906457D02*
X79716086Y-108080629D01*
X79716086Y-107993543D02*
X79411286Y-107993543D01*
X79454829Y-108022572D01*
X79483857Y-108051600D01*
X79498371Y-108080629D01*
X79411286Y-107717771D02*
X79411286Y-107688743D01*
X79425800Y-107659714D01*
X79440314Y-107645200D01*
X79469343Y-107630686D01*
X79527400Y-107616171D01*
X79599971Y-107616171D01*
X79658029Y-107630686D01*
X79687057Y-107645200D01*
X79701571Y-107659714D01*
X79716086Y-107688743D01*
X79716086Y-107717771D01*
X79701571Y-107746800D01*
X79687057Y-107761314D01*
X79658029Y-107775829D01*
X79599971Y-107790343D01*
X79527400Y-107790343D01*
X79469343Y-107775829D01*
X79440314Y-107761314D01*
X79425800Y-107746800D01*
X79411286Y-107717771D01*
X76033086Y-109441343D02*
X75887943Y-109542943D01*
X76033086Y-109615515D02*
X75728286Y-109615515D01*
X75728286Y-109499400D01*
X75742800Y-109470372D01*
X75757314Y-109455857D01*
X75786343Y-109441343D01*
X75829886Y-109441343D01*
X75858914Y-109455857D01*
X75873429Y-109470372D01*
X75887943Y-109499400D01*
X75887943Y-109615515D01*
X76033086Y-109151057D02*
X76033086Y-109325229D01*
X76033086Y-109238143D02*
X75728286Y-109238143D01*
X75771829Y-109267172D01*
X75800857Y-109296200D01*
X75815371Y-109325229D01*
X76033086Y-108860771D02*
X76033086Y-109034943D01*
X76033086Y-108947857D02*
X75728286Y-108947857D01*
X75771829Y-108976886D01*
X75800857Y-109005914D01*
X75815371Y-109034943D01*
X77731257Y-113752086D02*
X77629657Y-113606943D01*
X77557085Y-113752086D02*
X77557085Y-113447286D01*
X77673200Y-113447286D01*
X77702228Y-113461800D01*
X77716743Y-113476314D01*
X77731257Y-113505343D01*
X77731257Y-113548886D01*
X77716743Y-113577914D01*
X77702228Y-113592429D01*
X77673200Y-113606943D01*
X77557085Y-113606943D01*
X78021543Y-113752086D02*
X77847371Y-113752086D01*
X77934457Y-113752086D02*
X77934457Y-113447286D01*
X77905428Y-113490829D01*
X77876400Y-113519857D01*
X77847371Y-113534371D01*
X78137657Y-113476314D02*
X78152171Y-113461800D01*
X78181200Y-113447286D01*
X78253771Y-113447286D01*
X78282800Y-113461800D01*
X78297314Y-113476314D01*
X78311829Y-113505343D01*
X78311829Y-113534371D01*
X78297314Y-113577914D01*
X78123143Y-113752086D01*
X78311829Y-113752086D01*
X77756657Y-112786886D02*
X77655057Y-112641743D01*
X77582485Y-112786886D02*
X77582485Y-112482086D01*
X77698600Y-112482086D01*
X77727628Y-112496600D01*
X77742143Y-112511114D01*
X77756657Y-112540143D01*
X77756657Y-112583686D01*
X77742143Y-112612714D01*
X77727628Y-112627229D01*
X77698600Y-112641743D01*
X77582485Y-112641743D01*
X78046943Y-112786886D02*
X77872771Y-112786886D01*
X77959857Y-112786886D02*
X77959857Y-112482086D01*
X77930828Y-112525629D01*
X77901800Y-112554657D01*
X77872771Y-112569171D01*
X78148543Y-112482086D02*
X78337229Y-112482086D01*
X78235629Y-112598200D01*
X78279171Y-112598200D01*
X78308200Y-112612714D01*
X78322714Y-112627229D01*
X78337229Y-112656257D01*
X78337229Y-112728829D01*
X78322714Y-112757857D01*
X78308200Y-112772371D01*
X78279171Y-112786886D01*
X78192086Y-112786886D01*
X78163057Y-112772371D01*
X78148543Y-112757857D01*
X79915657Y-114996686D02*
X79814057Y-114851543D01*
X79741485Y-114996686D02*
X79741485Y-114691886D01*
X79857600Y-114691886D01*
X79886628Y-114706400D01*
X79901143Y-114720914D01*
X79915657Y-114749943D01*
X79915657Y-114793486D01*
X79901143Y-114822514D01*
X79886628Y-114837029D01*
X79857600Y-114851543D01*
X79741485Y-114851543D01*
X80205943Y-114996686D02*
X80031771Y-114996686D01*
X80118857Y-114996686D02*
X80118857Y-114691886D01*
X80089828Y-114735429D01*
X80060800Y-114764457D01*
X80031771Y-114778971D01*
X80467200Y-114793486D02*
X80467200Y-114996686D01*
X80394629Y-114677371D02*
X80322057Y-114895086D01*
X80510743Y-114895086D01*
X72295657Y-110043686D02*
X72194057Y-109898543D01*
X72121485Y-110043686D02*
X72121485Y-109738886D01*
X72237600Y-109738886D01*
X72266628Y-109753400D01*
X72281143Y-109767914D01*
X72295657Y-109796943D01*
X72295657Y-109840486D01*
X72281143Y-109869514D01*
X72266628Y-109884029D01*
X72237600Y-109898543D01*
X72121485Y-109898543D01*
X72585943Y-110043686D02*
X72411771Y-110043686D01*
X72498857Y-110043686D02*
X72498857Y-109738886D01*
X72469828Y-109782429D01*
X72440800Y-109811457D01*
X72411771Y-109825971D01*
X72861714Y-109738886D02*
X72716571Y-109738886D01*
X72702057Y-109884029D01*
X72716571Y-109869514D01*
X72745600Y-109855000D01*
X72818171Y-109855000D01*
X72847200Y-109869514D01*
X72861714Y-109884029D01*
X72876229Y-109913057D01*
X72876229Y-109985629D01*
X72861714Y-110014657D01*
X72847200Y-110029171D01*
X72818171Y-110043686D01*
X72745600Y-110043686D01*
X72716571Y-110029171D01*
X72702057Y-110014657D01*
X75978657Y-118425686D02*
X75877057Y-118280543D01*
X75804485Y-118425686D02*
X75804485Y-118120886D01*
X75920600Y-118120886D01*
X75949628Y-118135400D01*
X75964143Y-118149914D01*
X75978657Y-118178943D01*
X75978657Y-118222486D01*
X75964143Y-118251514D01*
X75949628Y-118266029D01*
X75920600Y-118280543D01*
X75804485Y-118280543D01*
X76268943Y-118425686D02*
X76094771Y-118425686D01*
X76181857Y-118425686D02*
X76181857Y-118120886D01*
X76152828Y-118164429D01*
X76123800Y-118193457D01*
X76094771Y-118207971D01*
X76530200Y-118120886D02*
X76472143Y-118120886D01*
X76443114Y-118135400D01*
X76428600Y-118149914D01*
X76399571Y-118193457D01*
X76385057Y-118251514D01*
X76385057Y-118367629D01*
X76399571Y-118396657D01*
X76414086Y-118411171D01*
X76443114Y-118425686D01*
X76501171Y-118425686D01*
X76530200Y-118411171D01*
X76544714Y-118396657D01*
X76559229Y-118367629D01*
X76559229Y-118295057D01*
X76544714Y-118266029D01*
X76530200Y-118251514D01*
X76501171Y-118237000D01*
X76443114Y-118237000D01*
X76414086Y-118251514D01*
X76399571Y-118266029D01*
X76385057Y-118295057D01*
X75216657Y-114996686D02*
X75115057Y-114851543D01*
X75042485Y-114996686D02*
X75042485Y-114691886D01*
X75158600Y-114691886D01*
X75187628Y-114706400D01*
X75202143Y-114720914D01*
X75216657Y-114749943D01*
X75216657Y-114793486D01*
X75202143Y-114822514D01*
X75187628Y-114837029D01*
X75158600Y-114851543D01*
X75042485Y-114851543D01*
X75506943Y-114996686D02*
X75332771Y-114996686D01*
X75419857Y-114996686D02*
X75419857Y-114691886D01*
X75390828Y-114735429D01*
X75361800Y-114764457D01*
X75332771Y-114778971D01*
X75608543Y-114691886D02*
X75811743Y-114691886D01*
X75681114Y-114996686D01*
X70089486Y-108857143D02*
X69944343Y-108958743D01*
X70089486Y-109031315D02*
X69784686Y-109031315D01*
X69784686Y-108915200D01*
X69799200Y-108886172D01*
X69813714Y-108871657D01*
X69842743Y-108857143D01*
X69886286Y-108857143D01*
X69915314Y-108871657D01*
X69929829Y-108886172D01*
X69944343Y-108915200D01*
X69944343Y-109031315D01*
X70089486Y-108566857D02*
X70089486Y-108741029D01*
X70089486Y-108653943D02*
X69784686Y-108653943D01*
X69828229Y-108682972D01*
X69857257Y-108712000D01*
X69871771Y-108741029D01*
X69915314Y-108392686D02*
X69900800Y-108421714D01*
X69886286Y-108436229D01*
X69857257Y-108450743D01*
X69842743Y-108450743D01*
X69813714Y-108436229D01*
X69799200Y-108421714D01*
X69784686Y-108392686D01*
X69784686Y-108334629D01*
X69799200Y-108305600D01*
X69813714Y-108291086D01*
X69842743Y-108276571D01*
X69857257Y-108276571D01*
X69886286Y-108291086D01*
X69900800Y-108305600D01*
X69915314Y-108334629D01*
X69915314Y-108392686D01*
X69929829Y-108421714D01*
X69944343Y-108436229D01*
X69973371Y-108450743D01*
X70031429Y-108450743D01*
X70060457Y-108436229D01*
X70074971Y-108421714D01*
X70089486Y-108392686D01*
X70089486Y-108334629D01*
X70074971Y-108305600D01*
X70060457Y-108291086D01*
X70031429Y-108276571D01*
X69973371Y-108276571D01*
X69944343Y-108291086D01*
X69929829Y-108305600D01*
X69915314Y-108334629D01*
X68993657Y-105217686D02*
X68892057Y-105072543D01*
X68819485Y-105217686D02*
X68819485Y-104912886D01*
X68935600Y-104912886D01*
X68964628Y-104927400D01*
X68979143Y-104941914D01*
X68993657Y-104970943D01*
X68993657Y-105014486D01*
X68979143Y-105043514D01*
X68964628Y-105058029D01*
X68935600Y-105072543D01*
X68819485Y-105072543D01*
X69283943Y-105217686D02*
X69109771Y-105217686D01*
X69196857Y-105217686D02*
X69196857Y-104912886D01*
X69167828Y-104956429D01*
X69138800Y-104985457D01*
X69109771Y-104999971D01*
X69429086Y-105217686D02*
X69487143Y-105217686D01*
X69516171Y-105203171D01*
X69530686Y-105188657D01*
X69559714Y-105145114D01*
X69574229Y-105087057D01*
X69574229Y-104970943D01*
X69559714Y-104941914D01*
X69545200Y-104927400D01*
X69516171Y-104912886D01*
X69458114Y-104912886D01*
X69429086Y-104927400D01*
X69414571Y-104941914D01*
X69400057Y-104970943D01*
X69400057Y-105043514D01*
X69414571Y-105072543D01*
X69429086Y-105087057D01*
X69458114Y-105101571D01*
X69516171Y-105101571D01*
X69545200Y-105087057D01*
X69559714Y-105072543D01*
X69574229Y-105043514D01*
X82455657Y-108138686D02*
X82354057Y-107993543D01*
X82281485Y-108138686D02*
X82281485Y-107833886D01*
X82397600Y-107833886D01*
X82426628Y-107848400D01*
X82441143Y-107862914D01*
X82455657Y-107891943D01*
X82455657Y-107935486D01*
X82441143Y-107964514D01*
X82426628Y-107979029D01*
X82397600Y-107993543D01*
X82281485Y-107993543D01*
X82571771Y-107862914D02*
X82586285Y-107848400D01*
X82615314Y-107833886D01*
X82687885Y-107833886D01*
X82716914Y-107848400D01*
X82731428Y-107862914D01*
X82745943Y-107891943D01*
X82745943Y-107920971D01*
X82731428Y-107964514D01*
X82557257Y-108138686D01*
X82745943Y-108138686D01*
X82934629Y-107833886D02*
X82963657Y-107833886D01*
X82992686Y-107848400D01*
X83007200Y-107862914D01*
X83021714Y-107891943D01*
X83036229Y-107950000D01*
X83036229Y-108022571D01*
X83021714Y-108080629D01*
X83007200Y-108109657D01*
X82992686Y-108124171D01*
X82963657Y-108138686D01*
X82934629Y-108138686D01*
X82905600Y-108124171D01*
X82891086Y-108109657D01*
X82876571Y-108080629D01*
X82862057Y-108022571D01*
X82862057Y-107950000D01*
X82876571Y-107891943D01*
X82891086Y-107862914D01*
X82905600Y-107848400D01*
X82934629Y-107833886D01*
X83217657Y-110627886D02*
X83116057Y-110482743D01*
X83043485Y-110627886D02*
X83043485Y-110323086D01*
X83159600Y-110323086D01*
X83188628Y-110337600D01*
X83203143Y-110352114D01*
X83217657Y-110381143D01*
X83217657Y-110424686D01*
X83203143Y-110453714D01*
X83188628Y-110468229D01*
X83159600Y-110482743D01*
X83043485Y-110482743D01*
X83333771Y-110352114D02*
X83348285Y-110337600D01*
X83377314Y-110323086D01*
X83449885Y-110323086D01*
X83478914Y-110337600D01*
X83493428Y-110352114D01*
X83507943Y-110381143D01*
X83507943Y-110410171D01*
X83493428Y-110453714D01*
X83319257Y-110627886D01*
X83507943Y-110627886D01*
X83798229Y-110627886D02*
X83624057Y-110627886D01*
X83711143Y-110627886D02*
X83711143Y-110323086D01*
X83682114Y-110366629D01*
X83653086Y-110395657D01*
X83624057Y-110410171D01*
X81566657Y-114488686D02*
X81465057Y-114343543D01*
X81392485Y-114488686D02*
X81392485Y-114183886D01*
X81508600Y-114183886D01*
X81537628Y-114198400D01*
X81552143Y-114212914D01*
X81566657Y-114241943D01*
X81566657Y-114285486D01*
X81552143Y-114314514D01*
X81537628Y-114329029D01*
X81508600Y-114343543D01*
X81392485Y-114343543D01*
X81682771Y-114212914D02*
X81697285Y-114198400D01*
X81726314Y-114183886D01*
X81798885Y-114183886D01*
X81827914Y-114198400D01*
X81842428Y-114212914D01*
X81856943Y-114241943D01*
X81856943Y-114270971D01*
X81842428Y-114314514D01*
X81668257Y-114488686D01*
X81856943Y-114488686D01*
X81973057Y-114212914D02*
X81987571Y-114198400D01*
X82016600Y-114183886D01*
X82089171Y-114183886D01*
X82118200Y-114198400D01*
X82132714Y-114212914D01*
X82147229Y-114241943D01*
X82147229Y-114270971D01*
X82132714Y-114314514D01*
X81958543Y-114488686D01*
X82147229Y-114488686D01*
X81570286Y-112641743D02*
X81425143Y-112743343D01*
X81570286Y-112815915D02*
X81265486Y-112815915D01*
X81265486Y-112699800D01*
X81280000Y-112670772D01*
X81294514Y-112656257D01*
X81323543Y-112641743D01*
X81367086Y-112641743D01*
X81396114Y-112656257D01*
X81410629Y-112670772D01*
X81425143Y-112699800D01*
X81425143Y-112815915D01*
X81294514Y-112525629D02*
X81280000Y-112511115D01*
X81265486Y-112482086D01*
X81265486Y-112409515D01*
X81280000Y-112380486D01*
X81294514Y-112365972D01*
X81323543Y-112351457D01*
X81352571Y-112351457D01*
X81396114Y-112365972D01*
X81570286Y-112540143D01*
X81570286Y-112351457D01*
X81265486Y-112249857D02*
X81265486Y-112061171D01*
X81381600Y-112162771D01*
X81381600Y-112119229D01*
X81396114Y-112090200D01*
X81410629Y-112075686D01*
X81439657Y-112061171D01*
X81512229Y-112061171D01*
X81541257Y-112075686D01*
X81555771Y-112090200D01*
X81570286Y-112119229D01*
X81570286Y-112206314D01*
X81555771Y-112235343D01*
X81541257Y-112249857D01*
X83261200Y-107997171D02*
X83304743Y-108011686D01*
X83377314Y-108011686D01*
X83406343Y-107997171D01*
X83420857Y-107982657D01*
X83435372Y-107953629D01*
X83435372Y-107924600D01*
X83420857Y-107895571D01*
X83406343Y-107881057D01*
X83377314Y-107866543D01*
X83319257Y-107852029D01*
X83290229Y-107837514D01*
X83275714Y-107823000D01*
X83261200Y-107793971D01*
X83261200Y-107764943D01*
X83275714Y-107735914D01*
X83290229Y-107721400D01*
X83319257Y-107706886D01*
X83391829Y-107706886D01*
X83435372Y-107721400D01*
X83536972Y-107706886D02*
X83609543Y-108011686D01*
X83667600Y-107793971D01*
X83725658Y-108011686D01*
X83798229Y-107706886D01*
X84074001Y-108011686D02*
X83899829Y-108011686D01*
X83986915Y-108011686D02*
X83986915Y-107706886D01*
X83957886Y-107750429D01*
X83928858Y-107779457D01*
X83899829Y-107793971D01*
X55241371Y-112812286D02*
X55241371Y-113059029D01*
X55255886Y-113088057D01*
X55270400Y-113102571D01*
X55299429Y-113117086D01*
X55357486Y-113117086D01*
X55386514Y-113102571D01*
X55401029Y-113088057D01*
X55415543Y-113059029D01*
X55415543Y-112812286D01*
X55546171Y-112841314D02*
X55560685Y-112826800D01*
X55589714Y-112812286D01*
X55662285Y-112812286D01*
X55691314Y-112826800D01*
X55705828Y-112841314D01*
X55720343Y-112870343D01*
X55720343Y-112899371D01*
X55705828Y-112942914D01*
X55531657Y-113117086D01*
X55720343Y-113117086D01*
X80565171Y-115758686D02*
X80565171Y-116005429D01*
X80579686Y-116034457D01*
X80594200Y-116048971D01*
X80623229Y-116063486D01*
X80681286Y-116063486D01*
X80710314Y-116048971D01*
X80724829Y-116034457D01*
X80739343Y-116005429D01*
X80739343Y-115758686D01*
X80855457Y-115758686D02*
X81044143Y-115758686D01*
X80942543Y-115874800D01*
X80986085Y-115874800D01*
X81015114Y-115889314D01*
X81029628Y-115903829D01*
X81044143Y-115932857D01*
X81044143Y-116005429D01*
X81029628Y-116034457D01*
X81015114Y-116048971D01*
X80986085Y-116063486D01*
X80899000Y-116063486D01*
X80869971Y-116048971D01*
X80855457Y-116034457D01*
X72259371Y-105293886D02*
X72259371Y-105540629D01*
X72273886Y-105569657D01*
X72288400Y-105584171D01*
X72317429Y-105598686D01*
X72375486Y-105598686D01*
X72404514Y-105584171D01*
X72419029Y-105569657D01*
X72433543Y-105540629D01*
X72433543Y-105293886D01*
X72709314Y-105395486D02*
X72709314Y-105598686D01*
X72636743Y-105279371D02*
X72564171Y-105497086D01*
X72752857Y-105497086D01*
X84476771Y-116546086D02*
X84476771Y-116792829D01*
X84491286Y-116821857D01*
X84505800Y-116836371D01*
X84534829Y-116850886D01*
X84592886Y-116850886D01*
X84621914Y-116836371D01*
X84636429Y-116821857D01*
X84650943Y-116792829D01*
X84650943Y-116546086D01*
X84941228Y-116546086D02*
X84796085Y-116546086D01*
X84781571Y-116691229D01*
X84796085Y-116676714D01*
X84825114Y-116662200D01*
X84897685Y-116662200D01*
X84926714Y-116676714D01*
X84941228Y-116691229D01*
X84955743Y-116720257D01*
X84955743Y-116792829D01*
X84941228Y-116821857D01*
X84926714Y-116836371D01*
X84897685Y-116850886D01*
X84825114Y-116850886D01*
X84796085Y-116836371D01*
X84781571Y-116821857D01*
X58528857Y-114793486D02*
X58732057Y-115098286D01*
X58732057Y-114793486D02*
X58528857Y-115098286D01*
X59007829Y-115098286D02*
X58833657Y-115098286D01*
X58920743Y-115098286D02*
X58920743Y-114793486D01*
X58891714Y-114837029D01*
X58862686Y-114866057D01*
X58833657Y-114880571D01*
X60227028Y-115047486D02*
X60227028Y-114742686D01*
X60343143Y-114742686D01*
X60372171Y-114757200D01*
X60386686Y-114771714D01*
X60401200Y-114800743D01*
X60401200Y-114844286D01*
X60386686Y-114873314D01*
X60372171Y-114887829D01*
X60343143Y-114902343D01*
X60227028Y-114902343D01*
X60676971Y-114742686D02*
X60531828Y-114742686D01*
X60517314Y-114887829D01*
X60531828Y-114873314D01*
X60560857Y-114858800D01*
X60633428Y-114858800D01*
X60662457Y-114873314D01*
X60676971Y-114887829D01*
X60691486Y-114916857D01*
X60691486Y-114989429D01*
X60676971Y-115018457D01*
X60662457Y-115032971D01*
X60633428Y-115047486D01*
X60560857Y-115047486D01*
X60531828Y-115032971D01*
X60517314Y-115018457D01*
X71174428Y-113396486D02*
X71174428Y-113091686D01*
X71290543Y-113091686D01*
X71319571Y-113106200D01*
X71334086Y-113120714D01*
X71348600Y-113149743D01*
X71348600Y-113193286D01*
X71334086Y-113222314D01*
X71319571Y-113236829D01*
X71290543Y-113251343D01*
X71174428Y-113251343D01*
X71609857Y-113091686D02*
X71551800Y-113091686D01*
X71522771Y-113106200D01*
X71508257Y-113120714D01*
X71479228Y-113164257D01*
X71464714Y-113222314D01*
X71464714Y-113338429D01*
X71479228Y-113367457D01*
X71493743Y-113381971D01*
X71522771Y-113396486D01*
X71580828Y-113396486D01*
X71609857Y-113381971D01*
X71624371Y-113367457D01*
X71638886Y-113338429D01*
X71638886Y-113265857D01*
X71624371Y-113236829D01*
X71609857Y-113222314D01*
X71580828Y-113207800D01*
X71522771Y-113207800D01*
X71493743Y-113222314D01*
X71479228Y-113236829D01*
X71464714Y-113265857D01*
X73790628Y-113599686D02*
X73790628Y-113294886D01*
X73906743Y-113294886D01*
X73935771Y-113309400D01*
X73950286Y-113323914D01*
X73964800Y-113352943D01*
X73964800Y-113396486D01*
X73950286Y-113425514D01*
X73935771Y-113440029D01*
X73906743Y-113454543D01*
X73790628Y-113454543D01*
X74066400Y-113294886D02*
X74269600Y-113294886D01*
X74138971Y-113599686D01*
X86142286Y-114651972D02*
X85837486Y-114651972D01*
X85837486Y-114535857D01*
X85852000Y-114506829D01*
X85866514Y-114492314D01*
X85895543Y-114477800D01*
X85939086Y-114477800D01*
X85968114Y-114492314D01*
X85982629Y-114506829D01*
X85997143Y-114535857D01*
X85997143Y-114651972D01*
X85866514Y-114361686D02*
X85852000Y-114347172D01*
X85837486Y-114318143D01*
X85837486Y-114245572D01*
X85852000Y-114216543D01*
X85866514Y-114202029D01*
X85895543Y-114187514D01*
X85924571Y-114187514D01*
X85968114Y-114202029D01*
X86142286Y-114376200D01*
X86142286Y-114187514D01*
X86243886Y-112137372D02*
X85939086Y-112137372D01*
X85939086Y-112021257D01*
X85953600Y-111992229D01*
X85968114Y-111977714D01*
X85997143Y-111963200D01*
X86040686Y-111963200D01*
X86069714Y-111977714D01*
X86084229Y-111992229D01*
X86098743Y-112021257D01*
X86098743Y-112137372D01*
X85939086Y-111861600D02*
X85939086Y-111672914D01*
X86055200Y-111774514D01*
X86055200Y-111730972D01*
X86069714Y-111701943D01*
X86084229Y-111687429D01*
X86113257Y-111672914D01*
X86185829Y-111672914D01*
X86214857Y-111687429D01*
X86229371Y-111701943D01*
X86243886Y-111730972D01*
X86243886Y-111818057D01*
X86229371Y-111847086D01*
X86214857Y-111861600D01*
X63116163Y-112491985D02*
X63290637Y-112666458D01*
X63321426Y-112676721D01*
X63341952Y-112676721D01*
X63372743Y-112666458D01*
X63413795Y-112625405D01*
X63424057Y-112594616D01*
X63424058Y-112574089D01*
X63413795Y-112543300D01*
X63239321Y-112368826D01*
X63670374Y-112368826D02*
X63547216Y-112491985D01*
X63608795Y-112430406D02*
X63393269Y-112214879D01*
X63403531Y-112266196D01*
X63403531Y-112307247D01*
X63393268Y-112338037D01*
M02*
