G04 #@! TF.FileFunction,Soldermask,Top*
%FSLAX46Y46*%
G04 Gerber Fmt 4.6, Leading zero omitted, Abs format (unit mm)*
G04 Created by KiCad (PCBNEW (2015-02-03 BZR 5404)-product) date Sat 07 Feb 2015 10:18:26 AM CST*
%MOMM*%
G01*
G04 APERTURE LIST*
%ADD10C,0.100000*%
G04 APERTURE END LIST*
D10*
G36*
X53359800Y-115324200D02*
X51407400Y-115324200D01*
X51407400Y-114171800D01*
X53359800Y-114171800D01*
X53359800Y-115324200D01*
X53359800Y-115324200D01*
G37*
G36*
X53359800Y-120224200D02*
X51407400Y-120224200D01*
X51407400Y-119071800D01*
X53359800Y-119071800D01*
X53359800Y-120224200D01*
X53359800Y-120224200D01*
G37*
G36*
X53731105Y-107881264D02*
X53729211Y-107899275D01*
X53727013Y-107920195D01*
X53727012Y-107920208D01*
X53715431Y-107957619D01*
X53696805Y-107992068D01*
X53671842Y-108022242D01*
X53641494Y-108046994D01*
X53606916Y-108065379D01*
X53569425Y-108076698D01*
X53530450Y-108080520D01*
X53529894Y-108080520D01*
X52773059Y-108080520D01*
X52773030Y-108080520D01*
X52772167Y-108080513D01*
X52770742Y-108080504D01*
X52770738Y-108080503D01*
X52770228Y-108080500D01*
X52731310Y-108076135D01*
X52693982Y-108064294D01*
X52659664Y-108045427D01*
X52629664Y-108020254D01*
X52605125Y-107989734D01*
X52586981Y-107955029D01*
X52575924Y-107917460D01*
X52575923Y-107917451D01*
X52574508Y-107901903D01*
X52572375Y-107878459D01*
X52572375Y-107878457D01*
X52572375Y-107878456D01*
X52574268Y-107860444D01*
X52576468Y-107839512D01*
X52588049Y-107802101D01*
X52606675Y-107767652D01*
X52631638Y-107737478D01*
X52661986Y-107712726D01*
X52696564Y-107694341D01*
X52734055Y-107683022D01*
X52773030Y-107679200D01*
X52773586Y-107679200D01*
X53530421Y-107679200D01*
X53530450Y-107679200D01*
X53531312Y-107679206D01*
X53532738Y-107679216D01*
X53532741Y-107679216D01*
X53533252Y-107679220D01*
X53572170Y-107683585D01*
X53609498Y-107695426D01*
X53643816Y-107714293D01*
X53673816Y-107739466D01*
X53698355Y-107769986D01*
X53716499Y-107804691D01*
X53727556Y-107842260D01*
X53727556Y-107842268D01*
X53727557Y-107842269D01*
X53728971Y-107857816D01*
X53731105Y-107881261D01*
X53731104Y-107881262D01*
X53731105Y-107881264D01*
X53731105Y-107881264D01*
G37*
G36*
X53731105Y-108381644D02*
X53729211Y-108399655D01*
X53727013Y-108420575D01*
X53727012Y-108420588D01*
X53715431Y-108457999D01*
X53696805Y-108492448D01*
X53671842Y-108522622D01*
X53641494Y-108547374D01*
X53606916Y-108565759D01*
X53569425Y-108577078D01*
X53530450Y-108580900D01*
X53529894Y-108580900D01*
X52773059Y-108580900D01*
X52773030Y-108580900D01*
X52772167Y-108580893D01*
X52770742Y-108580884D01*
X52770738Y-108580883D01*
X52770228Y-108580880D01*
X52731310Y-108576515D01*
X52693982Y-108564674D01*
X52659664Y-108545807D01*
X52629664Y-108520634D01*
X52605125Y-108490114D01*
X52586981Y-108455409D01*
X52575924Y-108417840D01*
X52575923Y-108417831D01*
X52574508Y-108402283D01*
X52572375Y-108378839D01*
X52572375Y-108378837D01*
X52572375Y-108378836D01*
X52574268Y-108360824D01*
X52576468Y-108339892D01*
X52588049Y-108302481D01*
X52606675Y-108268032D01*
X52631638Y-108237858D01*
X52661986Y-108213106D01*
X52696564Y-108194721D01*
X52734055Y-108183402D01*
X52773030Y-108179580D01*
X52773586Y-108179580D01*
X53530421Y-108179580D01*
X53530450Y-108179580D01*
X53531312Y-108179586D01*
X53532738Y-108179596D01*
X53532741Y-108179596D01*
X53533252Y-108179600D01*
X53572170Y-108183965D01*
X53609498Y-108195806D01*
X53643816Y-108214673D01*
X53673816Y-108239846D01*
X53698355Y-108270366D01*
X53716499Y-108305071D01*
X53727556Y-108342640D01*
X53727556Y-108342648D01*
X53727557Y-108342649D01*
X53728971Y-108358196D01*
X53731105Y-108381641D01*
X53731104Y-108381642D01*
X53731105Y-108381644D01*
X53731105Y-108381644D01*
G37*
G36*
X53731105Y-108882024D02*
X53729211Y-108900035D01*
X53727013Y-108920955D01*
X53727012Y-108920968D01*
X53715431Y-108958379D01*
X53696805Y-108992828D01*
X53671842Y-109023002D01*
X53641494Y-109047754D01*
X53606916Y-109066139D01*
X53569425Y-109077458D01*
X53530450Y-109081280D01*
X53529894Y-109081280D01*
X52773059Y-109081280D01*
X52773030Y-109081280D01*
X52772167Y-109081273D01*
X52770742Y-109081264D01*
X52770738Y-109081263D01*
X52770228Y-109081260D01*
X52731310Y-109076895D01*
X52693982Y-109065054D01*
X52659664Y-109046187D01*
X52629664Y-109021014D01*
X52605125Y-108990494D01*
X52586981Y-108955789D01*
X52575924Y-108918220D01*
X52575923Y-108918211D01*
X52574508Y-108902663D01*
X52572375Y-108879219D01*
X52572375Y-108879217D01*
X52572375Y-108879216D01*
X52574268Y-108861204D01*
X52576468Y-108840272D01*
X52588049Y-108802861D01*
X52606675Y-108768412D01*
X52631638Y-108738238D01*
X52661986Y-108713486D01*
X52696564Y-108695101D01*
X52734055Y-108683782D01*
X52773030Y-108679960D01*
X52773586Y-108679960D01*
X53530421Y-108679960D01*
X53530450Y-108679960D01*
X53531312Y-108679966D01*
X53532738Y-108679976D01*
X53532741Y-108679976D01*
X53533252Y-108679980D01*
X53572170Y-108684345D01*
X53609498Y-108696186D01*
X53643816Y-108715053D01*
X53673816Y-108740226D01*
X53698355Y-108770746D01*
X53716499Y-108805451D01*
X53727556Y-108843020D01*
X53727556Y-108843028D01*
X53727557Y-108843029D01*
X53728971Y-108858576D01*
X53731105Y-108882021D01*
X53731104Y-108882022D01*
X53731105Y-108882024D01*
X53731105Y-108882024D01*
G37*
G36*
X53731105Y-109382404D02*
X53729211Y-109400415D01*
X53727013Y-109421335D01*
X53727012Y-109421348D01*
X53715431Y-109458759D01*
X53696805Y-109493208D01*
X53671842Y-109523382D01*
X53641494Y-109548134D01*
X53606916Y-109566519D01*
X53569425Y-109577838D01*
X53530450Y-109581660D01*
X53529894Y-109581660D01*
X52773059Y-109581660D01*
X52773030Y-109581660D01*
X52772167Y-109581653D01*
X52770742Y-109581644D01*
X52770738Y-109581643D01*
X52770228Y-109581640D01*
X52731310Y-109577275D01*
X52693982Y-109565434D01*
X52659664Y-109546567D01*
X52629664Y-109521394D01*
X52605125Y-109490874D01*
X52586981Y-109456169D01*
X52575924Y-109418600D01*
X52575923Y-109418591D01*
X52574508Y-109403043D01*
X52572375Y-109379599D01*
X52572375Y-109379597D01*
X52572375Y-109379596D01*
X52574268Y-109361584D01*
X52576468Y-109340652D01*
X52588049Y-109303241D01*
X52606675Y-109268792D01*
X52631638Y-109238618D01*
X52661986Y-109213866D01*
X52696564Y-109195481D01*
X52734055Y-109184162D01*
X52773030Y-109180340D01*
X52773586Y-109180340D01*
X53530421Y-109180340D01*
X53530450Y-109180340D01*
X53531312Y-109180346D01*
X53532738Y-109180356D01*
X53532741Y-109180356D01*
X53533252Y-109180360D01*
X53572170Y-109184725D01*
X53609498Y-109196566D01*
X53643816Y-109215433D01*
X53673816Y-109240606D01*
X53698355Y-109271126D01*
X53716499Y-109305831D01*
X53727556Y-109343400D01*
X53727556Y-109343408D01*
X53727557Y-109343409D01*
X53728971Y-109358956D01*
X53731105Y-109382401D01*
X53731104Y-109382402D01*
X53731105Y-109382404D01*
X53731105Y-109382404D01*
G37*
G36*
X53731105Y-109882784D02*
X53729211Y-109900795D01*
X53727013Y-109921715D01*
X53727012Y-109921728D01*
X53715431Y-109959139D01*
X53696805Y-109993588D01*
X53671842Y-110023762D01*
X53641494Y-110048514D01*
X53606916Y-110066899D01*
X53569425Y-110078218D01*
X53530450Y-110082040D01*
X53529894Y-110082040D01*
X52773059Y-110082040D01*
X52773030Y-110082040D01*
X52772167Y-110082033D01*
X52770742Y-110082024D01*
X52770738Y-110082023D01*
X52770228Y-110082020D01*
X52731310Y-110077655D01*
X52693982Y-110065814D01*
X52659664Y-110046947D01*
X52629664Y-110021774D01*
X52605125Y-109991254D01*
X52586981Y-109956549D01*
X52575924Y-109918980D01*
X52575923Y-109918971D01*
X52574508Y-109903423D01*
X52572375Y-109879979D01*
X52572375Y-109879977D01*
X52572375Y-109879976D01*
X52574268Y-109861964D01*
X52576468Y-109841032D01*
X52588049Y-109803621D01*
X52606675Y-109769172D01*
X52631638Y-109738998D01*
X52661986Y-109714246D01*
X52696564Y-109695861D01*
X52734055Y-109684542D01*
X52773030Y-109680720D01*
X52773586Y-109680720D01*
X53530421Y-109680720D01*
X53530450Y-109680720D01*
X53531312Y-109680726D01*
X53532738Y-109680736D01*
X53532741Y-109680736D01*
X53533252Y-109680740D01*
X53572170Y-109685105D01*
X53609498Y-109696946D01*
X53643816Y-109715813D01*
X53673816Y-109740986D01*
X53698355Y-109771506D01*
X53716499Y-109806211D01*
X53727556Y-109843780D01*
X53727556Y-109843788D01*
X53727557Y-109843789D01*
X53728971Y-109859336D01*
X53731105Y-109882781D01*
X53731104Y-109882782D01*
X53731105Y-109882784D01*
X53731105Y-109882784D01*
G37*
G36*
X53731105Y-110383164D02*
X53729211Y-110401175D01*
X53727013Y-110422095D01*
X53727012Y-110422108D01*
X53715431Y-110459519D01*
X53696805Y-110493968D01*
X53671842Y-110524142D01*
X53641494Y-110548894D01*
X53606916Y-110567279D01*
X53569425Y-110578598D01*
X53530450Y-110582420D01*
X53529894Y-110582420D01*
X52773059Y-110582420D01*
X52773030Y-110582420D01*
X52772167Y-110582413D01*
X52770742Y-110582404D01*
X52770738Y-110582403D01*
X52770228Y-110582400D01*
X52731310Y-110578035D01*
X52693982Y-110566194D01*
X52659664Y-110547327D01*
X52629664Y-110522154D01*
X52605125Y-110491634D01*
X52586981Y-110456929D01*
X52575924Y-110419360D01*
X52575923Y-110419351D01*
X52574508Y-110403803D01*
X52572375Y-110380359D01*
X52572375Y-110380357D01*
X52572375Y-110380356D01*
X52574268Y-110362344D01*
X52576468Y-110341412D01*
X52588049Y-110304001D01*
X52606675Y-110269552D01*
X52631638Y-110239378D01*
X52661986Y-110214626D01*
X52696564Y-110196241D01*
X52734055Y-110184922D01*
X52773030Y-110181100D01*
X52773586Y-110181100D01*
X53530421Y-110181100D01*
X53530450Y-110181100D01*
X53531312Y-110181106D01*
X53532738Y-110181116D01*
X53532741Y-110181116D01*
X53533252Y-110181120D01*
X53572170Y-110185485D01*
X53609498Y-110197326D01*
X53643816Y-110216193D01*
X53673816Y-110241366D01*
X53698355Y-110271886D01*
X53716499Y-110306591D01*
X53727556Y-110344160D01*
X53727556Y-110344168D01*
X53727557Y-110344169D01*
X53728971Y-110359716D01*
X53731105Y-110383161D01*
X53731104Y-110383162D01*
X53731105Y-110383164D01*
X53731105Y-110383164D01*
G37*
G36*
X53731105Y-110883544D02*
X53729211Y-110901555D01*
X53727013Y-110922475D01*
X53727012Y-110922488D01*
X53715431Y-110959899D01*
X53696805Y-110994348D01*
X53671842Y-111024522D01*
X53641494Y-111049274D01*
X53606916Y-111067659D01*
X53569425Y-111078978D01*
X53530450Y-111082800D01*
X53529894Y-111082800D01*
X52773059Y-111082800D01*
X52773030Y-111082800D01*
X52772167Y-111082793D01*
X52770742Y-111082784D01*
X52770738Y-111082783D01*
X52770228Y-111082780D01*
X52731310Y-111078415D01*
X52693982Y-111066574D01*
X52659664Y-111047707D01*
X52629664Y-111022534D01*
X52605125Y-110992014D01*
X52586981Y-110957309D01*
X52575924Y-110919740D01*
X52575923Y-110919731D01*
X52574508Y-110904183D01*
X52572375Y-110880739D01*
X52572375Y-110880737D01*
X52572375Y-110880736D01*
X52574268Y-110862724D01*
X52576468Y-110841792D01*
X52588049Y-110804381D01*
X52606675Y-110769932D01*
X52631638Y-110739758D01*
X52661986Y-110715006D01*
X52696564Y-110696621D01*
X52734055Y-110685302D01*
X52773030Y-110681480D01*
X52773586Y-110681480D01*
X53530421Y-110681480D01*
X53530450Y-110681480D01*
X53531312Y-110681486D01*
X53532738Y-110681496D01*
X53532741Y-110681496D01*
X53533252Y-110681500D01*
X53572170Y-110685865D01*
X53609498Y-110697706D01*
X53643816Y-110716573D01*
X53673816Y-110741746D01*
X53698355Y-110772266D01*
X53716499Y-110806971D01*
X53727556Y-110844540D01*
X53727556Y-110844548D01*
X53727557Y-110844549D01*
X53728971Y-110860096D01*
X53731105Y-110883541D01*
X53731104Y-110883542D01*
X53731105Y-110883544D01*
X53731105Y-110883544D01*
G37*
G36*
X54350620Y-107260350D02*
X54350613Y-107261212D01*
X54350604Y-107262638D01*
X54350603Y-107262641D01*
X54350600Y-107263152D01*
X54346235Y-107302070D01*
X54334394Y-107339398D01*
X54315527Y-107373716D01*
X54290354Y-107403716D01*
X54259834Y-107428255D01*
X54225129Y-107446399D01*
X54187560Y-107457456D01*
X54187551Y-107457456D01*
X54187551Y-107457457D01*
X54172003Y-107458871D01*
X54148559Y-107461005D01*
X54148557Y-107461004D01*
X54148556Y-107461005D01*
X54130544Y-107459111D01*
X54109625Y-107456913D01*
X54109612Y-107456912D01*
X54072201Y-107445331D01*
X54037752Y-107426705D01*
X54007578Y-107401742D01*
X53982826Y-107371394D01*
X53964441Y-107336816D01*
X53953122Y-107299325D01*
X53949300Y-107260350D01*
X53949300Y-107259794D01*
X53949300Y-106502959D01*
X53949300Y-106502930D01*
X53949306Y-106502067D01*
X53949316Y-106500642D01*
X53949316Y-106500638D01*
X53949320Y-106500128D01*
X53953685Y-106461210D01*
X53965526Y-106423882D01*
X53984393Y-106389564D01*
X54009566Y-106359564D01*
X54040086Y-106335025D01*
X54074791Y-106316881D01*
X54112360Y-106305824D01*
X54112368Y-106305823D01*
X54112369Y-106305823D01*
X54127916Y-106304408D01*
X54151361Y-106302275D01*
X54151362Y-106302275D01*
X54151364Y-106302275D01*
X54169375Y-106304168D01*
X54190308Y-106306368D01*
X54227719Y-106317949D01*
X54262168Y-106336575D01*
X54292342Y-106361538D01*
X54317094Y-106391886D01*
X54335479Y-106426464D01*
X54346798Y-106463955D01*
X54350620Y-106502930D01*
X54350620Y-106503486D01*
X54350620Y-107260321D01*
X54350620Y-107260350D01*
X54350620Y-107260350D01*
G37*
G36*
X54350620Y-112259070D02*
X54350613Y-112259932D01*
X54350604Y-112261358D01*
X54350603Y-112261361D01*
X54350600Y-112261872D01*
X54346235Y-112300790D01*
X54334394Y-112338118D01*
X54315527Y-112372436D01*
X54290354Y-112402436D01*
X54259834Y-112426975D01*
X54225129Y-112445119D01*
X54187560Y-112456176D01*
X54187551Y-112456176D01*
X54187551Y-112456177D01*
X54172003Y-112457591D01*
X54148559Y-112459725D01*
X54148557Y-112459724D01*
X54148556Y-112459725D01*
X54130544Y-112457831D01*
X54109625Y-112455633D01*
X54109612Y-112455632D01*
X54072201Y-112444051D01*
X54037752Y-112425425D01*
X54007578Y-112400462D01*
X53982826Y-112370114D01*
X53964441Y-112335536D01*
X53953122Y-112298045D01*
X53949300Y-112259070D01*
X53949300Y-112258514D01*
X53949300Y-111501679D01*
X53949300Y-111501650D01*
X53949306Y-111500787D01*
X53949316Y-111499362D01*
X53949316Y-111499358D01*
X53949320Y-111498848D01*
X53953685Y-111459930D01*
X53965526Y-111422602D01*
X53984393Y-111388284D01*
X54009566Y-111358284D01*
X54040086Y-111333745D01*
X54074791Y-111315601D01*
X54112360Y-111304544D01*
X54112368Y-111304543D01*
X54112369Y-111304543D01*
X54127916Y-111303128D01*
X54151361Y-111300995D01*
X54151362Y-111300995D01*
X54151364Y-111300995D01*
X54169375Y-111302888D01*
X54190308Y-111305088D01*
X54227719Y-111316669D01*
X54262168Y-111335295D01*
X54292342Y-111360258D01*
X54317094Y-111390606D01*
X54335479Y-111425184D01*
X54346798Y-111462675D01*
X54350620Y-111501650D01*
X54350620Y-111502206D01*
X54350620Y-112259041D01*
X54350620Y-112259070D01*
X54350620Y-112259070D01*
G37*
G36*
X54851000Y-107260350D02*
X54850993Y-107261212D01*
X54850984Y-107262638D01*
X54850983Y-107262641D01*
X54850980Y-107263152D01*
X54846615Y-107302070D01*
X54834774Y-107339398D01*
X54815907Y-107373716D01*
X54790734Y-107403716D01*
X54760214Y-107428255D01*
X54725509Y-107446399D01*
X54687940Y-107457456D01*
X54687931Y-107457456D01*
X54687931Y-107457457D01*
X54672383Y-107458871D01*
X54648939Y-107461005D01*
X54648937Y-107461004D01*
X54648936Y-107461005D01*
X54630924Y-107459111D01*
X54610005Y-107456913D01*
X54609992Y-107456912D01*
X54572581Y-107445331D01*
X54538132Y-107426705D01*
X54507958Y-107401742D01*
X54483206Y-107371394D01*
X54464821Y-107336816D01*
X54453502Y-107299325D01*
X54449680Y-107260350D01*
X54449680Y-107259794D01*
X54449680Y-106502959D01*
X54449680Y-106502930D01*
X54449686Y-106502067D01*
X54449696Y-106500642D01*
X54449696Y-106500638D01*
X54449700Y-106500128D01*
X54454065Y-106461210D01*
X54465906Y-106423882D01*
X54484773Y-106389564D01*
X54509946Y-106359564D01*
X54540466Y-106335025D01*
X54575171Y-106316881D01*
X54612740Y-106305824D01*
X54612748Y-106305823D01*
X54612749Y-106305823D01*
X54628296Y-106304408D01*
X54651741Y-106302275D01*
X54651742Y-106302275D01*
X54651744Y-106302275D01*
X54669755Y-106304168D01*
X54690688Y-106306368D01*
X54728099Y-106317949D01*
X54762548Y-106336575D01*
X54792722Y-106361538D01*
X54817474Y-106391886D01*
X54835859Y-106426464D01*
X54847178Y-106463955D01*
X54851000Y-106502930D01*
X54851000Y-106503486D01*
X54851000Y-107260321D01*
X54851000Y-107260350D01*
X54851000Y-107260350D01*
G37*
G36*
X54851000Y-112259070D02*
X54850993Y-112259932D01*
X54850984Y-112261358D01*
X54850983Y-112261361D01*
X54850980Y-112261872D01*
X54846615Y-112300790D01*
X54834774Y-112338118D01*
X54815907Y-112372436D01*
X54790734Y-112402436D01*
X54760214Y-112426975D01*
X54725509Y-112445119D01*
X54687940Y-112456176D01*
X54687931Y-112456176D01*
X54687931Y-112456177D01*
X54672383Y-112457591D01*
X54648939Y-112459725D01*
X54648937Y-112459724D01*
X54648936Y-112459725D01*
X54630924Y-112457831D01*
X54610005Y-112455633D01*
X54609992Y-112455632D01*
X54572581Y-112444051D01*
X54538132Y-112425425D01*
X54507958Y-112400462D01*
X54483206Y-112370114D01*
X54464821Y-112335536D01*
X54453502Y-112298045D01*
X54449680Y-112259070D01*
X54449680Y-112258514D01*
X54449680Y-111501679D01*
X54449680Y-111501650D01*
X54449686Y-111500787D01*
X54449696Y-111499362D01*
X54449696Y-111499358D01*
X54449700Y-111498848D01*
X54454065Y-111459930D01*
X54465906Y-111422602D01*
X54484773Y-111388284D01*
X54509946Y-111358284D01*
X54540466Y-111333745D01*
X54575171Y-111315601D01*
X54612740Y-111304544D01*
X54612748Y-111304543D01*
X54612749Y-111304543D01*
X54628296Y-111303128D01*
X54651741Y-111300995D01*
X54651742Y-111300995D01*
X54651744Y-111300995D01*
X54669755Y-111302888D01*
X54690688Y-111305088D01*
X54728099Y-111316669D01*
X54762548Y-111335295D01*
X54792722Y-111360258D01*
X54817474Y-111390606D01*
X54835859Y-111425184D01*
X54847178Y-111462675D01*
X54851000Y-111501650D01*
X54851000Y-111502206D01*
X54851000Y-112259041D01*
X54851000Y-112259070D01*
X54851000Y-112259070D01*
G37*
G36*
X54931700Y-118232200D02*
X54279300Y-118232200D01*
X54279300Y-117479800D01*
X54931700Y-117479800D01*
X54931700Y-118232200D01*
X54931700Y-118232200D01*
G37*
G36*
X54931700Y-119332200D02*
X54279300Y-119332200D01*
X54279300Y-118579800D01*
X54931700Y-118579800D01*
X54931700Y-119332200D01*
X54931700Y-119332200D01*
G37*
G36*
X55011700Y-120292200D02*
X54459300Y-120292200D01*
X54459300Y-119539800D01*
X55011700Y-119539800D01*
X55011700Y-120292200D01*
X55011700Y-120292200D01*
G37*
G36*
X55351380Y-107260350D02*
X55351373Y-107261212D01*
X55351364Y-107262638D01*
X55351363Y-107262641D01*
X55351360Y-107263152D01*
X55346995Y-107302070D01*
X55335154Y-107339398D01*
X55316287Y-107373716D01*
X55291114Y-107403716D01*
X55260594Y-107428255D01*
X55225889Y-107446399D01*
X55188320Y-107457456D01*
X55188311Y-107457456D01*
X55188311Y-107457457D01*
X55172763Y-107458871D01*
X55149319Y-107461005D01*
X55149317Y-107461004D01*
X55149316Y-107461005D01*
X55131304Y-107459111D01*
X55110385Y-107456913D01*
X55110372Y-107456912D01*
X55072961Y-107445331D01*
X55038512Y-107426705D01*
X55008338Y-107401742D01*
X54983586Y-107371394D01*
X54965201Y-107336816D01*
X54953882Y-107299325D01*
X54950060Y-107260350D01*
X54950060Y-107259794D01*
X54950060Y-106502959D01*
X54950060Y-106502930D01*
X54950066Y-106502067D01*
X54950076Y-106500642D01*
X54950076Y-106500638D01*
X54950080Y-106500128D01*
X54954445Y-106461210D01*
X54966286Y-106423882D01*
X54985153Y-106389564D01*
X55010326Y-106359564D01*
X55040846Y-106335025D01*
X55075551Y-106316881D01*
X55113120Y-106305824D01*
X55113128Y-106305823D01*
X55113129Y-106305823D01*
X55128676Y-106304408D01*
X55152121Y-106302275D01*
X55152122Y-106302275D01*
X55152124Y-106302275D01*
X55170135Y-106304168D01*
X55191068Y-106306368D01*
X55228479Y-106317949D01*
X55262928Y-106336575D01*
X55293102Y-106361538D01*
X55317854Y-106391886D01*
X55336239Y-106426464D01*
X55347558Y-106463955D01*
X55351380Y-106502930D01*
X55351380Y-106503486D01*
X55351380Y-107260321D01*
X55351380Y-107260350D01*
X55351380Y-107260350D01*
G37*
G36*
X55351380Y-112259070D02*
X55351373Y-112259932D01*
X55351364Y-112261358D01*
X55351363Y-112261361D01*
X55351360Y-112261872D01*
X55346995Y-112300790D01*
X55335154Y-112338118D01*
X55316287Y-112372436D01*
X55291114Y-112402436D01*
X55260594Y-112426975D01*
X55225889Y-112445119D01*
X55188320Y-112456176D01*
X55188311Y-112456176D01*
X55188311Y-112456177D01*
X55172763Y-112457591D01*
X55149319Y-112459725D01*
X55149317Y-112459724D01*
X55149316Y-112459725D01*
X55131304Y-112457831D01*
X55110385Y-112455633D01*
X55110372Y-112455632D01*
X55072961Y-112444051D01*
X55038512Y-112425425D01*
X55008338Y-112400462D01*
X54983586Y-112370114D01*
X54965201Y-112335536D01*
X54953882Y-112298045D01*
X54950060Y-112259070D01*
X54950060Y-112258514D01*
X54950060Y-111501679D01*
X54950060Y-111501650D01*
X54950066Y-111500787D01*
X54950076Y-111499362D01*
X54950076Y-111499358D01*
X54950080Y-111498848D01*
X54954445Y-111459930D01*
X54966286Y-111422602D01*
X54985153Y-111388284D01*
X55010326Y-111358284D01*
X55040846Y-111333745D01*
X55075551Y-111315601D01*
X55113120Y-111304544D01*
X55113128Y-111304543D01*
X55113129Y-111304543D01*
X55128676Y-111303128D01*
X55152121Y-111300995D01*
X55152122Y-111300995D01*
X55152124Y-111300995D01*
X55170135Y-111302888D01*
X55191068Y-111305088D01*
X55228479Y-111316669D01*
X55262928Y-111335295D01*
X55293102Y-111360258D01*
X55317854Y-111390606D01*
X55336239Y-111425184D01*
X55347558Y-111462675D01*
X55351380Y-111501650D01*
X55351380Y-111502206D01*
X55351380Y-112259041D01*
X55351380Y-112259070D01*
X55351380Y-112259070D01*
G37*
G36*
X55759500Y-114797200D02*
X55257100Y-114797200D01*
X55257100Y-114344800D01*
X55759500Y-114344800D01*
X55759500Y-114797200D01*
X55759500Y-114797200D01*
G37*
G36*
X55759500Y-115347200D02*
X55257100Y-115347200D01*
X55257100Y-114894800D01*
X55759500Y-114894800D01*
X55759500Y-115347200D01*
X55759500Y-115347200D01*
G37*
G36*
X55851760Y-107260350D02*
X55851753Y-107261212D01*
X55851744Y-107262638D01*
X55851743Y-107262641D01*
X55851740Y-107263152D01*
X55847375Y-107302070D01*
X55835534Y-107339398D01*
X55816667Y-107373716D01*
X55791494Y-107403716D01*
X55760974Y-107428255D01*
X55726269Y-107446399D01*
X55688700Y-107457456D01*
X55688691Y-107457456D01*
X55688691Y-107457457D01*
X55673143Y-107458871D01*
X55649699Y-107461005D01*
X55649697Y-107461004D01*
X55649696Y-107461005D01*
X55631684Y-107459111D01*
X55610765Y-107456913D01*
X55610752Y-107456912D01*
X55573341Y-107445331D01*
X55538892Y-107426705D01*
X55508718Y-107401742D01*
X55483966Y-107371394D01*
X55465581Y-107336816D01*
X55454262Y-107299325D01*
X55450440Y-107260350D01*
X55450440Y-107259794D01*
X55450440Y-106502959D01*
X55450440Y-106502930D01*
X55450446Y-106502067D01*
X55450456Y-106500642D01*
X55450456Y-106500638D01*
X55450460Y-106500128D01*
X55454825Y-106461210D01*
X55466666Y-106423882D01*
X55485533Y-106389564D01*
X55510706Y-106359564D01*
X55541226Y-106335025D01*
X55575931Y-106316881D01*
X55613500Y-106305824D01*
X55613508Y-106305823D01*
X55613509Y-106305823D01*
X55629056Y-106304408D01*
X55652501Y-106302275D01*
X55652502Y-106302275D01*
X55652504Y-106302275D01*
X55670515Y-106304168D01*
X55691448Y-106306368D01*
X55728859Y-106317949D01*
X55763308Y-106336575D01*
X55793482Y-106361538D01*
X55818234Y-106391886D01*
X55836619Y-106426464D01*
X55847938Y-106463955D01*
X55851760Y-106502930D01*
X55851760Y-106503486D01*
X55851760Y-107260321D01*
X55851760Y-107260350D01*
X55851760Y-107260350D01*
G37*
G36*
X55851760Y-112259070D02*
X55851753Y-112259932D01*
X55851744Y-112261358D01*
X55851743Y-112261361D01*
X55851740Y-112261872D01*
X55847375Y-112300790D01*
X55835534Y-112338118D01*
X55816667Y-112372436D01*
X55791494Y-112402436D01*
X55760974Y-112426975D01*
X55726269Y-112445119D01*
X55688700Y-112456176D01*
X55688691Y-112456176D01*
X55688691Y-112456177D01*
X55673143Y-112457591D01*
X55649699Y-112459725D01*
X55649697Y-112459724D01*
X55649696Y-112459725D01*
X55631684Y-112457831D01*
X55610765Y-112455633D01*
X55610752Y-112455632D01*
X55573341Y-112444051D01*
X55538892Y-112425425D01*
X55508718Y-112400462D01*
X55483966Y-112370114D01*
X55465581Y-112335536D01*
X55454262Y-112298045D01*
X55450440Y-112259070D01*
X55450440Y-112258514D01*
X55450440Y-111501679D01*
X55450440Y-111501650D01*
X55450446Y-111500787D01*
X55450456Y-111499362D01*
X55450456Y-111499358D01*
X55450460Y-111498848D01*
X55454825Y-111459930D01*
X55466666Y-111422602D01*
X55485533Y-111388284D01*
X55510706Y-111358284D01*
X55541226Y-111333745D01*
X55575931Y-111315601D01*
X55613500Y-111304544D01*
X55613508Y-111304543D01*
X55613509Y-111304543D01*
X55629056Y-111303128D01*
X55652501Y-111300995D01*
X55652502Y-111300995D01*
X55652504Y-111300995D01*
X55670515Y-111302888D01*
X55691448Y-111305088D01*
X55728859Y-111316669D01*
X55763308Y-111335295D01*
X55793482Y-111360258D01*
X55818234Y-111390606D01*
X55836619Y-111425184D01*
X55847938Y-111462675D01*
X55851760Y-111501650D01*
X55851760Y-111502206D01*
X55851760Y-112259041D01*
X55851760Y-112259070D01*
X55851760Y-112259070D01*
G37*
G36*
X55911700Y-120292200D02*
X55359300Y-120292200D01*
X55359300Y-119539800D01*
X55911700Y-119539800D01*
X55911700Y-120292200D01*
X55911700Y-120292200D01*
G37*
G36*
X56011700Y-118232200D02*
X55359300Y-118232200D01*
X55359300Y-117479800D01*
X56011700Y-117479800D01*
X56011700Y-118232200D01*
X56011700Y-118232200D01*
G37*
G36*
X56011700Y-119332200D02*
X55359300Y-119332200D01*
X55359300Y-118579800D01*
X56011700Y-118579800D01*
X56011700Y-119332200D01*
X56011700Y-119332200D01*
G37*
G36*
X56352140Y-107260350D02*
X56352133Y-107261212D01*
X56352124Y-107262638D01*
X56352123Y-107262641D01*
X56352120Y-107263152D01*
X56347755Y-107302070D01*
X56335914Y-107339398D01*
X56317047Y-107373716D01*
X56291874Y-107403716D01*
X56261354Y-107428255D01*
X56226649Y-107446399D01*
X56189080Y-107457456D01*
X56189071Y-107457456D01*
X56189071Y-107457457D01*
X56173523Y-107458871D01*
X56150079Y-107461005D01*
X56150077Y-107461004D01*
X56150076Y-107461005D01*
X56132064Y-107459111D01*
X56111145Y-107456913D01*
X56111132Y-107456912D01*
X56073721Y-107445331D01*
X56039272Y-107426705D01*
X56009098Y-107401742D01*
X55984346Y-107371394D01*
X55965961Y-107336816D01*
X55954642Y-107299325D01*
X55950820Y-107260350D01*
X55950820Y-107259794D01*
X55950820Y-106502959D01*
X55950820Y-106502930D01*
X55950826Y-106502067D01*
X55950836Y-106500642D01*
X55950836Y-106500638D01*
X55950840Y-106500128D01*
X55955205Y-106461210D01*
X55967046Y-106423882D01*
X55985913Y-106389564D01*
X56011086Y-106359564D01*
X56041606Y-106335025D01*
X56076311Y-106316881D01*
X56113880Y-106305824D01*
X56113888Y-106305823D01*
X56113889Y-106305823D01*
X56129436Y-106304408D01*
X56152881Y-106302275D01*
X56152882Y-106302275D01*
X56152884Y-106302275D01*
X56170895Y-106304168D01*
X56191828Y-106306368D01*
X56229239Y-106317949D01*
X56263688Y-106336575D01*
X56293862Y-106361538D01*
X56318614Y-106391886D01*
X56336999Y-106426464D01*
X56348318Y-106463955D01*
X56352140Y-106502930D01*
X56352140Y-106503486D01*
X56352140Y-107260321D01*
X56352140Y-107260350D01*
X56352140Y-107260350D01*
G37*
G36*
X56352140Y-112259070D02*
X56352133Y-112259932D01*
X56352124Y-112261358D01*
X56352123Y-112261361D01*
X56352120Y-112261872D01*
X56347755Y-112300790D01*
X56335914Y-112338118D01*
X56317047Y-112372436D01*
X56291874Y-112402436D01*
X56261354Y-112426975D01*
X56226649Y-112445119D01*
X56189080Y-112456176D01*
X56189071Y-112456176D01*
X56189071Y-112456177D01*
X56173523Y-112457591D01*
X56150079Y-112459725D01*
X56150077Y-112459724D01*
X56150076Y-112459725D01*
X56132064Y-112457831D01*
X56111145Y-112455633D01*
X56111132Y-112455632D01*
X56073721Y-112444051D01*
X56039272Y-112425425D01*
X56009098Y-112400462D01*
X55984346Y-112370114D01*
X55965961Y-112335536D01*
X55954642Y-112298045D01*
X55950820Y-112259070D01*
X55950820Y-112258514D01*
X55950820Y-111501679D01*
X55950820Y-111501650D01*
X55950826Y-111500787D01*
X55950836Y-111499362D01*
X55950836Y-111499358D01*
X55950840Y-111498848D01*
X55955205Y-111459930D01*
X55967046Y-111422602D01*
X55985913Y-111388284D01*
X56011086Y-111358284D01*
X56041606Y-111333745D01*
X56076311Y-111315601D01*
X56113880Y-111304544D01*
X56113888Y-111304543D01*
X56113889Y-111304543D01*
X56129436Y-111303128D01*
X56152881Y-111300995D01*
X56152882Y-111300995D01*
X56152884Y-111300995D01*
X56170895Y-111302888D01*
X56191828Y-111305088D01*
X56229239Y-111316669D01*
X56263688Y-111335295D01*
X56293862Y-111360258D01*
X56318614Y-111390606D01*
X56336999Y-111425184D01*
X56348318Y-111462675D01*
X56352140Y-111501650D01*
X56352140Y-111502206D01*
X56352140Y-112259041D01*
X56352140Y-112259070D01*
X56352140Y-112259070D01*
G37*
G36*
X56852520Y-107260350D02*
X56852513Y-107261212D01*
X56852504Y-107262638D01*
X56852503Y-107262641D01*
X56852500Y-107263152D01*
X56848135Y-107302070D01*
X56836294Y-107339398D01*
X56817427Y-107373716D01*
X56792254Y-107403716D01*
X56761734Y-107428255D01*
X56727029Y-107446399D01*
X56689460Y-107457456D01*
X56689451Y-107457456D01*
X56689451Y-107457457D01*
X56673903Y-107458871D01*
X56650459Y-107461005D01*
X56650457Y-107461004D01*
X56650456Y-107461005D01*
X56632444Y-107459111D01*
X56611525Y-107456913D01*
X56611512Y-107456912D01*
X56574101Y-107445331D01*
X56539652Y-107426705D01*
X56509478Y-107401742D01*
X56484726Y-107371394D01*
X56466341Y-107336816D01*
X56455022Y-107299325D01*
X56451200Y-107260350D01*
X56451200Y-107259794D01*
X56451200Y-106502959D01*
X56451200Y-106502930D01*
X56451206Y-106502067D01*
X56451216Y-106500642D01*
X56451216Y-106500638D01*
X56451220Y-106500128D01*
X56455585Y-106461210D01*
X56467426Y-106423882D01*
X56486293Y-106389564D01*
X56511466Y-106359564D01*
X56541986Y-106335025D01*
X56576691Y-106316881D01*
X56614260Y-106305824D01*
X56614268Y-106305823D01*
X56614269Y-106305823D01*
X56629816Y-106304408D01*
X56653261Y-106302275D01*
X56653262Y-106302275D01*
X56653264Y-106302275D01*
X56671275Y-106304168D01*
X56692208Y-106306368D01*
X56729619Y-106317949D01*
X56764068Y-106336575D01*
X56794242Y-106361538D01*
X56818994Y-106391886D01*
X56837379Y-106426464D01*
X56848698Y-106463955D01*
X56852520Y-106502930D01*
X56852520Y-106503486D01*
X56852520Y-107260321D01*
X56852520Y-107260350D01*
X56852520Y-107260350D01*
G37*
G36*
X56852520Y-112259070D02*
X56852513Y-112259932D01*
X56852504Y-112261358D01*
X56852503Y-112261361D01*
X56852500Y-112261872D01*
X56848135Y-112300790D01*
X56836294Y-112338118D01*
X56817427Y-112372436D01*
X56792254Y-112402436D01*
X56761734Y-112426975D01*
X56727029Y-112445119D01*
X56689460Y-112456176D01*
X56689451Y-112456176D01*
X56689451Y-112456177D01*
X56673903Y-112457591D01*
X56650459Y-112459725D01*
X56650457Y-112459724D01*
X56650456Y-112459725D01*
X56632444Y-112457831D01*
X56611525Y-112455633D01*
X56611512Y-112455632D01*
X56574101Y-112444051D01*
X56539652Y-112425425D01*
X56509478Y-112400462D01*
X56484726Y-112370114D01*
X56466341Y-112335536D01*
X56455022Y-112298045D01*
X56451200Y-112259070D01*
X56451200Y-112258514D01*
X56451200Y-111501679D01*
X56451200Y-111501650D01*
X56451206Y-111500787D01*
X56451216Y-111499362D01*
X56451216Y-111499358D01*
X56451220Y-111498848D01*
X56455585Y-111459930D01*
X56467426Y-111422602D01*
X56486293Y-111388284D01*
X56511466Y-111358284D01*
X56541986Y-111333745D01*
X56576691Y-111315601D01*
X56614260Y-111304544D01*
X56614268Y-111304543D01*
X56614269Y-111304543D01*
X56629816Y-111303128D01*
X56653261Y-111300995D01*
X56653262Y-111300995D01*
X56653264Y-111300995D01*
X56671275Y-111302888D01*
X56692208Y-111305088D01*
X56729619Y-111316669D01*
X56764068Y-111335295D01*
X56794242Y-111360258D01*
X56818994Y-111390606D01*
X56837379Y-111425184D01*
X56848698Y-111462675D01*
X56852520Y-111501650D01*
X56852520Y-111502206D01*
X56852520Y-112259041D01*
X56852520Y-112259070D01*
X56852520Y-112259070D01*
G37*
G36*
X56906100Y-116061200D02*
X55803700Y-116061200D01*
X55803700Y-115058800D01*
X56906100Y-115058800D01*
X56906100Y-116061200D01*
X56906100Y-116061200D01*
G37*
G36*
X57265100Y-117854200D02*
X56762700Y-117854200D01*
X56762700Y-116701800D01*
X57265100Y-116701800D01*
X57265100Y-117854200D01*
X57265100Y-117854200D01*
G37*
G36*
X57265100Y-120654200D02*
X56762700Y-120654200D01*
X56762700Y-119501800D01*
X57265100Y-119501800D01*
X57265100Y-120654200D01*
X57265100Y-120654200D01*
G37*
G36*
X57352900Y-107260350D02*
X57352893Y-107261212D01*
X57352884Y-107262638D01*
X57352883Y-107262641D01*
X57352880Y-107263152D01*
X57348515Y-107302070D01*
X57336674Y-107339398D01*
X57317807Y-107373716D01*
X57292634Y-107403716D01*
X57262114Y-107428255D01*
X57227409Y-107446399D01*
X57189840Y-107457456D01*
X57189831Y-107457456D01*
X57189831Y-107457457D01*
X57174283Y-107458871D01*
X57150839Y-107461005D01*
X57150837Y-107461004D01*
X57150836Y-107461005D01*
X57132824Y-107459111D01*
X57111905Y-107456913D01*
X57111892Y-107456912D01*
X57074481Y-107445331D01*
X57040032Y-107426705D01*
X57009858Y-107401742D01*
X56985106Y-107371394D01*
X56966721Y-107336816D01*
X56955402Y-107299325D01*
X56951580Y-107260350D01*
X56951580Y-107259794D01*
X56951580Y-106502959D01*
X56951580Y-106502930D01*
X56951586Y-106502067D01*
X56951596Y-106500642D01*
X56951596Y-106500638D01*
X56951600Y-106500128D01*
X56955965Y-106461210D01*
X56967806Y-106423882D01*
X56986673Y-106389564D01*
X57011846Y-106359564D01*
X57042366Y-106335025D01*
X57077071Y-106316881D01*
X57114640Y-106305824D01*
X57114648Y-106305823D01*
X57114649Y-106305823D01*
X57130196Y-106304408D01*
X57153641Y-106302275D01*
X57153642Y-106302275D01*
X57153644Y-106302275D01*
X57171655Y-106304168D01*
X57192588Y-106306368D01*
X57229999Y-106317949D01*
X57264448Y-106336575D01*
X57294622Y-106361538D01*
X57319374Y-106391886D01*
X57337759Y-106426464D01*
X57349078Y-106463955D01*
X57352900Y-106502930D01*
X57352900Y-106503486D01*
X57352900Y-107260321D01*
X57352900Y-107260350D01*
X57352900Y-107260350D01*
G37*
G36*
X57352900Y-112259070D02*
X57352893Y-112259932D01*
X57352884Y-112261358D01*
X57352883Y-112261361D01*
X57352880Y-112261872D01*
X57348515Y-112300790D01*
X57336674Y-112338118D01*
X57317807Y-112372436D01*
X57292634Y-112402436D01*
X57262114Y-112426975D01*
X57227409Y-112445119D01*
X57189840Y-112456176D01*
X57189831Y-112456176D01*
X57189831Y-112456177D01*
X57174283Y-112457591D01*
X57150839Y-112459725D01*
X57150837Y-112459724D01*
X57150836Y-112459725D01*
X57132824Y-112457831D01*
X57111905Y-112455633D01*
X57111892Y-112455632D01*
X57074481Y-112444051D01*
X57040032Y-112425425D01*
X57009858Y-112400462D01*
X56985106Y-112370114D01*
X56966721Y-112335536D01*
X56955402Y-112298045D01*
X56951580Y-112259070D01*
X56951580Y-112258514D01*
X56951580Y-111501679D01*
X56951580Y-111501650D01*
X56951586Y-111500787D01*
X56951596Y-111499362D01*
X56951596Y-111499358D01*
X56951600Y-111498848D01*
X56955965Y-111459930D01*
X56967806Y-111422602D01*
X56986673Y-111388284D01*
X57011846Y-111358284D01*
X57042366Y-111333745D01*
X57077071Y-111315601D01*
X57114640Y-111304544D01*
X57114648Y-111304543D01*
X57114649Y-111304543D01*
X57130196Y-111303128D01*
X57153641Y-111300995D01*
X57153642Y-111300995D01*
X57153644Y-111300995D01*
X57171655Y-111302888D01*
X57192588Y-111305088D01*
X57229999Y-111316669D01*
X57264448Y-111335295D01*
X57294622Y-111360258D01*
X57319374Y-111390606D01*
X57337759Y-111425184D01*
X57349078Y-111462675D01*
X57352900Y-111501650D01*
X57352900Y-111502206D01*
X57352900Y-112259041D01*
X57352900Y-112259070D01*
X57352900Y-112259070D01*
G37*
G36*
X58015100Y-117854200D02*
X57512700Y-117854200D01*
X57512700Y-116701800D01*
X58015100Y-116701800D01*
X58015100Y-117854200D01*
X58015100Y-117854200D01*
G37*
G36*
X58015100Y-120654200D02*
X57512700Y-120654200D01*
X57512700Y-119501800D01*
X58015100Y-119501800D01*
X58015100Y-120654200D01*
X58015100Y-120654200D01*
G37*
G36*
X58356100Y-114911200D02*
X57253700Y-114911200D01*
X57253700Y-113916900D01*
X57252699Y-113911958D01*
X57249853Y-113907795D01*
X57245612Y-113905067D01*
X57241000Y-113904200D01*
X56918800Y-113904200D01*
X56913858Y-113905201D01*
X56909695Y-113908047D01*
X56906967Y-113912288D01*
X56906100Y-113916900D01*
X56906100Y-114911200D01*
X55803700Y-114911200D01*
X55803700Y-113908800D01*
X56781700Y-113908800D01*
X56786642Y-113907799D01*
X56790805Y-113904953D01*
X56793533Y-113900712D01*
X56794400Y-113896100D01*
X56794400Y-113401800D01*
X57246800Y-113401800D01*
X57246800Y-113896100D01*
X57247801Y-113901042D01*
X57250647Y-113905205D01*
X57254888Y-113907933D01*
X57259500Y-113908800D01*
X57331700Y-113908800D01*
X57336642Y-113907799D01*
X57340805Y-113904953D01*
X57343533Y-113900712D01*
X57344400Y-113896100D01*
X57344400Y-113401800D01*
X57796800Y-113401800D01*
X57796800Y-113896100D01*
X57797801Y-113901042D01*
X57800647Y-113905205D01*
X57804888Y-113907933D01*
X57809500Y-113908800D01*
X58356100Y-113908800D01*
X58356100Y-114911200D01*
X58356100Y-114911200D01*
G37*
G36*
X58356100Y-116061200D02*
X57253700Y-116061200D01*
X57253700Y-115058800D01*
X58356100Y-115058800D01*
X58356100Y-116061200D01*
X58356100Y-116061200D01*
G37*
G36*
X58729825Y-107881264D02*
X58727931Y-107899275D01*
X58725733Y-107920195D01*
X58725732Y-107920208D01*
X58714151Y-107957619D01*
X58695525Y-107992068D01*
X58670562Y-108022242D01*
X58640214Y-108046994D01*
X58605636Y-108065379D01*
X58568145Y-108076698D01*
X58529170Y-108080520D01*
X58528614Y-108080520D01*
X57771779Y-108080520D01*
X57771750Y-108080520D01*
X57770887Y-108080513D01*
X57769462Y-108080504D01*
X57769458Y-108080503D01*
X57768948Y-108080500D01*
X57730030Y-108076135D01*
X57692702Y-108064294D01*
X57658384Y-108045427D01*
X57628384Y-108020254D01*
X57603845Y-107989734D01*
X57585701Y-107955029D01*
X57574644Y-107917460D01*
X57574643Y-107917451D01*
X57573228Y-107901903D01*
X57571095Y-107878459D01*
X57571095Y-107878457D01*
X57571095Y-107878456D01*
X57572988Y-107860444D01*
X57575188Y-107839512D01*
X57586769Y-107802101D01*
X57605395Y-107767652D01*
X57630358Y-107737478D01*
X57660706Y-107712726D01*
X57695284Y-107694341D01*
X57732775Y-107683022D01*
X57771750Y-107679200D01*
X57772306Y-107679200D01*
X58529141Y-107679200D01*
X58529170Y-107679200D01*
X58530032Y-107679206D01*
X58531458Y-107679216D01*
X58531461Y-107679216D01*
X58531972Y-107679220D01*
X58570890Y-107683585D01*
X58608218Y-107695426D01*
X58642536Y-107714293D01*
X58672536Y-107739466D01*
X58697075Y-107769986D01*
X58715219Y-107804691D01*
X58726276Y-107842260D01*
X58726276Y-107842268D01*
X58726277Y-107842269D01*
X58727691Y-107857816D01*
X58729825Y-107881261D01*
X58729824Y-107881262D01*
X58729825Y-107881264D01*
X58729825Y-107881264D01*
G37*
G36*
X58729825Y-108381644D02*
X58727931Y-108399655D01*
X58725733Y-108420575D01*
X58725732Y-108420588D01*
X58714151Y-108457999D01*
X58695525Y-108492448D01*
X58670562Y-108522622D01*
X58640214Y-108547374D01*
X58605636Y-108565759D01*
X58568145Y-108577078D01*
X58529170Y-108580900D01*
X58528614Y-108580900D01*
X57771779Y-108580900D01*
X57771750Y-108580900D01*
X57770887Y-108580893D01*
X57769462Y-108580884D01*
X57769458Y-108580883D01*
X57768948Y-108580880D01*
X57730030Y-108576515D01*
X57692702Y-108564674D01*
X57658384Y-108545807D01*
X57628384Y-108520634D01*
X57603845Y-108490114D01*
X57585701Y-108455409D01*
X57574644Y-108417840D01*
X57574643Y-108417831D01*
X57573228Y-108402283D01*
X57571095Y-108378839D01*
X57571095Y-108378837D01*
X57571095Y-108378836D01*
X57572988Y-108360824D01*
X57575188Y-108339892D01*
X57586769Y-108302481D01*
X57605395Y-108268032D01*
X57630358Y-108237858D01*
X57660706Y-108213106D01*
X57695284Y-108194721D01*
X57732775Y-108183402D01*
X57771750Y-108179580D01*
X57772306Y-108179580D01*
X58529141Y-108179580D01*
X58529170Y-108179580D01*
X58530032Y-108179586D01*
X58531458Y-108179596D01*
X58531461Y-108179596D01*
X58531972Y-108179600D01*
X58570890Y-108183965D01*
X58608218Y-108195806D01*
X58642536Y-108214673D01*
X58672536Y-108239846D01*
X58697075Y-108270366D01*
X58715219Y-108305071D01*
X58726276Y-108342640D01*
X58726276Y-108342648D01*
X58726277Y-108342649D01*
X58727691Y-108358196D01*
X58729825Y-108381641D01*
X58729824Y-108381642D01*
X58729825Y-108381644D01*
X58729825Y-108381644D01*
G37*
G36*
X58729825Y-108882024D02*
X58727931Y-108900035D01*
X58725733Y-108920955D01*
X58725732Y-108920968D01*
X58714151Y-108958379D01*
X58695525Y-108992828D01*
X58670562Y-109023002D01*
X58640214Y-109047754D01*
X58605636Y-109066139D01*
X58568145Y-109077458D01*
X58529170Y-109081280D01*
X58528614Y-109081280D01*
X57771779Y-109081280D01*
X57771750Y-109081280D01*
X57770887Y-109081273D01*
X57769462Y-109081264D01*
X57769458Y-109081263D01*
X57768948Y-109081260D01*
X57730030Y-109076895D01*
X57692702Y-109065054D01*
X57658384Y-109046187D01*
X57628384Y-109021014D01*
X57603845Y-108990494D01*
X57585701Y-108955789D01*
X57574644Y-108918220D01*
X57574643Y-108918211D01*
X57573228Y-108902663D01*
X57571095Y-108879219D01*
X57571095Y-108879217D01*
X57571095Y-108879216D01*
X57572988Y-108861204D01*
X57575188Y-108840272D01*
X57586769Y-108802861D01*
X57605395Y-108768412D01*
X57630358Y-108738238D01*
X57660706Y-108713486D01*
X57695284Y-108695101D01*
X57732775Y-108683782D01*
X57771750Y-108679960D01*
X57772306Y-108679960D01*
X58529141Y-108679960D01*
X58529170Y-108679960D01*
X58530032Y-108679966D01*
X58531458Y-108679976D01*
X58531461Y-108679976D01*
X58531972Y-108679980D01*
X58570890Y-108684345D01*
X58608218Y-108696186D01*
X58642536Y-108715053D01*
X58672536Y-108740226D01*
X58697075Y-108770746D01*
X58715219Y-108805451D01*
X58726276Y-108843020D01*
X58726276Y-108843028D01*
X58726277Y-108843029D01*
X58727691Y-108858576D01*
X58729825Y-108882021D01*
X58729824Y-108882022D01*
X58729825Y-108882024D01*
X58729825Y-108882024D01*
G37*
G36*
X58729825Y-109382404D02*
X58727931Y-109400415D01*
X58725733Y-109421335D01*
X58725732Y-109421348D01*
X58714151Y-109458759D01*
X58695525Y-109493208D01*
X58670562Y-109523382D01*
X58640214Y-109548134D01*
X58605636Y-109566519D01*
X58568145Y-109577838D01*
X58529170Y-109581660D01*
X58528614Y-109581660D01*
X57771779Y-109581660D01*
X57771750Y-109581660D01*
X57770887Y-109581653D01*
X57769462Y-109581644D01*
X57769458Y-109581643D01*
X57768948Y-109581640D01*
X57730030Y-109577275D01*
X57692702Y-109565434D01*
X57658384Y-109546567D01*
X57628384Y-109521394D01*
X57603845Y-109490874D01*
X57585701Y-109456169D01*
X57574644Y-109418600D01*
X57574643Y-109418591D01*
X57573228Y-109403043D01*
X57571095Y-109379599D01*
X57571095Y-109379597D01*
X57571095Y-109379596D01*
X57572988Y-109361584D01*
X57575188Y-109340652D01*
X57586769Y-109303241D01*
X57605395Y-109268792D01*
X57630358Y-109238618D01*
X57660706Y-109213866D01*
X57695284Y-109195481D01*
X57732775Y-109184162D01*
X57771750Y-109180340D01*
X57772306Y-109180340D01*
X58529141Y-109180340D01*
X58529170Y-109180340D01*
X58530032Y-109180346D01*
X58531458Y-109180356D01*
X58531461Y-109180356D01*
X58531972Y-109180360D01*
X58570890Y-109184725D01*
X58608218Y-109196566D01*
X58642536Y-109215433D01*
X58672536Y-109240606D01*
X58697075Y-109271126D01*
X58715219Y-109305831D01*
X58726276Y-109343400D01*
X58726276Y-109343408D01*
X58726277Y-109343409D01*
X58727691Y-109358956D01*
X58729825Y-109382401D01*
X58729824Y-109382402D01*
X58729825Y-109382404D01*
X58729825Y-109382404D01*
G37*
G36*
X58729825Y-109882784D02*
X58727931Y-109900795D01*
X58725733Y-109921715D01*
X58725732Y-109921728D01*
X58714151Y-109959139D01*
X58695525Y-109993588D01*
X58670562Y-110023762D01*
X58640214Y-110048514D01*
X58605636Y-110066899D01*
X58568145Y-110078218D01*
X58529170Y-110082040D01*
X58528614Y-110082040D01*
X57771779Y-110082040D01*
X57771750Y-110082040D01*
X57770887Y-110082033D01*
X57769462Y-110082024D01*
X57769458Y-110082023D01*
X57768948Y-110082020D01*
X57730030Y-110077655D01*
X57692702Y-110065814D01*
X57658384Y-110046947D01*
X57628384Y-110021774D01*
X57603845Y-109991254D01*
X57585701Y-109956549D01*
X57574644Y-109918980D01*
X57574643Y-109918971D01*
X57573228Y-109903423D01*
X57571095Y-109879979D01*
X57571095Y-109879977D01*
X57571095Y-109879976D01*
X57572988Y-109861964D01*
X57575188Y-109841032D01*
X57586769Y-109803621D01*
X57605395Y-109769172D01*
X57630358Y-109738998D01*
X57660706Y-109714246D01*
X57695284Y-109695861D01*
X57732775Y-109684542D01*
X57771750Y-109680720D01*
X57772306Y-109680720D01*
X58529141Y-109680720D01*
X58529170Y-109680720D01*
X58530032Y-109680726D01*
X58531458Y-109680736D01*
X58531461Y-109680736D01*
X58531972Y-109680740D01*
X58570890Y-109685105D01*
X58608218Y-109696946D01*
X58642536Y-109715813D01*
X58672536Y-109740986D01*
X58697075Y-109771506D01*
X58715219Y-109806211D01*
X58726276Y-109843780D01*
X58726276Y-109843788D01*
X58726277Y-109843789D01*
X58727691Y-109859336D01*
X58729825Y-109882781D01*
X58729824Y-109882782D01*
X58729825Y-109882784D01*
X58729825Y-109882784D01*
G37*
G36*
X58729825Y-110383164D02*
X58727931Y-110401175D01*
X58725733Y-110422095D01*
X58725732Y-110422108D01*
X58714151Y-110459519D01*
X58695525Y-110493968D01*
X58670562Y-110524142D01*
X58640214Y-110548894D01*
X58605636Y-110567279D01*
X58568145Y-110578598D01*
X58529170Y-110582420D01*
X58528614Y-110582420D01*
X57771779Y-110582420D01*
X57771750Y-110582420D01*
X57770887Y-110582413D01*
X57769462Y-110582404D01*
X57769458Y-110582403D01*
X57768948Y-110582400D01*
X57730030Y-110578035D01*
X57692702Y-110566194D01*
X57658384Y-110547327D01*
X57628384Y-110522154D01*
X57603845Y-110491634D01*
X57585701Y-110456929D01*
X57574644Y-110419360D01*
X57574643Y-110419351D01*
X57573228Y-110403803D01*
X57571095Y-110380359D01*
X57571095Y-110380357D01*
X57571095Y-110380356D01*
X57572988Y-110362344D01*
X57575188Y-110341412D01*
X57586769Y-110304001D01*
X57605395Y-110269552D01*
X57630358Y-110239378D01*
X57660706Y-110214626D01*
X57695284Y-110196241D01*
X57732775Y-110184922D01*
X57771750Y-110181100D01*
X57772306Y-110181100D01*
X58529141Y-110181100D01*
X58529170Y-110181100D01*
X58530032Y-110181106D01*
X58531458Y-110181116D01*
X58531461Y-110181116D01*
X58531972Y-110181120D01*
X58570890Y-110185485D01*
X58608218Y-110197326D01*
X58642536Y-110216193D01*
X58672536Y-110241366D01*
X58697075Y-110271886D01*
X58715219Y-110306591D01*
X58726276Y-110344160D01*
X58726276Y-110344168D01*
X58726277Y-110344169D01*
X58727691Y-110359716D01*
X58729825Y-110383161D01*
X58729824Y-110383162D01*
X58729825Y-110383164D01*
X58729825Y-110383164D01*
G37*
G36*
X58729825Y-110883544D02*
X58727931Y-110901555D01*
X58725733Y-110922475D01*
X58725732Y-110922488D01*
X58714151Y-110959899D01*
X58695525Y-110994348D01*
X58670562Y-111024522D01*
X58640214Y-111049274D01*
X58605636Y-111067659D01*
X58568145Y-111078978D01*
X58529170Y-111082800D01*
X58528614Y-111082800D01*
X57771779Y-111082800D01*
X57771750Y-111082800D01*
X57770887Y-111082793D01*
X57769462Y-111082784D01*
X57769458Y-111082783D01*
X57768948Y-111082780D01*
X57730030Y-111078415D01*
X57692702Y-111066574D01*
X57658384Y-111047707D01*
X57628384Y-111022534D01*
X57603845Y-110992014D01*
X57585701Y-110957309D01*
X57574644Y-110919740D01*
X57574643Y-110919731D01*
X57573228Y-110904183D01*
X57571095Y-110880739D01*
X57571095Y-110880737D01*
X57571095Y-110880736D01*
X57572988Y-110862724D01*
X57575188Y-110841792D01*
X57586769Y-110804381D01*
X57605395Y-110769932D01*
X57630358Y-110739758D01*
X57660706Y-110715006D01*
X57695284Y-110696621D01*
X57732775Y-110685302D01*
X57771750Y-110681480D01*
X57772306Y-110681480D01*
X58529141Y-110681480D01*
X58529170Y-110681480D01*
X58530032Y-110681486D01*
X58531458Y-110681496D01*
X58531461Y-110681496D01*
X58531972Y-110681500D01*
X58570890Y-110685865D01*
X58608218Y-110697706D01*
X58642536Y-110716573D01*
X58672536Y-110741746D01*
X58697075Y-110772266D01*
X58715219Y-110806971D01*
X58726276Y-110844540D01*
X58726276Y-110844548D01*
X58726277Y-110844549D01*
X58727691Y-110860096D01*
X58729825Y-110883541D01*
X58729824Y-110883542D01*
X58729825Y-110883544D01*
X58729825Y-110883544D01*
G37*
G36*
X58765100Y-117854200D02*
X58262700Y-117854200D01*
X58262700Y-116701800D01*
X58765100Y-116701800D01*
X58765100Y-117854200D01*
X58765100Y-117854200D01*
G37*
G36*
X58765100Y-120654200D02*
X58262700Y-120654200D01*
X58262700Y-119501800D01*
X58765100Y-119501800D01*
X58765100Y-120654200D01*
X58765100Y-120654200D01*
G37*
G36*
X60850800Y-109886200D02*
X60098400Y-109886200D01*
X60098400Y-109333800D01*
X60850800Y-109333800D01*
X60850800Y-109886200D01*
X60850800Y-109886200D01*
G37*
G36*
X60850800Y-110786200D02*
X60098400Y-110786200D01*
X60098400Y-110233800D01*
X60850800Y-110233800D01*
X60850800Y-110786200D01*
X60850800Y-110786200D01*
G37*
G36*
X61599200Y-109066200D02*
X61046800Y-109066200D01*
X61046800Y-108113800D01*
X61599200Y-108113800D01*
X61599200Y-109066200D01*
X61599200Y-109066200D01*
G37*
G36*
X61599200Y-110716200D02*
X61046800Y-110716200D01*
X61046800Y-109763800D01*
X61599200Y-109763800D01*
X61599200Y-110716200D01*
X61599200Y-110716200D01*
G37*
G36*
X62083895Y-115921852D02*
X62079338Y-115963800D01*
X62066720Y-116004064D01*
X62046523Y-116041111D01*
X62046515Y-116041119D01*
X62046515Y-116041121D01*
X62019515Y-116073526D01*
X62019513Y-116073526D01*
X62019513Y-116073528D01*
X62013426Y-116078456D01*
X61986728Y-116100078D01*
X61986722Y-116100081D01*
X61986721Y-116100082D01*
X61949397Y-116119762D01*
X61908960Y-116131817D01*
X61866953Y-116135787D01*
X61824973Y-116131523D01*
X61784622Y-116119186D01*
X61747436Y-116099247D01*
X61714831Y-116072465D01*
X61714436Y-116072070D01*
X61714431Y-116072066D01*
X61308370Y-115666005D01*
X61306590Y-115664200D01*
X61306585Y-115664194D01*
X61306231Y-115663835D01*
X61279906Y-115630859D01*
X61260489Y-115593398D01*
X61248716Y-115552879D01*
X61245039Y-115510844D01*
X61249596Y-115468896D01*
X61262214Y-115428632D01*
X61282412Y-115391585D01*
X61282416Y-115391579D01*
X61282419Y-115391575D01*
X61309419Y-115359170D01*
X61309420Y-115359169D01*
X61309421Y-115359168D01*
X61315507Y-115354239D01*
X61342206Y-115332618D01*
X61342211Y-115332614D01*
X61342213Y-115332614D01*
X61379538Y-115312935D01*
X61419974Y-115300880D01*
X61461981Y-115296909D01*
X61503961Y-115301173D01*
X61544312Y-115313510D01*
X61581499Y-115333449D01*
X61614103Y-115360232D01*
X61614491Y-115360620D01*
X61614503Y-115360630D01*
X62020564Y-115766691D01*
X62020584Y-115766712D01*
X62022344Y-115768496D01*
X62022704Y-115768861D01*
X62049029Y-115801837D01*
X62068446Y-115839298D01*
X62080218Y-115879818D01*
X62083895Y-115921852D01*
X62083895Y-115921852D01*
G37*
G36*
X62083906Y-116539166D02*
X62079642Y-116581146D01*
X62067305Y-116621497D01*
X62047366Y-116658683D01*
X62020584Y-116691288D01*
X62020189Y-116691682D01*
X62020185Y-116691688D01*
X61614124Y-117097749D01*
X61614103Y-117097768D01*
X61612319Y-117099529D01*
X61612313Y-117099533D01*
X61611954Y-117099888D01*
X61578978Y-117126213D01*
X61541517Y-117145630D01*
X61500998Y-117157403D01*
X61458963Y-117161080D01*
X61417015Y-117156523D01*
X61376751Y-117143905D01*
X61339704Y-117123707D01*
X61339698Y-117123702D01*
X61339694Y-117123700D01*
X61307289Y-117096700D01*
X61307288Y-117096698D01*
X61307287Y-117096698D01*
X61302358Y-117090611D01*
X61280737Y-117063913D01*
X61280733Y-117063907D01*
X61280733Y-117063906D01*
X61261054Y-117026581D01*
X61248999Y-116986145D01*
X61245028Y-116944138D01*
X61249292Y-116902158D01*
X61261629Y-116861807D01*
X61281568Y-116824620D01*
X61308351Y-116792016D01*
X61308739Y-116791627D01*
X61308749Y-116791616D01*
X61714810Y-116385555D01*
X61716615Y-116383775D01*
X61716615Y-116383774D01*
X61716980Y-116383415D01*
X61749956Y-116357090D01*
X61787417Y-116337673D01*
X61827937Y-116325901D01*
X61869971Y-116322224D01*
X61911919Y-116326781D01*
X61952183Y-116339399D01*
X61989230Y-116359596D01*
X61989238Y-116359603D01*
X61989240Y-116359604D01*
X62021645Y-116386604D01*
X62021645Y-116386605D01*
X62021647Y-116386606D01*
X62026575Y-116392692D01*
X62048197Y-116419391D01*
X62048200Y-116419396D01*
X62048201Y-116419398D01*
X62067881Y-116456722D01*
X62079936Y-116497159D01*
X62083906Y-116539166D01*
X62083906Y-116539166D01*
G37*
G36*
X62374600Y-121112200D02*
X61822200Y-121112200D01*
X61822200Y-120359800D01*
X62374600Y-120359800D01*
X62374600Y-121112200D01*
X62374600Y-121112200D01*
G37*
G36*
X62437448Y-115568298D02*
X62432891Y-115610246D01*
X62420273Y-115650510D01*
X62400076Y-115687557D01*
X62400068Y-115687565D01*
X62400068Y-115687567D01*
X62373068Y-115719972D01*
X62373066Y-115719972D01*
X62373066Y-115719974D01*
X62366979Y-115724902D01*
X62340281Y-115746524D01*
X62340275Y-115746527D01*
X62340274Y-115746528D01*
X62302950Y-115766208D01*
X62262513Y-115778263D01*
X62220506Y-115782233D01*
X62178526Y-115777969D01*
X62138175Y-115765632D01*
X62100989Y-115745693D01*
X62068384Y-115718911D01*
X62067989Y-115718516D01*
X62067984Y-115718512D01*
X61661923Y-115312451D01*
X61660143Y-115310646D01*
X61660138Y-115310640D01*
X61659784Y-115310281D01*
X61633459Y-115277305D01*
X61614042Y-115239844D01*
X61602269Y-115199325D01*
X61598592Y-115157290D01*
X61603149Y-115115342D01*
X61615767Y-115075078D01*
X61635965Y-115038031D01*
X61635969Y-115038025D01*
X61635972Y-115038021D01*
X61662972Y-115005616D01*
X61662973Y-115005615D01*
X61662974Y-115005614D01*
X61669060Y-115000685D01*
X61695759Y-114979064D01*
X61695764Y-114979060D01*
X61695766Y-114979060D01*
X61733091Y-114959381D01*
X61773527Y-114947326D01*
X61815534Y-114943355D01*
X61857514Y-114947619D01*
X61897865Y-114959956D01*
X61935052Y-114979895D01*
X61967656Y-115006678D01*
X61968044Y-115007066D01*
X61968056Y-115007076D01*
X62374117Y-115413137D01*
X62374137Y-115413158D01*
X62375897Y-115414942D01*
X62376257Y-115415307D01*
X62402582Y-115448283D01*
X62421999Y-115485744D01*
X62433771Y-115526264D01*
X62437448Y-115568298D01*
X62437448Y-115568298D01*
G37*
G36*
X62437459Y-116892720D02*
X62433195Y-116934700D01*
X62420858Y-116975051D01*
X62400919Y-117012237D01*
X62374137Y-117044842D01*
X62373742Y-117045236D01*
X62373738Y-117045242D01*
X61967677Y-117451303D01*
X61967656Y-117451322D01*
X61965872Y-117453083D01*
X61965866Y-117453087D01*
X61965507Y-117453442D01*
X61932531Y-117479767D01*
X61895070Y-117499184D01*
X61854551Y-117510957D01*
X61812516Y-117514634D01*
X61770568Y-117510077D01*
X61730304Y-117497459D01*
X61693257Y-117477261D01*
X61693251Y-117477256D01*
X61693247Y-117477254D01*
X61660842Y-117450254D01*
X61660841Y-117450252D01*
X61660840Y-117450252D01*
X61655911Y-117444165D01*
X61634290Y-117417467D01*
X61634286Y-117417461D01*
X61634286Y-117417460D01*
X61614607Y-117380135D01*
X61602552Y-117339699D01*
X61598581Y-117297692D01*
X61602845Y-117255712D01*
X61615182Y-117215361D01*
X61635121Y-117178174D01*
X61661904Y-117145570D01*
X61662292Y-117145181D01*
X61662302Y-117145170D01*
X62068363Y-116739109D01*
X62070168Y-116737329D01*
X62070168Y-116737328D01*
X62070533Y-116736969D01*
X62103509Y-116710644D01*
X62140970Y-116691227D01*
X62181490Y-116679455D01*
X62223524Y-116675778D01*
X62265472Y-116680335D01*
X62305736Y-116692953D01*
X62342783Y-116713150D01*
X62342791Y-116713157D01*
X62342793Y-116713158D01*
X62375198Y-116740158D01*
X62375198Y-116740159D01*
X62375200Y-116740160D01*
X62380128Y-116746246D01*
X62401750Y-116772945D01*
X62401753Y-116772950D01*
X62401754Y-116772952D01*
X62421434Y-116810276D01*
X62433489Y-116850713D01*
X62437459Y-116892720D01*
X62437459Y-116892720D01*
G37*
G36*
X62459200Y-109066200D02*
X61906800Y-109066200D01*
X61906800Y-108113800D01*
X62459200Y-108113800D01*
X62459200Y-109066200D01*
X62459200Y-109066200D01*
G37*
G36*
X62459200Y-110716200D02*
X61906800Y-110716200D01*
X61906800Y-109763800D01*
X62459200Y-109763800D01*
X62459200Y-110716200D01*
X62459200Y-110716200D01*
G37*
G36*
X62781374Y-112726698D02*
X62776037Y-113108878D01*
X62776017Y-113108965D01*
X62776017Y-113108969D01*
X62701907Y-113435164D01*
X62701906Y-113435166D01*
X62675033Y-113495523D01*
X62565811Y-113740841D01*
X62565811Y-113740842D01*
X62372935Y-114014261D01*
X62372933Y-114014262D01*
X62372933Y-114014263D01*
X62130625Y-114245010D01*
X61848112Y-114424297D01*
X61848110Y-114424299D01*
X61536151Y-114545300D01*
X61536150Y-114545300D01*
X61536148Y-114545301D01*
X61206631Y-114603403D01*
X60872104Y-114596396D01*
X60872102Y-114596396D01*
X60545304Y-114524545D01*
X60545303Y-114524544D01*
X60294829Y-114415114D01*
X60238688Y-114390587D01*
X60238687Y-114390586D01*
X60238686Y-114390586D01*
X59963927Y-114199624D01*
X59963926Y-114199623D01*
X59731492Y-113958931D01*
X59731491Y-113958930D01*
X59550235Y-113677674D01*
X59550234Y-113677673D01*
X59427058Y-113366568D01*
X59366657Y-113037465D01*
X59366657Y-113037462D01*
X59368659Y-112894074D01*
X59371329Y-112702887D01*
X59440895Y-112375603D01*
X59572710Y-112068055D01*
X59761749Y-111791970D01*
X60000816Y-111557858D01*
X60148693Y-111461090D01*
X60280799Y-111374643D01*
X60280800Y-111374642D01*
X60280801Y-111374642D01*
X60435918Y-111311970D01*
X60591038Y-111249298D01*
X60919714Y-111186600D01*
X61254309Y-111188936D01*
X61582078Y-111256217D01*
X61582080Y-111256218D01*
X61890537Y-111385881D01*
X62002275Y-111461249D01*
X62167935Y-111572988D01*
X62167935Y-111572989D01*
X62403708Y-111810414D01*
X62403710Y-111810416D01*
X62496291Y-111949763D01*
X62588873Y-112089110D01*
X62588875Y-112089112D01*
X62699807Y-112358255D01*
X62716382Y-112398468D01*
X62716383Y-112398470D01*
X62756372Y-112600434D01*
X62781356Y-112726609D01*
X62781374Y-112726698D01*
X62781374Y-112726698D01*
G37*
G36*
X62791002Y-115214745D02*
X62786445Y-115256693D01*
X62773827Y-115296957D01*
X62753630Y-115334004D01*
X62753622Y-115334012D01*
X62753622Y-115334014D01*
X62726622Y-115366419D01*
X62726620Y-115366419D01*
X62726620Y-115366421D01*
X62720533Y-115371349D01*
X62693835Y-115392971D01*
X62693829Y-115392974D01*
X62693828Y-115392975D01*
X62656504Y-115412655D01*
X62616067Y-115424710D01*
X62574060Y-115428680D01*
X62532080Y-115424416D01*
X62491729Y-115412079D01*
X62454543Y-115392140D01*
X62421938Y-115365358D01*
X62421543Y-115364963D01*
X62421538Y-115364959D01*
X62015477Y-114958898D01*
X62013697Y-114957093D01*
X62013692Y-114957087D01*
X62013338Y-114956728D01*
X61987013Y-114923752D01*
X61967596Y-114886291D01*
X61955823Y-114845772D01*
X61952146Y-114803737D01*
X61956703Y-114761789D01*
X61969321Y-114721525D01*
X61989519Y-114684478D01*
X61989523Y-114684472D01*
X61989526Y-114684468D01*
X62016526Y-114652063D01*
X62016527Y-114652062D01*
X62016528Y-114652061D01*
X62022614Y-114647132D01*
X62049313Y-114625511D01*
X62049318Y-114625507D01*
X62049320Y-114625507D01*
X62086645Y-114605828D01*
X62127081Y-114593773D01*
X62169088Y-114589802D01*
X62211068Y-114594066D01*
X62251419Y-114606403D01*
X62288606Y-114626342D01*
X62321210Y-114653125D01*
X62321598Y-114653513D01*
X62321610Y-114653523D01*
X62727671Y-115059584D01*
X62727691Y-115059605D01*
X62729451Y-115061389D01*
X62729811Y-115061754D01*
X62756136Y-115094730D01*
X62775553Y-115132191D01*
X62787325Y-115172711D01*
X62791002Y-115214745D01*
X62791002Y-115214745D01*
G37*
G36*
X62791013Y-117246273D02*
X62786749Y-117288253D01*
X62774412Y-117328604D01*
X62754473Y-117365790D01*
X62727691Y-117398395D01*
X62727296Y-117398789D01*
X62727292Y-117398795D01*
X62321231Y-117804856D01*
X62321210Y-117804875D01*
X62319426Y-117806636D01*
X62319420Y-117806640D01*
X62319061Y-117806995D01*
X62286085Y-117833320D01*
X62248624Y-117852737D01*
X62208105Y-117864510D01*
X62166070Y-117868187D01*
X62124122Y-117863630D01*
X62083858Y-117851012D01*
X62046811Y-117830814D01*
X62046805Y-117830809D01*
X62046801Y-117830807D01*
X62014396Y-117803807D01*
X62014395Y-117803805D01*
X62014394Y-117803805D01*
X62009465Y-117797718D01*
X61987844Y-117771020D01*
X61987840Y-117771014D01*
X61987840Y-117771013D01*
X61968161Y-117733688D01*
X61956106Y-117693252D01*
X61952135Y-117651245D01*
X61956399Y-117609265D01*
X61968736Y-117568914D01*
X61988675Y-117531727D01*
X62015458Y-117499123D01*
X62015846Y-117498734D01*
X62015856Y-117498723D01*
X62421917Y-117092662D01*
X62423722Y-117090882D01*
X62423722Y-117090881D01*
X62424087Y-117090522D01*
X62457063Y-117064197D01*
X62494524Y-117044780D01*
X62535044Y-117033008D01*
X62577078Y-117029331D01*
X62619026Y-117033888D01*
X62659290Y-117046506D01*
X62696337Y-117066703D01*
X62696345Y-117066710D01*
X62696347Y-117066711D01*
X62728752Y-117093711D01*
X62728752Y-117093712D01*
X62728754Y-117093713D01*
X62733682Y-117099799D01*
X62755304Y-117126498D01*
X62755307Y-117126503D01*
X62755308Y-117126505D01*
X62774988Y-117163829D01*
X62787043Y-117204266D01*
X62791013Y-117246273D01*
X62791013Y-117246273D01*
G37*
G36*
X63144555Y-114861191D02*
X63139998Y-114903139D01*
X63127380Y-114943403D01*
X63107183Y-114980450D01*
X63107175Y-114980458D01*
X63107175Y-114980460D01*
X63080175Y-115012865D01*
X63080173Y-115012865D01*
X63080173Y-115012867D01*
X63074086Y-115017795D01*
X63047388Y-115039417D01*
X63047382Y-115039420D01*
X63047381Y-115039421D01*
X63010057Y-115059101D01*
X62969620Y-115071156D01*
X62927613Y-115075126D01*
X62885633Y-115070862D01*
X62845282Y-115058525D01*
X62808096Y-115038586D01*
X62775491Y-115011804D01*
X62775096Y-115011409D01*
X62775091Y-115011405D01*
X62369030Y-114605344D01*
X62367250Y-114603539D01*
X62367245Y-114603533D01*
X62366891Y-114603174D01*
X62340566Y-114570198D01*
X62321149Y-114532737D01*
X62309376Y-114492218D01*
X62305699Y-114450183D01*
X62310256Y-114408235D01*
X62322874Y-114367971D01*
X62343072Y-114330924D01*
X62343076Y-114330918D01*
X62343079Y-114330914D01*
X62370079Y-114298509D01*
X62370080Y-114298508D01*
X62370081Y-114298507D01*
X62376167Y-114293578D01*
X62402866Y-114271957D01*
X62402871Y-114271953D01*
X62402873Y-114271953D01*
X62440198Y-114252274D01*
X62480634Y-114240219D01*
X62522641Y-114236248D01*
X62564621Y-114240512D01*
X62604972Y-114252849D01*
X62642159Y-114272788D01*
X62674763Y-114299571D01*
X62675151Y-114299959D01*
X62675163Y-114299969D01*
X63081224Y-114706030D01*
X63081244Y-114706051D01*
X63083004Y-114707835D01*
X63083364Y-114708200D01*
X63109689Y-114741176D01*
X63129106Y-114778637D01*
X63140878Y-114819157D01*
X63144555Y-114861191D01*
X63144555Y-114861191D01*
G37*
G36*
X63144566Y-117599827D02*
X63140302Y-117641807D01*
X63127965Y-117682158D01*
X63108026Y-117719344D01*
X63081244Y-117751949D01*
X63080849Y-117752343D01*
X63080845Y-117752349D01*
X62674784Y-118158410D01*
X62674763Y-118158429D01*
X62672979Y-118160190D01*
X62672973Y-118160194D01*
X62672614Y-118160549D01*
X62639638Y-118186874D01*
X62602177Y-118206291D01*
X62561658Y-118218064D01*
X62519623Y-118221741D01*
X62477675Y-118217184D01*
X62437411Y-118204566D01*
X62400364Y-118184368D01*
X62400358Y-118184363D01*
X62400354Y-118184361D01*
X62367949Y-118157361D01*
X62367948Y-118157359D01*
X62367947Y-118157359D01*
X62363018Y-118151272D01*
X62341397Y-118124574D01*
X62341393Y-118124568D01*
X62341393Y-118124567D01*
X62321714Y-118087242D01*
X62309659Y-118046806D01*
X62305688Y-118004799D01*
X62309952Y-117962819D01*
X62322289Y-117922468D01*
X62342228Y-117885281D01*
X62369011Y-117852677D01*
X62369399Y-117852288D01*
X62369409Y-117852277D01*
X62775470Y-117446216D01*
X62777275Y-117444436D01*
X62777275Y-117444435D01*
X62777640Y-117444076D01*
X62810616Y-117417751D01*
X62848077Y-117398334D01*
X62888597Y-117386562D01*
X62930631Y-117382885D01*
X62972579Y-117387442D01*
X63012843Y-117400060D01*
X63049890Y-117420257D01*
X63049898Y-117420264D01*
X63049900Y-117420265D01*
X63082305Y-117447265D01*
X63082305Y-117447266D01*
X63082307Y-117447267D01*
X63087235Y-117453353D01*
X63108857Y-117480052D01*
X63108860Y-117480057D01*
X63108861Y-117480059D01*
X63128541Y-117517383D01*
X63140596Y-117557820D01*
X63144566Y-117599827D01*
X63144566Y-117599827D01*
G37*
G36*
X63274600Y-121112200D02*
X62722200Y-121112200D01*
X62722200Y-120359800D01*
X63274600Y-120359800D01*
X63274600Y-121112200D01*
X63274600Y-121112200D01*
G37*
G36*
X63341600Y-110316200D02*
X62589200Y-110316200D01*
X62589200Y-109763800D01*
X63341600Y-109763800D01*
X63341600Y-110316200D01*
X63341600Y-110316200D01*
G37*
G36*
X63341600Y-111216200D02*
X62589200Y-111216200D01*
X62589200Y-110663800D01*
X63341600Y-110663800D01*
X63341600Y-111216200D01*
X63341600Y-111216200D01*
G37*
G36*
X63498109Y-114507638D02*
X63493552Y-114549586D01*
X63480934Y-114589850D01*
X63460737Y-114626897D01*
X63460729Y-114626905D01*
X63460729Y-114626907D01*
X63433729Y-114659312D01*
X63433727Y-114659312D01*
X63433727Y-114659314D01*
X63427640Y-114664242D01*
X63400942Y-114685864D01*
X63400936Y-114685867D01*
X63400935Y-114685868D01*
X63363611Y-114705548D01*
X63323174Y-114717603D01*
X63281167Y-114721573D01*
X63239187Y-114717309D01*
X63198836Y-114704972D01*
X63161650Y-114685033D01*
X63129045Y-114658251D01*
X63128650Y-114657856D01*
X63128645Y-114657852D01*
X62722584Y-114251791D01*
X62720804Y-114249986D01*
X62720799Y-114249980D01*
X62720445Y-114249621D01*
X62694120Y-114216645D01*
X62674703Y-114179184D01*
X62662930Y-114138665D01*
X62659253Y-114096630D01*
X62663810Y-114054682D01*
X62676428Y-114014418D01*
X62696626Y-113977371D01*
X62696630Y-113977365D01*
X62696633Y-113977361D01*
X62723633Y-113944956D01*
X62723634Y-113944955D01*
X62723635Y-113944954D01*
X62729721Y-113940025D01*
X62756420Y-113918404D01*
X62756425Y-113918400D01*
X62756427Y-113918400D01*
X62793752Y-113898721D01*
X62834188Y-113886666D01*
X62876195Y-113882695D01*
X62918175Y-113886959D01*
X62958526Y-113899296D01*
X62995713Y-113919235D01*
X63028317Y-113946018D01*
X63028705Y-113946406D01*
X63028717Y-113946416D01*
X63434778Y-114352477D01*
X63434798Y-114352498D01*
X63436558Y-114354282D01*
X63436918Y-114354647D01*
X63463243Y-114387623D01*
X63482660Y-114425084D01*
X63494432Y-114465604D01*
X63498109Y-114507638D01*
X63498109Y-114507638D01*
G37*
G36*
X63498120Y-117953380D02*
X63493856Y-117995360D01*
X63481519Y-118035711D01*
X63461580Y-118072897D01*
X63434798Y-118105502D01*
X63434403Y-118105896D01*
X63434399Y-118105902D01*
X63028338Y-118511963D01*
X63028317Y-118511982D01*
X63026533Y-118513743D01*
X63026527Y-118513747D01*
X63026168Y-118514102D01*
X62993192Y-118540427D01*
X62955731Y-118559844D01*
X62915212Y-118571617D01*
X62873177Y-118575294D01*
X62831229Y-118570737D01*
X62790965Y-118558119D01*
X62753918Y-118537921D01*
X62753912Y-118537916D01*
X62753908Y-118537914D01*
X62721503Y-118510914D01*
X62721502Y-118510912D01*
X62721501Y-118510912D01*
X62716572Y-118504825D01*
X62694951Y-118478127D01*
X62694947Y-118478121D01*
X62694947Y-118478120D01*
X62675268Y-118440795D01*
X62663213Y-118400359D01*
X62659242Y-118358352D01*
X62663506Y-118316372D01*
X62675843Y-118276021D01*
X62695782Y-118238834D01*
X62722565Y-118206230D01*
X62722953Y-118205841D01*
X62722963Y-118205830D01*
X63129024Y-117799769D01*
X63130829Y-117797989D01*
X63130829Y-117797988D01*
X63131194Y-117797629D01*
X63164170Y-117771304D01*
X63201631Y-117751887D01*
X63242151Y-117740115D01*
X63284185Y-117736438D01*
X63326133Y-117740995D01*
X63366397Y-117753613D01*
X63403444Y-117773810D01*
X63403452Y-117773817D01*
X63403454Y-117773818D01*
X63435859Y-117800818D01*
X63435859Y-117800819D01*
X63435861Y-117800820D01*
X63440789Y-117806906D01*
X63462411Y-117833605D01*
X63462414Y-117833610D01*
X63462415Y-117833612D01*
X63482095Y-117870936D01*
X63494150Y-117911373D01*
X63498120Y-117953380D01*
X63498120Y-117953380D01*
G37*
G36*
X63851662Y-114154085D02*
X63847105Y-114196033D01*
X63834487Y-114236297D01*
X63814290Y-114273344D01*
X63814282Y-114273352D01*
X63814282Y-114273354D01*
X63787282Y-114305759D01*
X63787280Y-114305759D01*
X63787280Y-114305761D01*
X63781193Y-114310689D01*
X63754495Y-114332311D01*
X63754489Y-114332314D01*
X63754488Y-114332315D01*
X63717164Y-114351995D01*
X63676727Y-114364050D01*
X63634720Y-114368020D01*
X63592740Y-114363756D01*
X63552389Y-114351419D01*
X63515203Y-114331480D01*
X63482598Y-114304698D01*
X63482203Y-114304303D01*
X63482198Y-114304299D01*
X63076137Y-113898238D01*
X63074357Y-113896433D01*
X63074352Y-113896427D01*
X63073998Y-113896068D01*
X63047673Y-113863092D01*
X63028256Y-113825631D01*
X63016483Y-113785112D01*
X63012806Y-113743077D01*
X63017363Y-113701129D01*
X63029981Y-113660865D01*
X63050179Y-113623818D01*
X63050183Y-113623812D01*
X63050186Y-113623808D01*
X63077186Y-113591403D01*
X63077187Y-113591402D01*
X63077188Y-113591401D01*
X63083274Y-113586472D01*
X63109973Y-113564851D01*
X63109978Y-113564847D01*
X63109980Y-113564847D01*
X63147305Y-113545168D01*
X63187741Y-113533113D01*
X63229748Y-113529142D01*
X63271728Y-113533406D01*
X63312079Y-113545743D01*
X63349266Y-113565682D01*
X63381870Y-113592465D01*
X63382258Y-113592853D01*
X63382270Y-113592863D01*
X63788331Y-113998924D01*
X63788351Y-113998945D01*
X63790111Y-114000729D01*
X63790471Y-114001094D01*
X63816796Y-114034070D01*
X63836213Y-114071531D01*
X63847985Y-114112051D01*
X63851662Y-114154085D01*
X63851662Y-114154085D01*
G37*
G36*
X63851673Y-118306933D02*
X63847409Y-118348913D01*
X63835072Y-118389264D01*
X63815133Y-118426450D01*
X63788351Y-118459055D01*
X63787956Y-118459449D01*
X63787952Y-118459455D01*
X63381891Y-118865516D01*
X63381870Y-118865535D01*
X63380086Y-118867296D01*
X63380080Y-118867300D01*
X63379721Y-118867655D01*
X63346745Y-118893980D01*
X63309284Y-118913397D01*
X63268765Y-118925170D01*
X63226730Y-118928847D01*
X63184782Y-118924290D01*
X63144518Y-118911672D01*
X63107471Y-118891474D01*
X63107465Y-118891469D01*
X63107461Y-118891467D01*
X63075056Y-118864467D01*
X63075055Y-118864465D01*
X63075054Y-118864465D01*
X63070125Y-118858378D01*
X63048504Y-118831680D01*
X63048500Y-118831674D01*
X63048500Y-118831673D01*
X63028821Y-118794348D01*
X63016766Y-118753912D01*
X63012795Y-118711905D01*
X63017059Y-118669925D01*
X63029396Y-118629574D01*
X63049335Y-118592387D01*
X63076118Y-118559783D01*
X63076506Y-118559394D01*
X63076516Y-118559383D01*
X63482577Y-118153322D01*
X63484382Y-118151542D01*
X63484382Y-118151541D01*
X63484747Y-118151182D01*
X63517723Y-118124857D01*
X63555184Y-118105440D01*
X63595704Y-118093668D01*
X63637738Y-118089991D01*
X63679686Y-118094548D01*
X63719950Y-118107166D01*
X63756997Y-118127363D01*
X63757005Y-118127370D01*
X63757007Y-118127371D01*
X63789412Y-118154371D01*
X63789412Y-118154372D01*
X63789414Y-118154373D01*
X63794342Y-118160459D01*
X63815964Y-118187158D01*
X63815967Y-118187163D01*
X63815968Y-118187165D01*
X63835648Y-118224489D01*
X63847703Y-118264926D01*
X63851673Y-118306933D01*
X63851673Y-118306933D01*
G37*
G36*
X64205215Y-113800531D02*
X64200658Y-113842479D01*
X64188040Y-113882743D01*
X64167843Y-113919790D01*
X64167835Y-113919798D01*
X64167835Y-113919800D01*
X64140835Y-113952205D01*
X64140833Y-113952205D01*
X64140833Y-113952207D01*
X64134746Y-113957135D01*
X64108048Y-113978757D01*
X64108042Y-113978760D01*
X64108041Y-113978761D01*
X64070717Y-113998441D01*
X64030280Y-114010496D01*
X63988273Y-114014466D01*
X63946293Y-114010202D01*
X63905942Y-113997865D01*
X63868756Y-113977926D01*
X63836151Y-113951144D01*
X63835756Y-113950749D01*
X63835751Y-113950745D01*
X63429690Y-113544684D01*
X63427910Y-113542879D01*
X63427905Y-113542873D01*
X63427551Y-113542514D01*
X63401226Y-113509538D01*
X63381809Y-113472077D01*
X63370036Y-113431558D01*
X63366359Y-113389523D01*
X63370916Y-113347575D01*
X63383534Y-113307311D01*
X63403732Y-113270264D01*
X63403736Y-113270258D01*
X63403739Y-113270254D01*
X63430739Y-113237849D01*
X63430740Y-113237848D01*
X63430741Y-113237847D01*
X63436827Y-113232918D01*
X63463526Y-113211297D01*
X63463531Y-113211293D01*
X63463533Y-113211293D01*
X63500858Y-113191614D01*
X63541294Y-113179559D01*
X63583301Y-113175588D01*
X63625281Y-113179852D01*
X63665632Y-113192189D01*
X63702819Y-113212128D01*
X63735423Y-113238911D01*
X63735811Y-113239299D01*
X63735823Y-113239309D01*
X64141884Y-113645370D01*
X64141904Y-113645391D01*
X64143664Y-113647175D01*
X64144024Y-113647540D01*
X64170349Y-113680516D01*
X64189766Y-113717977D01*
X64201538Y-113758497D01*
X64205215Y-113800531D01*
X64205215Y-113800531D01*
G37*
G36*
X64205226Y-118660487D02*
X64200962Y-118702467D01*
X64188625Y-118742818D01*
X64168686Y-118780004D01*
X64141904Y-118812609D01*
X64141509Y-118813003D01*
X64141505Y-118813009D01*
X63735444Y-119219070D01*
X63735423Y-119219089D01*
X63733639Y-119220850D01*
X63733633Y-119220854D01*
X63733274Y-119221209D01*
X63700298Y-119247534D01*
X63662837Y-119266951D01*
X63622318Y-119278724D01*
X63580283Y-119282401D01*
X63538335Y-119277844D01*
X63498071Y-119265226D01*
X63461024Y-119245028D01*
X63461018Y-119245023D01*
X63461014Y-119245021D01*
X63428609Y-119218021D01*
X63428608Y-119218019D01*
X63428607Y-119218019D01*
X63423678Y-119211932D01*
X63402057Y-119185234D01*
X63402053Y-119185228D01*
X63402053Y-119185227D01*
X63382374Y-119147902D01*
X63370319Y-119107466D01*
X63366348Y-119065459D01*
X63370612Y-119023479D01*
X63382949Y-118983128D01*
X63402888Y-118945941D01*
X63429671Y-118913337D01*
X63430059Y-118912948D01*
X63430069Y-118912937D01*
X63836130Y-118506876D01*
X63837935Y-118505096D01*
X63837935Y-118505095D01*
X63838300Y-118504736D01*
X63871276Y-118478411D01*
X63908737Y-118458994D01*
X63949257Y-118447222D01*
X63991291Y-118443545D01*
X64033239Y-118448102D01*
X64073503Y-118460720D01*
X64110550Y-118480917D01*
X64110558Y-118480924D01*
X64110560Y-118480925D01*
X64142965Y-118507925D01*
X64142965Y-118507926D01*
X64142967Y-118507927D01*
X64147895Y-118514013D01*
X64169517Y-118540712D01*
X64169520Y-118540717D01*
X64169521Y-118540719D01*
X64189201Y-118578043D01*
X64201256Y-118618480D01*
X64205226Y-118660487D01*
X64205226Y-118660487D01*
G37*
G36*
X64558769Y-113446978D02*
X64554212Y-113488926D01*
X64541594Y-113529190D01*
X64521397Y-113566237D01*
X64521389Y-113566245D01*
X64521389Y-113566247D01*
X64494389Y-113598652D01*
X64494387Y-113598652D01*
X64494387Y-113598654D01*
X64488300Y-113603582D01*
X64461602Y-113625204D01*
X64461596Y-113625207D01*
X64461595Y-113625208D01*
X64424271Y-113644888D01*
X64383834Y-113656943D01*
X64341827Y-113660913D01*
X64299847Y-113656649D01*
X64259496Y-113644312D01*
X64222310Y-113624373D01*
X64189705Y-113597591D01*
X64189310Y-113597196D01*
X64189305Y-113597192D01*
X63783244Y-113191131D01*
X63781464Y-113189326D01*
X63781459Y-113189320D01*
X63781105Y-113188961D01*
X63754780Y-113155985D01*
X63735363Y-113118524D01*
X63723590Y-113078005D01*
X63719913Y-113035970D01*
X63724470Y-112994022D01*
X63737088Y-112953758D01*
X63757286Y-112916711D01*
X63757290Y-112916705D01*
X63757293Y-112916701D01*
X63784293Y-112884296D01*
X63784294Y-112884295D01*
X63784295Y-112884294D01*
X63790381Y-112879365D01*
X63817080Y-112857744D01*
X63817085Y-112857740D01*
X63817087Y-112857740D01*
X63854412Y-112838061D01*
X63894848Y-112826006D01*
X63936855Y-112822035D01*
X63978835Y-112826299D01*
X64019186Y-112838636D01*
X64056373Y-112858575D01*
X64088977Y-112885358D01*
X64089365Y-112885746D01*
X64089377Y-112885756D01*
X64495438Y-113291817D01*
X64495458Y-113291838D01*
X64497218Y-113293622D01*
X64497578Y-113293987D01*
X64523903Y-113326963D01*
X64543320Y-113364424D01*
X64555092Y-113404944D01*
X64558769Y-113446978D01*
X64558769Y-113446978D01*
G37*
G36*
X64558780Y-119014040D02*
X64554516Y-119056020D01*
X64542179Y-119096371D01*
X64522240Y-119133557D01*
X64495458Y-119166162D01*
X64495063Y-119166556D01*
X64495059Y-119166562D01*
X64088998Y-119572623D01*
X64088977Y-119572642D01*
X64087193Y-119574403D01*
X64087187Y-119574407D01*
X64086828Y-119574762D01*
X64053852Y-119601087D01*
X64016391Y-119620504D01*
X63975872Y-119632277D01*
X63933837Y-119635954D01*
X63891889Y-119631397D01*
X63851625Y-119618779D01*
X63814578Y-119598581D01*
X63814572Y-119598576D01*
X63814568Y-119598574D01*
X63782163Y-119571574D01*
X63782162Y-119571572D01*
X63782161Y-119571572D01*
X63777232Y-119565485D01*
X63755611Y-119538787D01*
X63755607Y-119538781D01*
X63755607Y-119538780D01*
X63735928Y-119501455D01*
X63723873Y-119461019D01*
X63719902Y-119419012D01*
X63724166Y-119377032D01*
X63736503Y-119336681D01*
X63756442Y-119299494D01*
X63783225Y-119266890D01*
X63783613Y-119266501D01*
X63783623Y-119266490D01*
X64189684Y-118860429D01*
X64191489Y-118858649D01*
X64191489Y-118858648D01*
X64191854Y-118858289D01*
X64224830Y-118831964D01*
X64262291Y-118812547D01*
X64302811Y-118800775D01*
X64344845Y-118797098D01*
X64386793Y-118801655D01*
X64427057Y-118814273D01*
X64464104Y-118834470D01*
X64464112Y-118834477D01*
X64464114Y-118834478D01*
X64496519Y-118861478D01*
X64496519Y-118861479D01*
X64496521Y-118861480D01*
X64501449Y-118867566D01*
X64523071Y-118894265D01*
X64523074Y-118894270D01*
X64523075Y-118894272D01*
X64542755Y-118931596D01*
X64554810Y-118972033D01*
X64558780Y-119014040D01*
X64558780Y-119014040D01*
G37*
G36*
X64912322Y-113093424D02*
X64907765Y-113135372D01*
X64895147Y-113175636D01*
X64874950Y-113212683D01*
X64874942Y-113212691D01*
X64874942Y-113212693D01*
X64847942Y-113245098D01*
X64847940Y-113245098D01*
X64847940Y-113245100D01*
X64841853Y-113250028D01*
X64815155Y-113271650D01*
X64815149Y-113271653D01*
X64815148Y-113271654D01*
X64777824Y-113291334D01*
X64737387Y-113303389D01*
X64695380Y-113307359D01*
X64653400Y-113303095D01*
X64613049Y-113290758D01*
X64575863Y-113270819D01*
X64543258Y-113244037D01*
X64542863Y-113243642D01*
X64542858Y-113243638D01*
X64136797Y-112837577D01*
X64135017Y-112835772D01*
X64135012Y-112835766D01*
X64134658Y-112835407D01*
X64108333Y-112802431D01*
X64088916Y-112764970D01*
X64077143Y-112724451D01*
X64073466Y-112682416D01*
X64078023Y-112640468D01*
X64090641Y-112600204D01*
X64110839Y-112563157D01*
X64110843Y-112563151D01*
X64110846Y-112563147D01*
X64137846Y-112530742D01*
X64137847Y-112530741D01*
X64137848Y-112530740D01*
X64143934Y-112525811D01*
X64170633Y-112504190D01*
X64170638Y-112504186D01*
X64170640Y-112504186D01*
X64207965Y-112484507D01*
X64248401Y-112472452D01*
X64290408Y-112468481D01*
X64332388Y-112472745D01*
X64372739Y-112485082D01*
X64409926Y-112505021D01*
X64442530Y-112531804D01*
X64442918Y-112532192D01*
X64442930Y-112532202D01*
X64848991Y-112938263D01*
X64849011Y-112938284D01*
X64850771Y-112940068D01*
X64851131Y-112940433D01*
X64877456Y-112973409D01*
X64896873Y-113010870D01*
X64908645Y-113051390D01*
X64912322Y-113093424D01*
X64912322Y-113093424D01*
G37*
G36*
X64912333Y-119367594D02*
X64908069Y-119409574D01*
X64895732Y-119449925D01*
X64875793Y-119487111D01*
X64849011Y-119519716D01*
X64848616Y-119520110D01*
X64848612Y-119520116D01*
X64442551Y-119926177D01*
X64442530Y-119926196D01*
X64440746Y-119927957D01*
X64440740Y-119927961D01*
X64440381Y-119928316D01*
X64407405Y-119954641D01*
X64369944Y-119974058D01*
X64329425Y-119985831D01*
X64287390Y-119989508D01*
X64245442Y-119984951D01*
X64205178Y-119972333D01*
X64168131Y-119952135D01*
X64168125Y-119952130D01*
X64168121Y-119952128D01*
X64135716Y-119925128D01*
X64135715Y-119925126D01*
X64135714Y-119925126D01*
X64130785Y-119919039D01*
X64109164Y-119892341D01*
X64109160Y-119892335D01*
X64109160Y-119892334D01*
X64089481Y-119855009D01*
X64077426Y-119814573D01*
X64073455Y-119772566D01*
X64077719Y-119730586D01*
X64090056Y-119690235D01*
X64109995Y-119653048D01*
X64136778Y-119620444D01*
X64137166Y-119620055D01*
X64137176Y-119620044D01*
X64543237Y-119213983D01*
X64545042Y-119212203D01*
X64545042Y-119212202D01*
X64545407Y-119211843D01*
X64578383Y-119185518D01*
X64615844Y-119166101D01*
X64656364Y-119154329D01*
X64698398Y-119150652D01*
X64740346Y-119155209D01*
X64780610Y-119167827D01*
X64817657Y-119188024D01*
X64817665Y-119188031D01*
X64817667Y-119188032D01*
X64850072Y-119215032D01*
X64850072Y-119215033D01*
X64850074Y-119215034D01*
X64855002Y-119221120D01*
X64876624Y-119247819D01*
X64876627Y-119247824D01*
X64876628Y-119247826D01*
X64896308Y-119285150D01*
X64908363Y-119325587D01*
X64912333Y-119367594D01*
X64912333Y-119367594D01*
G37*
G36*
X65265876Y-112739871D02*
X65261319Y-112781819D01*
X65248701Y-112822083D01*
X65228504Y-112859130D01*
X65228496Y-112859138D01*
X65228496Y-112859140D01*
X65201496Y-112891545D01*
X65201494Y-112891545D01*
X65201494Y-112891547D01*
X65195407Y-112896475D01*
X65168709Y-112918097D01*
X65168703Y-112918100D01*
X65168702Y-112918101D01*
X65131378Y-112937781D01*
X65090941Y-112949836D01*
X65048934Y-112953806D01*
X65006954Y-112949542D01*
X64966603Y-112937205D01*
X64929417Y-112917266D01*
X64896812Y-112890484D01*
X64896417Y-112890089D01*
X64896412Y-112890085D01*
X64490351Y-112484024D01*
X64488571Y-112482219D01*
X64488566Y-112482213D01*
X64488212Y-112481854D01*
X64461887Y-112448878D01*
X64442470Y-112411417D01*
X64430697Y-112370898D01*
X64427020Y-112328863D01*
X64431577Y-112286915D01*
X64444195Y-112246651D01*
X64464393Y-112209604D01*
X64464397Y-112209598D01*
X64464400Y-112209594D01*
X64491400Y-112177189D01*
X64491401Y-112177188D01*
X64491402Y-112177187D01*
X64497488Y-112172258D01*
X64524187Y-112150637D01*
X64524192Y-112150633D01*
X64524194Y-112150633D01*
X64561519Y-112130954D01*
X64601955Y-112118899D01*
X64643962Y-112114928D01*
X64685942Y-112119192D01*
X64726293Y-112131529D01*
X64763480Y-112151468D01*
X64796084Y-112178251D01*
X64796472Y-112178639D01*
X64796484Y-112178649D01*
X65202545Y-112584710D01*
X65202565Y-112584731D01*
X65204325Y-112586515D01*
X65204685Y-112586880D01*
X65231010Y-112619856D01*
X65250427Y-112657317D01*
X65262199Y-112697837D01*
X65265876Y-112739871D01*
X65265876Y-112739871D01*
G37*
G36*
X65265887Y-119721147D02*
X65261623Y-119763127D01*
X65249286Y-119803478D01*
X65229347Y-119840664D01*
X65202565Y-119873269D01*
X65202170Y-119873663D01*
X65202166Y-119873669D01*
X64796105Y-120279730D01*
X64796084Y-120279749D01*
X64794300Y-120281510D01*
X64794294Y-120281514D01*
X64793935Y-120281869D01*
X64760959Y-120308194D01*
X64723498Y-120327611D01*
X64682979Y-120339384D01*
X64640944Y-120343061D01*
X64598996Y-120338504D01*
X64558732Y-120325886D01*
X64521685Y-120305688D01*
X64521679Y-120305683D01*
X64521675Y-120305681D01*
X64489270Y-120278681D01*
X64489269Y-120278679D01*
X64489268Y-120278679D01*
X64484339Y-120272592D01*
X64462718Y-120245894D01*
X64462714Y-120245888D01*
X64462714Y-120245887D01*
X64443035Y-120208562D01*
X64430980Y-120168126D01*
X64427009Y-120126119D01*
X64431273Y-120084139D01*
X64443610Y-120043788D01*
X64463549Y-120006601D01*
X64490332Y-119973997D01*
X64490720Y-119973608D01*
X64490730Y-119973597D01*
X64896791Y-119567536D01*
X64898596Y-119565756D01*
X64898596Y-119565755D01*
X64898961Y-119565396D01*
X64931937Y-119539071D01*
X64969398Y-119519654D01*
X65009918Y-119507882D01*
X65051952Y-119504205D01*
X65093900Y-119508762D01*
X65134164Y-119521380D01*
X65171211Y-119541577D01*
X65171219Y-119541584D01*
X65171221Y-119541585D01*
X65203626Y-119568585D01*
X65203626Y-119568586D01*
X65203628Y-119568587D01*
X65208556Y-119574673D01*
X65230178Y-119601372D01*
X65230181Y-119601377D01*
X65230182Y-119601379D01*
X65249862Y-119638703D01*
X65261917Y-119679140D01*
X65265887Y-119721147D01*
X65265887Y-119721147D01*
G37*
G36*
X66291180Y-120129137D02*
X66286623Y-120171085D01*
X66274005Y-120211349D01*
X66253808Y-120248396D01*
X66253800Y-120248404D01*
X66253800Y-120248406D01*
X66226800Y-120280811D01*
X66226798Y-120280811D01*
X66226798Y-120280813D01*
X66220711Y-120285741D01*
X66194013Y-120307363D01*
X66194007Y-120307366D01*
X66194006Y-120307367D01*
X66156682Y-120327047D01*
X66116245Y-120339102D01*
X66074238Y-120343072D01*
X66032258Y-120338808D01*
X65991907Y-120326471D01*
X65954721Y-120306532D01*
X65922116Y-120279750D01*
X65921721Y-120279355D01*
X65921716Y-120279351D01*
X65515655Y-119873290D01*
X65513875Y-119871485D01*
X65513870Y-119871479D01*
X65513516Y-119871120D01*
X65487191Y-119838144D01*
X65467774Y-119800683D01*
X65456001Y-119760164D01*
X65452324Y-119718129D01*
X65456881Y-119676181D01*
X65469499Y-119635917D01*
X65489697Y-119598870D01*
X65489701Y-119598864D01*
X65489704Y-119598860D01*
X65516704Y-119566455D01*
X65516705Y-119566454D01*
X65516706Y-119566453D01*
X65522792Y-119561524D01*
X65549491Y-119539903D01*
X65549496Y-119539899D01*
X65549498Y-119539899D01*
X65586823Y-119520220D01*
X65627259Y-119508165D01*
X65669266Y-119504194D01*
X65711246Y-119508458D01*
X65751597Y-119520795D01*
X65788784Y-119540734D01*
X65821388Y-119567517D01*
X65821776Y-119567905D01*
X65821788Y-119567915D01*
X66227849Y-119973976D01*
X66227869Y-119973997D01*
X66229629Y-119975781D01*
X66229989Y-119976146D01*
X66256314Y-120009122D01*
X66275731Y-120046583D01*
X66287503Y-120087103D01*
X66291180Y-120129137D01*
X66291180Y-120129137D01*
G37*
G36*
X66291191Y-112331881D02*
X66286927Y-112373861D01*
X66274590Y-112414212D01*
X66254651Y-112451398D01*
X66227869Y-112484003D01*
X66227474Y-112484397D01*
X66227470Y-112484403D01*
X65821409Y-112890464D01*
X65821388Y-112890483D01*
X65819604Y-112892244D01*
X65819598Y-112892248D01*
X65819239Y-112892603D01*
X65786263Y-112918928D01*
X65748802Y-112938345D01*
X65708283Y-112950118D01*
X65666248Y-112953795D01*
X65624300Y-112949238D01*
X65584036Y-112936620D01*
X65546989Y-112916422D01*
X65546983Y-112916417D01*
X65546979Y-112916415D01*
X65514574Y-112889415D01*
X65514573Y-112889413D01*
X65514572Y-112889413D01*
X65509643Y-112883326D01*
X65488022Y-112856628D01*
X65488018Y-112856622D01*
X65488018Y-112856621D01*
X65468339Y-112819296D01*
X65456284Y-112778860D01*
X65452313Y-112736853D01*
X65456577Y-112694873D01*
X65468914Y-112654522D01*
X65488853Y-112617335D01*
X65515636Y-112584731D01*
X65516024Y-112584342D01*
X65516034Y-112584331D01*
X65922095Y-112178270D01*
X65923900Y-112176490D01*
X65923900Y-112176489D01*
X65924265Y-112176130D01*
X65957241Y-112149805D01*
X65994702Y-112130388D01*
X66035222Y-112118616D01*
X66077256Y-112114939D01*
X66119204Y-112119496D01*
X66159468Y-112132114D01*
X66196515Y-112152311D01*
X66196523Y-112152318D01*
X66196525Y-112152319D01*
X66228930Y-112179319D01*
X66228930Y-112179320D01*
X66228932Y-112179321D01*
X66233860Y-112185407D01*
X66255482Y-112212106D01*
X66255485Y-112212111D01*
X66255486Y-112212113D01*
X66275166Y-112249437D01*
X66287221Y-112289874D01*
X66291191Y-112331881D01*
X66291191Y-112331881D01*
G37*
G36*
X66308100Y-110614200D02*
X65755700Y-110614200D01*
X65755700Y-109861800D01*
X66308100Y-109861800D01*
X66308100Y-110614200D01*
X66308100Y-110614200D01*
G37*
G36*
X66324700Y-109550200D02*
X65772300Y-109550200D01*
X65772300Y-108797800D01*
X66324700Y-108797800D01*
X66324700Y-109550200D01*
X66324700Y-109550200D01*
G37*
G36*
X66644734Y-119775584D02*
X66640177Y-119817532D01*
X66627559Y-119857796D01*
X66607362Y-119894843D01*
X66607354Y-119894851D01*
X66607354Y-119894853D01*
X66580354Y-119927258D01*
X66580352Y-119927258D01*
X66580352Y-119927260D01*
X66574265Y-119932188D01*
X66547567Y-119953810D01*
X66547561Y-119953813D01*
X66547560Y-119953814D01*
X66510236Y-119973494D01*
X66469799Y-119985549D01*
X66427792Y-119989519D01*
X66385812Y-119985255D01*
X66345461Y-119972918D01*
X66308275Y-119952979D01*
X66275670Y-119926197D01*
X66275275Y-119925802D01*
X66275270Y-119925798D01*
X65869209Y-119519737D01*
X65867429Y-119517932D01*
X65867424Y-119517926D01*
X65867070Y-119517567D01*
X65840745Y-119484591D01*
X65821328Y-119447130D01*
X65809555Y-119406611D01*
X65805878Y-119364576D01*
X65810435Y-119322628D01*
X65823053Y-119282364D01*
X65843251Y-119245317D01*
X65843255Y-119245311D01*
X65843258Y-119245307D01*
X65870258Y-119212902D01*
X65870259Y-119212901D01*
X65870260Y-119212900D01*
X65876346Y-119207971D01*
X65903045Y-119186350D01*
X65903050Y-119186346D01*
X65903052Y-119186346D01*
X65940377Y-119166667D01*
X65980813Y-119154612D01*
X66022820Y-119150641D01*
X66064800Y-119154905D01*
X66105151Y-119167242D01*
X66142338Y-119187181D01*
X66174942Y-119213964D01*
X66175330Y-119214352D01*
X66175342Y-119214362D01*
X66581403Y-119620423D01*
X66581423Y-119620444D01*
X66583183Y-119622228D01*
X66583543Y-119622593D01*
X66609868Y-119655569D01*
X66629285Y-119693030D01*
X66641057Y-119733550D01*
X66644734Y-119775584D01*
X66644734Y-119775584D01*
G37*
G36*
X66644745Y-112685434D02*
X66640481Y-112727414D01*
X66628144Y-112767765D01*
X66608205Y-112804951D01*
X66581423Y-112837556D01*
X66581028Y-112837950D01*
X66581024Y-112837956D01*
X66174963Y-113244017D01*
X66174942Y-113244036D01*
X66173158Y-113245797D01*
X66173152Y-113245801D01*
X66172793Y-113246156D01*
X66139817Y-113272481D01*
X66102356Y-113291898D01*
X66061837Y-113303671D01*
X66019802Y-113307348D01*
X65977854Y-113302791D01*
X65937590Y-113290173D01*
X65900543Y-113269975D01*
X65900537Y-113269970D01*
X65900533Y-113269968D01*
X65868128Y-113242968D01*
X65868127Y-113242966D01*
X65868126Y-113242966D01*
X65863197Y-113236879D01*
X65841576Y-113210181D01*
X65841572Y-113210175D01*
X65841572Y-113210174D01*
X65821893Y-113172849D01*
X65809838Y-113132413D01*
X65805867Y-113090406D01*
X65810131Y-113048426D01*
X65822468Y-113008075D01*
X65842407Y-112970888D01*
X65869190Y-112938284D01*
X65869578Y-112937895D01*
X65869588Y-112937884D01*
X66275649Y-112531823D01*
X66277454Y-112530043D01*
X66277454Y-112530042D01*
X66277819Y-112529683D01*
X66310795Y-112503358D01*
X66348256Y-112483941D01*
X66388776Y-112472169D01*
X66430810Y-112468492D01*
X66472758Y-112473049D01*
X66513022Y-112485667D01*
X66550069Y-112505864D01*
X66550077Y-112505871D01*
X66550079Y-112505872D01*
X66582484Y-112532872D01*
X66582484Y-112532873D01*
X66582486Y-112532874D01*
X66587414Y-112538960D01*
X66609036Y-112565659D01*
X66609039Y-112565664D01*
X66609040Y-112565666D01*
X66628720Y-112602990D01*
X66640775Y-112643427D01*
X66644745Y-112685434D01*
X66644745Y-112685434D01*
G37*
G36*
X66998287Y-119422030D02*
X66993730Y-119463978D01*
X66981112Y-119504242D01*
X66960915Y-119541289D01*
X66960907Y-119541297D01*
X66960907Y-119541299D01*
X66933907Y-119573704D01*
X66933905Y-119573704D01*
X66933905Y-119573706D01*
X66927818Y-119578634D01*
X66901120Y-119600256D01*
X66901114Y-119600259D01*
X66901113Y-119600260D01*
X66863789Y-119619940D01*
X66823352Y-119631995D01*
X66781345Y-119635965D01*
X66739365Y-119631701D01*
X66699014Y-119619364D01*
X66661828Y-119599425D01*
X66629223Y-119572643D01*
X66628828Y-119572248D01*
X66628823Y-119572244D01*
X66222762Y-119166183D01*
X66220982Y-119164378D01*
X66220977Y-119164372D01*
X66220623Y-119164013D01*
X66194298Y-119131037D01*
X66174881Y-119093576D01*
X66163108Y-119053057D01*
X66159431Y-119011022D01*
X66163988Y-118969074D01*
X66176606Y-118928810D01*
X66196804Y-118891763D01*
X66196808Y-118891757D01*
X66196811Y-118891753D01*
X66223811Y-118859348D01*
X66223812Y-118859347D01*
X66223813Y-118859346D01*
X66229899Y-118854417D01*
X66256598Y-118832796D01*
X66256603Y-118832792D01*
X66256605Y-118832792D01*
X66293930Y-118813113D01*
X66334366Y-118801058D01*
X66376373Y-118797087D01*
X66418353Y-118801351D01*
X66458704Y-118813688D01*
X66495891Y-118833627D01*
X66528495Y-118860410D01*
X66528883Y-118860798D01*
X66528895Y-118860808D01*
X66934956Y-119266869D01*
X66934976Y-119266890D01*
X66936736Y-119268674D01*
X66937096Y-119269039D01*
X66963421Y-119302015D01*
X66982838Y-119339476D01*
X66994610Y-119379996D01*
X66998287Y-119422030D01*
X66998287Y-119422030D01*
G37*
G36*
X66998298Y-113038988D02*
X66994034Y-113080968D01*
X66981697Y-113121319D01*
X66961758Y-113158505D01*
X66934976Y-113191110D01*
X66934581Y-113191504D01*
X66934577Y-113191510D01*
X66528516Y-113597571D01*
X66528495Y-113597590D01*
X66526711Y-113599351D01*
X66526705Y-113599355D01*
X66526346Y-113599710D01*
X66493370Y-113626035D01*
X66455909Y-113645452D01*
X66415390Y-113657225D01*
X66373355Y-113660902D01*
X66331407Y-113656345D01*
X66291143Y-113643727D01*
X66254096Y-113623529D01*
X66254090Y-113623524D01*
X66254086Y-113623522D01*
X66221681Y-113596522D01*
X66221680Y-113596520D01*
X66221679Y-113596520D01*
X66216750Y-113590433D01*
X66195129Y-113563735D01*
X66195125Y-113563729D01*
X66195125Y-113563728D01*
X66175446Y-113526403D01*
X66163391Y-113485967D01*
X66159420Y-113443960D01*
X66163684Y-113401980D01*
X66176021Y-113361629D01*
X66195960Y-113324442D01*
X66222743Y-113291838D01*
X66223131Y-113291449D01*
X66223141Y-113291438D01*
X66629202Y-112885377D01*
X66631007Y-112883597D01*
X66631007Y-112883596D01*
X66631372Y-112883237D01*
X66664348Y-112856912D01*
X66701809Y-112837495D01*
X66742329Y-112825723D01*
X66784363Y-112822046D01*
X66826311Y-112826603D01*
X66866575Y-112839221D01*
X66903622Y-112859418D01*
X66903630Y-112859425D01*
X66903632Y-112859426D01*
X66936037Y-112886426D01*
X66936037Y-112886427D01*
X66936039Y-112886428D01*
X66940967Y-112892514D01*
X66962589Y-112919213D01*
X66962592Y-112919218D01*
X66962593Y-112919220D01*
X66982273Y-112956544D01*
X66994328Y-112996981D01*
X66998298Y-113038988D01*
X66998298Y-113038988D01*
G37*
G36*
X67208100Y-110614200D02*
X66655700Y-110614200D01*
X66655700Y-109861800D01*
X67208100Y-109861800D01*
X67208100Y-110614200D01*
X67208100Y-110614200D01*
G37*
G36*
X67224700Y-109550200D02*
X66672300Y-109550200D01*
X66672300Y-108797800D01*
X67224700Y-108797800D01*
X67224700Y-109550200D01*
X67224700Y-109550200D01*
G37*
G36*
X67230800Y-121046200D02*
X66478400Y-121046200D01*
X66478400Y-120393800D01*
X67230800Y-120393800D01*
X67230800Y-121046200D01*
X67230800Y-121046200D01*
G37*
G36*
X67351841Y-119068477D02*
X67347284Y-119110425D01*
X67334666Y-119150689D01*
X67314469Y-119187736D01*
X67314461Y-119187744D01*
X67314461Y-119187746D01*
X67287461Y-119220151D01*
X67287459Y-119220151D01*
X67287459Y-119220153D01*
X67281372Y-119225081D01*
X67254674Y-119246703D01*
X67254668Y-119246706D01*
X67254667Y-119246707D01*
X67217343Y-119266387D01*
X67176906Y-119278442D01*
X67134899Y-119282412D01*
X67092919Y-119278148D01*
X67052568Y-119265811D01*
X67015382Y-119245872D01*
X66982777Y-119219090D01*
X66982382Y-119218695D01*
X66982377Y-119218691D01*
X66576316Y-118812630D01*
X66574536Y-118810825D01*
X66574531Y-118810819D01*
X66574177Y-118810460D01*
X66547852Y-118777484D01*
X66528435Y-118740023D01*
X66516662Y-118699504D01*
X66512985Y-118657469D01*
X66517542Y-118615521D01*
X66530160Y-118575257D01*
X66550358Y-118538210D01*
X66550362Y-118538204D01*
X66550365Y-118538200D01*
X66577365Y-118505795D01*
X66577366Y-118505794D01*
X66577367Y-118505793D01*
X66583453Y-118500864D01*
X66610152Y-118479243D01*
X66610157Y-118479239D01*
X66610159Y-118479239D01*
X66647484Y-118459560D01*
X66687920Y-118447505D01*
X66729927Y-118443534D01*
X66771907Y-118447798D01*
X66812258Y-118460135D01*
X66849445Y-118480074D01*
X66882049Y-118506857D01*
X66882437Y-118507245D01*
X66882449Y-118507255D01*
X67288510Y-118913316D01*
X67288530Y-118913337D01*
X67290290Y-118915121D01*
X67290650Y-118915486D01*
X67316975Y-118948462D01*
X67336392Y-118985923D01*
X67348164Y-119026443D01*
X67351841Y-119068477D01*
X67351841Y-119068477D01*
G37*
G36*
X67351852Y-113392541D02*
X67347588Y-113434521D01*
X67335251Y-113474872D01*
X67315312Y-113512058D01*
X67288530Y-113544663D01*
X67288135Y-113545057D01*
X67288131Y-113545063D01*
X66882070Y-113951124D01*
X66882049Y-113951143D01*
X66880265Y-113952904D01*
X66880259Y-113952908D01*
X66879900Y-113953263D01*
X66846924Y-113979588D01*
X66809463Y-113999005D01*
X66768944Y-114010778D01*
X66726909Y-114014455D01*
X66684961Y-114009898D01*
X66644697Y-113997280D01*
X66607650Y-113977082D01*
X66607644Y-113977077D01*
X66607640Y-113977075D01*
X66575235Y-113950075D01*
X66575234Y-113950073D01*
X66575233Y-113950073D01*
X66570304Y-113943986D01*
X66548683Y-113917288D01*
X66548679Y-113917282D01*
X66548679Y-113917281D01*
X66529000Y-113879956D01*
X66516945Y-113839520D01*
X66512974Y-113797513D01*
X66517238Y-113755533D01*
X66529575Y-113715182D01*
X66549514Y-113677995D01*
X66576297Y-113645391D01*
X66576685Y-113645002D01*
X66576695Y-113644991D01*
X66982756Y-113238930D01*
X66984561Y-113237150D01*
X66984561Y-113237149D01*
X66984926Y-113236790D01*
X67017902Y-113210465D01*
X67055363Y-113191048D01*
X67095883Y-113179276D01*
X67137917Y-113175599D01*
X67179865Y-113180156D01*
X67220129Y-113192774D01*
X67257176Y-113212971D01*
X67257184Y-113212978D01*
X67257186Y-113212979D01*
X67289591Y-113239979D01*
X67289591Y-113239980D01*
X67289593Y-113239981D01*
X67294521Y-113246067D01*
X67316143Y-113272766D01*
X67316146Y-113272771D01*
X67316147Y-113272773D01*
X67335827Y-113310097D01*
X67347882Y-113350534D01*
X67351852Y-113392541D01*
X67351852Y-113392541D01*
G37*
G36*
X67705394Y-118714923D02*
X67700837Y-118756871D01*
X67688219Y-118797135D01*
X67668022Y-118834182D01*
X67668014Y-118834190D01*
X67668014Y-118834192D01*
X67641014Y-118866597D01*
X67641012Y-118866597D01*
X67641012Y-118866599D01*
X67634925Y-118871527D01*
X67608227Y-118893149D01*
X67608221Y-118893152D01*
X67608220Y-118893153D01*
X67570896Y-118912833D01*
X67530459Y-118924888D01*
X67488452Y-118928858D01*
X67446472Y-118924594D01*
X67406121Y-118912257D01*
X67368935Y-118892318D01*
X67336330Y-118865536D01*
X67335935Y-118865141D01*
X67335930Y-118865137D01*
X66929869Y-118459076D01*
X66928089Y-118457271D01*
X66928084Y-118457265D01*
X66927730Y-118456906D01*
X66901405Y-118423930D01*
X66881988Y-118386469D01*
X66870215Y-118345950D01*
X66866538Y-118303915D01*
X66871095Y-118261967D01*
X66883713Y-118221703D01*
X66903911Y-118184656D01*
X66903915Y-118184650D01*
X66903918Y-118184646D01*
X66930918Y-118152241D01*
X66930919Y-118152240D01*
X66930920Y-118152239D01*
X66937006Y-118147310D01*
X66963705Y-118125689D01*
X66963710Y-118125685D01*
X66963712Y-118125685D01*
X67001037Y-118106006D01*
X67041473Y-118093951D01*
X67083480Y-118089980D01*
X67125460Y-118094244D01*
X67165811Y-118106581D01*
X67202998Y-118126520D01*
X67235602Y-118153303D01*
X67235990Y-118153691D01*
X67236002Y-118153701D01*
X67642063Y-118559762D01*
X67642083Y-118559783D01*
X67643843Y-118561567D01*
X67644203Y-118561932D01*
X67670528Y-118594908D01*
X67689945Y-118632369D01*
X67701717Y-118672889D01*
X67705394Y-118714923D01*
X67705394Y-118714923D01*
G37*
G36*
X67705405Y-113746095D02*
X67701141Y-113788075D01*
X67688804Y-113828426D01*
X67668865Y-113865612D01*
X67642083Y-113898217D01*
X67641688Y-113898611D01*
X67641684Y-113898617D01*
X67235623Y-114304678D01*
X67235602Y-114304697D01*
X67233818Y-114306458D01*
X67233812Y-114306462D01*
X67233453Y-114306817D01*
X67200477Y-114333142D01*
X67163016Y-114352559D01*
X67122497Y-114364332D01*
X67080462Y-114368009D01*
X67038514Y-114363452D01*
X66998250Y-114350834D01*
X66961203Y-114330636D01*
X66961197Y-114330631D01*
X66961193Y-114330629D01*
X66928788Y-114303629D01*
X66928787Y-114303627D01*
X66928786Y-114303627D01*
X66923857Y-114297540D01*
X66902236Y-114270842D01*
X66902232Y-114270836D01*
X66902232Y-114270835D01*
X66882553Y-114233510D01*
X66870498Y-114193074D01*
X66866527Y-114151067D01*
X66870791Y-114109087D01*
X66883128Y-114068736D01*
X66903067Y-114031549D01*
X66929850Y-113998945D01*
X66930238Y-113998556D01*
X66930248Y-113998545D01*
X67336309Y-113592484D01*
X67338114Y-113590704D01*
X67338114Y-113590703D01*
X67338479Y-113590344D01*
X67371455Y-113564019D01*
X67408916Y-113544602D01*
X67449436Y-113532830D01*
X67491470Y-113529153D01*
X67533418Y-113533710D01*
X67573682Y-113546328D01*
X67610729Y-113566525D01*
X67610737Y-113566532D01*
X67610739Y-113566533D01*
X67643144Y-113593533D01*
X67643144Y-113593534D01*
X67643146Y-113593535D01*
X67648074Y-113599621D01*
X67669696Y-113626320D01*
X67669699Y-113626325D01*
X67669700Y-113626327D01*
X67689380Y-113663651D01*
X67701435Y-113704088D01*
X67705405Y-113746095D01*
X67705405Y-113746095D01*
G37*
G36*
X68058947Y-118361370D02*
X68054390Y-118403318D01*
X68041772Y-118443582D01*
X68021575Y-118480629D01*
X68021567Y-118480637D01*
X68021567Y-118480639D01*
X67994567Y-118513044D01*
X67994565Y-118513044D01*
X67994565Y-118513046D01*
X67988478Y-118517974D01*
X67961780Y-118539596D01*
X67961774Y-118539599D01*
X67961773Y-118539600D01*
X67924449Y-118559280D01*
X67884012Y-118571335D01*
X67842005Y-118575305D01*
X67800025Y-118571041D01*
X67759674Y-118558704D01*
X67722488Y-118538765D01*
X67689883Y-118511983D01*
X67689488Y-118511588D01*
X67689483Y-118511584D01*
X67283422Y-118105523D01*
X67281642Y-118103718D01*
X67281637Y-118103712D01*
X67281283Y-118103353D01*
X67254958Y-118070377D01*
X67235541Y-118032916D01*
X67223768Y-117992397D01*
X67220091Y-117950362D01*
X67224648Y-117908414D01*
X67237266Y-117868150D01*
X67257464Y-117831103D01*
X67257468Y-117831097D01*
X67257471Y-117831093D01*
X67284471Y-117798688D01*
X67284472Y-117798687D01*
X67284473Y-117798686D01*
X67290559Y-117793757D01*
X67317258Y-117772136D01*
X67317263Y-117772132D01*
X67317265Y-117772132D01*
X67354590Y-117752453D01*
X67395026Y-117740398D01*
X67437033Y-117736427D01*
X67479013Y-117740691D01*
X67519364Y-117753028D01*
X67556551Y-117772967D01*
X67589155Y-117799750D01*
X67589543Y-117800138D01*
X67589555Y-117800148D01*
X67995616Y-118206209D01*
X67995636Y-118206230D01*
X67997396Y-118208014D01*
X67997756Y-118208379D01*
X68024081Y-118241355D01*
X68043498Y-118278816D01*
X68055270Y-118319336D01*
X68058947Y-118361370D01*
X68058947Y-118361370D01*
G37*
G36*
X68058958Y-114099648D02*
X68054694Y-114141628D01*
X68042357Y-114181979D01*
X68022418Y-114219165D01*
X67995636Y-114251770D01*
X67995241Y-114252164D01*
X67995237Y-114252170D01*
X67589176Y-114658231D01*
X67589155Y-114658250D01*
X67587371Y-114660011D01*
X67587365Y-114660015D01*
X67587006Y-114660370D01*
X67554030Y-114686695D01*
X67516569Y-114706112D01*
X67476050Y-114717885D01*
X67434015Y-114721562D01*
X67392067Y-114717005D01*
X67351803Y-114704387D01*
X67314756Y-114684189D01*
X67314750Y-114684184D01*
X67314746Y-114684182D01*
X67282341Y-114657182D01*
X67282340Y-114657180D01*
X67282339Y-114657180D01*
X67277410Y-114651093D01*
X67255789Y-114624395D01*
X67255785Y-114624389D01*
X67255785Y-114624388D01*
X67236106Y-114587063D01*
X67224051Y-114546627D01*
X67220080Y-114504620D01*
X67224344Y-114462640D01*
X67236681Y-114422289D01*
X67256620Y-114385102D01*
X67283403Y-114352498D01*
X67283791Y-114352109D01*
X67283801Y-114352098D01*
X67689862Y-113946037D01*
X67691667Y-113944257D01*
X67691667Y-113944256D01*
X67692032Y-113943897D01*
X67725008Y-113917572D01*
X67762469Y-113898155D01*
X67802989Y-113886383D01*
X67845023Y-113882706D01*
X67886971Y-113887263D01*
X67927235Y-113899881D01*
X67964282Y-113920078D01*
X67964290Y-113920085D01*
X67964292Y-113920086D01*
X67996697Y-113947086D01*
X67996697Y-113947087D01*
X67996699Y-113947088D01*
X68001627Y-113953174D01*
X68023249Y-113979873D01*
X68023252Y-113979878D01*
X68023253Y-113979880D01*
X68042933Y-114017204D01*
X68054988Y-114057641D01*
X68058958Y-114099648D01*
X68058958Y-114099648D01*
G37*
G36*
X68224580Y-116229000D02*
X65359100Y-119094480D01*
X62493620Y-116229000D01*
X65359100Y-113363520D01*
X68224580Y-116229000D01*
X68224580Y-116229000D01*
G37*
G36*
X68330800Y-121046200D02*
X67578400Y-121046200D01*
X67578400Y-120393800D01*
X68330800Y-120393800D01*
X68330800Y-121046200D01*
X68330800Y-121046200D01*
G37*
G36*
X68412501Y-118007817D02*
X68407944Y-118049765D01*
X68395326Y-118090029D01*
X68375129Y-118127076D01*
X68375121Y-118127084D01*
X68375121Y-118127086D01*
X68348121Y-118159491D01*
X68348119Y-118159491D01*
X68348119Y-118159493D01*
X68342032Y-118164421D01*
X68315334Y-118186043D01*
X68315328Y-118186046D01*
X68315327Y-118186047D01*
X68278003Y-118205727D01*
X68237566Y-118217782D01*
X68195559Y-118221752D01*
X68153579Y-118217488D01*
X68113228Y-118205151D01*
X68076042Y-118185212D01*
X68043437Y-118158430D01*
X68043042Y-118158035D01*
X68043037Y-118158031D01*
X67636976Y-117751970D01*
X67635196Y-117750165D01*
X67635191Y-117750159D01*
X67634837Y-117749800D01*
X67608512Y-117716824D01*
X67589095Y-117679363D01*
X67577322Y-117638844D01*
X67573645Y-117596809D01*
X67578202Y-117554861D01*
X67590820Y-117514597D01*
X67611018Y-117477550D01*
X67611022Y-117477544D01*
X67611025Y-117477540D01*
X67638025Y-117445135D01*
X67638026Y-117445134D01*
X67638027Y-117445133D01*
X67644113Y-117440204D01*
X67670812Y-117418583D01*
X67670817Y-117418579D01*
X67670819Y-117418579D01*
X67708144Y-117398900D01*
X67748580Y-117386845D01*
X67790587Y-117382874D01*
X67832567Y-117387138D01*
X67872918Y-117399475D01*
X67910105Y-117419414D01*
X67942709Y-117446197D01*
X67943097Y-117446585D01*
X67943109Y-117446595D01*
X68349170Y-117852656D01*
X68349190Y-117852677D01*
X68350950Y-117854461D01*
X68351310Y-117854826D01*
X68377635Y-117887802D01*
X68397052Y-117925263D01*
X68408824Y-117965783D01*
X68412501Y-118007817D01*
X68412501Y-118007817D01*
G37*
G36*
X68412512Y-114453201D02*
X68408248Y-114495181D01*
X68395911Y-114535532D01*
X68375972Y-114572718D01*
X68349190Y-114605323D01*
X68348795Y-114605717D01*
X68348791Y-114605723D01*
X67942730Y-115011784D01*
X67942709Y-115011803D01*
X67940925Y-115013564D01*
X67940919Y-115013568D01*
X67940560Y-115013923D01*
X67907584Y-115040248D01*
X67870123Y-115059665D01*
X67829604Y-115071438D01*
X67787569Y-115075115D01*
X67745621Y-115070558D01*
X67705357Y-115057940D01*
X67668310Y-115037742D01*
X67668304Y-115037737D01*
X67668300Y-115037735D01*
X67635895Y-115010735D01*
X67635894Y-115010733D01*
X67635893Y-115010733D01*
X67630964Y-115004646D01*
X67609343Y-114977948D01*
X67609339Y-114977942D01*
X67609339Y-114977941D01*
X67589660Y-114940616D01*
X67577605Y-114900180D01*
X67573634Y-114858173D01*
X67577898Y-114816193D01*
X67590235Y-114775842D01*
X67610174Y-114738655D01*
X67636957Y-114706051D01*
X67637345Y-114705662D01*
X67637355Y-114705651D01*
X68043416Y-114299590D01*
X68045221Y-114297810D01*
X68045221Y-114297809D01*
X68045586Y-114297450D01*
X68078562Y-114271125D01*
X68116023Y-114251708D01*
X68156543Y-114239936D01*
X68198577Y-114236259D01*
X68240525Y-114240816D01*
X68280789Y-114253434D01*
X68317836Y-114273631D01*
X68317844Y-114273638D01*
X68317846Y-114273639D01*
X68350251Y-114300639D01*
X68350251Y-114300640D01*
X68350253Y-114300641D01*
X68355181Y-114306727D01*
X68376803Y-114333426D01*
X68376806Y-114333431D01*
X68376807Y-114333433D01*
X68396487Y-114370757D01*
X68408542Y-114411194D01*
X68412512Y-114453201D01*
X68412512Y-114453201D01*
G37*
G36*
X68628900Y-106511200D02*
X67726500Y-106511200D01*
X67726500Y-105558800D01*
X68628900Y-105558800D01*
X68628900Y-106511200D01*
X68628900Y-106511200D01*
G37*
G36*
X68628900Y-108011200D02*
X67726500Y-108011200D01*
X67726500Y-107058800D01*
X68628900Y-107058800D01*
X68628900Y-108011200D01*
X68628900Y-108011200D01*
G37*
G36*
X68766054Y-117654263D02*
X68761497Y-117696211D01*
X68748879Y-117736475D01*
X68728682Y-117773522D01*
X68728674Y-117773530D01*
X68728674Y-117773532D01*
X68701674Y-117805937D01*
X68701672Y-117805937D01*
X68701672Y-117805939D01*
X68695585Y-117810867D01*
X68668887Y-117832489D01*
X68668881Y-117832492D01*
X68668880Y-117832493D01*
X68631556Y-117852173D01*
X68591119Y-117864228D01*
X68549112Y-117868198D01*
X68507132Y-117863934D01*
X68466781Y-117851597D01*
X68429595Y-117831658D01*
X68396990Y-117804876D01*
X68396595Y-117804481D01*
X68396590Y-117804477D01*
X67990529Y-117398416D01*
X67988749Y-117396611D01*
X67988744Y-117396605D01*
X67988390Y-117396246D01*
X67962065Y-117363270D01*
X67942648Y-117325809D01*
X67930875Y-117285290D01*
X67927198Y-117243255D01*
X67931755Y-117201307D01*
X67944373Y-117161043D01*
X67964571Y-117123996D01*
X67964575Y-117123990D01*
X67964578Y-117123986D01*
X67991578Y-117091581D01*
X67991579Y-117091580D01*
X67991580Y-117091579D01*
X67997666Y-117086650D01*
X68024365Y-117065029D01*
X68024370Y-117065025D01*
X68024372Y-117065025D01*
X68061697Y-117045346D01*
X68102133Y-117033291D01*
X68144140Y-117029320D01*
X68186120Y-117033584D01*
X68226471Y-117045921D01*
X68263658Y-117065860D01*
X68296262Y-117092643D01*
X68296650Y-117093031D01*
X68296662Y-117093041D01*
X68702723Y-117499102D01*
X68702743Y-117499123D01*
X68704503Y-117500907D01*
X68704863Y-117501272D01*
X68731188Y-117534248D01*
X68750605Y-117571709D01*
X68762377Y-117612229D01*
X68766054Y-117654263D01*
X68766054Y-117654263D01*
G37*
G36*
X68766065Y-114806755D02*
X68761801Y-114848735D01*
X68749464Y-114889086D01*
X68729525Y-114926272D01*
X68702743Y-114958877D01*
X68702348Y-114959271D01*
X68702344Y-114959277D01*
X68296283Y-115365338D01*
X68296262Y-115365357D01*
X68294478Y-115367118D01*
X68294472Y-115367122D01*
X68294113Y-115367477D01*
X68261137Y-115393802D01*
X68223676Y-115413219D01*
X68183157Y-115424992D01*
X68141122Y-115428669D01*
X68099174Y-115424112D01*
X68058910Y-115411494D01*
X68021863Y-115391296D01*
X68021857Y-115391291D01*
X68021853Y-115391289D01*
X67989448Y-115364289D01*
X67989447Y-115364287D01*
X67989446Y-115364287D01*
X67984517Y-115358200D01*
X67962896Y-115331502D01*
X67962892Y-115331496D01*
X67962892Y-115331495D01*
X67943213Y-115294170D01*
X67931158Y-115253734D01*
X67927187Y-115211727D01*
X67931451Y-115169747D01*
X67943788Y-115129396D01*
X67963727Y-115092209D01*
X67990510Y-115059605D01*
X67990898Y-115059216D01*
X67990908Y-115059205D01*
X68396969Y-114653144D01*
X68398774Y-114651364D01*
X68398774Y-114651363D01*
X68399139Y-114651004D01*
X68432115Y-114624679D01*
X68469576Y-114605262D01*
X68510096Y-114593490D01*
X68552130Y-114589813D01*
X68594078Y-114594370D01*
X68634342Y-114606988D01*
X68671389Y-114627185D01*
X68671397Y-114627192D01*
X68671399Y-114627193D01*
X68703804Y-114654193D01*
X68703804Y-114654194D01*
X68703806Y-114654195D01*
X68708734Y-114660281D01*
X68730356Y-114686980D01*
X68730359Y-114686985D01*
X68730360Y-114686987D01*
X68750040Y-114724311D01*
X68762095Y-114764748D01*
X68766065Y-114806755D01*
X68766065Y-114806755D01*
G37*
G36*
X69119608Y-117300710D02*
X69115051Y-117342658D01*
X69102433Y-117382922D01*
X69082236Y-117419969D01*
X69082228Y-117419977D01*
X69082228Y-117419979D01*
X69055228Y-117452384D01*
X69055226Y-117452384D01*
X69055226Y-117452386D01*
X69049139Y-117457314D01*
X69022441Y-117478936D01*
X69022435Y-117478939D01*
X69022434Y-117478940D01*
X68985110Y-117498620D01*
X68944673Y-117510675D01*
X68902666Y-117514645D01*
X68860686Y-117510381D01*
X68820335Y-117498044D01*
X68783149Y-117478105D01*
X68750544Y-117451323D01*
X68750149Y-117450928D01*
X68750144Y-117450924D01*
X68344083Y-117044863D01*
X68342303Y-117043058D01*
X68342298Y-117043052D01*
X68341944Y-117042693D01*
X68315619Y-117009717D01*
X68296202Y-116972256D01*
X68284429Y-116931737D01*
X68280752Y-116889702D01*
X68285309Y-116847754D01*
X68297927Y-116807490D01*
X68318125Y-116770443D01*
X68318129Y-116770437D01*
X68318132Y-116770433D01*
X68345132Y-116738028D01*
X68345133Y-116738027D01*
X68345134Y-116738026D01*
X68351220Y-116733097D01*
X68377919Y-116711476D01*
X68377924Y-116711472D01*
X68377926Y-116711472D01*
X68415251Y-116691793D01*
X68455687Y-116679738D01*
X68497694Y-116675767D01*
X68539674Y-116680031D01*
X68580025Y-116692368D01*
X68617212Y-116712307D01*
X68649816Y-116739090D01*
X68650204Y-116739478D01*
X68650216Y-116739488D01*
X69056277Y-117145549D01*
X69056297Y-117145570D01*
X69058057Y-117147354D01*
X69058417Y-117147719D01*
X69084742Y-117180695D01*
X69104159Y-117218156D01*
X69115931Y-117258676D01*
X69119608Y-117300710D01*
X69119608Y-117300710D01*
G37*
G36*
X69119619Y-115160308D02*
X69115355Y-115202288D01*
X69103018Y-115242639D01*
X69083079Y-115279825D01*
X69056297Y-115312430D01*
X69055902Y-115312824D01*
X69055898Y-115312830D01*
X68649837Y-115718891D01*
X68649816Y-115718910D01*
X68648032Y-115720671D01*
X68648026Y-115720675D01*
X68647667Y-115721030D01*
X68614691Y-115747355D01*
X68577230Y-115766772D01*
X68536711Y-115778545D01*
X68494676Y-115782222D01*
X68452728Y-115777665D01*
X68412464Y-115765047D01*
X68375417Y-115744849D01*
X68375411Y-115744844D01*
X68375407Y-115744842D01*
X68343002Y-115717842D01*
X68343001Y-115717840D01*
X68343000Y-115717840D01*
X68338071Y-115711753D01*
X68316450Y-115685055D01*
X68316446Y-115685049D01*
X68316446Y-115685048D01*
X68296767Y-115647723D01*
X68284712Y-115607287D01*
X68280741Y-115565280D01*
X68285005Y-115523300D01*
X68297342Y-115482949D01*
X68317281Y-115445762D01*
X68344064Y-115413158D01*
X68344452Y-115412769D01*
X68344462Y-115412758D01*
X68750523Y-115006697D01*
X68752328Y-115004917D01*
X68752328Y-115004916D01*
X68752693Y-115004557D01*
X68785669Y-114978232D01*
X68823130Y-114958815D01*
X68863650Y-114947043D01*
X68905684Y-114943366D01*
X68947632Y-114947923D01*
X68987896Y-114960541D01*
X69024943Y-114980738D01*
X69024951Y-114980745D01*
X69024953Y-114980746D01*
X69057358Y-115007746D01*
X69057358Y-115007747D01*
X69057360Y-115007748D01*
X69062288Y-115013834D01*
X69083910Y-115040533D01*
X69083913Y-115040538D01*
X69083914Y-115040540D01*
X69103594Y-115077864D01*
X69115649Y-115118301D01*
X69119619Y-115160308D01*
X69119619Y-115160308D01*
G37*
G36*
X69473161Y-116947156D02*
X69468604Y-116989104D01*
X69455986Y-117029368D01*
X69435789Y-117066415D01*
X69435781Y-117066423D01*
X69435781Y-117066425D01*
X69408781Y-117098830D01*
X69408779Y-117098830D01*
X69408779Y-117098832D01*
X69402692Y-117103760D01*
X69375994Y-117125382D01*
X69375988Y-117125385D01*
X69375987Y-117125386D01*
X69338663Y-117145066D01*
X69298226Y-117157121D01*
X69256219Y-117161091D01*
X69214239Y-117156827D01*
X69173888Y-117144490D01*
X69136702Y-117124551D01*
X69104097Y-117097769D01*
X69103702Y-117097374D01*
X69103697Y-117097370D01*
X68697636Y-116691309D01*
X68695856Y-116689504D01*
X68695851Y-116689498D01*
X68695497Y-116689139D01*
X68669172Y-116656163D01*
X68649755Y-116618702D01*
X68637982Y-116578183D01*
X68634305Y-116536148D01*
X68638862Y-116494200D01*
X68651480Y-116453936D01*
X68671678Y-116416889D01*
X68671682Y-116416883D01*
X68671685Y-116416879D01*
X68698685Y-116384474D01*
X68698686Y-116384473D01*
X68698687Y-116384472D01*
X68704773Y-116379543D01*
X68731472Y-116357922D01*
X68731477Y-116357918D01*
X68731479Y-116357918D01*
X68768804Y-116338239D01*
X68809240Y-116326184D01*
X68851247Y-116322213D01*
X68893227Y-116326477D01*
X68933578Y-116338814D01*
X68970765Y-116358753D01*
X69003369Y-116385536D01*
X69003757Y-116385924D01*
X69003769Y-116385934D01*
X69409830Y-116791995D01*
X69409850Y-116792016D01*
X69411610Y-116793800D01*
X69411970Y-116794165D01*
X69438295Y-116827141D01*
X69457712Y-116864602D01*
X69469484Y-116905122D01*
X69473161Y-116947156D01*
X69473161Y-116947156D01*
G37*
G36*
X69473172Y-115513862D02*
X69468908Y-115555842D01*
X69456571Y-115596193D01*
X69436632Y-115633379D01*
X69409850Y-115665984D01*
X69409455Y-115666378D01*
X69409451Y-115666384D01*
X69003390Y-116072445D01*
X69003369Y-116072464D01*
X69001585Y-116074225D01*
X69001579Y-116074229D01*
X69001220Y-116074584D01*
X68968244Y-116100909D01*
X68930783Y-116120326D01*
X68890264Y-116132099D01*
X68848229Y-116135776D01*
X68806281Y-116131219D01*
X68766017Y-116118601D01*
X68728970Y-116098403D01*
X68728964Y-116098398D01*
X68728960Y-116098396D01*
X68696555Y-116071396D01*
X68696554Y-116071394D01*
X68696553Y-116071394D01*
X68691624Y-116065307D01*
X68670003Y-116038609D01*
X68669999Y-116038603D01*
X68669999Y-116038602D01*
X68650320Y-116001277D01*
X68638265Y-115960841D01*
X68634294Y-115918834D01*
X68638558Y-115876854D01*
X68650895Y-115836503D01*
X68670834Y-115799316D01*
X68697617Y-115766712D01*
X68698005Y-115766323D01*
X68698015Y-115766312D01*
X69104076Y-115360251D01*
X69105881Y-115358471D01*
X69105881Y-115358470D01*
X69106246Y-115358111D01*
X69139222Y-115331786D01*
X69176683Y-115312369D01*
X69217203Y-115300597D01*
X69259237Y-115296920D01*
X69301185Y-115301477D01*
X69341449Y-115314095D01*
X69378496Y-115334292D01*
X69378504Y-115334299D01*
X69378506Y-115334300D01*
X69410911Y-115361300D01*
X69410911Y-115361301D01*
X69410913Y-115361302D01*
X69415841Y-115367388D01*
X69437463Y-115394087D01*
X69437466Y-115394092D01*
X69437467Y-115394094D01*
X69457147Y-115431418D01*
X69469202Y-115471855D01*
X69473172Y-115513862D01*
X69473172Y-115513862D01*
G37*
G36*
X69583900Y-107221200D02*
X68931500Y-107221200D01*
X68931500Y-106468800D01*
X69583900Y-106468800D01*
X69583900Y-107221200D01*
X69583900Y-107221200D01*
G37*
G36*
X69583900Y-108321200D02*
X68931500Y-108321200D01*
X68931500Y-107568800D01*
X69583900Y-107568800D01*
X69583900Y-108321200D01*
X69583900Y-108321200D01*
G37*
G36*
X69593900Y-106441200D02*
X69041500Y-106441200D01*
X69041500Y-105688800D01*
X69593900Y-105688800D01*
X69593900Y-106441200D01*
X69593900Y-106441200D01*
G37*
G36*
X70462663Y-115280446D02*
X70001346Y-115741763D01*
X69469319Y-115209736D01*
X69930636Y-114748419D01*
X70462663Y-115280446D01*
X70462663Y-115280446D01*
G37*
G36*
X70483900Y-105591200D02*
X69731500Y-105591200D01*
X69731500Y-104938800D01*
X70483900Y-104938800D01*
X70483900Y-105591200D01*
X70483900Y-105591200D01*
G37*
G36*
X70493900Y-106441200D02*
X69941500Y-106441200D01*
X69941500Y-105688800D01*
X70493900Y-105688800D01*
X70493900Y-106441200D01*
X70493900Y-106441200D01*
G37*
G36*
X70802536Y-119767810D02*
X70799915Y-119955563D01*
X70799895Y-119955650D01*
X70799895Y-119955653D01*
X70781833Y-120035146D01*
X70763497Y-120115855D01*
X70763497Y-120115857D01*
X70722302Y-120208380D01*
X70696638Y-120266025D01*
X70696637Y-120266026D01*
X70601884Y-120400347D01*
X70601882Y-120400350D01*
X70482845Y-120513707D01*
X70344057Y-120601784D01*
X70344054Y-120601786D01*
X70190799Y-120661229D01*
X70190798Y-120661229D01*
X70190796Y-120661230D01*
X70028917Y-120689774D01*
X69864576Y-120686331D01*
X69864574Y-120686331D01*
X69704029Y-120651033D01*
X69704027Y-120651032D01*
X69553399Y-120585224D01*
X69553397Y-120585224D01*
X69418417Y-120491410D01*
X69418416Y-120491409D01*
X69304229Y-120373165D01*
X69215184Y-120234993D01*
X69215183Y-120234992D01*
X69154671Y-120082157D01*
X69124998Y-119920481D01*
X69124998Y-119920478D01*
X69127293Y-119756115D01*
X69127293Y-119756110D01*
X69127294Y-119756110D01*
X69161468Y-119595330D01*
X69161468Y-119595328D01*
X69161469Y-119595327D01*
X69226225Y-119444240D01*
X69319094Y-119308608D01*
X69434201Y-119195886D01*
X69436540Y-119193597D01*
X69574086Y-119103590D01*
X69726496Y-119042012D01*
X69887964Y-119011210D01*
X70052340Y-119012358D01*
X70213362Y-119045411D01*
X70364897Y-119109111D01*
X70501173Y-119201030D01*
X70501174Y-119201031D01*
X70539783Y-119239910D01*
X70617002Y-119317670D01*
X70617004Y-119317672D01*
X70662485Y-119386127D01*
X70707966Y-119454583D01*
X70707968Y-119454585D01*
X70770608Y-119606561D01*
X70770608Y-119606564D01*
X70802518Y-119767721D01*
X70802536Y-119767810D01*
X70802536Y-119767810D01*
G37*
G36*
X70941336Y-112812987D02*
X70938752Y-112998051D01*
X70938732Y-112998138D01*
X70938732Y-112998142D01*
X70902856Y-113156049D01*
X70902855Y-113156051D01*
X70836954Y-113304069D01*
X70836953Y-113304070D01*
X70743556Y-113436468D01*
X70743554Y-113436471D01*
X70626221Y-113548205D01*
X70489418Y-113635023D01*
X70489416Y-113635023D01*
X70489416Y-113635024D01*
X70338358Y-113693616D01*
X70338357Y-113693616D01*
X70178792Y-113721751D01*
X70178792Y-113721752D01*
X70023316Y-113718494D01*
X70016803Y-113718358D01*
X70016801Y-113718358D01*
X69937678Y-113700961D01*
X69858555Y-113683565D01*
X69858553Y-113683565D01*
X69710081Y-113618699D01*
X69710080Y-113618698D01*
X69643556Y-113572463D01*
X69577032Y-113526228D01*
X69577031Y-113526227D01*
X69573169Y-113522228D01*
X69464479Y-113409676D01*
X69407913Y-113321904D01*
X69376708Y-113273482D01*
X69376707Y-113273481D01*
X69340677Y-113182479D01*
X69317062Y-113122834D01*
X69313966Y-113105967D01*
X69287813Y-112963472D01*
X69290076Y-112801454D01*
X69323761Y-112642976D01*
X69387591Y-112494049D01*
X69479130Y-112360360D01*
X69479130Y-112360359D01*
X69479131Y-112360359D01*
X69537013Y-112303677D01*
X69594896Y-112246994D01*
X69730474Y-112158275D01*
X69844103Y-112112365D01*
X69880701Y-112097579D01*
X69979135Y-112078802D01*
X70039855Y-112067219D01*
X70039856Y-112067219D01*
X70039857Y-112067219D01*
X70201879Y-112068350D01*
X70360596Y-112100930D01*
X70360598Y-112100931D01*
X70381119Y-112109557D01*
X70509962Y-112163717D01*
X70590179Y-112217825D01*
X70644288Y-112254321D01*
X70756889Y-112367712D01*
X70758457Y-112369291D01*
X70758459Y-112369293D01*
X70848120Y-112504244D01*
X70848120Y-112504245D01*
X70848121Y-112504246D01*
X70909865Y-112654046D01*
X70909865Y-112654049D01*
X70941318Y-112812898D01*
X70941336Y-112812987D01*
X70941336Y-112812987D01*
G37*
G36*
X71240481Y-116058264D02*
X70779164Y-116519581D01*
X70247137Y-115987554D01*
X70708454Y-115526237D01*
X71240481Y-116058264D01*
X71240481Y-116058264D01*
G37*
G36*
X71583900Y-105591200D02*
X70831500Y-105591200D01*
X70831500Y-104938800D01*
X71583900Y-104938800D01*
X71583900Y-105591200D01*
X71583900Y-105591200D01*
G37*
G36*
X71784280Y-106519220D02*
X70631120Y-106519220D01*
X70631120Y-105665780D01*
X71784280Y-105665780D01*
X71784280Y-106519220D01*
X71784280Y-106519220D01*
G37*
G36*
X71784280Y-107471720D02*
X70631120Y-107471720D01*
X70631120Y-107263900D01*
X70630119Y-107258958D01*
X70627273Y-107254795D01*
X70623032Y-107252067D01*
X70618420Y-107251200D01*
X70613900Y-107251200D01*
X69861500Y-107251200D01*
X69861500Y-106698800D01*
X70613900Y-106698800D01*
X70618420Y-106698800D01*
X70623362Y-106697799D01*
X70627525Y-106694953D01*
X70630253Y-106690712D01*
X70631120Y-106686100D01*
X70631120Y-106618280D01*
X71784280Y-106618280D01*
X71784280Y-107471720D01*
X71784280Y-107471720D01*
G37*
G36*
X71784280Y-108424220D02*
X70631120Y-108424220D01*
X70631120Y-108163900D01*
X70630119Y-108158958D01*
X70627273Y-108154795D01*
X70623032Y-108152067D01*
X70618420Y-108151200D01*
X70613900Y-108151200D01*
X69861500Y-108151200D01*
X69861500Y-107598800D01*
X70613900Y-107598800D01*
X70618420Y-107598800D01*
X70623362Y-107597799D01*
X70627525Y-107594953D01*
X70630253Y-107590712D01*
X70631120Y-107586100D01*
X70631120Y-107570780D01*
X71784280Y-107570780D01*
X71784280Y-108424220D01*
X71784280Y-108424220D01*
G37*
G36*
X72262200Y-109443200D02*
X71709800Y-109443200D01*
X71709800Y-108690800D01*
X72262200Y-108690800D01*
X72262200Y-109443200D01*
X72262200Y-109443200D01*
G37*
G36*
X73162200Y-109443200D02*
X72609800Y-109443200D01*
X72609800Y-108690800D01*
X73162200Y-108690800D01*
X73162200Y-109443200D01*
X73162200Y-109443200D01*
G37*
G36*
X73342536Y-119767810D02*
X73339915Y-119955563D01*
X73339895Y-119955650D01*
X73339895Y-119955653D01*
X73321833Y-120035146D01*
X73303497Y-120115855D01*
X73303497Y-120115857D01*
X73262302Y-120208380D01*
X73236638Y-120266025D01*
X73236637Y-120266026D01*
X73141884Y-120400347D01*
X73141882Y-120400350D01*
X73022845Y-120513707D01*
X72884057Y-120601784D01*
X72884054Y-120601786D01*
X72730799Y-120661229D01*
X72730798Y-120661229D01*
X72730796Y-120661230D01*
X72568917Y-120689774D01*
X72404576Y-120686331D01*
X72404574Y-120686331D01*
X72244029Y-120651033D01*
X72244027Y-120651032D01*
X72093399Y-120585224D01*
X72093397Y-120585224D01*
X71958417Y-120491410D01*
X71958416Y-120491409D01*
X71844229Y-120373165D01*
X71755184Y-120234993D01*
X71755183Y-120234992D01*
X71694671Y-120082157D01*
X71664998Y-119920481D01*
X71664998Y-119920478D01*
X71667293Y-119756115D01*
X71667293Y-119756110D01*
X71667294Y-119756110D01*
X71701468Y-119595330D01*
X71701468Y-119595328D01*
X71701469Y-119595327D01*
X71766225Y-119444240D01*
X71859094Y-119308608D01*
X71974201Y-119195886D01*
X71976540Y-119193597D01*
X72114086Y-119103590D01*
X72266496Y-119042012D01*
X72427964Y-119011210D01*
X72592340Y-119012358D01*
X72753362Y-119045411D01*
X72904897Y-119109111D01*
X73041173Y-119201030D01*
X73041174Y-119201031D01*
X73079783Y-119239910D01*
X73157002Y-119317670D01*
X73157004Y-119317672D01*
X73202485Y-119386127D01*
X73247966Y-119454583D01*
X73247968Y-119454585D01*
X73310608Y-119606561D01*
X73310608Y-119606564D01*
X73342518Y-119767721D01*
X73342536Y-119767810D01*
X73342536Y-119767810D01*
G37*
G36*
X74681400Y-116380200D02*
X73779000Y-116380200D01*
X73779000Y-115427800D01*
X74681400Y-115427800D01*
X74681400Y-116380200D01*
X74681400Y-116380200D01*
G37*
G36*
X74681400Y-117880200D02*
X73779000Y-117880200D01*
X73779000Y-116927800D01*
X74681400Y-116927800D01*
X74681400Y-117880200D01*
X74681400Y-117880200D01*
G37*
G36*
X75153900Y-105951200D02*
X74401500Y-105951200D01*
X74401500Y-105298800D01*
X75153900Y-105298800D01*
X75153900Y-105951200D01*
X75153900Y-105951200D01*
G37*
G36*
X75248900Y-107191200D02*
X74346500Y-107191200D01*
X74336980Y-107191200D01*
X74332038Y-107192201D01*
X74327875Y-107195047D01*
X74325147Y-107199288D01*
X74324280Y-107203900D01*
X74324280Y-107471720D01*
X73171120Y-107471720D01*
X73171120Y-106618280D01*
X74324280Y-106618280D01*
X74333800Y-106618280D01*
X74338742Y-106617279D01*
X74342905Y-106614433D01*
X74345633Y-106610192D01*
X74346500Y-106605580D01*
X74346500Y-106531920D01*
X74345499Y-106526978D01*
X74342653Y-106522815D01*
X74338412Y-106520087D01*
X74333800Y-106519220D01*
X74324280Y-106519220D01*
X73171120Y-106519220D01*
X73171120Y-105665780D01*
X74324280Y-105665780D01*
X74324280Y-106226100D01*
X74325281Y-106231042D01*
X74328127Y-106235205D01*
X74332368Y-106237933D01*
X74336980Y-106238800D01*
X74346500Y-106238800D01*
X75248900Y-106238800D01*
X75248900Y-107191200D01*
X75248900Y-107191200D01*
G37*
G36*
X75248900Y-108691200D02*
X74346500Y-108691200D01*
X74346500Y-108436920D01*
X74345499Y-108431978D01*
X74342653Y-108427815D01*
X74338412Y-108425087D01*
X74333800Y-108424220D01*
X74324280Y-108424220D01*
X73171120Y-108424220D01*
X73171120Y-107570780D01*
X74324280Y-107570780D01*
X74324280Y-107726100D01*
X74325281Y-107731042D01*
X74328127Y-107735205D01*
X74332368Y-107737933D01*
X74336980Y-107738800D01*
X74346500Y-107738800D01*
X75248900Y-107738800D01*
X75248900Y-108691200D01*
X75248900Y-108691200D01*
G37*
G36*
X75637000Y-116082200D02*
X75084600Y-116082200D01*
X75084600Y-115329800D01*
X75637000Y-115329800D01*
X75637000Y-116082200D01*
X75637000Y-116082200D01*
G37*
G36*
X75666300Y-117040200D02*
X75013900Y-117040200D01*
X75013900Y-116287800D01*
X75666300Y-116287800D01*
X75666300Y-117040200D01*
X75666300Y-117040200D01*
G37*
G36*
X75666300Y-118140200D02*
X75013900Y-118140200D01*
X75013900Y-117387800D01*
X75666300Y-117387800D01*
X75666300Y-118140200D01*
X75666300Y-118140200D01*
G37*
G36*
X75882536Y-119767810D02*
X75879915Y-119955563D01*
X75879895Y-119955650D01*
X75879895Y-119955653D01*
X75861833Y-120035146D01*
X75843497Y-120115855D01*
X75843497Y-120115857D01*
X75802302Y-120208380D01*
X75776638Y-120266025D01*
X75776637Y-120266026D01*
X75681884Y-120400347D01*
X75681882Y-120400350D01*
X75562845Y-120513707D01*
X75424057Y-120601784D01*
X75424054Y-120601786D01*
X75270799Y-120661229D01*
X75270798Y-120661229D01*
X75270796Y-120661230D01*
X75108917Y-120689774D01*
X74944576Y-120686331D01*
X74944574Y-120686331D01*
X74784029Y-120651033D01*
X74784027Y-120651032D01*
X74633399Y-120585224D01*
X74633397Y-120585224D01*
X74498417Y-120491410D01*
X74498416Y-120491409D01*
X74384229Y-120373165D01*
X74295184Y-120234993D01*
X74295183Y-120234992D01*
X74234671Y-120082157D01*
X74204998Y-119920481D01*
X74204998Y-119920478D01*
X74207293Y-119756115D01*
X74207293Y-119756110D01*
X74207294Y-119756110D01*
X74241468Y-119595330D01*
X74241468Y-119595328D01*
X74241469Y-119595327D01*
X74306225Y-119444240D01*
X74399094Y-119308608D01*
X74514201Y-119195886D01*
X74516540Y-119193597D01*
X74654086Y-119103590D01*
X74806496Y-119042012D01*
X74967964Y-119011210D01*
X75132340Y-119012358D01*
X75293362Y-119045411D01*
X75444897Y-119109111D01*
X75581173Y-119201030D01*
X75581174Y-119201031D01*
X75619783Y-119239910D01*
X75697002Y-119317670D01*
X75697004Y-119317672D01*
X75742485Y-119386127D01*
X75787966Y-119454583D01*
X75787968Y-119454585D01*
X75850608Y-119606561D01*
X75850608Y-119606564D01*
X75882518Y-119767721D01*
X75882536Y-119767810D01*
X75882536Y-119767810D01*
G37*
G36*
X75941336Y-112812987D02*
X75938752Y-112998051D01*
X75938732Y-112998138D01*
X75938732Y-112998142D01*
X75902856Y-113156049D01*
X75902855Y-113156051D01*
X75836954Y-113304069D01*
X75836953Y-113304070D01*
X75743556Y-113436468D01*
X75743554Y-113436471D01*
X75626221Y-113548205D01*
X75489418Y-113635023D01*
X75489416Y-113635023D01*
X75489416Y-113635024D01*
X75338358Y-113693616D01*
X75338357Y-113693616D01*
X75178792Y-113721751D01*
X75178792Y-113721752D01*
X75023316Y-113718494D01*
X75016803Y-113718358D01*
X75016801Y-113718358D01*
X74937678Y-113700961D01*
X74858555Y-113683565D01*
X74858553Y-113683565D01*
X74710081Y-113618699D01*
X74710080Y-113618698D01*
X74643556Y-113572463D01*
X74577032Y-113526228D01*
X74577031Y-113526227D01*
X74573169Y-113522228D01*
X74464479Y-113409676D01*
X74407913Y-113321904D01*
X74376708Y-113273482D01*
X74376707Y-113273481D01*
X74340677Y-113182479D01*
X74317062Y-113122834D01*
X74313966Y-113105967D01*
X74287813Y-112963472D01*
X74290076Y-112801454D01*
X74323761Y-112642976D01*
X74387591Y-112494049D01*
X74479130Y-112360360D01*
X74479130Y-112360359D01*
X74479131Y-112360359D01*
X74537013Y-112303677D01*
X74594896Y-112246994D01*
X74730474Y-112158275D01*
X74844103Y-112112365D01*
X74880701Y-112097579D01*
X74979135Y-112078802D01*
X75039855Y-112067219D01*
X75039856Y-112067219D01*
X75039857Y-112067219D01*
X75201879Y-112068350D01*
X75360596Y-112100930D01*
X75360598Y-112100931D01*
X75381119Y-112109557D01*
X75509962Y-112163717D01*
X75590179Y-112217825D01*
X75644288Y-112254321D01*
X75756889Y-112367712D01*
X75758457Y-112369291D01*
X75758459Y-112369293D01*
X75848120Y-112504244D01*
X75848120Y-112504245D01*
X75848121Y-112504246D01*
X75909865Y-112654046D01*
X75909865Y-112654049D01*
X75941318Y-112812898D01*
X75941336Y-112812987D01*
X75941336Y-112812987D01*
G37*
G36*
X76253900Y-105951200D02*
X75501500Y-105951200D01*
X75501500Y-105298800D01*
X76253900Y-105298800D01*
X76253900Y-105951200D01*
X76253900Y-105951200D01*
G37*
G36*
X76283900Y-107801200D02*
X75531500Y-107801200D01*
X75531500Y-107248800D01*
X76283900Y-107248800D01*
X76283900Y-107801200D01*
X76283900Y-107801200D01*
G37*
G36*
X76283900Y-108701200D02*
X75531500Y-108701200D01*
X75531500Y-108148800D01*
X76283900Y-108148800D01*
X76283900Y-108701200D01*
X76283900Y-108701200D01*
G37*
G36*
X76343900Y-107026200D02*
X75391500Y-107026200D01*
X75391500Y-106123800D01*
X76343900Y-106123800D01*
X76343900Y-107026200D01*
X76343900Y-107026200D01*
G37*
G36*
X76537000Y-116082200D02*
X75984600Y-116082200D01*
X75984600Y-115329800D01*
X76537000Y-115329800D01*
X76537000Y-116082200D01*
X76537000Y-116082200D01*
G37*
G36*
X76716300Y-117120200D02*
X75963900Y-117120200D01*
X75963900Y-116567800D01*
X76716300Y-116567800D01*
X76716300Y-117120200D01*
X76716300Y-117120200D01*
G37*
G36*
X76716300Y-118020200D02*
X75963900Y-118020200D01*
X75963900Y-117467800D01*
X76716300Y-117467800D01*
X76716300Y-118020200D01*
X76716300Y-118020200D01*
G37*
G36*
X76810700Y-115105200D02*
X76058300Y-115105200D01*
X76058300Y-114452800D01*
X76810700Y-114452800D01*
X76810700Y-115105200D01*
X76810700Y-115105200D01*
G37*
G36*
X77794090Y-108753210D02*
X76841590Y-108753210D01*
X76841590Y-107800710D01*
X77794090Y-107800710D01*
X77794090Y-108753210D01*
X77794090Y-108753210D01*
G37*
G36*
X77794090Y-110155290D02*
X76841590Y-110155290D01*
X76841590Y-109202790D01*
X77794090Y-109202790D01*
X77794090Y-110155290D01*
X77794090Y-110155290D01*
G37*
G36*
X77843900Y-107026200D02*
X76891500Y-107026200D01*
X76891500Y-106123800D01*
X77843900Y-106123800D01*
X77843900Y-107026200D01*
X77843900Y-107026200D01*
G37*
G36*
X77896680Y-116438220D02*
X76743520Y-116438220D01*
X76743520Y-115584780D01*
X77896680Y-115584780D01*
X77896680Y-116438220D01*
X77896680Y-116438220D01*
G37*
G36*
X77896680Y-117390720D02*
X76743520Y-117390720D01*
X76743520Y-116537280D01*
X77896680Y-116537280D01*
X77896680Y-117390720D01*
X77896680Y-117390720D01*
G37*
G36*
X77896680Y-118343220D02*
X76743520Y-118343220D01*
X76743520Y-117489780D01*
X77896680Y-117489780D01*
X77896680Y-118343220D01*
X77896680Y-118343220D01*
G37*
G36*
X77910700Y-115105200D02*
X77158300Y-115105200D01*
X77158300Y-114452800D01*
X77910700Y-114452800D01*
X77910700Y-115105200D01*
X77910700Y-115105200D01*
G37*
G36*
X78344800Y-110754200D02*
X77592400Y-110754200D01*
X77592400Y-110201800D01*
X78344800Y-110201800D01*
X78344800Y-110754200D01*
X78344800Y-110754200D01*
G37*
G36*
X78344800Y-111654200D02*
X77592400Y-111654200D01*
X77592400Y-111101800D01*
X78344800Y-111101800D01*
X78344800Y-111654200D01*
X78344800Y-111654200D01*
G37*
G36*
X78422536Y-119767810D02*
X78419915Y-119955563D01*
X78419895Y-119955650D01*
X78419895Y-119955653D01*
X78401833Y-120035146D01*
X78383497Y-120115855D01*
X78383497Y-120115857D01*
X78342302Y-120208380D01*
X78316638Y-120266025D01*
X78316637Y-120266026D01*
X78221884Y-120400347D01*
X78221882Y-120400350D01*
X78102845Y-120513707D01*
X77964057Y-120601784D01*
X77964054Y-120601786D01*
X77810799Y-120661229D01*
X77810798Y-120661229D01*
X77810796Y-120661230D01*
X77648917Y-120689774D01*
X77484576Y-120686331D01*
X77484574Y-120686331D01*
X77324029Y-120651033D01*
X77324027Y-120651032D01*
X77173399Y-120585224D01*
X77173397Y-120585224D01*
X77038417Y-120491410D01*
X77038416Y-120491409D01*
X76924229Y-120373165D01*
X76835184Y-120234993D01*
X76835183Y-120234992D01*
X76774671Y-120082157D01*
X76744998Y-119920481D01*
X76744998Y-119920478D01*
X76747293Y-119756115D01*
X76747293Y-119756110D01*
X76747294Y-119756110D01*
X76781468Y-119595330D01*
X76781468Y-119595328D01*
X76781469Y-119595327D01*
X76846225Y-119444240D01*
X76939094Y-119308608D01*
X77054201Y-119195886D01*
X77056540Y-119193597D01*
X77194086Y-119103590D01*
X77346496Y-119042012D01*
X77507964Y-119011210D01*
X77672340Y-119012358D01*
X77833362Y-119045411D01*
X77984897Y-119109111D01*
X78121173Y-119201030D01*
X78121174Y-119201031D01*
X78159783Y-119239910D01*
X78237002Y-119317670D01*
X78237004Y-119317672D01*
X78282485Y-119386127D01*
X78327966Y-119454583D01*
X78327968Y-119454585D01*
X78390608Y-119606561D01*
X78390608Y-119606564D01*
X78422518Y-119767721D01*
X78422536Y-119767810D01*
X78422536Y-119767810D01*
G37*
G36*
X78656300Y-115260200D02*
X78103900Y-115260200D01*
X78103900Y-114507800D01*
X78656300Y-114507800D01*
X78656300Y-115260200D01*
X78656300Y-115260200D01*
G37*
G36*
X79031000Y-113061200D02*
X78478600Y-113061200D01*
X78478600Y-112308800D01*
X79031000Y-112308800D01*
X79031000Y-113061200D01*
X79031000Y-113061200D01*
G37*
G36*
X79035700Y-114099200D02*
X78483300Y-114099200D01*
X78483300Y-113346800D01*
X79035700Y-113346800D01*
X79035700Y-114099200D01*
X79035700Y-114099200D01*
G37*
G36*
X79556300Y-115260200D02*
X79003900Y-115260200D01*
X79003900Y-114507800D01*
X79556300Y-114507800D01*
X79556300Y-115260200D01*
X79556300Y-115260200D01*
G37*
G36*
X79569800Y-111899200D02*
X78787400Y-111899200D01*
X78787400Y-110916800D01*
X79569800Y-110916800D01*
X79569800Y-111899200D01*
X79569800Y-111899200D01*
G37*
G36*
X79714800Y-110564200D02*
X79162400Y-110564200D01*
X79162400Y-109811800D01*
X79714800Y-109811800D01*
X79714800Y-110564200D01*
X79714800Y-110564200D01*
G37*
G36*
X79793070Y-109454250D02*
X78840570Y-109454250D01*
X78840570Y-108501750D01*
X79793070Y-108501750D01*
X79793070Y-109454250D01*
X79793070Y-109454250D01*
G37*
G36*
X79931000Y-113061200D02*
X79378600Y-113061200D01*
X79378600Y-112308800D01*
X79931000Y-112308800D01*
X79931000Y-113061200D01*
X79931000Y-113061200D01*
G37*
G36*
X79935700Y-114099200D02*
X79383300Y-114099200D01*
X79383300Y-113346800D01*
X79935700Y-113346800D01*
X79935700Y-114099200D01*
X79935700Y-114099200D01*
G37*
G36*
X80436680Y-116438220D02*
X79283520Y-116438220D01*
X79283520Y-115584780D01*
X80436680Y-115584780D01*
X80436680Y-116438220D01*
X80436680Y-116438220D01*
G37*
G36*
X80614800Y-110564200D02*
X80062400Y-110564200D01*
X80062400Y-109811800D01*
X80614800Y-109811800D01*
X80614800Y-110564200D01*
X80614800Y-110564200D01*
G37*
G36*
X80664800Y-108534200D02*
X79912400Y-108534200D01*
X79912400Y-107981800D01*
X80664800Y-107981800D01*
X80664800Y-108534200D01*
X80664800Y-108534200D01*
G37*
G36*
X80664800Y-109434200D02*
X79912400Y-109434200D01*
X79912400Y-108881800D01*
X80664800Y-108881800D01*
X80664800Y-109434200D01*
X80664800Y-109434200D01*
G37*
G36*
X80914100Y-105802200D02*
X79361700Y-105802200D01*
X79361700Y-104599800D01*
X80914100Y-104599800D01*
X80914100Y-105802200D01*
X80914100Y-105802200D01*
G37*
G36*
X80914100Y-107252200D02*
X79361700Y-107252200D01*
X79361700Y-106049800D01*
X80914100Y-106049800D01*
X80914100Y-107252200D01*
X80914100Y-107252200D01*
G37*
G36*
X80962500Y-120688200D02*
X79286100Y-120688200D01*
X79286100Y-119011800D01*
X80962500Y-119011800D01*
X80962500Y-120688200D01*
X80962500Y-120688200D01*
G37*
G36*
X81096300Y-117280200D02*
X80449380Y-117280200D01*
X80444438Y-117281201D01*
X80440275Y-117284047D01*
X80437547Y-117288288D01*
X80436680Y-117292900D01*
X80436680Y-117390720D01*
X79283520Y-117390720D01*
X79283520Y-116537280D01*
X80431200Y-116537280D01*
X80436142Y-116536279D01*
X80440305Y-116533433D01*
X80443033Y-116529192D01*
X80443295Y-116527800D01*
X80443900Y-116527800D01*
X81096300Y-116527800D01*
X81096300Y-117280200D01*
X81096300Y-117280200D01*
G37*
G36*
X81096300Y-118380200D02*
X80443900Y-118380200D01*
X80443900Y-118355920D01*
X80442899Y-118350978D01*
X80440053Y-118346815D01*
X80435812Y-118344087D01*
X80431200Y-118343220D01*
X79283520Y-118343220D01*
X79283520Y-117489780D01*
X80436680Y-117489780D01*
X80436680Y-117615100D01*
X80437681Y-117620042D01*
X80440527Y-117624205D01*
X80444768Y-117626933D01*
X80449380Y-117627800D01*
X81096300Y-117627800D01*
X81096300Y-118380200D01*
X81096300Y-118380200D01*
G37*
G36*
X81169800Y-111899200D02*
X80387400Y-111899200D01*
X80387400Y-110916800D01*
X81169800Y-110916800D01*
X81169800Y-111899200D01*
X81169800Y-111899200D01*
G37*
G36*
X81724800Y-108634200D02*
X81072400Y-108634200D01*
X81072400Y-107881800D01*
X81724800Y-107881800D01*
X81724800Y-108634200D01*
X81724800Y-108634200D01*
G37*
G36*
X81724800Y-109734200D02*
X81072400Y-109734200D01*
X81072400Y-108981800D01*
X81724800Y-108981800D01*
X81724800Y-109734200D01*
X81724800Y-109734200D01*
G37*
G36*
X81776700Y-113789200D02*
X81224300Y-113789200D01*
X81224300Y-113036800D01*
X81776700Y-113036800D01*
X81776700Y-113789200D01*
X81776700Y-113789200D01*
G37*
G36*
X82646700Y-111859200D02*
X81894300Y-111859200D01*
X81894300Y-111306800D01*
X82646700Y-111306800D01*
X82646700Y-111859200D01*
X82646700Y-111859200D01*
G37*
G36*
X82646700Y-112759200D02*
X81894300Y-112759200D01*
X81894300Y-112206800D01*
X82646700Y-112206800D01*
X82646700Y-112759200D01*
X82646700Y-112759200D01*
G37*
G36*
X82676700Y-113789200D02*
X82124300Y-113789200D01*
X82124300Y-113036800D01*
X82676700Y-113036800D01*
X82676700Y-113789200D01*
X82676700Y-113789200D01*
G37*
G36*
X82707300Y-109987200D02*
X82154900Y-109987200D01*
X82154900Y-109234800D01*
X82707300Y-109234800D01*
X82707300Y-109987200D01*
X82707300Y-109987200D01*
G37*
G36*
X82724900Y-109179200D02*
X82172500Y-109179200D01*
X82172500Y-108426800D01*
X82724900Y-108426800D01*
X82724900Y-109179200D01*
X82724900Y-109179200D01*
G37*
G36*
X82776700Y-119799200D02*
X82024300Y-119799200D01*
X82024300Y-119146800D01*
X82776700Y-119146800D01*
X82776700Y-119799200D01*
X82776700Y-119799200D01*
G37*
G36*
X83607300Y-109987200D02*
X83054900Y-109987200D01*
X83054900Y-109234800D01*
X83607300Y-109234800D01*
X83607300Y-109987200D01*
X83607300Y-109987200D01*
G37*
G36*
X83624900Y-109179200D02*
X83072500Y-109179200D01*
X83072500Y-108426800D01*
X83624900Y-108426800D01*
X83624900Y-109179200D01*
X83624900Y-109179200D01*
G37*
G36*
X83636700Y-112189200D02*
X83159300Y-112189200D01*
X83159300Y-111736800D01*
X83636700Y-111736800D01*
X83636700Y-112189200D01*
X83636700Y-112189200D01*
G37*
G36*
X83636700Y-112839200D02*
X83159300Y-112839200D01*
X83159300Y-112386800D01*
X83636700Y-112386800D01*
X83636700Y-112839200D01*
X83636700Y-112839200D01*
G37*
G36*
X83636700Y-113489200D02*
X83159300Y-113489200D01*
X83159300Y-113036800D01*
X83636700Y-113036800D01*
X83636700Y-113489200D01*
X83636700Y-113489200D01*
G37*
G36*
X83876700Y-119799200D02*
X83124300Y-119799200D01*
X83124300Y-119146800D01*
X83876700Y-119146800D01*
X83876700Y-119799200D01*
X83876700Y-119799200D01*
G37*
G36*
X84060500Y-117453000D02*
X83420500Y-117453000D01*
X83420500Y-117033000D01*
X84060500Y-117033000D01*
X84060500Y-117453000D01*
X84060500Y-117453000D01*
G37*
G36*
X84060500Y-117953000D02*
X83420500Y-117953000D01*
X83420500Y-117533000D01*
X84060500Y-117533000D01*
X84060500Y-117953000D01*
X84060500Y-117953000D01*
G37*
G36*
X84060500Y-118453000D02*
X83420500Y-118453000D01*
X83420500Y-118033000D01*
X84060500Y-118033000D01*
X84060500Y-118453000D01*
X84060500Y-118453000D01*
G37*
G36*
X84060500Y-118953000D02*
X83420500Y-118953000D01*
X83420500Y-118533000D01*
X84060500Y-118533000D01*
X84060500Y-118953000D01*
X84060500Y-118953000D01*
G37*
G36*
X84514100Y-105802200D02*
X82961700Y-105802200D01*
X82961700Y-104599800D01*
X84514100Y-104599800D01*
X84514100Y-105802200D01*
X84514100Y-105802200D01*
G37*
G36*
X84514100Y-107252200D02*
X82961700Y-107252200D01*
X82961700Y-106049800D01*
X84514100Y-106049800D01*
X84514100Y-107252200D01*
X84514100Y-107252200D01*
G37*
G36*
X84861700Y-112529200D02*
X83759300Y-112529200D01*
X83759300Y-111763800D01*
X84861700Y-111763800D01*
X84861700Y-112529200D01*
X84861700Y-112529200D01*
G37*
G36*
X84861700Y-113462200D02*
X83759300Y-113462200D01*
X83759300Y-112696800D01*
X84861700Y-112696800D01*
X84861700Y-113462200D01*
X84861700Y-113462200D01*
G37*
G36*
X84905710Y-111340010D02*
X83953210Y-111340010D01*
X83953210Y-110387510D01*
X84905710Y-110387510D01*
X84905710Y-111340010D01*
X84905710Y-111340010D01*
G37*
G36*
X84916700Y-119789200D02*
X84164300Y-119789200D01*
X84164300Y-119136800D01*
X84916700Y-119136800D01*
X84916700Y-119789200D01*
X84916700Y-119789200D01*
G37*
G36*
X85210500Y-118863000D02*
X84170500Y-118863000D01*
X84170500Y-117123000D01*
X85210500Y-117123000D01*
X85210500Y-118863000D01*
X85210500Y-118863000D01*
G37*
G36*
X85461700Y-112189200D02*
X84984300Y-112189200D01*
X84984300Y-111736800D01*
X85461700Y-111736800D01*
X85461700Y-112189200D01*
X85461700Y-112189200D01*
G37*
G36*
X85461700Y-112839200D02*
X84984300Y-112839200D01*
X84984300Y-112386800D01*
X85461700Y-112386800D01*
X85461700Y-112839200D01*
X85461700Y-112839200D01*
G37*
G36*
X85461700Y-113489200D02*
X84984300Y-113489200D01*
X84984300Y-113036800D01*
X85461700Y-113036800D01*
X85461700Y-113489200D01*
X85461700Y-113489200D01*
G37*
G36*
X85606750Y-109341030D02*
X84654250Y-109341030D01*
X84654250Y-108388530D01*
X85606750Y-108388530D01*
X85606750Y-109341030D01*
X85606750Y-109341030D01*
G37*
G36*
X85960500Y-117453000D02*
X85320500Y-117453000D01*
X85320500Y-117033000D01*
X85960500Y-117033000D01*
X85960500Y-117453000D01*
X85960500Y-117453000D01*
G37*
G36*
X85960500Y-117953000D02*
X85320500Y-117953000D01*
X85320500Y-117533000D01*
X85960500Y-117533000D01*
X85960500Y-117953000D01*
X85960500Y-117953000D01*
G37*
G36*
X85960500Y-118453000D02*
X85320500Y-118453000D01*
X85320500Y-118033000D01*
X85960500Y-118033000D01*
X85960500Y-118453000D01*
X85960500Y-118453000D01*
G37*
G36*
X85960500Y-118953000D02*
X85320500Y-118953000D01*
X85320500Y-118533000D01*
X85960500Y-118533000D01*
X85960500Y-118953000D01*
X85960500Y-118953000D01*
G37*
G36*
X86016700Y-119789200D02*
X85264300Y-119789200D01*
X85264300Y-119136800D01*
X86016700Y-119136800D01*
X86016700Y-119789200D01*
X86016700Y-119789200D01*
G37*
G36*
X86307790Y-111340010D02*
X85355290Y-111340010D01*
X85355290Y-110387510D01*
X86307790Y-110387510D01*
X86307790Y-111340010D01*
X86307790Y-111340010D01*
G37*
G36*
X88752700Y-106428285D02*
X88752597Y-106443020D01*
X88752594Y-106443534D01*
X88728833Y-106655366D01*
X88664380Y-106858548D01*
X88561689Y-107045342D01*
X88424672Y-107208632D01*
X88258549Y-107342199D01*
X88069645Y-107440955D01*
X87865158Y-107501139D01*
X87865149Y-107501139D01*
X87865149Y-107501140D01*
X87794666Y-107507554D01*
X87652875Y-107520458D01*
X87652873Y-107520457D01*
X87652871Y-107520458D01*
X87440896Y-107498179D01*
X87440892Y-107498178D01*
X87440883Y-107498177D01*
X87237255Y-107435144D01*
X87049750Y-107333760D01*
X86885507Y-107197886D01*
X86750783Y-107032699D01*
X86650711Y-106844490D01*
X86589101Y-106640428D01*
X86568300Y-106428285D01*
X86568300Y-106427729D01*
X86568300Y-106417743D01*
X86568300Y-106417715D01*
X86568406Y-106402466D01*
X86592167Y-106190634D01*
X86656620Y-105987452D01*
X86759311Y-105800658D01*
X86896328Y-105637368D01*
X87062451Y-105503801D01*
X87251355Y-105405045D01*
X87455842Y-105344861D01*
X87455850Y-105344860D01*
X87455851Y-105344860D01*
X87526333Y-105338445D01*
X87668125Y-105325542D01*
X87668126Y-105325542D01*
X87668129Y-105325542D01*
X87880104Y-105347821D01*
X87880107Y-105347821D01*
X87880117Y-105347823D01*
X88083745Y-105410856D01*
X88271250Y-105512240D01*
X88435493Y-105648114D01*
X88570217Y-105813301D01*
X88670289Y-106001510D01*
X88731899Y-106205572D01*
X88752700Y-106417715D01*
X88752700Y-106418271D01*
X88752700Y-106428257D01*
X88752700Y-106428285D01*
X88752700Y-106428285D01*
G37*
G36*
X88752700Y-110055200D02*
X86568300Y-110055200D01*
X86568300Y-107870800D01*
X88752700Y-107870800D01*
X88752700Y-110055200D01*
X88752700Y-110055200D01*
G37*
G36*
X88752700Y-116588285D02*
X88752597Y-116603020D01*
X88752594Y-116603534D01*
X88728833Y-116815366D01*
X88664380Y-117018548D01*
X88561689Y-117205342D01*
X88424672Y-117368632D01*
X88258549Y-117502199D01*
X88069645Y-117600955D01*
X87865158Y-117661139D01*
X87865149Y-117661139D01*
X87865149Y-117661140D01*
X87794666Y-117667554D01*
X87652875Y-117680458D01*
X87652873Y-117680457D01*
X87652871Y-117680458D01*
X87440896Y-117658179D01*
X87440892Y-117658178D01*
X87440883Y-117658177D01*
X87237255Y-117595144D01*
X87049750Y-117493760D01*
X86885507Y-117357886D01*
X86750783Y-117192699D01*
X86650711Y-117004490D01*
X86589101Y-116800428D01*
X86568300Y-116588285D01*
X86568300Y-116587729D01*
X86568300Y-116577743D01*
X86568300Y-116577715D01*
X86568406Y-116562466D01*
X86592167Y-116350634D01*
X86656620Y-116147452D01*
X86759311Y-115960658D01*
X86896328Y-115797368D01*
X87062451Y-115663801D01*
X87251355Y-115565045D01*
X87455842Y-115504861D01*
X87455850Y-115504860D01*
X87455851Y-115504860D01*
X87526333Y-115498445D01*
X87668125Y-115485542D01*
X87668126Y-115485542D01*
X87668129Y-115485542D01*
X87880104Y-115507821D01*
X87880107Y-115507821D01*
X87880117Y-115507823D01*
X88083745Y-115570856D01*
X88271250Y-115672240D01*
X88435493Y-115808114D01*
X88570217Y-115973301D01*
X88670289Y-116161510D01*
X88731899Y-116365572D01*
X88752700Y-116577715D01*
X88752700Y-116578271D01*
X88752700Y-116588257D01*
X88752700Y-116588285D01*
X88752700Y-116588285D01*
G37*
G36*
X88752700Y-120215200D02*
X86568300Y-120215200D01*
X86568300Y-118030800D01*
X88752700Y-118030800D01*
X88752700Y-120215200D01*
X88752700Y-120215200D01*
G37*
G36*
X88854300Y-112696800D02*
X86466700Y-112696800D01*
X86466700Y-110309200D01*
X88854300Y-110309200D01*
X88854300Y-112696800D01*
X88854300Y-112696800D01*
G37*
G36*
X88854300Y-115236800D02*
X86466700Y-115236800D01*
X86466700Y-112849200D01*
X88854300Y-112849200D01*
X88854300Y-115236800D01*
X88854300Y-115236800D01*
G37*
M02*
