G04 #@! TF.FileFunction,Legend,Bot*
%FSLAX46Y46*%
G04 Gerber Fmt 4.6, Leading zero omitted, Abs format (unit mm)*
G04 Created by KiCad (PCBNEW (2015-02-03 BZR 5404)-product) date Sat 07 Feb 2015 10:18:26 AM CST*
%MOMM*%
G01*
G04 APERTURE LIST*
%ADD10C,0.100000*%
%ADD11C,0.150000*%
%ADD12C,0.076200*%
G04 APERTURE END LIST*
D10*
D11*
X69097499Y-116121348D02*
X69451052Y-116474901D01*
X68779301Y-117146652D02*
X68425748Y-116793099D01*
X64751948Y-112736901D02*
X65105501Y-112383348D01*
X65777252Y-113055099D02*
X65423699Y-113408652D01*
X63280052Y-117885099D02*
X62926499Y-118238652D01*
X62254748Y-117566901D02*
X62608301Y-117213348D01*
X62227252Y-116846099D02*
X61873699Y-117199652D01*
X61201948Y-116527901D02*
X61555501Y-116174348D01*
X64340652Y-118938099D02*
X63987099Y-119291652D01*
X63315348Y-118619901D02*
X63668901Y-118266348D01*
X65088352Y-119672099D02*
X64734799Y-120025652D01*
X64063048Y-119353901D02*
X64416601Y-119000348D01*
X76734500Y-118961000D02*
X76234500Y-118961000D01*
X76234500Y-118011000D02*
X76734500Y-118011000D01*
X55716900Y-107416000D02*
X55716900Y-106916000D01*
X56666900Y-106916000D02*
X56666900Y-107416000D01*
X54225700Y-107402000D02*
X54225700Y-106902000D01*
X55175700Y-106902000D02*
X55175700Y-107402000D01*
X56679500Y-107419000D02*
X56679500Y-106919000D01*
X57629500Y-106919000D02*
X57629500Y-107419000D01*
X75677800Y-118117000D02*
X75177800Y-118117000D01*
X75177800Y-117067000D02*
X75677800Y-117067000D01*
D12*
X69504148Y-116190895D02*
X69504148Y-116211420D01*
X69524673Y-116252474D01*
X69545200Y-116273000D01*
X69586253Y-116293526D01*
X69627305Y-116293526D01*
X69658095Y-116283263D01*
X69709411Y-116252474D01*
X69740200Y-116221684D01*
X69770990Y-116170369D01*
X69781252Y-116139579D01*
X69781253Y-116098527D01*
X69760726Y-116057474D01*
X69740200Y-116036948D01*
X69699147Y-116016421D01*
X69678621Y-116016421D01*
X69278358Y-116006158D02*
X69401516Y-116129316D01*
X69339937Y-116067737D02*
X69555463Y-115852211D01*
X69545200Y-115903527D01*
X69545200Y-115944579D01*
X69555464Y-115975368D01*
X64781295Y-112309052D02*
X64801820Y-112309052D01*
X64842874Y-112288527D01*
X64863400Y-112268000D01*
X64883926Y-112226947D01*
X64883926Y-112185895D01*
X64873663Y-112155105D01*
X64842874Y-112103789D01*
X64812084Y-112073000D01*
X64760769Y-112042210D01*
X64729979Y-112031948D01*
X64688927Y-112031947D01*
X64647874Y-112052474D01*
X64627348Y-112073000D01*
X64606821Y-112114053D01*
X64606821Y-112134579D01*
X64524716Y-112216684D02*
X64504190Y-112216684D01*
X64473400Y-112226948D01*
X64422085Y-112278263D01*
X64411821Y-112309052D01*
X64411821Y-112329578D01*
X64422084Y-112360369D01*
X64442610Y-112380895D01*
X64483663Y-112401420D01*
X64729979Y-112401421D01*
X64596558Y-112534842D01*
X61936495Y-118709852D02*
X61957020Y-118709852D01*
X61998074Y-118689327D01*
X62018600Y-118668800D01*
X62039126Y-118627747D01*
X62039126Y-118586695D01*
X62028863Y-118555905D01*
X61998074Y-118504589D01*
X61967284Y-118473800D01*
X61915969Y-118443010D01*
X61885179Y-118432748D01*
X61844127Y-118432747D01*
X61803074Y-118453274D01*
X61782548Y-118473800D01*
X61762021Y-118514853D01*
X61762021Y-118535379D01*
X61628600Y-118771432D02*
X61772285Y-118915116D01*
X61597810Y-118638010D02*
X61803074Y-118740642D01*
X61669653Y-118874063D01*
X60844295Y-117693852D02*
X60864820Y-117693852D01*
X60905874Y-117673327D01*
X60926400Y-117652800D01*
X60946926Y-117611747D01*
X60946926Y-117570695D01*
X60936663Y-117539905D01*
X60905874Y-117488589D01*
X60875084Y-117457800D01*
X60823769Y-117427010D01*
X60792979Y-117416748D01*
X60751927Y-117416747D01*
X60710874Y-117437274D01*
X60690348Y-117457800D01*
X60669821Y-117498853D01*
X60669821Y-117519379D01*
X60454295Y-117693852D02*
X60556927Y-117591221D01*
X60669822Y-117683590D01*
X60649295Y-117683589D01*
X60618505Y-117693852D01*
X60567190Y-117745168D01*
X60556926Y-117775957D01*
X60556927Y-117796484D01*
X60567189Y-117827274D01*
X60618505Y-117878590D01*
X60649295Y-117888852D01*
X60669821Y-117888852D01*
X60700611Y-117878589D01*
X60751927Y-117827274D01*
X60762190Y-117796483D01*
X60762190Y-117775957D01*
X62977895Y-119802052D02*
X62998420Y-119802052D01*
X63039474Y-119781527D01*
X63060000Y-119761000D01*
X63080526Y-119719947D01*
X63080526Y-119678895D01*
X63070263Y-119648105D01*
X63039474Y-119596789D01*
X63008684Y-119566000D01*
X62957369Y-119535210D01*
X62926579Y-119524948D01*
X62885527Y-119524947D01*
X62844474Y-119545474D01*
X62823948Y-119566000D01*
X62803421Y-119607053D01*
X62803421Y-119627579D01*
X62598158Y-119791790D02*
X62639211Y-119750737D01*
X62670000Y-119740473D01*
X62690526Y-119740473D01*
X62741843Y-119750736D01*
X62793158Y-119781526D01*
X62875264Y-119863632D01*
X62885527Y-119894420D01*
X62885526Y-119914947D01*
X62875264Y-119945737D01*
X62834211Y-119986789D01*
X62803421Y-119997052D01*
X62782895Y-119997052D01*
X62752105Y-119986790D01*
X62700789Y-119935474D01*
X62690527Y-119904684D01*
X62690526Y-119884157D01*
X62700790Y-119853368D01*
X62741843Y-119812315D01*
X62772631Y-119802052D01*
X62793159Y-119802052D01*
X62823948Y-119812315D01*
X63714495Y-120538652D02*
X63735020Y-120538652D01*
X63776074Y-120518127D01*
X63796600Y-120497600D01*
X63817126Y-120456547D01*
X63817126Y-120415495D01*
X63806863Y-120384705D01*
X63776074Y-120333389D01*
X63745284Y-120302600D01*
X63693969Y-120271810D01*
X63663179Y-120261548D01*
X63622127Y-120261547D01*
X63581074Y-120282074D01*
X63560548Y-120302600D01*
X63540021Y-120343653D01*
X63540021Y-120364179D01*
X63447653Y-120415495D02*
X63303969Y-120559179D01*
X63611864Y-120682337D01*
X77901800Y-118041057D02*
X77916314Y-118055571D01*
X77959857Y-118070086D01*
X77988886Y-118070086D01*
X78032429Y-118055571D01*
X78061457Y-118026543D01*
X78075972Y-117997514D01*
X78090486Y-117939457D01*
X78090486Y-117895914D01*
X78075972Y-117837857D01*
X78061457Y-117808829D01*
X78032429Y-117779800D01*
X77988886Y-117765286D01*
X77959857Y-117765286D01*
X77916314Y-117779800D01*
X77901800Y-117794314D01*
X77756657Y-118070086D02*
X77698600Y-118070086D01*
X77669572Y-118055571D01*
X77655057Y-118041057D01*
X77626029Y-117997514D01*
X77611514Y-117939457D01*
X77611514Y-117823343D01*
X77626029Y-117794314D01*
X77640543Y-117779800D01*
X77669572Y-117765286D01*
X77727629Y-117765286D01*
X77756657Y-117779800D01*
X77771172Y-117794314D01*
X77785686Y-117823343D01*
X77785686Y-117895914D01*
X77771172Y-117924943D01*
X77756657Y-117939457D01*
X77727629Y-117953971D01*
X77669572Y-117953971D01*
X77640543Y-117939457D01*
X77626029Y-117924943D01*
X77611514Y-117895914D01*
X56395257Y-105417257D02*
X56409771Y-105402743D01*
X56424286Y-105359200D01*
X56424286Y-105330171D01*
X56409771Y-105286628D01*
X56380743Y-105257600D01*
X56351714Y-105243085D01*
X56293657Y-105228571D01*
X56250114Y-105228571D01*
X56192057Y-105243085D01*
X56163029Y-105257600D01*
X56134000Y-105286628D01*
X56119486Y-105330171D01*
X56119486Y-105359200D01*
X56134000Y-105402743D01*
X56148514Y-105417257D01*
X56424286Y-105707543D02*
X56424286Y-105533371D01*
X56424286Y-105620457D02*
X56119486Y-105620457D01*
X56163029Y-105591428D01*
X56192057Y-105562400D01*
X56206571Y-105533371D01*
X56221086Y-105968800D02*
X56424286Y-105968800D01*
X56104971Y-105896229D02*
X56322686Y-105823657D01*
X56322686Y-106012343D01*
X54160057Y-106255457D02*
X54174571Y-106240943D01*
X54189086Y-106197400D01*
X54189086Y-106168371D01*
X54174571Y-106124828D01*
X54145543Y-106095800D01*
X54116514Y-106081285D01*
X54058457Y-106066771D01*
X54014914Y-106066771D01*
X53956857Y-106081285D01*
X53927829Y-106095800D01*
X53898800Y-106124828D01*
X53884286Y-106168371D01*
X53884286Y-106197400D01*
X53898800Y-106240943D01*
X53913314Y-106255457D01*
X54189086Y-106545743D02*
X54189086Y-106371571D01*
X54189086Y-106458657D02*
X53884286Y-106458657D01*
X53927829Y-106429628D01*
X53956857Y-106400600D01*
X53971371Y-106371571D01*
X53884286Y-106821514D02*
X53884286Y-106676371D01*
X54029429Y-106661857D01*
X54014914Y-106676371D01*
X54000400Y-106705400D01*
X54000400Y-106777971D01*
X54014914Y-106807000D01*
X54029429Y-106821514D01*
X54058457Y-106836029D01*
X54131029Y-106836029D01*
X54160057Y-106821514D01*
X54174571Y-106807000D01*
X54189086Y-106777971D01*
X54189086Y-106705400D01*
X54174571Y-106676371D01*
X54160057Y-106661857D01*
X58097057Y-106484057D02*
X58111571Y-106469543D01*
X58126086Y-106426000D01*
X58126086Y-106396971D01*
X58111571Y-106353428D01*
X58082543Y-106324400D01*
X58053514Y-106309885D01*
X57995457Y-106295371D01*
X57951914Y-106295371D01*
X57893857Y-106309885D01*
X57864829Y-106324400D01*
X57835800Y-106353428D01*
X57821286Y-106396971D01*
X57821286Y-106426000D01*
X57835800Y-106469543D01*
X57850314Y-106484057D01*
X58126086Y-106774343D02*
X58126086Y-106600171D01*
X58126086Y-106687257D02*
X57821286Y-106687257D01*
X57864829Y-106658228D01*
X57893857Y-106629200D01*
X57908371Y-106600171D01*
X57821286Y-107035600D02*
X57821286Y-106977543D01*
X57835800Y-106948514D01*
X57850314Y-106934000D01*
X57893857Y-106904971D01*
X57951914Y-106890457D01*
X58068029Y-106890457D01*
X58097057Y-106904971D01*
X58111571Y-106919486D01*
X58126086Y-106948514D01*
X58126086Y-107006571D01*
X58111571Y-107035600D01*
X58097057Y-107050114D01*
X58068029Y-107064629D01*
X57995457Y-107064629D01*
X57966429Y-107050114D01*
X57951914Y-107035600D01*
X57937400Y-107006571D01*
X57937400Y-106948514D01*
X57951914Y-106919486D01*
X57966429Y-106904971D01*
X57995457Y-106890457D01*
X74345800Y-117689086D02*
X74447400Y-117543943D01*
X74519972Y-117689086D02*
X74519972Y-117384286D01*
X74403857Y-117384286D01*
X74374829Y-117398800D01*
X74360314Y-117413314D01*
X74345800Y-117442343D01*
X74345800Y-117485886D01*
X74360314Y-117514914D01*
X74374829Y-117529429D01*
X74403857Y-117543943D01*
X74519972Y-117543943D01*
X74244200Y-117384286D02*
X74055514Y-117384286D01*
X74157114Y-117500400D01*
X74113572Y-117500400D01*
X74084543Y-117514914D01*
X74070029Y-117529429D01*
X74055514Y-117558457D01*
X74055514Y-117631029D01*
X74070029Y-117660057D01*
X74084543Y-117674571D01*
X74113572Y-117689086D01*
X74200657Y-117689086D01*
X74229686Y-117674571D01*
X74244200Y-117660057D01*
M02*
